<?xml version="1.0" encoding="UTF-8"?>
<!-- Generator: visioncortex VTracer 0.6.3 -->
<svg version="1.1" xmlns="http://www.w3.org/2000/svg" width="1094" height="1280">
<path d="M0 0 C361.02 0 722.04 0 1094 0 C1094 422.4 1094 844.8 1094 1280 C732.98 1280 371.96 1280 0 1280 C0 857.6 0 435.2 0 0 Z " fill="#FBFBA9" transform="translate(0,0)"/>
<path d="M0 0 C29.61 -1.02 58.95 11.26 80.42 31.24 C88.02 38.52 95.24 45.73 100.02 55.21 C100.53 56.22 101.05 57.22 101.58 58.25 C110.12 75.8 114.56 94.35 116.71 113.65 C116.83 114.7 116.95 115.75 117.07 116.84 C119.15 137.27 119.17 157.9 119.14 178.41 C119.14 180.72 119.14 183.03 119.14 185.35 C119.14 191.62 119.14 197.88 119.14 204.15 C119.13 210.25 119.13 216.34 119.13 222.43 C119.13 234.87 119.13 247.31 119.13 259.75 C119.12 272.05 119.12 284.34 119.11 296.64 C119.11 297.41 119.11 298.18 119.11 298.97 C119.11 302.87 119.11 306.77 119.11 310.67 C119.11 338.21 119.1 365.75 119.09 393.3 C119.09 420.04 119.08 446.78 119.07 473.52 C119.07 474.76 119.07 474.76 119.07 476.02 C119.07 484.32 119.07 492.61 119.07 500.9 C119.07 517.8 119.06 534.69 119.06 551.58 C119.06 552.36 119.06 553.13 119.06 553.93 C119.05 605.69 119.04 657.45 119.02 709.21 C121.93 709.52 121.93 709.52 123.49 708.11 C124.27 707.33 124.27 707.33 125.06 706.53 C125.66 705.93 126.26 705.34 126.87 704.72 C127.52 704.06 128.17 703.4 128.84 702.72 C129.53 702.03 130.22 701.33 130.93 700.62 C133.22 698.33 135.5 696.02 137.78 693.71 C139.37 692.11 140.96 690.52 142.55 688.92 C146.75 684.7 150.95 680.47 155.14 676.25 C161.82 669.5 168.52 662.77 175.22 656.04 C177.55 653.69 179.88 651.34 182.21 648.99 C183.66 647.53 185.1 646.07 186.55 644.62 C187.19 643.97 187.83 643.32 188.49 642.65 C192.83 638.3 197.35 634.22 202.02 630.21 C202.97 629.38 203.92 628.55 204.9 627.7 C210.98 622.5 217.2 617.91 223.94 613.61 C227.37 611.41 230.18 609.11 233.02 606.21 C234.68 605.86 236.35 605.53 238.02 605.21 C238.86 604.64 239.7 604.06 240.56 603.47 C244.76 600.59 249.35 598.65 254.02 596.65 C255.41 596.06 255.41 596.06 256.83 595.45 C264.15 592.4 271.16 590.36 279.02 589.21 C280.14 589.03 281.26 588.85 282.42 588.67 C309.82 585.22 337.9 592.39 359.71 609.15 C361.82 610.83 363.92 612.52 366.02 614.21 C366.97 614.93 367.91 615.65 368.89 616.39 C380.57 625.44 388.69 636.47 396.02 649.21 C396.79 650.46 397.56 651.71 398.34 652.96 C412.77 676.67 414.51 706.67 408.92 733.52 C407.73 738.4 406.23 742.71 404.02 747.21 C403.43 748.47 402.85 749.73 402.27 750.98 C396.44 763.29 389.08 773.38 379.75 783.3 C377.24 785.98 374.78 788.71 372.33 791.46 C367.28 797.09 362.09 802.49 356.33 807.4 C352.54 810.66 349.03 814.16 345.52 817.71 C341.48 821.8 337.42 825.76 333.04 829.48 C330.52 831.65 328.09 833.9 325.64 836.15 C322.21 839.29 318.74 842.29 315.08 845.15 C308.05 850.68 301.59 856.85 295.08 862.98 C289.99 867.74 284.81 872.23 279.27 876.46 C271.63 882.32 264.73 888.9 257.78 895.54 C251.91 901.13 245.89 906.35 239.46 911.28 C231.42 917.45 224.2 924.43 216.89 931.43 C210.68 937.35 204.24 942.88 197.51 948.2 C192.19 952.51 187.2 957.19 182.18 961.84 C173.15 970.19 163.85 978.14 154.27 985.84 C149.94 989.36 146.01 993.12 142.12 997.11 C138.91 1000.33 135.49 1003.27 132.02 1006.21 C131.03 1007.06 130.04 1007.91 129.02 1008.78 C123.84 1013.18 118.64 1017.53 113.33 1021.78 C109.67 1024.75 106.31 1027.85 103.02 1031.21 C98.9 1035.42 94.58 1039.14 89.99 1042.82 C81.52 1049.65 73.37 1056.81 65.46 1064.28 C57 1072.25 48.18 1079.66 39.14 1086.96 C35.43 1089.98 32.01 1093.11 28.68 1096.54 C26.3 1098.94 23.76 1101.12 21.2 1103.32 C17.88 1106.21 14.65 1109.21 11.41 1112.2 C5.44 1117.22 5.44 1117.22 1.54 1117.2 C-1.82 1115.89 -3.76 1113.98 -6.36 1111.46 C-7.4 1110.47 -8.45 1109.48 -9.5 1108.48 C-10.33 1107.69 -10.33 1107.69 -11.19 1106.89 C-14.4 1103.89 -17.72 1101.02 -21.04 1098.15 C-21.69 1097.59 -22.33 1097.03 -22.99 1096.46 C-23.6 1095.93 -24.2 1095.41 -24.83 1094.87 C-25.36 1094.4 -25.9 1093.94 -26.45 1093.46 C-28.17 1092.02 -28.17 1092.02 -30.98 1090.21 C-30.98 1089.55 -30.98 1088.89 -30.98 1088.21 C-31.97 1088.21 -32.96 1088.21 -33.98 1088.21 C-35.35 1086.58 -36.68 1084.91 -37.98 1083.21 C-39.61 1081.8 -41.28 1080.42 -42.98 1079.09 C-47.2 1075.71 -51.22 1072.21 -55.17 1068.53 C-58.3 1065.61 -61.43 1062.77 -64.92 1060.28 C-68.65 1057.6 -71.95 1054.54 -75.29 1051.4 C-80.1 1046.9 -85.02 1042.63 -90.16 1038.5 C-97.5 1032.56 -104.67 1026.39 -111.77 1020.15 C-118.97 1013.85 -126.22 1007.6 -133.67 1001.59 C-138.36 997.79 -142.8 993.76 -147.25 989.67 C-150.72 986.55 -154.34 983.63 -157.97 980.69 C-166.22 973.91 -174.24 966.87 -182.04 959.59 C-186.76 955.22 -191.67 951.26 -196.76 947.34 C-201.28 943.84 -205.49 940.1 -209.66 936.19 C-213.63 932.49 -217.77 929.07 -221.99 925.67 C-229.49 919.51 -236.75 913.05 -244.04 906.65 C-251.81 899.84 -259.63 893.08 -267.67 886.59 C-272.41 882.74 -276.92 878.69 -281.42 874.56 C-286.24 870.14 -291.09 865.86 -296.29 861.9 C-300.88 858.38 -305.11 854.53 -309.37 850.62 C-318.71 842.03 -328.45 833.83 -338.36 825.9 C-343.62 821.63 -348.51 817.03 -353.43 812.37 C-357.04 808.97 -360.71 805.74 -364.61 802.65 C-374.08 795.05 -382.4 786.29 -389.92 776.77 C-391.93 774.27 -394.05 771.94 -396.23 769.59 C-399.94 765.45 -402.51 761.18 -404.98 756.21 C-405.4 755.42 -405.82 754.63 -406.25 753.81 C-420.42 726.64 -420.75 692.33 -411.77 663.29 C-408.61 653.73 -408.61 653.73 -404.98 650.21 C-404.11 648.44 -403.25 646.67 -402.43 644.87 C-398.27 635.71 -393.02 629.28 -385.98 622.21 C-384.78 620.83 -383.59 619.44 -382.42 618.03 C-377.28 612.1 -371.32 606.83 -364.98 602.21 C-365.31 601.55 -365.64 600.89 -365.98 600.21 C-364.82 600.14 -363.67 600.07 -362.47 599.99 C-357.62 599.38 -354.21 597.39 -350.11 594.84 C-344.15 591.33 -338.76 588.77 -331.98 587.21 C-330.75 586.88 -329.51 586.54 -328.24 586.2 C-320.14 584 -312.4 582.45 -303.98 582.21 C-303.12 582.18 -302.27 582.14 -301.38 582.1 C-284.32 581.43 -271.12 583.09 -255.98 591.21 C-255.05 591.5 -254.12 591.79 -253.17 592.09 C-243.72 595.43 -235.38 601.45 -227.23 607.15 C-226.24 607.83 -225.25 608.51 -224.23 609.21 C-219.21 612.71 -214.68 616.25 -210.46 620.69 C-208.46 622.75 -206.26 624.47 -203.98 626.21 C-200.31 629.09 -196.99 632.07 -193.77 635.43 C-192.14 637.06 -190.47 638.53 -188.7 640 C-182.57 645.34 -176.92 651.17 -171.19 656.93 C-169.05 659.08 -166.91 661.23 -164.77 663.37 C-160.23 667.92 -155.7 672.47 -151.17 677.03 C-145.9 682.32 -140.62 687.62 -135.35 692.91 C-133.24 695.02 -131.13 697.14 -129.03 699.26 C-127.74 700.55 -126.45 701.84 -125.16 703.13 C-124.58 703.72 -123.99 704.31 -123.39 704.92 C-121.01 707.3 -118.79 709.34 -115.98 711.21 C-115.98 709.4 -115.98 709.4 -115.98 707.55 C-115.93 654.16 -115.89 600.76 -115.82 547.37 C-115.82 546.56 -115.82 545.75 -115.82 544.92 C-115.8 527.32 -115.77 509.72 -115.75 492.13 C-115.74 483.49 -115.73 474.86 -115.72 466.23 C-115.72 465.37 -115.72 464.51 -115.71 463.63 C-115.68 435.84 -115.65 408.05 -115.63 380.26 C-115.61 351.68 -115.58 323.1 -115.54 294.52 C-115.53 290.47 -115.52 286.43 -115.52 282.38 C-115.52 281.58 -115.51 280.79 -115.51 279.97 C-115.5 267.2 -115.49 254.43 -115.48 241.67 C-115.48 228.8 -115.46 215.94 -115.43 203.07 C-115.42 196.11 -115.41 189.16 -115.42 182.2 C-115.46 70.15 -115.46 70.15 -76.98 31.21 C-71.91 26.64 -67.36 22.72 -60.98 20.21 C-60.65 19.55 -60.32 18.89 -59.98 18.21 C-58.33 17.2 -56.63 16.25 -54.92 15.34 C-54 14.85 -53.08 14.36 -52.13 13.85 C-51.09 13.31 -50.05 12.77 -48.98 12.21 C-48.39 11.89 -47.8 11.57 -47.19 11.24 C-41.81 8.38 -36.35 6.65 -30.48 5.09 C-29.52 4.83 -28.55 4.57 -27.56 4.31 C-18.37 1.92 -9.47 0.68 0 0 Z " fill="#FAFCFC" transform="translate(626.98046875,68.78515625)"/>
<path d="M0 0 C-2.45 2.55 -5.02 4.92 -7.69 7.25 C-8.38 7.86 -9.08 8.47 -9.8 9.09 C-11.26 10.36 -12.72 11.61 -14.2 12.84 C-20.24 18 -25.12 23.76 -30 30 C-30.66 30.78 -31.33 31.56 -32.01 32.36 C-34.43 35.57 -36.23 38.93 -38.06 42.5 C-38.74 43.8 -39.42 45.1 -40.1 46.41 C-40.42 47.02 -40.74 47.64 -41.07 48.28 C-41.88 49.77 -42.76 51.22 -43.65 52.66 C-45.05 55.09 -45.82 57.3 -46.56 60 C-47.26 62.53 -47.97 64.93 -48.99 67.35 C-58.28 91.79 -54.79 124.98 -44.62 148.58 C-40.17 158 -34.94 165.56 -27.76 173.06 C-25.15 175.79 -22.79 178.67 -20.44 181.62 C-13.62 190.06 -5.99 197.15 2.47 203.91 C5.28 206.23 7.81 208.72 10.35 211.34 C13.4 214.41 16.7 217.19 20 220 C20.99 220.85 21.99 221.7 23.01 222.57 C28.1 226.9 33.22 231.19 38.44 235.38 C43.49 239.47 48.2 243.87 52.94 248.33 C56.8 251.95 60.78 255.3 65.02 258.48 C67.65 260.5 70.11 262.67 72.59 264.87 C75.75 267.67 78.94 270.43 82.12 273.19 C82.77 273.75 83.42 274.31 84.09 274.89 C90.7 280.62 97.35 286.31 104 292 C106.31 293.98 108.63 295.96 110.94 297.94 C111.51 298.43 112.08 298.92 112.67 299.42 C115.73 302.05 118.79 304.68 121.83 307.33 C127.41 312.19 132.99 317.03 138.75 321.69 C142.45 324.68 146 327.78 149.5 331 C153.91 335.06 158.46 338.89 163.12 342.66 C171.18 349.21 179.02 355.96 186.63 363.02 C190.62 366.71 194.78 370.14 199.02 373.55 C206.97 380.08 214.71 386.89 222.31 393.81 C226.16 397.3 230.15 400.55 234.23 403.77 C241.57 409.68 248.68 415.89 255.69 422.19 C258.79 424.96 261.96 427.63 265.19 430.25 C274.68 437.97 283.92 445.94 292.88 454.27 C296.09 457.24 299.41 459.87 302.95 462.42 C306.54 465.19 309.79 468.33 313.12 471.41 C316.8 474.72 320.67 477.77 324.59 480.8 C327.36 483.33 329.04 485.81 331 489 C320.51 498.58 320.51 498.58 316.25 502.25 C312.97 505.09 309.81 508.05 306.65 511.02 C287.15 529.4 287.15 529.4 281 531 C279.18 530.27 279.18 530.27 277.44 528.81 C276.75 528.25 276.07 527.68 275.36 527.1 C271.05 523.27 266.79 519.39 262.57 515.46 C259.98 513.06 257.37 510.68 254.75 508.31 C253.38 507.07 253.38 507.07 251.98 505.8 C251.33 505.21 250.67 504.61 250 504 C248.97 505.06 248.97 505.06 247.91 506.15 C244.9 509.16 241.69 511.89 238.44 514.62 C233.77 518.58 229.18 522.6 224.69 526.75 C223.95 527.43 223.95 527.43 223.2 528.13 C222.72 528.57 222.24 529.01 221.74 529.47 C217.88 533.04 213.98 536.56 210 540 C209.21 540.69 208.43 541.37 207.62 542.08 C206.45 543.06 206.45 543.06 205.25 544.06 C204.55 544.65 203.86 545.24 203.14 545.85 C201 547 201 547 198.48 546.86 C190.84 544.21 184.77 537 178.94 531.55 C173.83 526.78 168.47 522.36 163 518 C156.37 512.71 150.03 507.23 143.84 501.44 C139.63 497.53 135.28 493.87 130.81 490.27 C123.35 484.24 116.07 478.05 109.06 471.5 C104.33 467.08 99.36 463.08 94.22 459.13 C88.16 454.43 82.6 449.24 77 444 C72.59 439.97 68 436.18 63.35 432.44 C55.62 426.22 48.25 419.77 41 413 C36.87 409.22 32.61 405.68 28.17 402.26 C21.82 397.36 15.87 392.21 10.05 386.71 C4.91 381.86 -0.48 377.4 -6 373 C-11.97 368.23 -17.75 363.36 -23.31 358.12 C-27.7 354 -32.22 350.17 -37 346.5 C-44.07 341.08 -50.51 335.1 -57 329 C-61.13 325.21 -65.39 321.68 -69.83 318.26 C-76.18 313.36 -82.13 308.21 -87.96 302.7 C-92.23 298.68 -96.65 294.91 -101.22 291.24 C-108.55 285.34 -115.7 279.24 -122.62 272.88 C-127 268.86 -131.52 265.07 -136.13 261.33 C-144.97 254.15 -153.48 246.72 -161.76 238.92 C-164.85 236 -167.95 233.13 -171.19 230.38 C-179.41 223.29 -187.08 215.35 -194 207 C-194.66 206.22 -195.31 205.44 -195.99 204.64 C-200.59 199.06 -204.56 193.37 -208 187 C-208.42 186.23 -208.84 185.46 -209.27 184.66 C-217.41 168.29 -222.03 148.26 -221 130 C-220.91 128.13 -220.91 128.13 -220.83 126.23 C-219.3 103.39 -211.16 77.9 -195.59 60.75 C-193.84 58.82 -192.29 56.79 -190.75 54.69 C-182.79 44.43 -173.83 36.9 -162.86 30.16 C-161.12 29.07 -159.41 27.94 -157.7 26.81 C-138.95 14.99 -109.82 8.94 -87.92 13.66 C-87.12 13.9 -86.32 14.13 -85.5 14.38 C-80.14 15.76 -76.31 13.24 -71.66 10.68 C-69.06 9.13 -69.06 9.13 -67.17 7.45 C-63.92 5.28 -60.44 4.49 -56.69 3.5 C-55.89 3.29 -55.1 3.07 -54.28 2.85 C-46.91 0.9 -39.51 -0.68 -32 -2 C-31.28 -2.13 -30.56 -2.27 -29.82 -2.4 C-19.72 -3.99 -9.48 -3.99 0 0 Z " fill="#BDAE76" transform="translate(264,670)"/>
<path d="M0 0 C1.82 -0.01 1.82 -0.01 3.68 -0.01 C4.84 -0.01 6.01 -0.01 7.21 -0.01 C8.26 -0.01 9.31 -0.01 10.4 -0 C12.83 0.11 14.86 0.42 17.19 1.12 C17.19 1.78 17.19 2.44 17.19 3.12 C15.79 4.09 14.39 5.04 12.96 5.95 C9.86 8.01 7.07 10.45 4.25 12.88 C3.63 13.41 3.02 13.94 2.38 14.48 C-2.1 18.39 -6.16 22.42 -9.81 27.12 C-10.35 27.81 -10.9 28.5 -11.45 29.21 C-15.45 34.42 -18.72 39.6 -21.25 45.69 C-21.64 46.62 -22.03 47.55 -22.43 48.5 C-33.83 78.43 -36.29 110.7 -36.21 142.47 C-36.22 144.89 -36.22 147.3 -36.23 149.71 C-36.25 155.57 -36.25 161.43 -36.25 167.29 C-36.24 174.32 -36.26 181.35 -36.27 188.39 C-36.3 201.36 -36.31 214.34 -36.31 227.31 C-36.32 240.14 -36.33 252.97 -36.35 265.79 C-36.35 266.6 -36.35 267.4 -36.35 268.22 C-36.36 272.29 -36.37 276.36 -36.37 280.42 C-36.41 309.15 -36.44 337.88 -36.47 366.61 C-36.49 394.5 -36.51 422.4 -36.55 450.29 C-36.55 451.15 -36.55 452.01 -36.55 452.9 C-36.56 461.55 -36.58 470.2 -36.59 478.85 C-36.61 496.47 -36.63 514.09 -36.65 531.71 C-36.66 532.93 -36.66 532.93 -36.66 534.16 C-36.72 588.15 -36.77 642.14 -36.81 696.12 C-37.94 695.16 -39.07 694.2 -40.19 693.24 C-40.82 692.7 -41.45 692.16 -42.1 691.61 C-43.86 690.09 -45.54 688.52 -47.18 686.87 C-47.75 686.3 -48.32 685.73 -48.91 685.14 C-49.51 684.54 -50.11 683.93 -50.72 683.31 C-51.37 682.66 -52.03 682.01 -52.7 681.33 C-54.1 679.93 -55.5 678.52 -56.9 677.11 C-59.12 674.88 -61.35 672.64 -63.58 670.41 C-69.1 664.87 -74.63 659.32 -80.15 653.78 C-84.82 649.08 -89.5 644.39 -94.18 639.7 C-96.36 637.52 -98.54 635.32 -100.72 633.13 C-102.07 631.78 -103.42 630.42 -104.77 629.07 C-105.37 628.47 -105.97 627.86 -106.58 627.24 C-110.28 623.54 -114.11 620.08 -118.11 616.71 C-119.81 615.13 -119.81 615.13 -121.81 612.12 C-121.15 612.12 -120.49 612.12 -119.81 612.12 C-120.14 611.47 -120.47 610.8 -120.81 610.12 C-120.91 607.73 -120.95 605.35 -120.94 602.95 C-120.94 602.2 -120.94 601.45 -120.95 600.68 C-120.95 598.14 -120.95 595.59 -120.95 593.05 C-120.95 591.22 -120.95 589.39 -120.95 587.56 C-120.96 582.5 -120.96 577.45 -120.96 572.39 C-120.96 566.95 -120.96 561.5 -120.97 556.06 C-120.98 545.37 -120.98 534.68 -120.98 524 C-120.98 515.3 -120.98 506.6 -120.99 497.89 C-120.99 477.22 -121 456.54 -121 435.86 C-121 435.2 -121 434.54 -121 433.85 C-121 430.5 -121 427.14 -121 423.79 C-121 423.12 -121 422.45 -121 421.77 C-121 420.42 -121 419.07 -121 417.72 C-121 396.84 -121 375.95 -121.02 355.07 C-121.03 331.57 -121.04 308.08 -121.04 284.59 C-121.04 272.16 -121.04 259.74 -121.05 247.31 C-121.06 236.71 -121.07 226.11 -121.06 215.51 C-121.06 210.12 -121.06 204.72 -121.06 199.33 C-121.23 90.25 -121.23 90.25 -107.81 70.12 C-107.54 69.09 -107.28 68.06 -107 67 C-105.55 61.59 -102.7 56.63 -99.34 52.17 C-97.75 50.11 -97.75 50.11 -96.38 47.7 C-91.38 39.46 -84.93 32.99 -77.29 27.2 C-74.7 25.17 -74.7 25.17 -72.61 22.37 C-72.02 21.63 -71.42 20.89 -70.81 20.12 C-70.15 20.12 -69.49 20.12 -68.81 20.12 C-67.58 19.42 -66.37 18.66 -65.19 17.88 C-61.18 15.31 -57.1 13.16 -52.81 11.12 C-52.15 10.81 -51.49 10.5 -50.82 10.17 C-45.11 7.54 -39.36 5.63 -33.31 3.94 C-32.43 3.68 -31.54 3.42 -30.63 3.15 C-20.37 0.23 -10.64 -0.03 0 0 Z " fill="#77583B" transform="translate(548.8125,85.875)"/>
<path d="M0 0 C-2.45 2.55 -5.02 4.92 -7.69 7.25 C-8.38 7.86 -9.08 8.47 -9.8 9.09 C-11.26 10.36 -12.72 11.61 -14.2 12.84 C-20.24 18 -25.12 23.76 -30 30 C-30.66 30.78 -31.33 31.56 -32.01 32.36 C-34.43 35.57 -36.23 38.93 -38.06 42.5 C-38.74 43.8 -39.42 45.1 -40.1 46.41 C-40.42 47.02 -40.74 47.64 -41.07 48.28 C-41.88 49.77 -42.76 51.22 -43.65 52.66 C-45.05 55.09 -45.82 57.3 -46.56 60 C-47.26 62.53 -47.97 64.93 -48.99 67.35 C-58.28 91.79 -54.79 124.98 -44.62 148.58 C-40.17 158 -34.94 165.56 -27.76 173.06 C-25.15 175.79 -22.79 178.67 -20.44 181.62 C-13.62 190.06 -5.99 197.15 2.47 203.91 C5.28 206.23 7.81 208.72 10.35 211.34 C13.4 214.41 16.7 217.19 20 220 C20.99 220.85 21.99 221.7 23.01 222.57 C28.1 226.9 33.22 231.19 38.44 235.38 C43.49 239.47 48.2 243.87 52.94 248.33 C56.8 251.95 60.78 255.3 65.02 258.48 C67.65 260.5 70.11 262.67 72.59 264.87 C75.75 267.67 78.94 270.43 82.12 273.19 C82.77 273.75 83.42 274.31 84.09 274.89 C90.7 280.62 97.35 286.31 104 292 C106.31 293.98 108.63 295.96 110.94 297.94 C111.51 298.43 112.08 298.92 112.67 299.42 C115.73 302.05 118.79 304.68 121.83 307.33 C127.41 312.19 132.99 317.03 138.75 321.69 C142.45 324.68 146 327.78 149.5 331 C153.91 335.06 158.46 338.89 163.12 342.66 C171.18 349.21 179.02 355.96 186.63 363.02 C190.62 366.71 194.78 370.14 199.02 373.55 C206.97 380.08 214.71 386.89 222.31 393.81 C226.16 397.3 230.15 400.55 234.23 403.77 C241.57 409.68 248.68 415.89 255.69 422.19 C258.79 424.96 261.96 427.63 265.19 430.25 C274.68 437.97 283.92 445.94 292.88 454.27 C296.09 457.24 299.41 459.87 302.95 462.42 C306.54 465.19 309.79 468.33 313.12 471.41 C316.8 474.72 320.67 477.77 324.59 480.8 C327.36 483.33 329.04 485.81 331 489 C320.51 498.58 320.51 498.58 316.25 502.25 C312.97 505.09 309.81 508.05 306.65 511.02 C287.15 529.4 287.15 529.4 281 531 C279.18 530.27 279.18 530.27 277.44 528.81 C276.75 528.25 276.07 527.68 275.36 527.1 C269.56 521.94 263.87 516.69 258.21 511.38 C252.74 506.31 247.1 501.75 241.09 497.33 C232.3 490.71 224.23 483.32 216.23 475.77 C211.97 471.78 207.5 468.22 202.82 464.74 C198.24 461.28 194.06 457.47 189.88 453.54 C182.59 446.7 174.94 440.28 167.06 434.12 C162.91 430.85 159.09 427.32 155.25 423.69 C150.09 418.81 144.76 414.35 139.12 410.03 C133.08 405.37 127.57 400.21 122 395 C117.88 391.23 113.64 387.71 109.22 384.31 C102.67 379.26 96.6 373.91 90.62 368.2 C85.94 363.77 81.04 359.76 75.93 355.84 C70.7 351.82 65.85 347.46 61 343 C59.02 341.26 57.03 339.53 55.04 337.8 C53.59 336.52 52.16 335.23 50.74 333.92 C46.27 329.81 41.74 326 36.88 322.38 C30.82 317.85 25.41 312.77 19.95 307.54 C15.89 303.68 11.75 300.09 7.25 296.75 C0.74 291.9 -5.09 286.53 -11 281 C-18.07 274.61 -25.47 268.63 -32.9 262.67 C-37.57 258.91 -41.97 255.11 -46.14 250.8 C-50.98 246.11 -56.43 242.05 -61.7 237.85 C-73.86 228.04 -85.01 217.18 -96.04 206.14 C-97.96 204.23 -99.88 202.33 -101.8 200.43 C-103.04 199.19 -104.29 197.94 -105.53 196.7 C-106.09 196.15 -106.65 195.59 -107.23 195.02 C-129.04 173.09 -137.24 146.18 -137.18 115.89 C-137.07 102.6 -135.46 90.59 -131 78 C-130.58 76.81 -130.16 75.63 -129.73 74.41 C-126.43 65.4 -126.43 65.4 -124.47 63.57 C-122.71 61.94 -122.71 61.94 -122.2 58.77 C-120.68 53.99 -118.23 51.31 -114.88 47.69 C-113.69 46.37 -112.51 45.06 -111.33 43.74 C-110.76 43.11 -110.19 42.47 -109.6 41.82 C-106.85 38.69 -104.36 35.38 -101.88 32.05 C-99.54 29.5 -96.89 27.9 -94 26 C-92.31 24.42 -90.64 22.82 -89 21.19 C-83.78 16.33 -78.54 13.41 -72.07 10.47 C-69.07 9.18 -69.07 9.18 -67.11 7.46 C-63.91 5.24 -60.42 4.48 -56.69 3.5 C-55.89 3.29 -55.1 3.07 -54.28 2.85 C-46.91 0.9 -39.51 -0.68 -32 -2 C-31.28 -2.13 -30.56 -2.27 -29.82 -2.4 C-19.72 -3.99 -9.48 -3.99 0 0 Z " fill="#77583B" transform="translate(264,670)"/>
<path d="M0 0 C0 1.32 0 2.64 0 4 C-2.16 6.15 -2.16 6.15 -5.06 8.38 C-6.07 9.17 -7.08 9.96 -8.12 10.78 C-9.07 11.51 -10.02 12.25 -11 13 C-19.03 19.24 -25.6 26.79 -30 36 C-30.47 36.62 -30.95 37.24 -31.44 37.88 C-35.27 43.09 -37.36 48.77 -39 55 C-39.46 56.37 -39.93 57.73 -40.4 59.1 C-45.22 73.51 -47.41 88.42 -48.75 103.5 C-48.87 104.79 -48.98 106.08 -49.1 107.41 C-49.44 111.6 -49.73 115.8 -50 120 C-50.05 120.71 -50.09 121.42 -50.14 122.14 C-51.39 142.7 -51.14 163.3 -51.12 183.88 C-51.11 189.41 -51.11 194.94 -51.11 200.47 C-51.11 210.03 -51.11 219.58 -51.11 229.14 C-51.1 242.96 -51.09 256.77 -51.09 270.59 C-51.09 293.01 -51.08 315.43 -51.08 337.85 C-51.07 359.62 -51.06 381.38 -51.05 403.15 C-51.05 403.82 -51.05 404.49 -51.05 405.19 C-51.05 411.94 -51.05 418.69 -51.05 425.44 C-51.04 481.96 -51.02 538.48 -51 595 C-54.74 594.2 -56.78 592.82 -59.75 590.38 C-60.55 589.72 -61.35 589.07 -62.17 588.4 C-63.7 587.11 -65.21 585.8 -66.69 584.45 C-72.4 579.26 -78.61 575.04 -85.06 570.81 C-86.64 569.77 -86.64 569.77 -88.24 568.7 C-97.79 562.07 -97.79 562.07 -108.38 557.5 C-111.5 556.53 -114.41 555.4 -117.38 554 C-121.73 551.99 -126.16 550.77 -130.81 549.61 C-133 549 -133 549 -134 548 C-134.1 545.82 -134.13 543.64 -134.13 541.46 C-134.13 540.42 -134.13 540.42 -134.14 539.36 C-134.14 537 -134.14 534.65 -134.14 532.29 C-134.14 530.59 -134.15 528.9 -134.15 527.2 C-134.16 522.52 -134.16 517.84 -134.16 513.15 C-134.16 508.11 -134.17 503.07 -134.18 498.03 C-134.19 486.98 -134.2 475.93 -134.2 464.88 C-134.2 457.98 -134.21 451.07 -134.21 444.17 C-134.22 425.03 -134.23 405.89 -134.24 386.75 C-134.24 385.53 -134.24 384.3 -134.24 383.04 C-134.24 381.81 -134.24 380.58 -134.24 379.31 C-134.24 376.82 -134.24 374.33 -134.24 371.84 C-134.24 369.98 -134.24 369.98 -134.24 368.09 C-134.24 348.14 -134.26 328.18 -134.29 308.23 C-134.31 287.72 -134.32 267.21 -134.32 246.7 C-134.32 235.19 -134.33 223.69 -134.35 212.18 C-134.36 202.37 -134.37 192.55 -134.36 182.74 C-134.36 177.74 -134.36 172.75 -134.37 167.75 C-134.61 77.96 -134.61 77.96 -110 45 C-109.06 43.73 -109.06 43.73 -108.1 42.44 C-106.14 39.89 -104.1 37.44 -102 35 C-101.38 34.27 -100.76 33.55 -100.12 32.8 C-75.62 6.19 -35.05 -4.62 0 0 Z " fill="#BDAE75" transform="translate(480,103)"/>
<path d="M0 0 C0.99 1.49 0.99 1.49 2 3 C1.05 3.58 1.05 3.58 0.09 4.18 C-11.96 11.71 -23.07 19.64 -33.35 29.46 C-35.27 31.25 -37.25 32.98 -39.23 34.73 C-46.56 41.32 -53.46 48.34 -60.41 55.32 C-61.88 56.78 -63.34 58.25 -64.81 59.72 C-68.64 63.55 -72.46 67.38 -76.28 71.21 C-80.2 75.14 -84.11 79.06 -88.03 82.98 C-95.69 90.65 -103.34 98.32 -111 106 C-111.99 105.34 -112.98 104.68 -114 104 C-114.37 101.55 -114.37 101.55 -114.37 98.44 C-114.38 97.27 -114.38 96.11 -114.39 94.91 C-114.38 93.64 -114.37 92.38 -114.36 91.07 C-114.36 89.78 -114.36 88.48 -114.36 87.15 C-114.36 84.41 -114.35 81.66 -114.34 78.92 C-114.31 75.41 -114.31 71.9 -114.32 68.38 C-114.32 65.03 -114.31 61.68 -114.3 58.32 C-114.3 57.07 -114.3 55.81 -114.3 54.51 C-114.29 52.75 -114.29 52.75 -114.27 50.95 C-114.27 49.92 -114.27 48.89 -114.26 47.83 C-113.62 40.92 -110.14 37.83 -105.12 33.47 C-97.27 27.25 -88.81 21.77 -79.97 17.07 C-77.94 15.97 -76.01 14.75 -74.06 13.5 C-54.41 1.11 -23.02 -8.54 0 0 Z " fill="#77583B" transform="translate(859,674)"/>
<path d="M0 0 C5.02 1.5 7.97 4.5 11.62 8.06 C16.78 12.99 22.02 17.57 27.7 21.9 C30.36 24.33 32.11 26.94 34 30 C23.51 39.58 23.51 39.58 19.25 43.25 C15.97 46.09 12.81 49.05 9.65 52.02 C-9.91 70.45 -9.91 70.45 -16 72 C-17.92 71.16 -17.92 71.16 -19.75 69.62 C-20.43 69.06 -21.11 68.5 -21.8 67.92 C-22.89 66.97 -22.89 66.97 -24 66 C-24.81 65.32 -25.61 64.65 -26.45 63.95 C-32.71 58.6 -32.71 58.6 -33.97 56.02 C-35.36 53.28 -37.3 51.74 -39.62 49.75 C-40.44 49.04 -41.26 48.34 -42.1 47.61 C-42.73 47.08 -43.35 46.55 -44 46 C-43.42 42.61 -42.42 41.08 -39.89 38.79 C-39.25 38.19 -38.6 37.59 -37.93 36.97 C-37.23 36.34 -36.53 35.71 -35.81 35.06 C-34.35 33.72 -32.88 32.38 -31.42 31.03 C-30.68 30.36 -29.94 29.68 -29.17 28.99 C-27.16 27.14 -25.16 25.28 -23.18 23.41 C-17.3 17.87 -11.39 12.52 -4.99 7.59 C-3.16 6.13 -1.49 4.79 0 3 C0 2.01 0 1.02 0 0 Z " fill="#967D54" transform="translate(561,1129)"/>
<path d="M0 0 C1.82 -0.01 1.82 -0.01 3.68 -0.01 C4.84 -0.01 6.01 -0.01 7.21 -0.01 C8.26 -0.01 9.31 -0.01 10.4 -0 C12.83 0.11 14.86 0.42 17.19 1.12 C17.19 1.78 17.19 2.44 17.19 3.12 C15.79 4.09 14.39 5.04 12.96 5.95 C9.86 8.01 7.07 10.45 4.25 12.88 C3.63 13.41 3.02 13.94 2.38 14.48 C-2.1 18.39 -6.17 22.42 -9.81 27.12 C-10.37 27.84 -10.92 28.55 -11.49 29.29 C-13.69 32.18 -15.79 35.1 -17.81 38.12 C-18.14 37.47 -18.47 36.81 -18.81 36.12 C-20.37 35.24 -21.97 34.43 -23.59 33.66 C-24.58 33.19 -25.57 32.72 -26.59 32.23 C-27.63 31.74 -28.67 31.25 -29.75 30.75 C-30.76 30.27 -31.77 29.79 -32.81 29.29 C-44.96 23.35 -44.96 23.35 -57.94 19.88 C-58.87 19.73 -59.8 19.58 -60.76 19.42 C-61.44 19.32 -62.11 19.23 -62.81 19.12 C-61.08 14.94 -59.16 13.98 -55.17 12.19 C-53.7 11.53 -52.24 10.85 -50.78 10.17 C-45.09 7.53 -39.35 5.63 -33.31 3.94 C-32.43 3.68 -31.54 3.42 -30.63 3.15 C-20.37 0.23 -10.64 -0.03 0 0 Z " fill="#967D54" transform="translate(548.8125,85.875)"/>
<path d="M0 0 C-2.45 2.55 -5.02 4.92 -7.69 7.25 C-8.73 8.16 -8.73 8.16 -9.8 9.09 C-11.26 10.36 -12.72 11.61 -14.2 12.84 C-19.47 17.34 -23.75 22.18 -27.96 27.68 C-29.94 29.93 -31.32 30.8 -34 32 C-34.5 32.99 -34.5 32.99 -35 34 C-35.66 34 -36.32 34 -37 34 C-37.5 34.99 -37.5 34.99 -38 36 C-38 35.01 -38 34.02 -38 33 C-38.53 32.74 -39.06 32.47 -39.61 32.2 C-41.37 31.31 -43.13 30.42 -44.89 29.52 C-52.68 25.56 -60.57 21.93 -68.6 18.48 C-71.12 17.39 -73.57 16.26 -76 15 C-74.57 10.72 -72.15 9.75 -68.33 7.55 C-57.1 2.32 -44.13 0.13 -32 -2 C-31.28 -2.13 -30.56 -2.27 -29.82 -2.4 C-19.72 -3.99 -9.48 -3.99 0 0 Z " fill="#967D54" transform="translate(264,670)"/>
<path d="M0 0 C0.99 1.49 0.99 1.49 2 3 C1.05 3.58 1.05 3.58 0.09 4.18 C-11.61 11.49 -22.5 19.1 -32.38 28.75 C-34.93 30.94 -36.86 31.91 -40 33 C-40.99 33.66 -41.98 34.32 -43 35 C-43.33 34.01 -43.66 33.02 -44 32 C-45.64 31.27 -47.31 30.61 -49 30 C-50.47 29.11 -51.93 28.19 -53.38 27.25 C-58.36 24.17 -63.51 22.07 -69 20.09 C-72.53 18.78 -73.84 18.24 -76 15 C-56.61 1.22 -23.47 -8.71 0 0 Z " fill="#967D54" transform="translate(859,674)"/>
<path d="M0 0 C-1.3 3.9 -2.61 4.11 -6.19 6 C-11.33 8.88 -15.95 12.09 -20.56 15.75 C-21.16 16.22 -21.75 16.69 -22.37 17.18 C-24.6 18.98 -26.77 20.77 -28.78 22.83 C-30 24 -30 24 -32 24 C-32 15.75 -32 7.5 -32 -1 C-22.15 -4.28 -10.1 -1.45 0 0 Z " fill="#BBAC74" transform="translate(777,691)"/>
<path d="M0 0 C3.08 -0.09 6.17 -0.14 9.25 -0.19 C10.12 -0.21 11 -0.24 11.89 -0.26 C13.16 -0.28 13.16 -0.28 14.45 -0.29 C15.62 -0.32 15.62 -0.32 16.8 -0.34 C19 0 19 0 23 3 C13.43 3 3.86 3 -6 3 C-6 2.67 -6 2.34 -6 2 C-4.02 1.67 -2.04 1.34 0 1 C0 0.67 0 0.34 0 0 Z " fill="#77583B" transform="translate(535,86)"/>
</svg>
