<?xml version="1.0" encoding="UTF-8"?>
<!-- Generator: visioncortex VTracer 0.6.3 -->
<svg version="1.1" xmlns="http://www.w3.org/2000/svg" width="1280" height="1086">
<path d="M0 0 C422.4 0 844.8 0 1280 0 C1280 358.38 1280 716.76 1280 1086 C857.6 1086 435.2 1086 0 1086 C0 727.62 0 369.24 0 0 Z " fill="#FBFBA9" transform="translate(0,0)"/>
<path d="M0 0 C1.05 0.46 2.09 0.93 3.17 1.41 C15.82 7.3 25.61 16.27 35.6 25.79 C38.04 28.11 40.53 30.34 43.12 32.5 C51.33 39.55 58.41 48.1 65.46 56.28 C67.63 58.7 69.95 60.96 72.27 63.24 C74.62 65.63 76.8 68.16 78.98 70.7 C80.97 72.97 83.01 75.18 85.06 77.38 C89.37 82.03 93.45 86.75 97.28 91.8 C101.48 97.16 106.21 102.09 110.86 107.07 C119.51 116.36 127.72 125.93 135.69 135.81 C138.96 139.84 142.41 143.51 146.12 147.13 C149.27 150.26 152.12 153.63 155 157 C155.93 158.08 156.86 159.15 157.79 160.23 C162.52 165.72 167.21 171.23 171.75 176.88 C175 180.88 178.42 184.53 182.11 188.12 C187.79 193.77 192.79 200.1 197.95 206.21 C205.28 214.89 212.82 223.38 220.52 231.73 C225.23 236.85 229.7 242.06 234 247.53 C236.82 251.02 239.83 254.32 242.86 257.64 C244.72 259.7 246.56 261.77 248.38 263.88 C250.81 266.68 253.31 269.41 255.85 272.12 C260.37 276.97 264.59 281.93 268.62 287.19 C272.44 292.16 276.45 296.66 280.97 301.02 C284.19 304.16 287.07 307.58 290 311 C291 312.15 292 313.3 293.01 314.45 C298.03 320.21 303.02 325.98 307.81 331.94 C311.04 335.92 314.44 339.55 318.11 343.12 C321.26 346.26 324.12 349.62 327 353 C327.85 353.99 328.69 354.99 329.57 356.01 C333.97 361.18 338.32 366.38 342.56 371.69 C346.27 376.26 350.3 380.34 354.51 384.45 C358.66 388.7 362.32 393.34 366 398 C366.72 398.87 367.45 399.74 368.2 400.64 C370 403 370 403 371 406 C368.88 410.44 365.59 414.01 362.38 417.69 C361.84 418.3 361.31 418.92 360.76 419.56 C355.44 425.68 350.03 431.71 344.54 437.67 C339.59 443.06 334.87 448.56 330.28 454.25 C327.93 457.08 325.49 459.79 323 462.5 C318.94 466.91 315.11 471.46 311.34 476.12 C305.38 483.45 299.27 490.66 292.88 497.62 C288.86 502 285.07 506.51 281.34 511.12 C274.53 519.5 267.51 527.6 260.14 535.47 C257 538.85 254.16 542.3 251.48 546.04 C248.28 550.27 244.57 554.09 241 558 C233.81 566.04 226.87 574.3 220.25 582.81 C216.77 587.21 212.98 591.25 209.12 595.31 C204.73 599.95 200.57 604.63 196.75 609.75 C192.19 615.86 187.19 621.42 182 627 C175.71 633.99 169.76 641.26 163.92 648.62 C158.91 654.87 153.58 660.7 148.09 666.52 C144.17 670.69 140.5 674.96 136.98 679.48 C131.29 686.72 125.26 693.69 119 700.44 C115.32 704.44 111.94 708.57 108.62 712.88 C104.5 718.24 100.12 723.24 95.49 728.17 C88.71 735.4 82.33 742.98 76.25 750.81 C71.44 756.89 66.06 762.43 60.73 768.05 C57.61 771.35 54.54 774.69 51.5 778.06 C39.55 791.14 26.89 803.01 13 814 C12.16 814.7 11.31 815.39 10.44 816.11 C8.36 817.72 6.49 818.93 4.12 820.06 C3.51 820.36 2.89 820.66 2.26 820.97 C1.51 821.31 0.77 821.65 0 822 C-1.08 822.49 -2.15 822.98 -3.26 823.49 C-7.07 825.11 -10.92 826.12 -14.94 827.06 C-15.6 827.22 -16.27 827.38 -16.95 827.55 C-18.3 827.87 -19.64 828.19 -20.99 828.51 C-22.31 828.83 -23.62 829.18 -24.92 829.55 C-30.45 831.12 -35.71 831.35 -41.44 831.31 C-42.42 831.31 -43.4 831.31 -44.42 831.3 C-72.43 830.92 -72.43 830.92 -84 826 C-85.43 825.61 -86.87 825.24 -88.31 824.88 C-95.99 822.62 -102.97 818.75 -110 815 C-110.76 814.6 -111.53 814.2 -112.31 813.79 C-118.99 809.96 -124.66 804.45 -130.42 799.38 C-131.72 798.25 -133.04 797.13 -134.36 796.02 C-154.38 779.17 -168.55 753.2 -171 727 C-173.01 703.03 -173.01 703.03 -170 694 C-170.66 693.67 -171.32 693.34 -172 693 C-171.34 693 -170.68 693 -170 693 C-169.96 692.38 -169.92 691.75 -169.88 691.11 C-168.13 675.63 -159.81 657.12 -150.31 644.81 C-147.97 641.71 -145.71 638.6 -143.61 635.32 C-139.03 628.15 -134.54 622.02 -128.23 616.25 C-125.71 613.71 -123.98 610.97 -122 608 C-120.14 605.8 -118.17 603.71 -116.19 601.62 C-113.02 598.26 -109.89 594.89 -106.89 591.38 C-102.67 586.55 -98.17 582.02 -93.63 577.5 C-92.75 576.61 -91.87 575.73 -90.96 574.82 C-88.63 572.5 -86.31 570.17 -83.98 567.85 C-82.56 566.44 -81.15 565.02 -79.74 563.61 C-76.99 560.86 -74.25 558.11 -71.5 555.37 C-70.67 554.54 -69.84 553.7 -68.98 552.84 C-64.7 548.58 -60.37 544.47 -55.78 540.56 C-52.7 537.86 -49.86 534.92 -47 532 C-46.02 531.02 -45.04 530.04 -44.06 529.06 C-43.38 528.38 -42.7 527.7 -42 527 C-45.06 524.96 -45.65 524.75 -49.1 524.75 C-49.94 524.74 -50.78 524.74 -51.64 524.73 C-52.57 524.74 -53.49 524.74 -54.44 524.75 C-55.43 524.75 -56.41 524.74 -57.42 524.74 C-60.76 524.73 -64.09 524.74 -67.42 524.75 C-69.82 524.75 -72.22 524.74 -74.62 524.74 C-79.85 524.73 -85.08 524.73 -90.32 524.74 C-98.1 524.75 -105.89 524.74 -113.68 524.74 C-126.78 524.72 -139.88 524.72 -152.99 524.73 C-171.74 524.73 -190.49 524.72 -209.24 524.7 C-216.77 524.69 -224.3 524.69 -231.83 524.68 C-232.67 524.68 -233.5 524.68 -234.36 524.68 C-254.29 524.66 -274.22 524.65 -294.15 524.64 C-295.46 524.64 -295.46 524.64 -296.8 524.64 C-317.11 524.63 -337.42 524.62 -357.73 524.62 C-358.6 524.62 -359.47 524.62 -360.37 524.62 C-364.76 524.62 -369.15 524.62 -373.55 524.62 C-374.42 524.62 -375.28 524.62 -376.18 524.62 C-377.93 524.62 -379.68 524.62 -381.43 524.62 C-410.46 524.62 -439.49 524.6 -468.52 524.57 C-472.64 524.56 -476.75 524.56 -480.86 524.55 C-481.67 524.55 -482.48 524.55 -483.31 524.55 C-496.27 524.54 -509.23 524.54 -522.19 524.55 C-535.25 524.56 -548.32 524.55 -561.38 524.53 C-568.44 524.52 -575.51 524.51 -582.57 524.53 C-662.24 524.67 -662.24 524.67 -695 511 C-695.79 510.71 -696.57 510.41 -697.38 510.11 C-704.44 507.33 -710.15 502.74 -716 498 C-716.56 497.55 -717.13 497.09 -717.71 496.62 C-730.41 486.3 -741.31 476.16 -748 461 C-749.18 458.77 -750.37 456.54 -751.56 454.31 C-764.82 427.69 -765.16 396.18 -755.95 368.23 C-750.65 353.36 -742.58 339.7 -732 328 C-731.27 327.19 -731.27 327.19 -730.53 326.36 C-708.27 302.06 -675.98 292.83 -644.12 290.25 C-643.4 290.19 -642.67 290.13 -641.92 290.07 C-636.62 289.65 -631.31 289.32 -626 289 C-625.28 288.95 -624.56 288.91 -623.82 288.86 C-602.77 287.57 -581.67 287.86 -560.6 287.88 C-554.84 287.89 -549.09 287.89 -543.34 287.89 C-533.4 287.89 -523.47 287.89 -513.53 287.89 C-499.16 287.9 -484.79 287.91 -470.42 287.91 C-447.1 287.91 -423.78 287.92 -400.46 287.92 C-377.82 287.93 -355.18 287.94 -332.54 287.95 C-331.49 287.95 -331.49 287.95 -330.42 287.95 C-323.4 287.95 -316.38 287.95 -309.36 287.95 C-295.06 287.95 -280.75 287.95 -266.45 287.96 C-265.14 287.96 -263.82 287.96 -262.47 287.96 C-219.31 287.97 -176.16 287.98 -133 288 C-132.67 287.34 -132.34 286.68 -132 286 C-131.67 286.33 -131.34 286.66 -131 287 C-128.2 287.1 -125.42 287.13 -122.62 287.11 C-121.31 287.11 -121.31 287.11 -119.96 287.11 C-117.05 287.11 -114.13 287.11 -111.21 287.1 C-109.2 287.1 -107.18 287.09 -105.17 287.09 C-99.85 287.09 -94.53 287.08 -89.21 287.07 C-83.79 287.06 -78.37 287.05 -72.94 287.05 C-62.3 287.04 -51.65 287.02 -41 287 C-48.73 278.37 -56.76 270.12 -64.99 261.97 C-67.1 259.87 -69.21 257.77 -71.32 255.67 C-77.31 249.7 -83.31 243.75 -89.31 237.79 C-93 234.12 -96.69 230.45 -100.37 226.78 C-101.77 225.39 -103.16 224.01 -104.56 222.62 C-117.73 209.58 -117.73 209.58 -122.74 202.7 C-124.44 200.4 -126.41 198.5 -128.5 196.56 C-135.13 190.08 -139.84 182.49 -144.48 174.52 C-145.47 172.87 -146.52 171.25 -147.61 169.66 C-163.52 146.49 -168.94 118.62 -165.44 90.94 C-160.9 69.26 -151.84 48.67 -136 33 C-134.88 31.7 -133.78 30.39 -132.69 29.06 C-100.55 -7.21 -44.52 -20.74 0 0 Z " fill="#FAFCFC" transform="translate(823,65)"/>
<path d="M0 0 C2.79 2.76 5.54 5.54 8.16 8.45 C15 15.97 21.84 22.89 30 29 C31.08 29.85 32.15 30.7 33.23 31.55 C41.62 38.03 49.91 41.81 60 45 C61.42 45.48 61.42 45.48 62.88 45.97 C71.06 48.66 79.09 50.12 87.62 51.19 C88.86 51.35 90.09 51.52 91.36 51.69 C102.09 53.09 112.68 54.15 123.51 54.13 C125.01 54.13 125.01 54.13 126.55 54.14 C129.89 54.14 133.24 54.14 136.58 54.14 C139.01 54.14 141.44 54.14 143.86 54.15 C149.14 54.15 154.41 54.16 159.68 54.16 C167.51 54.16 175.35 54.16 183.19 54.17 C195.57 54.18 207.95 54.19 220.33 54.2 C239.97 54.21 259.61 54.23 279.25 54.25 C286.81 54.26 294.37 54.27 301.93 54.27 C302.77 54.28 303.61 54.28 304.47 54.28 C324.45 54.3 344.43 54.32 364.4 54.34 C365.28 54.34 366.15 54.34 367.05 54.34 C387.45 54.36 407.85 54.38 428.26 54.39 C429.13 54.39 430.01 54.39 430.92 54.39 C438 54.39 445.08 54.4 452.16 54.4 C481.33 54.42 510.5 54.45 539.67 54.49 C543.79 54.49 547.9 54.5 552.02 54.5 C552.83 54.5 553.64 54.5 554.47 54.51 C567.53 54.52 580.58 54.53 593.63 54.53 C606.73 54.53 619.84 54.54 632.94 54.57 C640.73 54.58 648.52 54.58 656.32 54.58 C662.12 54.57 667.93 54.58 673.73 54.6 C676.09 54.61 678.45 54.61 680.81 54.6 C683.99 54.59 687.18 54.6 690.37 54.62 C691.76 54.61 691.76 54.61 693.18 54.6 C699.41 54.66 699.41 54.66 702.6 56.52 C703.06 57.01 703.52 57.5 704 58 C703.32 58.68 702.63 59.37 701.93 60.07 C699.85 62.14 697.79 64.22 695.73 66.3 C694.55 67.49 693.37 68.68 692.19 69.88 C691.32 70.75 691.32 70.75 690.44 71.65 C687.5 74.61 684.52 77.45 681.35 80.15 C676.6 84.29 672.16 88.7 667.71 93.15 C666.42 94.44 666.42 94.44 665.11 95.76 C663.3 97.56 661.5 99.37 659.69 101.18 C656.95 103.93 654.19 106.67 651.44 109.42 C649.68 111.18 647.92 112.95 646.15 114.71 C645.34 115.53 644.52 116.34 643.69 117.17 C638.92 121.96 634.39 126.87 630 132 C628.36 133.84 626.71 135.67 625.06 137.5 C624.29 138.36 623.52 139.21 622.72 140.09 C622.15 140.72 621.59 141.35 621 142 C620.67 141.34 620.34 140.68 620 140 C619.01 140 618.01 140 616.99 140 C573.09 140.04 529.19 140.07 485.29 140.08 C484.29 140.09 484.29 140.09 483.27 140.09 C468.79 140.09 454.32 140.1 439.84 140.1 C432.74 140.1 425.64 140.11 418.54 140.11 C417.48 140.11 417.48 140.11 416.4 140.11 C393.55 140.12 370.7 140.13 347.85 140.15 C324.35 140.17 300.84 140.18 277.34 140.19 C262.21 140.19 247.07 140.2 231.94 140.22 C222.01 140.23 212.07 140.23 202.13 140.23 C196.41 140.23 190.69 140.23 184.97 140.24 C162.57 140.28 140.31 140.31 118 138 C116.38 137.84 116.38 137.84 114.73 137.67 C77.86 133.87 50.91 121.95 25 95 C24.32 94.32 23.64 93.65 22.93 92.95 C17.41 87.18 14.3 80.17 11 73 C10.6 72.12 10.19 71.25 9.78 70.34 C8.83 68.24 7.91 66.12 7 64 C6.51 62.92 6.03 61.83 5.53 60.72 C-2.54 41.71 -0.4 20.18 0 0 Z " fill="#76573A" transform="translate(78,534)"/>
<path d="M0 0 C3.03 1.33 4.79 2.63 6.81 5.24 C7.32 5.89 7.84 6.54 8.36 7.21 C8.9 7.9 9.44 8.6 10 9.31 C17.08 18.23 24.52 26.75 32.75 34.62 C37.38 39.2 43.13 44.99 44.54 51.47 C43.76 55.15 41.51 57.23 38.94 59.81 C37.92 60.88 36.9 61.94 35.88 63.01 C35.38 63.53 34.88 64.04 34.37 64.57 C32.65 66.37 31 68.23 29.38 70.12 C27.57 72.21 25.76 74.26 23.89 76.29 C19.83 80.7 16.05 85.17 12.5 90 C8.33 95.67 3.77 100.83 -1 106 C-8.55 114.45 -15.96 123.07 -22.94 132 C-26.57 136.59 -30.51 140.84 -34.51 145.11 C-38.43 149.33 -42.11 153.7 -45.73 158.19 C-51.76 165.65 -57.95 172.93 -64.5 179.94 C-68.39 184.1 -71.97 188.42 -75.44 192.94 C-79.03 197.61 -82.76 202.03 -86.81 206.31 C-94.9 214.88 -102.24 224.06 -109.61 233.25 C-112.89 237.33 -116.15 241.24 -119.94 244.88 C-123.78 248.6 -126.94 252.73 -130.14 257 C-134.42 262.65 -139.18 267.81 -144 273 C-150.61 280.36 -156.97 287.96 -163.15 295.69 C-167.52 301.15 -172.12 306.3 -176.94 311.38 C-181.3 315.97 -185.4 320.61 -189.19 325.69 C-192.8 330.52 -196.63 335.01 -200.75 339.4 C-207.68 346.84 -214.42 354.52 -220.56 362.62 C-223.69 366.73 -227.15 370.49 -230.67 374.27 C-237.42 381.57 -243.81 389.17 -249.94 397 C-254.42 402.64 -259.31 407.89 -264.25 413.13 C-266.14 415.15 -268.02 417.17 -269.91 419.19 C-292.1 442.94 -292.1 442.94 -305 453 C-306.09 453.87 -307.17 454.73 -308.26 455.6 C-333.43 475.53 -361.93 478.37 -393.19 475.19 C-394.22 475.08 -394.22 475.08 -395.27 474.98 C-399.41 474.46 -403.01 473.38 -406.86 471.84 C-409.21 470.92 -411.59 470.09 -413.98 469.28 C-415.26 468.84 -415.26 468.84 -416.57 468.39 C-418.32 467.79 -420.08 467.2 -421.84 466.61 C-426.23 465.1 -430.1 463.55 -434 461 C-434.83 460.59 -435.66 460.17 -436.51 459.75 C-443.04 456.48 -448.03 452.54 -453.3 447.51 C-455.83 445.16 -458.43 443.08 -461.19 441 C-466.35 436.96 -470.07 432.2 -474 427 C-474.91 425.97 -475.83 424.95 -476.75 423.94 C-479.07 420.91 -480.4 418.15 -481.84 414.65 C-483.2 411.55 -484.79 408.61 -486.38 405.62 C-495.89 386.93 -500.48 364.87 -497 344 C-496.81 342.87 -496.63 341.73 -496.44 340.56 C-496.29 339.72 -496.15 338.87 -496 338 C-491.91 338.51 -490.31 340.51 -487.69 343.56 C-486.89 344.47 -486.1 345.38 -485.29 346.31 C-483.93 347.91 -482.58 349.51 -481.25 351.12 C-476.43 356.88 -470.88 361.37 -465 366 C-464.3 366.6 -463.61 367.19 -462.89 367.81 C-438.53 388.25 -403.8 393.33 -373 391 C-367.18 390.2 -361.62 388.68 -356 387 C-354.77 386.66 -353.54 386.33 -352.28 385.98 C-346.47 384.34 -341.77 382.7 -337 379 C-335.86 378.33 -335.86 378.33 -334.7 377.64 C-315.72 366.12 -298.3 348.15 -284 331.28 C-281.71 328.66 -279.32 326.14 -276.93 323.61 C-271.71 318.08 -266.66 312.53 -261.98 306.52 C-256.23 299.2 -250.11 292.16 -243.81 285.31 C-240.08 281.25 -236.6 277.06 -233.19 272.73 C-227.2 265.27 -220.9 258.05 -214.44 251 C-210.89 247.11 -207.65 243.04 -204.44 238.88 C-200.87 234.25 -197.2 230.03 -192.97 225.99 C-189.75 222.74 -186.95 219.15 -184.09 215.59 C-182.42 213.53 -180.74 211.5 -179 209.5 C-176.55 206.68 -174.21 203.78 -171.88 200.88 C-168.38 196.57 -164.72 192.48 -160.94 188.44 C-156 183.16 -151.44 177.7 -147 172 C-141.93 165.56 -136.64 159.5 -131 153.56 C-125.98 148.27 -121.56 142.89 -117.28 136.98 C-113.32 131.81 -108.8 127.15 -104.33 122.42 C-99.24 116.99 -94.59 111.26 -89.96 105.44 C-86.44 101.07 -82.72 96.89 -78.95 92.74 C-71.16 84.15 -63.68 75.32 -56.38 66.31 C-52.84 61.97 -49.15 57.8 -45.38 53.66 C-39.21 46.77 -33.31 39.64 -27.5 32.44 C-23.86 27.96 -20.03 23.72 -16.1 19.5 C-10.37 13.3 -5.02 6.78 0 0 Z " fill="#755639" transform="translate(1165,504)"/>
<path d="M0 0 C0.66 0 1.32 0 2 0 C3.45 1.66 3.45 1.66 5.25 4.06 C8.9 8.75 12.8 13.11 16.88 17.44 C17.78 18.4 17.78 18.4 18.71 19.39 C19.91 20.66 21.11 21.94 22.32 23.21 C40.56 42.59 40.56 42.59 45 52 C39.53 59.4 33.85 66.41 27.54 73.12 C20.68 80.43 14.25 88.1 8.06 96 C4.99 99.88 1.7 103.52 -1.69 107.12 C-7.49 113.3 -12.8 119.8 -18.1 126.4 C-21.93 131.17 -25.95 135.75 -30.07 140.27 C-37.28 148.23 -44.2 156.41 -50.81 164.88 C-54.11 169.04 -57.66 172.89 -61.31 176.75 C-66.23 181.96 -70.75 187.35 -75.11 193.02 C-79.88 199.2 -85.11 204.9 -90.43 210.6 C-94.83 215.36 -98.99 220.19 -102.88 225.38 C-106.77 230.56 -110.95 235.33 -115.39 240.05 C-122.44 247.56 -129.29 255.33 -135.5 263.56 C-138.32 267.27 -141.43 270.67 -144.62 274.06 C-150.45 280.26 -155.78 286.79 -161.11 293.41 C-165.06 298.34 -169.19 303.07 -173.51 307.68 C-178.31 312.82 -182.89 318 -187.12 323.62 C-192.24 330.42 -197.84 336.63 -203.66 342.83 C-208.89 348.43 -213.76 354.15 -218.37 360.28 C-223.01 366.41 -228.19 371.99 -233.43 377.61 C-237.83 382.36 -241.99 387.19 -245.88 392.38 C-250.65 398.72 -255.89 404.5 -261.35 410.25 C-263.08 412.08 -264.79 413.93 -266.5 415.78 C-273.19 423 -279.99 430.09 -286.94 437.06 C-287.62 437.75 -288.31 438.44 -289.01 439.15 C-296.48 446.6 -304.19 453.19 -313 459 C-313.53 459.36 -314.06 459.73 -314.6 460.1 C-324.25 466.7 -333.54 470 -344.9 472.52 C-347.64 473.15 -350.31 473.94 -353 474.75 C-378.59 481.75 -410.67 474.54 -433.49 462.06 C-438.64 459.1 -443.38 455.72 -448 452 C-448.51 451.59 -449.02 451.18 -449.55 450.76 C-475.01 430.18 -492.92 402.59 -496.76 369.58 C-497.05 365.26 -497.2 360.95 -497.25 356.62 C-497.26 355.52 -497.26 355.52 -497.28 354.39 C-497.25 349.3 -496.39 344.9 -495 340 C-492 340 -492 340 -489.7 342.23 C-488.42 343.69 -488.42 343.69 -487.12 345.19 C-475.75 358.18 -462.28 371.55 -446 378 C-445.09 378.47 -444.19 378.94 -443.25 379.43 C-439.77 381.11 -436.31 382.32 -432.62 383.5 C-428.7 384.77 -424.84 386.05 -421.01 387.58 C-417.14 389.04 -413.3 389.77 -409.19 390.19 C-408.43 390.26 -407.68 390.34 -406.9 390.42 C-377.82 393.02 -349.08 390.85 -325.62 371.81 C-323.74 370.21 -321.87 368.61 -320 367 C-318.92 366.11 -317.84 365.21 -316.76 364.32 C-310.07 358.75 -303.72 352.91 -297.56 346.75 C-296.91 346.1 -296.26 345.45 -295.59 344.78 C-291.75 340.9 -288.11 336.88 -284.53 332.75 C-282.82 330.79 -281.01 328.98 -279.12 327.19 C-275.24 323.36 -271.84 319.24 -268.42 314.99 C-261.95 306.99 -255.23 299.21 -248.31 291.59 C-242.17 284.71 -236.29 277.61 -230.5 270.44 C-226.95 266.07 -223.21 261.95 -219.38 257.84 C-214.29 252.33 -209.63 246.47 -204.93 240.62 C-200.95 235.69 -196.82 230.94 -192.49 226.32 C-187.73 221.22 -183.19 216.09 -179 210.5 C-175.34 205.61 -171.42 201.06 -167.25 196.59 C-160.11 188.94 -153.3 180.97 -146.81 172.75 C-142.1 166.79 -136.98 161.22 -131.82 155.64 C-127.52 150.96 -123.5 146.15 -119.62 141.12 C-115.68 136.01 -111.54 131.19 -107.13 126.47 C-100.43 119.28 -94.12 111.74 -88.06 104 C-84.95 100.06 -81.62 96.4 -78.19 92.75 C-74.02 88.32 -70.14 83.76 -66.44 78.94 C-62.12 73.32 -57.55 68.08 -52.7 62.91 C-46.95 56.71 -41.53 50.25 -36.19 43.69 C-30.65 36.92 -24.94 30.41 -19 24 C-13.54 18.11 -8.78 11.79 -4.09 5.28 C-3.34 4.26 -3.34 4.26 -2.57 3.22 C-1.9 2.29 -1.9 2.29 -1.22 1.34 C-0.82 0.9 -0.41 0.46 0 0 Z " fill="#BEAF76" transform="translate(1181,588)"/>
<path d="M0 0 C3.79 3.09 7.25 6.16 10.44 9.88 C32.42 35.37 62.29 46.5 95.25 49.62 C97.02 49.81 97.02 49.81 98.83 49.99 C114.92 51.59 130.92 52.15 147.08 52.16 C149.05 52.16 151.03 52.17 153 52.17 C158.38 52.19 163.75 52.19 169.13 52.2 C174.95 52.21 180.76 52.22 186.58 52.24 C196.64 52.26 206.7 52.28 216.77 52.29 C231.31 52.31 245.86 52.34 260.41 52.37 C284.01 52.42 307.62 52.46 331.22 52.5 C354.15 52.54 377.07 52.58 399.99 52.63 C400.7 52.63 401.41 52.63 402.14 52.63 C409.24 52.65 416.35 52.66 423.45 52.67 C437.92 52.7 452.39 52.73 466.86 52.76 C467.86 52.76 467.86 52.76 468.88 52.76 C513.25 52.84 557.63 52.92 602 53 C602.33 53.99 602.66 54.98 603 56 C601.81 57.76 601.81 57.76 600 59.69 C599.35 60.4 598.69 61.12 598.02 61.85 C596.79 63.16 595.56 64.47 594.32 65.77 C589.38 71.18 585.44 77.12 581.47 83.25 C580.03 85.47 578.56 87.59 576.97 89.72 C571.87 96.65 568.56 104.11 565.19 112 C564.72 113.09 564.25 114.18 563.77 115.31 C561.58 120.57 559.79 125.69 558.42 131.22 C558.02 132.84 558.02 132.84 557.61 134.5 C557.41 135.33 557.21 136.15 557 137 C505.7 137.05 454.41 137.08 403.11 137.1 C397.04 137.1 390.96 137.11 384.88 137.11 C383.67 137.11 382.46 137.11 381.22 137.11 C361.71 137.12 342.21 137.14 322.71 137.15 C302.65 137.17 282.59 137.18 262.53 137.19 C250.18 137.19 237.84 137.2 225.49 137.22 C216.99 137.23 208.49 137.23 199.98 137.23 C195.1 137.23 190.22 137.23 185.34 137.24 C166 137.28 146.7 137.06 127.38 136.17 C126.15 136.12 126.15 136.12 124.89 136.07 C114.01 135.59 103.67 134.25 93 132 C91.35 131.69 89.71 131.38 88.06 131.08 C58.5 125.23 32.86 106.77 15.86 81.99 C1.57 59.02 -7.72 29.77 -1.52 2.76 C-1 1 -1 1 0 0 Z " fill="#BEAF76" transform="translate(96,621)"/>
<path d="M0 0 C3.94 1.31 4.2 2.76 6.12 6.38 C11.34 15.61 17.95 23.29 25.66 30.54 C27.56 32.54 29.05 34.43 30.65 36.65 C36.03 43.59 42.39 49.61 48.61 55.76 C50.93 58.05 53.24 60.35 55.55 62.65 C60.44 67.52 65.35 72.39 70.25 77.25 C75.95 82.9 81.65 88.56 87.34 94.22 C89.61 96.48 91.89 98.74 94.17 100.99 C95.56 102.38 96.95 103.76 98.34 105.15 C98.98 105.77 99.61 106.39 100.26 107.04 C103.38 110.15 105.93 113.05 108 117 C99.59 117.05 91.19 117.08 82.78 117.1 C78.88 117.11 74.98 117.13 71.07 117.15 C67.31 117.17 63.54 117.18 59.77 117.19 C58.33 117.19 56.9 117.2 55.46 117.21 C53.45 117.23 51.43 117.23 49.42 117.23 C47.7 117.23 47.7 117.23 45.95 117.24 C41.7 116.89 39.78 115.83 36.89 112.75 C32.58 107.36 28.44 101.93 24.61 96.19 C22.91 93.88 21.07 91.97 19 90 C16.83 87.83 16.25 86.4 15.19 83.56 C13.78 79.92 12.27 76.36 10.62 72.81 C9.75 70.88 8.87 68.94 8 67 C7.5 65.91 7 64.83 6.49 63.71 C-2.31 43.39 -4.29 21.66 0 0 Z " fill="#755639" transform="translate(675,236)"/>
<path d="M0 0 C3.03 1.33 4.79 2.63 6.81 5.24 C7.32 5.89 7.84 6.54 8.36 7.21 C9.17 8.25 9.17 8.25 10 9.31 C17.08 18.23 24.52 26.75 32.75 34.62 C37.38 39.2 43.13 44.99 44.54 51.47 C43.76 55.15 41.51 57.23 38.94 59.81 C37.92 60.88 36.9 61.94 35.89 63 C35.39 63.52 34.89 64.03 34.38 64.56 C32.61 66.41 30.92 68.32 29.25 70.25 C28.71 70.86 28.18 71.48 27.62 72.11 C26.44 73.48 25.28 74.87 24.12 76.27 C23.51 77 22.89 77.74 22.25 78.5 C21.7 79.17 21.15 79.84 20.58 80.53 C19 82 19 82 16 82 C11.88 78.37 8.37 74.09 4.71 69.99 C2.74 67.8 0.73 65.65 -1.31 63.51 C-7.71 56.77 -13.83 49.98 -19.45 42.57 C-21.79 39.49 -24.19 36.66 -27 34 C-25.5 28.98 -22.5 26.03 -18.94 22.38 C-12.16 15.26 -5.86 7.9 0 0 Z " fill="#957C54" transform="translate(1165,504)"/>
<path d="M0 0 C4.09 0.51 5.69 2.51 8.31 5.56 C9.11 6.47 9.9 7.38 10.71 8.31 C12.07 9.91 13.42 11.51 14.75 13.12 C20.28 19.73 26.87 24.86 33.71 30.05 C34.53 30.68 35.34 31.3 36.19 31.94 C36.92 32.48 37.66 33.03 38.42 33.59 C38.94 34.06 39.46 34.52 40 35 C40 35.66 40 36.32 40 37 C39.24 37.41 38.48 37.83 37.7 38.26 C34.34 40.42 33.46 42.32 31.77 45.92 C31.22 47.09 30.66 48.26 30.09 49.47 C29.52 50.71 28.95 51.95 28.38 53.19 C27.8 54.41 27.22 55.63 26.64 56.85 C24.32 61.78 22.07 66.6 20.41 71.8 C19.95 72.86 19.48 73.91 19 75 C16.31 76 16.31 76 14 76 C2.31 54.48 -5.12 30.71 -1 6 C-0.81 4.87 -0.63 3.73 -0.44 2.56 C-0.29 1.72 -0.15 0.87 0 0 Z " fill="#957C54" transform="translate(669,842)"/>
<path d="M0 0 C2.79 2.76 5.54 5.54 8.16 8.45 C17.09 18.26 26.04 26.82 37.42 33.81 C37.94 34.2 38.46 34.59 39 35 C39 35.66 39 36.32 39 37 C38.34 37 37.68 37 37 37 C36.76 37.83 36.52 38.66 36.27 39.52 C34.8 43.54 32.85 47.01 30.69 50.69 C25.07 60.51 20.63 69.94 18 81 C12.27 78.69 10.44 73.36 8.12 67.95 C7.37 65.98 6.68 64 6 62 C5.76 61.35 5.51 60.7 5.26 60.03 C0.21 46.12 -0.41 32.68 -0.19 18.06 C-0.17 16.3 -0.16 14.54 -0.15 12.78 C-0.11 8.52 -0.06 4.26 0 0 Z " fill="#957C54" transform="translate(78,534)"/>
<path d="M0 0 C3.94 1.31 4.2 2.76 6.12 6.38 C10.89 14.81 16.74 21.89 23.69 28.62 C34.9 39.56 34.9 39.56 35 46 C33.37 47.7 31.69 49.36 30 51 C28.43 53.42 27.18 55.97 25.94 58.56 C25.59 59.26 25.25 59.96 24.9 60.68 C22.05 66.61 19.82 72.67 18 79 C15.65 78.79 15.65 78.79 13 78 C11.63 76.02 11.63 76.02 10.56 73.38 C10.15 72.37 9.74 71.36 9.32 70.33 C8.67 68.68 8.67 68.68 8 67 C7.5 65.9 7 64.8 6.49 63.67 C-2.38 43.43 -4.27 21.6 0 0 Z " fill="#957C54" transform="translate(675,236)"/>
<path d="M0 0 C0.99 0 1.98 0 3 0 C4.54 1.8 4.54 1.8 6.19 4.31 C6.8 5.22 7.4 6.12 8.03 7.06 C8.68 8.03 9.33 9 10 10 C11.38 11.97 12.78 13.92 14.19 15.88 C14.82 16.76 15.45 17.64 16.11 18.55 C17.95 21.05 17.95 21.05 20.24 23.2 C22 25 22 25 22 27 C22.66 27 23.32 27 24 27 C24 27.66 24 28.32 24 29 C20.06 29.12 16.13 29.19 12.19 29.25 C11.07 29.28 9.95 29.32 8.79 29.35 C7.72 29.36 6.65 29.38 5.54 29.39 C4.06 29.42 4.06 29.42 2.54 29.45 C0 29 0 29 -1.82 27.12 C-5.64 20.23 -2.6 9.29 -1 2 C-0.67 1.34 -0.34 0.68 0 0 Z " fill="#BEAF76" transform="translate(692,324)"/>
<path d="M0 0 C1.32 0.66 2.64 1.32 4 2 C3.32 2.68 2.63 3.37 1.93 4.07 C-0.15 6.14 -2.21 8.22 -4.27 10.3 C-5.45 11.49 -6.63 12.68 -7.81 13.88 C-8.39 14.46 -8.97 15.05 -9.56 15.65 C-12.5 18.6 -15.47 21.44 -18.64 24.14 C-23.45 28.33 -27.95 32.81 -32.46 37.33 C-33.33 38.2 -34.2 39.07 -35.1 39.97 C-36.93 41.79 -38.76 43.62 -40.58 45.45 C-43.38 48.26 -46.19 51.06 -49 53.86 C-50.78 55.64 -52.56 57.42 -54.34 59.2 C-55.6 60.46 -55.6 60.46 -56.88 61.74 C-57.65 62.52 -58.43 63.3 -59.23 64.1 C-59.91 64.78 -60.59 65.46 -61.29 66.17 C-63.18 68.09 -63.18 68.09 -65 71 C-65.66 71 -66.32 71 -67 71 C-65.34 66.67 -62.04 63.79 -58.81 60.61 C-58.17 59.98 -57.54 59.35 -56.88 58.7 C-55.51 57.33 -54.13 55.96 -52.75 54.6 C-50.57 52.45 -48.4 50.28 -46.22 48.12 C-41.61 43.53 -36.99 38.95 -32.38 34.38 C-27.02 29.06 -21.66 23.75 -16.31 18.43 C-14.17 16.29 -12.01 14.16 -9.86 12.03 C-8.55 10.73 -7.24 9.43 -5.94 8.13 C-5.33 7.54 -4.73 6.94 -4.1 6.33 C-2.7 4.92 -1.34 3.47 0 2 C0 1.34 0 0.68 0 0 Z " fill="#64452A" transform="translate(778,590)"/>
<path d="M0 0 C1.48 0.99 1.48 0.99 3 2 C3.27 4.98 3.35 7.75 3.29 10.73 C3.29 11.59 3.28 12.45 3.28 13.34 C3.26 16.1 3.23 18.86 3.19 21.62 C3.17 23.49 3.16 25.36 3.15 27.23 C3.11 31.82 3.06 36.41 3 41 C2.67 41 2.34 41 2 41 C0.31 35.87 -0.27 31.3 -0.2 25.88 C-0.19 25.13 -0.19 24.39 -0.19 23.62 C-0.18 21.27 -0.15 18.92 -0.12 16.56 C-0.11 14.96 -0.11 13.35 -0.1 11.74 C-0.08 7.83 -0.04 3.91 0 0 Z " fill="#7A5C3D" transform="translate(78,534)"/>
<path d="M0 0 C1.04 0.04 2.08 0.08 3.15 0.12 C4.29 0.16 5.43 0.21 6.61 0.25 C8.4 0.33 8.4 0.33 10.23 0.42 C12 0.48 12 0.48 13.81 0.54 C19.45 0.77 24.15 1.19 29.48 3.17 C29.48 3.5 29.48 3.83 29.48 4.17 C18.36 6.87 6.24 5.65 -4.52 2.17 C-2.52 0.17 -2.52 0.17 0 0 Z " fill="#624329" transform="translate(184.5185546875,587.8330078125)"/>
<path d="M0 0 C6.03 4.98 11.52 10.42 17 16 C16.34 16.66 15.68 17.32 15 18 C9.72 12.72 4.44 7.44 -1 2 C-0.67 1.34 -0.34 0.68 0 0 Z " fill="#63442A" transform="translate(721,290)"/>
<path d="M0 0 C3.83 1.54 5.94 3.91 8.62 7 C9.4 7.89 10.18 8.77 10.98 9.69 C11.98 10.83 11.98 10.83 13 12 C13.66 12.66 14.32 13.32 15 14 C14.67 14.99 14.34 15.98 14 17 C3.11 6.36 3.11 6.36 0 2 C0 1.34 0 0.68 0 0 Z " fill="#77583B" transform="translate(1180,522)"/>
<path d="M0 0 C0 3.5 -0.53 4.01 -2.75 6.56 C-3.26 7.16 -3.77 7.76 -4.3 8.38 C-6.09 10.08 -7.75 11.02 -10 12 C-8.52 8.55 -6.56 6.35 -3.88 3.75 C-3.15 3.04 -2.43 2.34 -1.68 1.61 C-1.13 1.08 -0.57 0.55 0 0 Z " fill="#76573A" transform="translate(952,754)"/>
<path d="M0 0 C1.81 2 1.81 2 3 4 C1.72 4.06 0.44 4.12 -0.88 4.19 C-1.59 4.22 -2.31 4.26 -3.05 4.29 C-3.7 4.2 -4.34 4.1 -5 4 C-5.66 3.01 -6.32 2.02 -7 1 C-4.43 -0.29 -2.85 -0.35 0 0 Z " fill="#624329" transform="translate(156,584)"/>
</svg>
