<?xml version="1.0" encoding="UTF-8"?>
<!-- Generator: visioncortex VTracer 0.6.3 -->
<svg version="1.1" xmlns="http://www.w3.org/2000/svg" width="1280" height="209">
<path d="M0 0 C422.4 0 844.8 0 1280 0 C1280 68.97 1280 137.94 1280 209 C857.6 209 435.2 209 0 209 C0 140.03 0 71.06 0 0 Z " fill="#300201" transform="translate(0,0)"/>
<path d="M0 0 C6.63 5.21 12.22 10.88 17.07 17.81 C17.76 18.8 18.45 19.79 19.16 20.8 C31.55 39.69 34.54 63.71 29.99 85.76 C27.01 97.57 20.86 107.6 13.07 116.81 C12.34 117.76 11.61 118.71 10.86 119.69 C7.75 123.41 3.99 126.07 0.07 128.88 C-4.63 132.26 -8.92 135.6 -12.93 139.81 C-25.13 151.39 -44.48 153.45 -60.55 153.06 C-81.82 152.12 -100.16 143.12 -114.93 127.81 C-129.13 111.64 -135.01 91.08 -133.93 69.81 C-132.39 52.49 -125.85 33.06 -113.5 20.3 C-111.37 18.66 -109.2 17.24 -106.93 15.81 C-105.58 14.69 -104.24 13.55 -102.93 12.38 C-101.95 11.51 -101.95 11.51 -100.95 10.63 C-99.56 9.38 -98.19 8.12 -96.82 6.84 C-70.41 -17.51 -29.54 -22.02 0 0 Z " fill="#FAFCFC" transform="translate(524.93359375,31.1875)"/>
<path d="M0 0 C1.47 0 2.94 0.01 4.41 0.03 C5.19 0.03 5.96 0.04 6.76 0.04 C9.23 0.05 11.71 0.08 14.19 0.1 C15.86 0.11 17.54 0.12 19.22 0.13 C23.33 0.15 27.45 0.19 31.56 0.23 C35.46 8.68 38.77 17.36 42.12 26.04 C43.37 29.25 44.61 32.47 45.85 35.68 C46.16 36.48 46.47 37.29 46.79 38.11 C48.81 43.32 50.86 48.52 52.92 53.71 C53.31 54.69 53.31 54.69 53.71 55.69 C54.92 58.74 56.14 61.79 57.36 64.83 C58 66.44 58 66.44 58.65 68.07 C59.2 69.47 59.2 69.47 59.77 70.89 C60.56 73.23 60.56 73.23 60.56 76.23 C61.22 76.23 61.88 76.23 62.56 76.23 C62.68 75.35 62.81 74.48 62.93 73.58 C63.53 70.36 64.41 67.63 65.6 64.59 C66.22 62.99 66.22 62.99 66.85 61.37 C67.29 60.25 67.73 59.13 68.19 57.98 C68.86 56.25 68.86 56.25 69.54 54.49 C71.59 49.21 73.67 43.95 75.78 38.69 C76.1 37.88 76.43 37.06 76.76 36.22 C77.36 34.72 77.97 33.23 78.58 31.75 C79.74 28.84 80.56 26.52 80.55 23.37 C80.55 22.66 80.56 21.96 80.56 21.23 C81.55 20.57 82.54 19.91 83.56 19.23 C84.56 17.28 84.56 17.28 85.25 15.1 C85.5 14.38 85.75 13.65 86.01 12.91 C86.19 12.35 86.37 11.8 86.56 11.23 C88.23 11.01 88.23 11.01 89.94 10.79 C93.38 10.44 93.38 10.44 95.56 9.23 C96.39 7.37 96.39 7.37 97.06 5.23 C97.78 3.04 97.78 3.04 98.56 1.23 C101.63 -0.31 104.83 0.11 108.19 0.13 C109.32 0.13 109.32 0.13 110.47 0.13 C112.88 0.14 115.28 0.15 117.69 0.16 C119.31 0.17 120.94 0.17 122.57 0.18 C126.57 0.19 130.56 0.21 134.56 0.23 C136.15 3.8 136.9 6.9 137.25 10.79 C137.35 11.9 137.45 13 137.56 14.15 C137.71 15.95 137.71 15.95 137.87 17.8 C137.99 19.07 138.1 20.35 138.22 21.67 C138.54 25.17 138.85 28.66 139.15 32.16 C139.48 35.84 139.81 39.51 140.14 43.18 C140.69 49.36 141.24 55.54 141.78 61.71 C142.55 70.39 143.32 79.06 144.1 87.73 C145.2 100.03 146.29 112.32 147.38 124.62 C147.53 126.41 147.53 126.41 147.7 128.22 C148.37 135.89 148.98 143.56 149.56 151.23 C144.94 151.56 140.32 151.89 135.56 152.23 C135.89 155.2 136.22 158.17 136.56 161.23 C128.41 162.21 120.5 162.24 112.31 161.85 C111.37 161.81 110.43 161.77 109.46 161.72 C102.69 161.36 102.69 161.36 101.56 160.23 C101.31 158.32 101.13 156.41 100.97 154.5 C100.87 153.28 100.77 152.05 100.66 150.79 C100.55 149.44 100.44 148.09 100.33 146.74 C100.22 145.37 100.11 143.99 99.99 142.61 C99.76 139.72 99.52 136.83 99.29 133.94 C99 130.24 98.69 126.54 98.38 122.84 C98.15 119.99 97.92 117.14 97.69 114.3 C97.58 112.93 97.46 111.57 97.35 110.21 C97.19 108.3 97.04 106.38 96.89 104.47 C96.8 103.38 96.71 102.3 96.62 101.18 C96.56 98.34 96.88 95.97 97.56 93.23 C96.9 93.23 96.24 93.23 95.56 93.23 C95.18 95.13 95.18 95.13 94.79 97.06 C93.58 102.48 91.81 107.63 89.94 112.84 C89.59 113.82 89.24 114.8 88.88 115.81 C88.15 117.86 87.42 119.92 86.68 121.97 C85.56 125.11 84.44 128.26 83.33 131.41 C82.61 133.41 81.9 135.41 81.19 137.41 C80.85 138.35 80.52 139.29 80.17 140.26 C79.86 141.13 79.55 142 79.22 142.9 C78.95 143.66 78.68 144.43 78.39 145.22 C77.56 147.23 77.56 147.23 75.56 150.23 C73.4 150.96 73.4 150.96 70.94 151.41 C70.12 151.57 69.3 151.73 68.46 151.9 C67.83 152 67.21 152.11 66.56 152.23 C65.57 156.19 65.57 156.19 64.56 160.23 C47.72 162.31 47.72 162.31 41.56 159.23 C40.74 157.43 40.74 157.43 39.93 155.07 C39.62 154.18 39.31 153.29 39 152.38 C38.67 151.42 38.34 150.45 38.01 149.45 C37.49 147.96 37.49 147.96 36.97 146.44 C35.87 143.25 34.78 140.05 33.69 136.85 C32.6 133.69 31.51 130.53 30.43 127.37 C29.75 125.4 29.07 123.43 28.4 121.46 C26.2 115.02 23.91 108.62 21.56 102.23 C19.98 103.81 20.26 105.55 20.08 107.75 C20 108.71 19.92 109.67 19.84 110.66 C19.71 112.23 19.71 112.23 19.59 113.82 C19.46 115.42 19.46 115.42 19.32 117.05 C19.04 120.46 18.77 123.88 18.5 127.29 C18.31 129.6 18.12 131.91 17.93 134.21 C17.47 139.88 17.01 145.56 16.56 151.23 C8.59 152.06 0.87 152.29 -7.13 151.85 C-8.61 151.79 -8.61 151.79 -10.12 151.72 C-17.3 151.36 -17.3 151.36 -18.44 150.23 C-18.41 147.73 -18.3 145.27 -18.14 142.77 C-18.07 141.58 -18.07 141.58 -18 140.36 C-17.28 129.05 -16.22 117.76 -15.19 106.47 C-14.97 104.03 -14.75 101.58 -14.53 99.14 C-14.07 94.05 -13.61 88.97 -13.15 83.88 C-12.56 77.38 -11.97 70.87 -11.38 64.37 C-10.93 59.34 -10.47 54.31 -10.02 49.28 C-9.8 46.88 -9.58 44.48 -9.37 42.08 C-9.06 38.73 -8.76 35.39 -8.46 32.04 C-8.37 31.06 -8.28 30.08 -8.19 29.07 C-7.81 24.94 -7.4 20.84 -6.81 16.74 C-6.2 13.26 -6.2 13.26 -7.44 10.23 C-6.78 10.23 -6.12 10.23 -5.44 10.23 C-5.48 8.95 -5.52 7.67 -5.56 6.35 C-5.64 4.17 -5.64 4.17 -5.44 2.23 C-3.44 0.23 -3.44 0.23 0 0 Z " fill="#FAFCFC" transform="translate(956.43994140625,19.77294921875)"/>
<path d="M0 0 C1.17 -0.01 2.35 -0.03 3.55 -0.04 C5.47 -0.04 5.47 -0.04 7.42 -0.05 C8.74 -0.05 10.05 -0.06 11.41 -0.07 C14.21 -0.08 17 -0.08 19.8 -0.08 C23.34 -0.08 26.88 -0.11 30.42 -0.14 C33.18 -0.16 35.93 -0.17 38.68 -0.17 C40.61 -0.17 42.54 -0.19 44.46 -0.21 C58.75 -0.14 73.62 3.05 84.39 12.99 C91.56 21.14 95.73 30.43 96.41 41.29 C96.48 42.11 96.55 42.93 96.62 43.77 C97.15 55.81 94.02 66.92 86.41 76.29 C81.98 81.04 77.06 84.3 71.29 87.25 C69.25 88.27 69.25 88.27 67.41 90.29 C71.43 95.83 75.73 101.09 80.17 106.3 C83.12 109.76 86.04 113.26 88.91 116.79 C92.2 120.83 95.54 124.82 98.91 128.79 C102.43 132.94 105.94 137.1 109.41 141.29 C110.11 142.14 110.81 142.98 111.54 143.85 C113.41 146.29 113.41 146.29 116.41 151.29 C110.14 151.62 103.87 151.95 97.41 152.29 C98.4 153.59 99.39 154.89 100.41 156.23 C103.41 160.17 103.41 160.17 103.41 161.29 C95.57 162.44 87.81 162.4 79.91 162.21 C78.4 162.18 76.9 162.16 75.39 162.15 C73.2 162.13 71 162.09 68.8 162.03 C67.5 162.01 66.2 161.99 64.87 161.97 C60.56 161.12 59.18 159.62 56.41 156.29 C55.88 155.68 55.34 155.07 54.79 154.44 C54.33 153.88 53.87 153.31 53.4 152.72 C52.87 152.08 52.35 151.44 51.81 150.77 C51.26 150.1 50.72 149.42 50.16 148.73 C49.59 148.02 49.02 147.32 48.44 146.6 C43.61 140.6 38.98 134.48 34.41 128.29 C32.43 125.65 30.45 123.01 28.41 120.29 C28.08 130.52 27.75 140.75 27.41 151.29 C19.07 151.93 11.41 152.39 3.16 151.92 C1.76 151.85 1.76 151.85 0.33 151.78 C-6.45 151.43 -6.45 151.43 -7.59 150.29 C-7.7 148.5 -7.74 146.7 -7.75 144.91 C-7.76 143.74 -7.78 142.57 -7.79 141.37 C-7.79 140.08 -7.8 138.78 -7.81 137.45 C-7.82 136.09 -7.83 134.72 -7.84 133.35 C-7.88 129.63 -7.9 125.91 -7.92 122.18 C-7.95 119.07 -7.97 115.97 -7.99 112.86 C-8.05 105.52 -8.1 98.18 -8.15 90.84 C-8.2 83.28 -8.25 75.71 -8.31 68.15 C-8.36 61.66 -8.41 55.16 -8.45 48.67 C-8.48 44.79 -8.51 40.91 -8.54 37.03 C-8.57 33.38 -8.59 29.73 -8.61 26.07 C-8.63 24.1 -8.64 22.13 -8.66 20.16 C-8.72 8.21 -8.72 8.21 -7.59 2.29 C-4.94 -0.36 -3.7 0.03 0 0 Z " fill="#FAFCFC" transform="translate(272.588623046875,19.70947265625)"/>
<path d="M0 0 C0.73 0 1.45 0 2.2 0 C4.42 -0 6.63 -0.02 8.84 -0.04 C10.25 -0.04 11.65 -0.04 13.05 -0.04 C14.33 -0.05 15.61 -0.05 16.93 -0.06 C19.99 0.19 19.99 0.19 21.99 2.19 C22.27 4.59 22.27 4.59 22.31 7.65 C22.33 8.79 22.35 9.93 22.37 11.1 C22.38 12.34 22.39 13.58 22.4 14.85 C22.42 16.11 22.44 17.37 22.46 18.67 C22.51 22.03 22.55 25.39 22.59 28.75 C22.63 32.17 22.68 35.6 22.73 39.02 C22.83 45.74 22.91 52.46 22.99 59.19 C23.99 59.18 23.99 59.18 25.02 59.17 C28.11 59.15 31.21 59.14 34.3 59.12 C35.36 59.11 36.41 59.11 37.49 59.1 C44.38 59.08 51.14 59.43 57.99 60.19 C57.95 59.01 57.92 57.83 57.88 56.62 C57.75 52.27 57.63 47.93 57.51 43.58 C57.45 41.69 57.4 39.81 57.34 37.92 C57.26 35.22 57.19 32.52 57.11 29.81 C57.08 28.97 57.06 28.12 57.03 27.25 C56.98 25.23 56.98 23.21 56.99 21.19 C57.49 20.69 57.49 20.69 57.99 20.19 C57.96 18.16 57.92 16.12 57.83 14.1 C57.99 12.19 57.99 12.19 59.99 10.19 C62.59 9.99 62.59 9.99 65.62 10.06 C66.62 10.08 67.62 10.1 68.65 10.12 C69.43 10.14 70.2 10.16 70.99 10.19 C70.98 9.55 70.97 8.91 70.96 8.25 C70.95 7.43 70.94 6.6 70.93 5.75 C70.92 4.92 70.9 4.1 70.89 3.25 C70.99 1.19 70.99 1.19 71.99 0.19 C74.35 0.08 76.69 0.05 79.05 0.05 C79.76 0.05 80.47 0.05 81.19 0.05 C82.69 0.05 84.19 0.05 85.68 0.06 C87.98 0.06 90.28 0.06 92.58 0.05 C94.03 0.05 95.48 0.05 96.93 0.05 C97.62 0.05 98.31 0.05 99.02 0.05 C103.88 0.07 103.88 0.07 104.99 1.19 C105.09 3.12 105.11 5.06 105.11 7 C105.11 8.9 105.11 8.9 105.11 10.83 C105.11 12.24 105.11 13.66 105.1 15.07 C105.1 16.55 105.1 18.02 105.1 19.5 C105.1 23.53 105.1 27.55 105.09 31.58 C105.09 35.78 105.08 39.98 105.08 44.18 C105.08 52.14 105.07 60.1 105.06 68.06 C105.05 77.13 105.05 86.19 105.04 95.25 C105.03 113.89 105.01 132.54 104.99 151.19 C100.7 151.52 96.41 151.85 91.99 152.19 C92.32 152.52 92.65 152.85 92.99 153.19 C93.13 155.86 93.03 158.51 92.99 161.19 C84.84 162.17 76.93 162.2 68.74 161.81 C67.8 161.77 66.86 161.72 65.89 161.68 C59.12 161.32 59.12 161.32 57.99 160.19 C57.87 158.38 57.81 156.56 57.78 154.75 C57.75 153.01 57.75 153.01 57.72 151.23 C57.71 149.97 57.69 148.7 57.67 147.4 C57.65 146.11 57.63 144.83 57.61 143.5 C57.56 140.08 57.51 136.65 57.46 133.23 C57.41 129.74 57.35 126.25 57.3 122.75 C57.19 115.9 57.09 109.04 56.99 102.19 C52.31 102.02 47.63 101.86 42.95 101.7 C41.35 101.65 39.76 101.59 38.16 101.54 C35.88 101.46 33.59 101.38 31.31 101.31 C30.59 101.28 29.87 101.25 29.13 101.22 C27.42 101.17 25.71 101.17 23.99 101.19 C22.38 102.8 22.82 104.57 22.78 106.8 C22.76 107.78 22.75 108.76 22.72 109.77 C22.71 110.84 22.69 111.9 22.67 113 C22.65 114.09 22.63 115.17 22.61 116.29 C22.55 119.78 22.49 123.26 22.43 126.75 C22.38 129.1 22.34 131.46 22.3 133.82 C22.19 139.61 22.09 145.4 21.99 151.19 C13.84 151.96 5.91 152.29 -2.26 151.81 C-3.66 151.74 -3.66 151.74 -5.09 151.68 C-11.87 151.32 -11.87 151.32 -13.01 150.19 C-13.12 148.4 -13.17 146.6 -13.18 144.81 C-13.19 143.64 -13.21 142.48 -13.22 141.28 C-13.23 139.99 -13.24 138.69 -13.25 137.36 C-13.26 136 -13.27 134.63 -13.29 133.27 C-13.32 129.55 -13.35 125.83 -13.38 122.11 C-13.4 119.79 -13.42 117.46 -13.43 115.14 C-13.5 107.02 -13.56 98.91 -13.62 90.79 C-13.68 83.23 -13.74 75.68 -13.81 68.12 C-13.87 61.63 -13.92 55.15 -13.97 48.66 C-14 44.78 -14.03 40.91 -14.07 37.03 C-14.1 33.38 -14.13 29.73 -14.15 26.08 C-14.16 24.11 -14.18 22.15 -14.21 20.18 C-14.23 13.52 -13.84 7.61 -12.01 1.19 C-9.53 -1.29 -3.47 0.01 0 0 Z " fill="#FAFCFC" transform="translate(54.009765625,19.814453125)"/>
<path d="M0 0 C1.02 -0 1.02 -0 2.06 -0.01 C3.5 -0.01 4.94 -0 6.38 0 C8.59 0.02 10.79 0 13 -0.01 C14.39 -0.01 15.79 -0 17.19 0 C18.46 0 19.74 0 21.05 0.01 C24.09 0.27 24.09 0.27 26.09 2.27 C26.37 4.67 26.37 4.67 26.41 7.73 C26.43 8.87 26.45 10.01 26.47 11.18 C26.48 12.42 26.5 13.66 26.51 14.93 C26.53 16.19 26.55 17.45 26.57 18.75 C26.62 22.11 26.66 25.47 26.69 28.83 C26.73 32.25 26.79 35.68 26.84 39.1 C26.93 45.82 27.02 52.54 27.09 59.27 C28.1 59.26 28.1 59.26 29.12 59.25 C32.22 59.23 35.31 59.22 38.41 59.2 C39.46 59.19 40.51 59.19 41.6 59.18 C48.49 59.16 55.24 59.51 62.09 60.27 C62.06 59.13 62.02 58 61.99 56.83 C61.85 52.58 61.73 48.34 61.61 44.1 C61.56 42.27 61.5 40.44 61.45 38.61 C61.36 35.96 61.29 33.32 61.21 30.68 C61.19 29.87 61.16 29.06 61.13 28.23 C61 22.93 60.91 17.46 62.09 12.27 C64.09 10.27 64.09 10.27 66.48 10.07 C67.38 10.09 68.29 10.12 69.22 10.14 C70.13 10.16 71.04 10.18 71.98 10.2 C72.68 10.22 73.37 10.24 74.09 10.27 C74.05 8.99 74.01 7.71 73.97 6.39 C73.9 4.21 73.9 4.21 74.09 2.27 C76.96 -0.6 78.99 0.01 83 0 C84.02 -0 84.02 -0 85.06 -0.01 C86.5 -0.01 87.94 -0 89.38 0 C91.59 0.02 93.79 0 96 -0.01 C97.39 -0.01 98.79 -0 100.19 0 C101.46 0 102.74 0 104.05 0.01 C107.09 0.27 107.09 0.27 109.09 2.27 C109.34 4.84 109.34 4.84 109.33 8.16 C109.34 9.42 109.34 10.68 109.34 11.97 C109.34 13.37 109.33 14.77 109.32 16.17 C109.32 17.64 109.32 19.11 109.32 20.58 C109.32 24.57 109.31 28.56 109.3 32.56 C109.28 36.73 109.28 40.9 109.28 45.07 C109.27 52.97 109.26 60.87 109.24 68.77 C109.22 77.77 109.2 86.76 109.19 95.75 C109.17 114.26 109.14 132.76 109.09 151.27 C105.13 151.6 101.17 151.93 97.09 152.27 C97.09 155.24 97.09 158.21 97.09 161.27 C88.75 162.16 80.65 162.31 72.28 161.89 C71.39 161.85 70.5 161.8 69.58 161.76 C63.23 161.4 63.23 161.4 62.09 160.27 C61.97 158.46 61.92 156.64 61.89 154.83 C61.86 153.09 61.86 153.09 61.83 151.31 C61.81 150.05 61.79 148.78 61.78 147.48 C61.76 146.19 61.74 144.91 61.71 143.58 C61.66 140.16 61.61 136.73 61.56 133.31 C61.51 129.82 61.46 126.33 61.4 122.83 C61.29 115.98 61.19 109.12 61.09 102.27 C60.1 102.24 59.1 102.22 58.08 102.19 C54.4 102.1 50.73 102 47.05 101.89 C45.46 101.85 43.86 101.81 42.27 101.77 C39.98 101.71 37.7 101.65 35.41 101.58 C34.69 101.57 33.98 101.55 33.24 101.53 C28.21 101.38 28.21 101.38 27.09 100.27 C26.76 117.1 26.43 133.93 26.09 151.27 C17.75 151.91 10.09 152.37 1.84 151.89 C0.44 151.82 0.44 151.82 -0.99 151.76 C-7.77 151.4 -7.77 151.4 -8.91 150.27 C-9.01 148.36 -9.04 146.45 -9.04 144.54 C-9.04 143.3 -9.05 142.05 -9.05 140.77 C-9.05 139.38 -9.05 137.99 -9.05 136.6 C-9.05 135.14 -9.06 133.69 -9.06 132.23 C-9.07 128.27 -9.07 124.31 -9.07 120.34 C-9.07 117.04 -9.08 113.74 -9.08 110.44 C-9.09 102.65 -9.09 94.86 -9.09 87.07 C-9.09 79.02 -9.1 70.97 -9.12 62.93 C-9.13 56.03 -9.14 49.13 -9.14 42.23 C-9.13 38.11 -9.14 33.98 -9.15 29.86 C-9.16 25.98 -9.16 22.1 -9.15 18.22 C-9.15 16.79 -9.15 15.37 -9.16 13.94 C-9.17 12 -9.16 10.06 -9.15 8.12 C-9.15 6.49 -9.15 6.49 -9.16 4.82 C-8.61 -0.82 -4.72 0.01 0 0 Z " fill="#FAFCFC" transform="translate(730.90625,19.734375)"/>
<path d="M0 0 C0.65 0.24 1.29 0.48 1.96 0.73 C6.17 2.39 9.73 4.34 13.31 7.06 C13.31 7.72 13.31 8.38 13.31 9.06 C13.97 9.06 14.63 9.06 15.31 9.06 C13.62 13.55 11.53 17.79 9.38 22.06 C9.03 22.76 8.68 23.46 8.32 24.18 C6.46 27.9 4.52 31.52 2.31 35.06 C-2.44 34.19 -2.44 34.19 -4.69 33.06 C-4.77 33.72 -4.85 34.38 -4.94 35.06 C-5.94 39.05 -7.76 42.45 -9.69 46.06 C-13.57 45.09 -16.96 44 -20.5 42.12 C-28.58 37.96 -36.67 36.56 -45.69 36.06 C-46.89 38.91 -46.69 40.07 -45.68 43.05 C-43.28 46.68 -40.64 48.35 -36.88 50.31 C-36.19 50.69 -35.5 51.06 -34.79 51.45 C-27.88 55.14 -20.71 58.31 -13.49 61.35 C0.19 67.28 11.57 77.72 18.31 91.06 C21.53 100.72 20.31 114.32 16.57 123.59 C13.09 130.43 8.38 135.18 2.56 140.11 C0.23 142.08 0.23 142.08 -2.1 144.52 C-11.22 153.49 -20.29 157.69 -32.69 160.06 C-33.76 160.29 -33.76 160.29 -34.85 160.52 C-58.56 164.48 -83.58 157.86 -103 144.12 C-103.89 143.44 -104.77 142.76 -105.69 142.06 C-105.02 138.27 -103.29 135.47 -101.31 132.2 C-100.64 131.09 -99.96 129.97 -99.27 128.82 C-98.55 127.65 -97.84 126.48 -97.12 125.31 C-96.41 124.13 -95.69 122.94 -94.97 121.75 C-93.21 118.85 -91.45 115.96 -89.69 113.06 C-88.04 113.39 -86.39 113.72 -84.69 114.06 C-84.37 113.53 -84.06 113 -83.73 112.45 C-83.31 111.75 -82.88 111.04 -82.44 110.31 C-82.02 109.62 -81.6 108.92 -81.17 108.2 C-79.56 105.87 -77.74 104.01 -75.69 102.06 C-75.16 102.47 -74.64 102.89 -74.1 103.31 C-68.66 107.37 -63.05 110.54 -56.94 113.44 C-56.22 113.78 -55.5 114.13 -54.75 114.48 C-49.2 117.05 -44.15 118.21 -38 118.19 C-36.88 118.19 -36.88 118.19 -35.74 118.2 C-33.49 118.14 -33.49 118.14 -30.69 117.06 C-30.91 115.87 -31.14 114.67 -31.38 113.44 C-31.5 112.76 -31.63 112.09 -31.76 111.4 C-35.04 103.12 -41.83 100.72 -49.5 97.31 C-67.81 88.84 -84.82 80.8 -92.69 61.06 C-95.56 49.57 -93.24 37.23 -87.22 27.1 C-84.97 24.1 -82.29 21.8 -79.36 19.47 C-77.57 18.15 -77.57 18.15 -76.69 16.06 C-76.01 15.69 -75.33 15.32 -74.62 14.94 C-71.9 13.2 -70.19 11.58 -68 9.25 C-49.71 -9.39 -22.88 -8.52 0 0 Z " fill="#FAFCFC" transform="translate(672.6875,22.9375)"/>
<path d="M0 0 C0.99 0 0.99 0 2.01 0 C4.13 0.01 6.25 0.02 8.37 0.04 C9.8 0.04 11.24 0.04 12.68 0.05 C16.2 0.06 19.72 0.08 23.24 0.1 C26.81 6.98 29.93 13.95 32.8 21.15 C33.21 22.19 33.63 23.23 34.06 24.3 C35.42 27.67 36.77 31.04 38.12 34.41 C39.07 36.77 40.02 39.13 40.96 41.5 C42.86 46.2 44.75 50.91 46.64 55.62 C49.72 63.29 52.82 70.94 55.94 78.59 C61.93 93.32 67.87 108.08 73.8 122.84 C74.71 125.13 75.63 127.41 76.55 129.7 C77.84 132.89 79.12 136.08 80.39 139.27 C80.78 140.23 81.17 141.2 81.58 142.19 C81.93 143.08 82.28 143.96 82.64 144.87 C83.11 146.03 83.11 146.03 83.58 147.21 C84.24 149.1 84.24 149.1 84.24 151.1 C79.29 151.43 74.34 151.76 69.24 152.1 C70.56 155.4 71.88 158.7 73.24 162.1 C63.92 162.21 54.62 162.11 45.3 161.66 C44.43 161.62 43.57 161.58 42.67 161.54 C36.49 161.22 36.49 161.22 34.24 160.1 C33.38 158.14 32.62 156.14 31.89 154.13 C31.45 152.92 31.01 151.71 30.56 150.46 C30.1 149.17 29.64 147.89 29.18 146.6 C28.28 144.09 27.37 141.58 26.46 139.07 C26.06 137.95 25.66 136.83 25.24 135.67 C24.48 133.2 24.48 133.2 23.24 132.1 C21.77 131.98 20.29 131.92 18.81 131.89 C17.87 131.87 16.93 131.85 15.96 131.83 C14.94 131.82 13.92 131.8 12.86 131.78 C11.82 131.76 10.78 131.74 9.71 131.72 C6.36 131.65 3.02 131.59 -0.32 131.54 C-2.58 131.49 -4.84 131.45 -7.1 131.4 C-12.65 131.3 -18.2 131.2 -23.76 131.1 C-23.96 131.67 -24.17 132.24 -24.38 132.83 C-25.32 135.4 -26.26 137.97 -27.2 140.54 C-27.52 141.43 -27.85 142.33 -28.18 143.26 C-28.49 144.11 -28.81 144.96 -29.13 145.84 C-29.42 146.63 -29.7 147.43 -30 148.24 C-30.76 150.1 -30.76 150.1 -31.76 151.1 C-39.58 152.53 -47.49 152.04 -55.38 151.66 C-56.58 151.61 -57.77 151.56 -59 151.5 C-61.92 151.37 -64.84 151.24 -67.76 151.1 C-68.76 149.1 -68.76 149.1 -67.88 146.44 C-67.42 145.31 -66.95 144.19 -66.47 143.03 C-66.09 142.1 -66.09 142.1 -65.7 141.15 C-64.85 139.09 -63.99 137.03 -63.13 134.97 C-62.53 133.52 -61.94 132.07 -61.34 130.61 C-60.09 127.59 -58.85 124.58 -57.6 121.56 C-55.1 115.5 -52.63 109.43 -50.17 103.35 C-49.1 100.72 -48.03 98.09 -46.97 95.46 C-46.14 93.42 -45.31 91.38 -44.48 89.34 C-43.29 86.42 -42.11 83.5 -40.92 80.57 C-34.5 64.77 -28.08 48.96 -21.73 33.12 C-21.21 31.83 -20.7 30.54 -20.18 29.25 C-19.47 27.48 -18.76 25.72 -18.05 23.95 C-17.65 22.96 -17.26 21.97 -16.85 20.95 C-15.73 18.02 -14.74 15.07 -13.76 12.1 C-12.95 10.15 -12.12 8.21 -11.26 6.29 C-10.84 5.33 -10.41 4.37 -9.98 3.39 C-7.69 -0.92 -4.5 -0.02 0 0 Z " fill="#FAFCFC" transform="translate(1186.7578125,19.90234375)"/>
<path d="M0 0 C0.68 -0 1.37 -0 2.07 -0 C3.51 -0 4.96 -0 6.4 0 C8.62 0.01 10.83 0 13.05 -0 C14.45 -0 15.85 -0 17.25 0 C18.53 0 19.81 0 21.13 0 C24.06 0.13 24.06 0.13 25.06 1.13 C25.17 3.05 25.21 4.98 25.22 6.9 C25.23 8.16 25.25 9.41 25.26 10.7 C25.27 12.1 25.27 13.51 25.28 14.91 C25.29 16.37 25.3 17.84 25.31 19.31 C25.35 23.3 25.37 27.29 25.39 31.29 C25.42 35.46 25.45 39.63 25.48 43.8 C25.53 50.8 25.57 57.81 25.62 64.81 C25.67 72.92 25.72 81.03 25.78 89.14 C25.83 96.09 25.88 103.04 25.92 109.99 C25.95 114.15 25.98 118.31 26.01 122.46 C26.04 126.37 26.06 130.28 26.08 134.18 C26.09 135.62 26.1 137.06 26.11 138.5 C26.13 140.45 26.14 142.41 26.15 144.36 C26.16 146.01 26.16 146.01 26.17 147.69 C26.06 150.13 26.06 150.13 25.06 151.13 C23.21 151.37 21.35 151.55 19.5 151.7 C18.48 151.78 17.47 151.86 16.43 151.95 C15.65 152.01 14.86 152.07 14.06 152.13 C13.73 155.1 13.4 158.07 13.06 161.13 C5.11 162.22 -2.63 162.12 -10.63 161.76 C-11.62 161.71 -12.61 161.67 -13.64 161.63 C-20.81 161.26 -20.81 161.26 -21.94 160.13 C-22.05 158.34 -22.09 156.54 -22.11 154.74 C-22.12 153.57 -22.13 152.4 -22.14 151.2 C-22.15 149.9 -22.16 148.61 -22.16 147.28 C-22.17 145.91 -22.19 144.54 -22.2 143.17 C-22.23 139.45 -22.25 135.72 -22.28 132 C-22.3 128.11 -22.33 124.22 -22.36 120.33 C-22.41 113.79 -22.46 107.26 -22.5 100.73 C-22.55 93.16 -22.6 85.6 -22.66 78.03 C-22.72 71.55 -22.76 65.07 -22.81 58.58 C-22.83 54.7 -22.86 50.83 -22.89 46.95 C-22.92 43.31 -22.95 39.66 -22.97 36.02 C-22.98 34.03 -23 32.05 -23.01 30.07 C-23.02 28.9 -23.02 27.73 -23.03 26.52 C-23.04 25.5 -23.04 24.48 -23.05 23.42 C-22.94 21.13 -22.94 21.13 -21.94 20.13 C-21.97 18.1 -22.01 16.07 -22.1 14.04 C-21.94 12.13 -21.94 12.13 -19.94 10.13 C-17.34 9.94 -17.34 9.94 -14.32 10.01 C-12.81 10.03 -12.81 10.03 -11.28 10.06 C-10.51 10.09 -9.74 10.11 -8.94 10.13 C-8.94 7.16 -8.94 4.19 -8.94 1.13 C-5.98 -0.35 -3.3 0 0 0 Z " fill="#FAFCFC" transform="translate(203.94140625,19.8671875)"/>
<path d="M0 0 C0.68 -0 1.37 -0 2.07 -0 C3.51 -0 4.96 -0 6.4 0 C8.62 0.01 10.83 0 13.05 -0 C14.45 -0 15.85 -0 17.25 0 C18.53 0 19.81 0 21.13 0 C24.06 0.13 24.06 0.13 25.06 1.13 C25.16 3.07 25.18 5.01 25.18 6.95 C25.18 8.21 25.18 9.47 25.18 10.78 C25.18 12.19 25.18 13.6 25.17 15.02 C25.17 16.49 25.17 17.97 25.17 19.45 C25.17 23.47 25.17 27.5 25.16 31.52 C25.15 35.72 25.15 39.93 25.15 44.13 C25.15 52.09 25.14 60.05 25.13 68.01 C25.12 77.07 25.11 86.14 25.11 95.2 C25.1 113.84 25.08 132.49 25.06 151.13 C21.1 151.46 17.14 151.79 13.06 152.13 C13.06 155.1 13.06 158.07 13.06 161.13 C4.91 162.12 -3 162.15 -11.19 161.76 C-12.13 161.71 -13.07 161.67 -14.04 161.63 C-20.81 161.26 -20.81 161.26 -21.94 160.13 C-22.05 158.34 -22.09 156.54 -22.11 154.74 C-22.12 153.57 -22.13 152.4 -22.14 151.2 C-22.15 149.9 -22.16 148.61 -22.16 147.28 C-22.17 145.91 -22.19 144.54 -22.2 143.17 C-22.23 139.45 -22.25 135.72 -22.28 132 C-22.3 128.11 -22.33 124.22 -22.36 120.33 C-22.41 113.79 -22.46 107.26 -22.5 100.73 C-22.55 93.16 -22.6 85.6 -22.66 78.03 C-22.72 71.55 -22.76 65.07 -22.81 58.58 C-22.83 54.7 -22.86 50.83 -22.89 46.95 C-22.92 43.31 -22.95 39.66 -22.97 36.02 C-22.98 34.03 -23 32.05 -23.01 30.07 C-23.02 28.9 -23.02 27.73 -23.03 26.52 C-23.04 25.5 -23.04 24.48 -23.05 23.42 C-22.94 21.13 -22.94 21.13 -21.94 20.13 C-21.96 19.02 -21.98 17.91 -22 16.76 C-21.94 13.13 -21.94 13.13 -19.94 10.13 C-17.34 9.84 -17.34 9.84 -14.32 9.95 C-12.81 9.99 -12.81 9.99 -11.28 10.03 C-10.51 10.06 -9.74 10.1 -8.94 10.13 C-8.94 7.16 -8.94 4.19 -8.94 1.13 C-5.98 -0.35 -3.3 0 0 0 Z " fill="#FAFCFC" transform="translate(884.94140625,19.8671875)"/>
<path d="M0 0 C0.99 0.33 1.98 0.66 3 1 C4.34 0.67 5.67 0.34 7 0 C18.65 -0.79 29.27 -0.49 38.54 7.56 C41 9.99 42.84 12.71 44.69 15.62 C45.25 16.45 45.25 16.45 45.83 17.3 C51.47 26.07 52.54 35.72 52.44 45.94 C52.43 47.51 52.43 47.51 52.42 49.12 C52.28 56.8 51.3 63 48 70 C47.69 70.89 47.37 71.78 47.05 72.69 C45.52 76.07 43.36 76.66 40 78 C30.64 80.71 18.31 80.21 9.39 76.33 C-0.85 70.63 -7.48 63.2 -11 52 C-14.91 36.91 -13.57 21.97 -6.28 8.12 C-4.97 5.95 -3.65 3.93 -2 2 C-1.34 2 -0.68 2 0 2 C0 1.34 0 0.68 0 0 Z " fill="#300201" transform="translate(454,61)"/>
<path d="M0 0 C1.21 -0 1.21 -0 2.44 -0.01 C4.44 0.12 4.44 0.12 5.44 1.12 C5.55 2.92 5.58 4.72 5.6 6.52 C5.61 7.69 5.62 8.86 5.63 10.07 C5.63 12.01 5.63 12.01 5.64 14 C5.65 15.37 5.66 16.74 5.67 18.11 C5.7 21.84 5.72 25.57 5.74 29.29 C5.76 33.19 5.79 37.08 5.82 40.97 C5.87 48.35 5.91 55.73 5.95 63.11 C6 71.5 6.06 79.9 6.11 88.29 C6.23 105.57 6.34 122.85 6.44 140.12 C16.83 140.62 16.83 140.62 27.44 141.12 C27.44 144.43 27.44 147.72 27.44 151.12 C23.48 151.46 19.52 151.78 15.44 152.12 C15.44 155.43 15.44 158.72 15.44 162.12 C10.77 162.2 6.11 162.25 1.45 162.29 C-0.14 162.3 -1.73 162.33 -3.31 162.35 C-5.59 162.39 -7.87 162.4 -10.15 162.42 C-10.86 162.43 -11.57 162.45 -12.3 162.46 C-14.31 162.47 -14.31 162.47 -17.56 162.12 C-19.88 158.65 -19.81 157.33 -19.82 153.23 C-19.82 152.01 -19.83 150.78 -19.83 149.51 C-19.83 148.14 -19.83 146.78 -19.82 145.41 C-19.82 143.98 -19.83 142.54 -19.83 141.11 C-19.84 137.21 -19.84 133.31 -19.83 129.41 C-19.83 125.33 -19.83 121.25 -19.83 117.17 C-19.84 110.32 -19.83 103.48 -19.82 96.63 C-19.81 88.71 -19.82 80.78 -19.83 72.86 C-19.84 66.06 -19.84 59.27 -19.83 52.47 C-19.83 48.41 -19.83 44.35 -19.84 40.28 C-19.84 36.47 -19.84 32.65 -19.83 28.83 C-19.82 27.43 -19.82 26.02 -19.83 24.62 C-19.83 22.71 -19.83 20.8 -19.82 18.89 C-19.82 17.82 -19.81 16.75 -19.81 15.64 C-19.56 13.12 -19.56 13.12 -17.56 11.12 C-14.96 10.93 -14.96 10.93 -11.94 11 C-10.43 11.03 -10.43 11.03 -8.9 11.05 C-8.13 11.08 -7.36 11.1 -6.56 11.12 C-6.56 7.83 -6.56 4.52 -6.56 1.12 C-4.18 -0.06 -2.65 -0.01 0 0 Z " fill="#6D4C33" transform="translate(259.5625,29.875)"/>
<path d="M0 0 C0.79 -0.01 1.59 -0.03 2.41 -0.04 C4.5 0.19 4.5 0.19 6.5 2.19 C6.75 4.59 6.75 4.59 6.74 7.67 C6.74 8.83 6.75 9.99 6.75 11.19 C6.74 12.48 6.73 13.76 6.73 15.08 C6.73 16.44 6.73 17.8 6.73 19.16 C6.73 22.86 6.72 26.56 6.7 30.26 C6.69 34.12 6.69 37.98 6.69 41.84 C6.68 49.16 6.66 56.48 6.64 63.79 C6.62 72.12 6.61 80.45 6.6 88.78 C6.58 105.92 6.54 123.05 6.5 140.19 C16.89 140.68 16.89 140.68 27.5 141.19 C27.5 144.49 27.5 147.79 27.5 151.19 C23.54 151.52 19.58 151.85 15.5 152.19 C15.5 155.49 15.5 158.79 15.5 162.19 C10.98 162.26 6.46 162.32 1.94 162.35 C0.4 162.37 -1.14 162.39 -2.68 162.41 C-4.89 162.45 -7.1 162.47 -9.3 162.48 C-10.34 162.5 -10.34 162.5 -11.39 162.53 C-13.34 162.53 -13.34 162.53 -16.5 162.19 C-18.82 158.71 -18.75 157.39 -18.75 153.3 C-18.76 152.07 -18.77 150.84 -18.77 149.57 C-18.77 148.21 -18.76 146.84 -18.76 145.48 C-18.76 144.04 -18.77 142.61 -18.77 141.17 C-18.78 137.27 -18.77 133.37 -18.77 129.47 C-18.76 125.39 -18.77 121.31 -18.77 117.23 C-18.78 110.39 -18.77 103.54 -18.76 96.69 C-18.75 88.77 -18.75 80.85 -18.76 72.92 C-18.77 66.13 -18.77 59.33 -18.77 52.53 C-18.77 48.47 -18.77 44.41 -18.77 40.35 C-18.78 36.53 -18.77 32.71 -18.76 28.89 C-18.76 27.49 -18.76 26.09 -18.77 24.68 C-18.77 22.77 -18.76 20.86 -18.75 18.95 C-18.75 17.88 -18.75 16.81 -18.75 15.71 C-18.5 13.19 -18.5 13.19 -16.5 11.19 C-14.34 10.99 -14.34 10.99 -11.88 11.06 C-10.65 11.09 -10.65 11.09 -9.4 11.12 C-8.46 11.15 -8.46 11.15 -7.5 11.19 C-7.45 10.48 -7.4 9.77 -7.35 9.04 C-7.28 8.12 -7.2 7.2 -7.12 6.25 C-7.06 5.33 -6.99 4.42 -6.91 3.47 C-6.78 2.72 -6.64 1.96 -6.5 1.19 C-4.15 0.01 -2.62 0.02 0 0 Z " fill="#6D4C33" transform="translate(716.5,29.8125)"/>
<path d="M0 0 C1.73 1.73 1.14 4.04 1.16 6.4 C1.17 7.57 1.18 8.74 1.19 9.95 C1.2 11.89 1.2 11.89 1.21 13.87 C1.21 15.24 1.22 16.61 1.24 17.98 C1.26 21.71 1.28 25.44 1.3 29.17 C1.33 33.06 1.35 36.96 1.38 40.85 C1.43 48.23 1.47 55.6 1.52 62.98 C1.57 71.38 1.62 79.77 1.68 88.17 C1.79 105.45 1.9 122.72 2 140 C12.39 140.5 12.39 140.5 23 141 C24.61 144.21 24.06 147.44 24 151 C19.71 151.33 15.42 151.66 11 152 C11 155.3 11 158.6 11 162 C0.11 162 -10.78 162 -22 162 C-23.36 159.29 -23.12 157.18 -23.12 154.14 C-23.12 152.89 -23.12 151.64 -23.12 150.36 C-23.12 148.97 -23.12 147.58 -23.11 146.19 C-23.11 144.73 -23.11 143.27 -23.11 141.81 C-23.11 137.85 -23.11 133.88 -23.1 129.91 C-23.1 125.77 -23.09 121.63 -23.09 117.48 C-23.09 109.64 -23.08 101.79 -23.07 93.94 C-23.06 85.01 -23.06 76.07 -23.05 67.14 C-23.04 48.76 -23.02 30.38 -23 12 C-20.48 10.74 -18.69 10.9 -15.88 10.94 C-14.96 10.95 -14.05 10.96 -13.12 10.96 C-12.42 10.98 -11.72 10.99 -11 11 C-11.03 10.37 -11.07 9.75 -11.11 9.1 C-11.13 8.28 -11.16 7.47 -11.19 6.62 C-11.22 5.81 -11.26 5 -11.29 4.16 C-11.2 3.45 -11.1 2.74 -11 2 C-6.96 -0.69 -4.79 -0.23 0 0 Z " fill="#6D4C33" transform="translate(40,30)"/>
<path d="M0 0 C0.7 -0.02 1.4 -0.03 2.12 -0.05 C2.74 0.07 3.36 0.19 4 0.31 C6.53 4.11 5.97 6.61 5.47 10.92 C5.35 12.08 5.35 12.08 5.23 13.27 C5.05 14.97 4.87 16.66 4.68 18.36 C4.28 22.04 3.91 25.73 3.53 29.42 C3.33 31.38 3.12 33.33 2.92 35.29 C1.8 46.12 0.82 56.95 -0.14 67.79 C-0.32 69.76 -0.49 71.73 -0.67 73.7 C-1.02 77.64 -1.37 81.58 -1.72 85.53 C-2.17 90.6 -2.62 95.67 -3.08 100.74 C-3.43 104.71 -3.79 108.68 -4.14 112.64 C-4.3 114.52 -4.47 116.39 -4.64 118.26 C-4.87 120.85 -5.1 123.43 -5.33 126.02 C-5.4 126.78 -5.47 127.53 -5.54 128.31 C-5.89 132.35 -6 136.24 -6 140.31 C1.26 140.64 8.52 140.97 16 141.31 C15.67 144.61 15.34 147.91 15 151.31 C11.04 151.64 7.08 151.97 3 152.31 C3 155.61 3 158.91 3 162.31 C-7.89 162.31 -18.78 162.31 -30 162.31 C-32.19 157.94 -32.06 155.42 -31.57 150.78 C-31.5 150.02 -31.43 149.26 -31.36 148.48 C-31.13 145.95 -30.87 143.42 -30.62 140.89 C-30.45 139.1 -30.28 137.31 -30.12 135.52 C-29.66 130.71 -29.2 125.91 -28.73 121.11 C-28.25 116.15 -27.77 111.19 -27.3 106.24 C-27.21 105.25 -27.12 104.27 -27.02 103.25 C-26.83 101.27 -26.64 99.28 -26.46 97.3 C-26.17 94.31 -25.89 91.33 -25.6 88.35 C-24.48 76.56 -23.42 64.77 -22.45 52.96 C-22.34 51.6 -22.23 50.24 -22.12 48.88 C-21.7 43.9 -21.29 38.92 -20.91 33.94 C-20.65 30.63 -20.38 27.32 -20.11 24.02 C-20.04 23.06 -19.97 22.11 -19.9 21.12 C-19.82 20.26 -19.75 19.39 -19.67 18.5 C-19.61 17.76 -19.56 17.02 -19.5 16.25 C-18.87 13.82 -17.95 12.86 -16 11.31 C-13.74 10.8 -13.74 10.8 -11.31 10.62 C-10.1 10.53 -10.1 10.53 -8.86 10.43 C-8.25 10.39 -7.63 10.35 -7 10.31 C-6.88 9.03 -6.75 7.76 -6.62 6.44 C-6.17 1.72 -4.85 0.03 0 0 Z " fill="#6D4C33" transform="translate(945,29.6875)"/>
<path d="M0 0 C1.04 2.65 1.05 3.84 0.14 6.58 C-0.58 8.12 -0.58 8.12 -1.31 9.7 C-1.88 10.95 -2.44 12.22 -3 13.48 C-3.32 14.19 -3.64 14.9 -3.97 15.63 C-5.98 20.25 -7.84 24.94 -9.72 29.62 C-10.15 30.67 -10.57 31.73 -11.01 32.81 C-11.9 35.03 -12.79 37.24 -13.68 39.45 C-15.56 44.11 -17.44 48.78 -19.32 53.44 C-20.26 55.76 -21.19 58.08 -22.13 60.4 C-25.7 69.25 -29.28 78.1 -32.88 86.94 C-33.61 88.75 -33.61 88.75 -34.36 90.59 C-36.57 96.03 -38.78 101.47 -41 106.9 C-42.76 111.23 -44.52 115.56 -46.28 119.89 C-46.96 121.58 -47.65 123.26 -48.34 124.95 C-49.28 127.28 -50.23 129.6 -51.18 131.93 C-51.46 132.64 -51.75 133.34 -52.04 134.06 C-53.41 136.94 -53.41 136.94 -54 140 C-45.42 140.33 -36.84 140.66 -28 141 C-29 149 -29 149 -30 151 C-32.29 151.41 -32.29 151.41 -35.06 151.62 C-36.44 151.74 -36.44 151.74 -37.85 151.85 C-38.56 151.9 -39.27 151.95 -40 152 C-40.2 152.96 -40.2 152.96 -40.4 153.93 C-40.58 154.76 -40.76 155.59 -40.94 156.44 C-41.11 157.26 -41.29 158.08 -41.46 158.93 C-42 161 -42 161 -43 162 C-45.59 162.09 -48.16 162.12 -50.75 162.1 C-51.53 162.1 -52.3 162.09 -53.1 162.09 C-55.59 162.09 -58.08 162.08 -60.56 162.06 C-62.24 162.06 -63.93 162.05 -65.61 162.05 C-69.74 162.04 -73.87 162.02 -78 162 C-79.41 157.62 -77.97 154.83 -76.12 150.81 C-75.84 150.17 -75.56 149.53 -75.27 148.87 C-73.18 144.18 -73.18 144.18 -72 143 C-72.66 142.34 -73.32 141.68 -74 141 C-71.69 141 -69.38 141 -67 141 C-67.21 140.42 -67.43 139.83 -67.65 139.23 C-68.74 135.51 -69.54 132.38 -68.1 128.67 C-67.62 127.85 -67.15 127.02 -66.66 126.17 C-63.49 120.17 -60.88 114.05 -58.35 107.75 C-57.93 106.71 -57.51 105.67 -57.07 104.59 C-55.73 101.25 -54.4 97.91 -53.06 94.56 C-52.13 92.23 -51.19 89.91 -50.26 87.58 C-48.38 82.91 -46.51 78.25 -44.64 73.59 C-41.3 65.25 -37.93 56.92 -34.55 48.6 C-33.66 46.4 -32.77 44.21 -31.88 42.01 C-30.54 38.69 -29.19 35.38 -27.84 32.06 C-26.92 29.81 -26.01 27.54 -25.1 25.28 C-24.47 23.72 -23.84 22.16 -23.21 20.61 C-22.92 19.87 -22.63 19.14 -22.33 18.39 C-20.23 13.23 -20.23 13.23 -18 11 C-16.33 10.97 -16.33 10.97 -14.62 10.94 C-10.95 10.43 -10.95 10.43 -9.72 7.97 C-9.04 6.35 -8.41 4.7 -7.82 3.03 C-6.3 -0.73 -3.63 -0.1 0 0 Z " fill="#6D4C33" transform="translate(1173,30)"/>
<path d="M0 0 C0 0.66 0 1.32 0 2 C-0.43 2.43 -0.87 2.85 -1.32 3.29 C-12.56 14.71 -14.31 34.4 -14.31 49.5 C-14.07 68.19 -8.64 86.24 4.73 99.84 C5.48 100.55 6.23 101.26 7 102 C7.69 102.69 8.37 103.39 9.08 104.1 C23.58 118.01 42.66 124.11 62.5 124.04 C73.58 123.75 83.49 121.5 94 118 C94 121 94 121 92.56 122.65 C78.43 134.15 58.64 136.23 41 135 C20.15 132.82 2.41 123 -11.41 107.25 C-24.59 90.68 -29.59 69.82 -27.73 48.94 C-26.06 36.11 -21.89 25 -15.56 13.81 C-15.11 13 -14.65 12.18 -14.19 11.35 C-11.12 6.15 -6.73 0 0 0 Z " fill="#B4A26F" transform="translate(419,49)"/>
<path d="M0 0 C0.99 0.33 1.98 0.66 3 1 C2.48 1.84 1.96 2.67 1.43 3.54 C-10.67 23.51 -14.72 45.02 -10 68 C-4.46 89.3 7.64 104.95 26.61 116.18 C46.13 126.68 67.85 127.26 89 122 C91.74 121.11 94.34 120.1 97 119 C97.99 119 98.98 119 100 119 C100 119.66 100 120.32 100 121 C97.76 122.57 95.54 123.99 93.19 125.38 C92.5 125.78 91.82 126.18 91.11 126.6 C85.6 129.79 80.16 132.3 74 134 C73.23 134.22 72.45 134.45 71.65 134.68 C51.9 139.28 29.35 136.43 11.9 126.18 C-7.33 113.78 -18.87 97.39 -24 75 C-27.95 52.37 -22.79 30.06 -10 11 C-6.92 7.07 -3.54 3.51 0 0 Z " fill="#6C4B32" transform="translate(404,58)"/>
<path d="M0 0 C0.79 0.01 1.59 0.03 2.41 0.04 C3.6 0.05 3.6 0.05 4.81 0.06 C6.91 0.23 6.91 0.23 8.91 1.23 C9.24 47.1 9.57 92.97 9.91 140.23 C20.3 140.73 20.3 140.73 30.91 141.23 C30.91 144.53 30.91 147.83 30.91 151.23 C22.91 152.2 15.26 152.22 7.22 151.86 C6.23 151.81 5.23 151.77 4.21 151.72 C-2.96 151.36 -2.96 151.36 -4.09 150.23 C-4.2 148.44 -4.25 146.64 -4.26 144.84 C-4.27 143.67 -4.28 142.5 -4.29 141.3 C-4.3 140 -4.31 138.71 -4.31 137.37 C-4.33 136.01 -4.34 134.64 -4.35 133.27 C-4.38 129.54 -4.41 125.82 -4.43 122.09 C-4.46 118.2 -4.49 114.31 -4.52 110.42 C-4.56 103.89 -4.61 97.36 -4.65 90.82 C-4.7 83.26 -4.76 75.69 -4.82 68.13 C-4.87 61.65 -4.92 55.16 -4.96 48.68 C-4.99 44.8 -5.01 40.93 -5.04 37.05 C-5.07 33.4 -5.1 29.76 -5.12 26.12 C-5.13 24.13 -5.15 22.15 -5.17 20.16 C-5.17 19 -5.18 17.83 -5.18 16.62 C-5.19 15.6 -5.2 14.58 -5.2 13.52 C-5.09 11.23 -5.09 11.23 -4.09 10.23 C-4.13 8.2 -4.16 6.17 -4.25 4.14 C-4.01 1.22 -2.86 0.31 0 0 Z " fill="#B5A370" transform="translate(186.09375,29.76953125)"/>
<path d="M0 0 C2.38 -0.29 2.38 -0.29 5.12 -0.19 C6.04 -0.16 6.95 -0.13 7.88 -0.11 C8.58 -0.07 9.28 -0.04 10 0 C11.31 2.61 11.14 4.55 11.16 7.48 C11.17 8.64 11.18 9.81 11.19 11.01 C11.19 12.29 11.2 13.57 11.21 14.9 C11.21 16.25 11.22 17.61 11.24 18.97 C11.26 22.67 11.28 26.37 11.3 30.07 C11.33 33.93 11.35 37.79 11.38 41.66 C11.43 48.97 11.47 56.29 11.52 63.61 C11.57 71.94 11.62 80.26 11.68 88.59 C11.79 105.73 11.9 122.86 12 140 C12.9 140.04 12.9 140.04 13.82 140.08 C16.53 140.19 19.23 140.31 21.94 140.44 C22.88 140.48 23.83 140.52 24.8 140.56 C25.7 140.6 26.6 140.64 27.53 140.68 C28.78 140.74 28.78 140.74 30.05 140.79 C32 141 32 141 33 142 C33.07 143.52 33.08 145.04 33.06 146.56 C33.05 147.39 33.04 148.22 33.04 149.07 C33.02 149.7 33.01 150.34 33 151 C24.85 151.98 16.94 152.01 8.75 151.62 C7.81 151.58 6.87 151.54 5.9 151.49 C-0.87 151.13 -0.87 151.13 -2 150 C-2.11 148.21 -2.15 146.41 -2.16 144.61 C-2.18 143.44 -2.19 142.27 -2.2 141.07 C-2.21 139.77 -2.21 138.48 -2.22 137.14 C-2.23 135.77 -2.24 134.41 -2.26 133.04 C-2.29 129.31 -2.31 125.59 -2.34 121.86 C-2.36 117.97 -2.39 114.08 -2.42 110.19 C-2.47 103.66 -2.52 97.13 -2.56 90.59 C-2.61 83.03 -2.66 75.46 -2.72 67.9 C-2.77 61.42 -2.82 54.93 -2.87 48.45 C-2.89 44.57 -2.92 40.69 -2.95 36.82 C-2.98 33.17 -3 29.53 -3.02 25.88 C-3.04 23.9 -3.05 21.92 -3.07 19.93 C-3.08 18.76 -3.08 17.6 -3.09 16.39 C-3.1 15.37 -3.1 14.34 -3.11 13.29 C-3 11 -3 11 -2 10 C-2.02 8.89 -2.04 7.77 -2.06 6.62 C-2 3 -2 3 0 0 Z " fill="#B5A370" transform="translate(865,30)"/>
<path d="M0 0 C1.72 1.72 1.14 4.01 1.16 6.36 C1.17 7.52 1.18 8.68 1.19 9.88 C1.19 11.17 1.2 12.46 1.21 13.78 C1.21 15.14 1.22 16.5 1.24 17.86 C1.26 21.56 1.28 25.27 1.3 28.97 C1.33 32.83 1.35 36.7 1.38 40.56 C1.43 47.89 1.47 55.21 1.52 62.53 C1.57 70.87 1.62 79.21 1.68 87.54 C1.79 104.7 1.9 121.85 2 139 C9.26 139.33 16.52 139.66 24 140 C24 143.63 24 147.26 24 151 C19.34 151.07 14.67 151.13 10.01 151.16 C8.42 151.18 6.84 151.2 5.25 151.23 C2.97 151.26 0.69 151.28 -1.59 151.29 C-2.3 151.31 -3.01 151.32 -3.74 151.34 C-5.74 151.34 -5.74 151.34 -9 151 C-11.31 147.53 -11.25 146.2 -11.26 142.11 C-11.27 140.88 -11.27 139.65 -11.28 138.38 C-11.28 137.02 -11.28 135.65 -11.27 134.29 C-11.28 132.85 -11.28 131.42 -11.29 129.98 C-11.3 126.08 -11.3 122.18 -11.3 118.28 C-11.3 115.03 -11.31 111.77 -11.31 108.52 C-11.32 100.85 -11.32 93.18 -11.32 85.51 C-11.31 77.58 -11.32 69.66 -11.34 61.73 C-11.36 54.94 -11.37 48.14 -11.36 41.34 C-11.36 37.28 -11.36 33.22 -11.38 29.16 C-11.39 25.34 -11.39 21.52 -11.38 17.71 C-11.37 16.3 -11.38 14.9 -11.38 13.49 C-11.39 11.58 -11.39 9.67 -11.37 7.76 C-11.37 6.69 -11.37 5.62 -11.37 4.52 C-11.25 3.69 -11.13 2.86 -11 2 C-6.96 -0.69 -4.79 -0.23 0 0 Z " fill="#6E4E34" transform="translate(181,41)"/>
<path d="M0 0 C0.8 0.01 1.61 0.03 2.43 0.04 C3.64 0.05 3.64 0.05 4.88 0.06 C6.87 0.23 6.87 0.23 7.87 1.23 C7.98 3.01 8.02 4.8 8.03 6.59 C8.04 7.75 8.05 8.91 8.06 10.11 C8.06 11.4 8.07 12.69 8.08 14.01 C8.09 15.37 8.1 16.73 8.11 18.09 C8.13 21.79 8.15 25.5 8.17 29.2 C8.2 33.06 8.22 36.93 8.25 40.79 C8.3 48.12 8.35 55.44 8.39 62.77 C8.44 71.1 8.49 79.44 8.55 87.77 C8.66 104.93 8.77 122.08 8.87 139.23 C19.27 139.73 19.27 139.73 29.87 140.23 C29.87 143.86 29.87 147.49 29.87 151.23 C25.35 151.3 20.83 151.36 16.31 151.4 C14.77 151.41 13.23 151.43 11.69 151.46 C9.48 151.49 7.28 151.51 5.07 151.52 C4.03 151.55 4.03 151.55 2.98 151.57 C1.04 151.57 1.04 151.57 -2.13 151.23 C-4.44 147.76 -4.38 146.44 -4.38 142.34 C-4.39 141.11 -4.39 139.88 -4.4 138.61 C-4.4 137.25 -4.39 135.88 -4.39 134.52 C-4.39 133.08 -4.39 131.65 -4.4 130.21 C-4.41 126.31 -4.4 122.41 -4.4 118.51 C-4.39 114.43 -4.4 110.36 -4.4 106.28 C-4.4 99.43 -4.4 92.58 -4.39 85.74 C-4.38 77.81 -4.38 69.89 -4.39 61.97 C-4.4 55.17 -4.4 48.37 -4.4 41.58 C-4.4 37.51 -4.39 33.45 -4.4 29.39 C-4.41 25.57 -4.4 21.75 -4.39 17.94 C-4.39 16.53 -4.39 15.13 -4.39 13.73 C-4.4 11.81 -4.39 9.9 -4.38 7.99 C-4.38 6.92 -4.38 5.85 -4.38 4.75 C-4.06 1.52 -3.31 0.36 0 0 Z " fill="#6D4C33" transform="translate(855.12890625,40.76953125)"/>
<path d="M0 0 C0.79 -0.01 1.59 -0.03 2.41 -0.04 C4.5 0.19 4.5 0.19 6.5 2.19 C6.75 4.59 6.75 4.59 6.74 7.67 C6.74 8.83 6.75 9.99 6.75 11.19 C6.74 12.48 6.73 13.76 6.73 15.08 C6.73 16.44 6.73 17.8 6.73 19.16 C6.73 22.86 6.72 26.56 6.7 30.26 C6.69 34.12 6.69 37.98 6.69 41.84 C6.68 49.16 6.66 56.48 6.64 63.79 C6.62 72.12 6.61 80.45 6.6 88.78 C6.58 105.92 6.54 123.05 6.5 140.19 C16.89 140.68 16.89 140.68 27.5 141.19 C27.5 144.49 27.5 147.79 27.5 151.19 C19.66 152.13 12.19 152.19 4.31 151.81 C3.37 151.77 2.42 151.73 1.45 151.68 C-5.37 151.32 -5.37 151.32 -6.5 150.19 C-6.61 148.43 -6.65 146.66 -6.66 144.9 C-6.68 143.76 -6.69 142.61 -6.7 141.43 C-6.71 140.16 -6.71 138.89 -6.72 137.58 C-6.73 136.24 -6.74 134.9 -6.76 133.55 C-6.79 129.9 -6.81 126.24 -6.84 122.58 C-6.86 119.53 -6.88 116.47 -6.9 113.41 C-6.96 106.19 -7.01 98.98 -7.06 91.76 C-7.11 84.33 -7.16 76.9 -7.22 69.47 C-7.27 63.08 -7.32 56.69 -7.37 50.31 C-7.39 46.5 -7.42 42.69 -7.45 38.88 C-7.48 35.28 -7.5 31.69 -7.52 28.1 C-7.54 26.17 -7.55 24.23 -7.57 22.3 C-7.65 6.78 -7.65 6.78 -6.5 1.19 C-4.15 0.01 -2.62 0.02 0 0 Z " fill="#B5A370" transform="translate(716.5,29.8125)"/>
<path d="M0 0 C1.73 1.73 1.14 4.04 1.16 6.4 C1.17 7.57 1.18 8.74 1.19 9.95 C1.19 11.24 1.2 12.54 1.21 13.87 C1.21 15.24 1.22 16.61 1.24 17.98 C1.26 21.71 1.28 25.44 1.3 29.17 C1.33 33.06 1.35 36.96 1.38 40.85 C1.43 48.23 1.47 55.6 1.52 62.98 C1.57 71.38 1.62 79.77 1.68 88.17 C1.79 105.45 1.9 122.72 2 140 C12.39 140.5 12.39 140.5 23 141 C24.61 144.21 24.06 147.44 24 151 C15.85 151.98 7.94 152.01 -0.25 151.62 C-1.19 151.58 -2.13 151.54 -3.1 151.49 C-9.87 151.13 -9.87 151.13 -11 150 C-11.11 148.22 -11.15 146.44 -11.16 144.66 C-11.18 143.51 -11.19 142.35 -11.2 141.15 C-11.21 139.87 -11.21 138.59 -11.22 137.27 C-11.23 135.91 -11.24 134.56 -11.26 133.2 C-11.29 129.51 -11.31 125.82 -11.34 122.13 C-11.36 119.04 -11.38 115.96 -11.4 112.88 C-11.46 105.59 -11.51 98.31 -11.56 91.03 C-11.61 83.53 -11.66 76.03 -11.72 68.53 C-11.77 62.09 -11.82 55.64 -11.87 49.2 C-11.89 45.36 -11.92 41.51 -11.95 37.66 C-11.98 34.04 -12 30.41 -12.02 26.79 C-12.04 24.84 -12.05 22.88 -12.07 20.93 C-12.13 8.22 -12.13 8.22 -11 2 C-6.96 -0.69 -4.79 -0.23 0 0 Z " fill="#B5A370" transform="translate(40,30)"/>
<path d="M0 0 C1.21 -0 1.21 -0 2.44 -0.01 C4.44 0.12 4.44 0.12 5.44 1.12 C5.55 2.92 5.58 4.72 5.6 6.52 C5.61 7.69 5.62 8.86 5.63 10.07 C5.63 11.37 5.64 12.66 5.64 14 C5.65 15.37 5.66 16.74 5.67 18.11 C5.7 21.84 5.72 25.57 5.74 29.29 C5.76 33.19 5.79 37.08 5.82 40.97 C5.87 48.35 5.91 55.73 5.95 63.11 C6 71.5 6.06 79.9 6.11 88.29 C6.23 105.57 6.34 122.85 6.44 140.12 C16.83 140.62 16.83 140.62 27.44 141.12 C27.44 144.43 27.44 147.72 27.44 151.12 C19.6 152.07 12.12 152.12 4.25 151.75 C3.3 151.71 2.36 151.66 1.39 151.62 C-5.43 151.26 -5.43 151.26 -6.56 150.12 C-6.67 148.35 -6.71 146.57 -6.73 144.8 C-6.74 143.64 -6.75 142.48 -6.76 141.29 C-6.77 140.01 -6.78 138.73 -6.78 137.41 C-6.79 136.06 -6.81 134.7 -6.82 133.35 C-6.85 129.66 -6.88 125.97 -6.9 122.28 C-6.92 119.2 -6.94 116.12 -6.97 113.04 C-7.02 105.77 -7.07 98.49 -7.12 91.21 C-7.17 83.72 -7.23 76.23 -7.29 68.73 C-7.34 62.3 -7.38 55.86 -7.43 49.42 C-7.45 45.58 -7.48 41.74 -7.51 37.89 C-7.54 34.27 -7.57 30.65 -7.59 27.03 C-7.6 25.08 -7.62 23.13 -7.63 21.18 C-7.71 6.1 -7.71 6.1 -6.56 1.12 C-4.18 -0.06 -2.65 -0.01 0 0 Z " fill="#B5A370" transform="translate(259.5625,29.875)"/>
<path d="M0 0 C0.7 -0.02 1.4 -0.03 2.12 -0.05 C3.05 0.13 3.05 0.13 4 0.31 C6.53 4.11 5.97 6.61 5.47 10.92 C5.39 11.69 5.31 12.47 5.23 13.27 C5.05 14.97 4.87 16.66 4.68 18.36 C4.28 22.04 3.91 25.73 3.53 29.42 C3.33 31.38 3.12 33.33 2.92 35.29 C1.8 46.12 0.82 56.95 -0.14 67.79 C-0.32 69.76 -0.49 71.73 -0.67 73.7 C-1.02 77.64 -1.37 81.58 -1.72 85.53 C-2.17 90.6 -2.62 95.67 -3.08 100.74 C-3.43 104.71 -3.79 108.68 -4.14 112.64 C-4.3 114.52 -4.47 116.39 -4.64 118.26 C-4.87 120.85 -5.1 123.43 -5.33 126.02 C-5.4 126.78 -5.47 127.53 -5.54 128.31 C-5.89 132.35 -6 136.24 -6 140.31 C1.26 140.64 8.52 140.97 16 141.31 C15.67 144.61 15.34 147.91 15 151.31 C7.16 152.25 -0.31 152.31 -8.19 151.94 C-9.13 151.89 -10.08 151.85 -11.05 151.81 C-17.87 151.44 -17.87 151.44 -19 150.31 C-19.53 142.91 -18.68 135.45 -17.99 128.09 C-17.88 126.91 -17.78 125.73 -17.67 124.51 C-17.31 120.64 -16.95 116.77 -16.59 112.89 C-16.35 110.19 -16.1 107.49 -15.85 104.78 C-15.14 96.96 -14.42 89.13 -13.7 81.3 C-12.78 71.33 -11.87 61.36 -10.96 51.39 C-10.65 48.04 -10.35 44.69 -10.04 41.34 C-9.69 37.61 -9.35 33.88 -9.01 30.15 C-8.86 28.5 -8.86 28.5 -8.7 26.81 C-8.31 22.58 -7.94 18.39 -8 14.14 C-8 12.74 -8 12.74 -8 11.31 C-7.67 10.98 -7.34 10.65 -7 10.31 C-6.77 8.28 -6.55 6.26 -6.38 4.22 C-5.62 0.38 -3.48 0.02 0 0 Z " fill="#B5A370" transform="translate(945,29.6875)"/>
<path d="M0 0 C0.66 0 1.32 0 2 0 C1.25 3.3 0.15 6.39 -1 9.56 C-4.68 20.68 -5.08 30.74 0.22 41.48 C9.04 55.77 24.27 62.96 39.12 69.36 C46.72 72.68 54.35 76.11 58 84 C58.71 87.83 58.86 91.19 58 95 C55.33 98.66 52.26 100.58 48 102 C47.01 101.5 47.01 101.5 46 101 C45.58 99.11 45.17 97.21 44.86 95.3 C42.66 89.4 39.08 86.82 33.61 84.14 C31.47 83.17 29.33 82.2 27.19 81.25 C8.87 72.77 -8.13 64.73 -16 45 C-18.87 33.5 -16.56 21.17 -10.54 11.04 C-8.28 8.04 -5.6 5.74 -2.67 3.41 C-0.88 2.09 -0.88 2.09 0 0 Z " fill="#B5A370" transform="translate(596,39)"/>
<path d="M0 0 C0.33 0.66 0.66 1.32 1 2 C0.29 3.85 0.29 3.85 -0.81 6.06 C-5.52 16.26 -6.66 26.81 -3.04 37.55 C4.77 55.99 24.82 64.41 42.05 71.93 C48.94 75.05 54.21 78.37 57.02 85.65 C57.14 86.41 57.26 87.16 57.38 87.94 C57.51 88.71 57.64 89.48 57.77 90.28 C57.89 91.13 57.89 91.13 58 92 C53 93.4 48.15 93.86 43 93 C40.9 91.59 39.34 89.96 37.57 88.15 C33.96 85.13 29.97 83.2 25.75 81.12 C24.96 80.73 24.16 80.34 23.35 79.93 C19.91 78.27 16.74 76.83 13 76 C13 75.34 13 74.68 13 74 C12.45 73.9 11.9 73.8 11.33 73.7 C0.25 70.38 -9.53 60.91 -15 51 C-19.79 41.38 -19.2 30.62 -15.88 20.62 C-13.67 15.05 -11.06 10.41 -7 6 C-6.49 5.44 -5.97 4.87 -5.45 4.29 C-4 3 -4 3 -2 3 C-2 2.34 -2 1.68 -2 1 C-1.34 0.67 -0.68 0.34 0 0 Z " fill="#6D4C33" transform="translate(585,49)"/>
<path d="M0 0 C1.34 -0.01 1.34 -0.01 2.71 -0.03 C4.16 -0.04 4.16 -0.04 5.64 -0.04 C6.63 -0.05 7.63 -0.05 8.65 -0.06 C10.74 -0.07 12.84 -0.08 14.94 -0.08 C18.16 -0.09 21.38 -0.12 24.6 -0.15 C26.63 -0.16 28.67 -0.16 30.71 -0.17 C32.16 -0.19 32.16 -0.19 33.64 -0.2 C34.98 -0.2 34.98 -0.2 36.35 -0.2 C37.14 -0.2 37.93 -0.2 38.74 -0.21 C39.38 -0.09 40.02 0.04 40.67 0.16 C42.93 3.54 42.94 4.77 42.99 8.73 C43.01 9.88 43.03 11.02 43.05 12.19 C43.06 13.42 43.08 14.65 43.09 15.92 C43.11 17.18 43.13 18.44 43.15 19.74 C43.2 23.09 43.24 26.44 43.27 29.79 C43.31 33.21 43.37 36.63 43.42 40.05 C43.51 46.75 43.6 53.46 43.67 60.16 C44.24 60.18 44.8 60.2 45.39 60.22 C47.94 60.32 50.49 60.43 53.05 60.54 C53.94 60.57 54.83 60.6 55.74 60.63 C56.59 60.67 57.45 60.71 58.32 60.75 C59.11 60.78 59.89 60.81 60.7 60.84 C62.67 61.16 62.67 61.16 64.67 63.16 C64.94 65.85 64.76 68.45 64.67 71.16 C56.52 72.14 48.61 72.17 40.42 71.79 C39.48 71.74 38.54 71.7 37.57 71.66 C30.81 71.29 30.81 71.29 29.67 70.16 C29.55 68.35 29.5 66.54 29.47 64.72 C29.44 62.98 29.44 62.98 29.41 61.2 C29.39 59.94 29.37 58.68 29.36 57.38 C29.34 56.09 29.32 54.8 29.29 53.48 C29.24 50.05 29.19 46.63 29.14 43.21 C29.09 39.71 29.04 36.22 28.98 32.73 C28.87 25.87 28.77 19.02 28.67 12.16 C27.19 12.12 27.19 12.12 25.68 12.09 C22.01 11.99 18.35 11.89 14.68 11.79 C13.1 11.75 11.51 11.7 9.92 11.66 C7.65 11.61 5.37 11.54 3.09 11.48 C2.38 11.46 1.66 11.44 0.93 11.43 C-4.1 11.28 -4.1 11.28 -6.33 10.16 C-6.33 7.19 -6.33 4.22 -6.33 1.16 C-3.99 -0.01 -2.6 0.02 0 0 Z " fill="#B4A26F" transform="translate(82.326171875,109.8388671875)"/>
<path d="M0 0 C1.04 2.65 1.05 3.84 0.14 6.58 C-0.58 8.12 -0.58 8.12 -1.31 9.7 C-1.88 10.95 -2.44 12.22 -3 13.48 C-3.32 14.19 -3.64 14.9 -3.97 15.63 C-5.98 20.25 -7.84 24.94 -9.72 29.62 C-10.36 31.2 -10.36 31.2 -11.01 32.81 C-11.9 35.03 -12.79 37.24 -13.68 39.45 C-15.56 44.11 -17.44 48.78 -19.32 53.44 C-20.26 55.76 -21.19 58.08 -22.13 60.4 C-25.7 69.25 -29.28 78.1 -32.88 86.94 C-33.61 88.75 -33.61 88.75 -34.36 90.59 C-36.57 96.03 -38.78 101.47 -41 106.9 C-42.76 111.23 -44.52 115.56 -46.28 119.89 C-46.96 121.58 -47.65 123.26 -48.34 124.95 C-49.28 127.28 -50.23 129.6 -51.18 131.93 C-51.61 132.99 -51.61 132.99 -52.04 134.06 C-53.41 136.94 -53.41 136.94 -54 140 C-45.42 140.33 -36.84 140.66 -28 141 C-29 149 -29 149 -30 151 C-37.62 152.81 -45.89 151.94 -53.62 151.56 C-54.82 151.51 -56.01 151.46 -57.25 151.4 C-60.16 151.28 -63.08 151.14 -66 151 C-67 149 -67 149 -66.29 146.66 C-65.9 145.68 -65.51 144.71 -65.11 143.7 C-64.68 142.59 -64.24 141.49 -63.79 140.35 C-63.3 139.14 -62.81 137.93 -62.31 136.69 C-61.8 135.41 -61.3 134.14 -60.79 132.86 C-56.91 123.15 -52.92 113.49 -48.9 103.83 C-42.56 88.59 -36.39 73.28 -30.21 57.96 C-28.09 52.7 -25.97 47.45 -23.83 42.2 C-22.5 38.94 -21.19 35.69 -19.87 32.43 C-19.25 30.9 -18.63 29.38 -18.01 27.86 C-17.16 25.76 -16.31 23.67 -15.46 21.57 C-14.99 20.39 -14.51 19.21 -14.02 18 C-12.79 14.9 -12.79 14.9 -13 11 C-12 10 -11 9 -10 8 C-9 5.67 -7.99 3.34 -7 1 C-4.54 -0.23 -2.72 -0.07 0 0 Z " fill="#B5A370" transform="translate(1173,30)"/>
<path d="M0 0 C0.9 -0 1.8 -0.01 2.72 -0.01 C4.18 -0.01 4.18 -0.01 5.66 -0 C7.15 -0 7.15 -0 8.67 -0.01 C10.78 -0.01 12.88 -0.01 14.98 -0 C18.21 0 21.44 -0 24.67 -0.01 C26.71 -0.01 28.75 -0.01 30.79 -0 C32.25 -0.01 32.25 -0.01 33.74 -0.01 C35.08 -0 35.08 -0 36.45 0 C37.63 0 37.63 0 38.84 0 C40.66 0.13 40.66 0.13 41.66 1.13 C41.78 2.97 41.84 4.81 41.86 6.66 C41.89 8.43 41.89 8.43 41.92 10.24 C41.94 11.52 41.96 12.81 41.97 14.13 C42 15.44 42.02 16.75 42.04 18.1 C42.09 21.58 42.14 25.06 42.19 28.55 C42.24 32.1 42.3 35.65 42.35 39.21 C42.46 46.18 42.56 53.15 42.66 60.13 C49.59 60.46 56.52 60.79 63.66 61.13 C65.27 64.34 64.72 67.57 64.66 71.13 C56.31 72.03 48.22 72.17 39.85 71.75 C38.96 71.71 38.07 71.67 37.15 71.62 C30.79 71.26 30.79 71.26 29.66 70.13 C29.53 68.32 29.48 66.51 29.45 64.69 C29.42 62.95 29.42 62.95 29.39 61.17 C29.38 59.91 29.36 58.65 29.34 57.34 C29.32 56.06 29.3 54.77 29.28 53.45 C29.22 50.02 29.17 46.6 29.13 43.17 C29.08 39.68 29.02 36.19 28.96 32.7 C28.86 25.84 28.76 18.99 28.66 12.13 C27.17 12.1 27.17 12.1 25.66 12.07 C22 11.99 18.33 11.9 14.67 11.81 C13.08 11.77 11.49 11.74 9.91 11.71 C7.63 11.66 5.35 11.6 3.07 11.54 C2.36 11.53 1.65 11.52 0.92 11.51 C-4.11 11.36 -4.11 11.36 -6.34 9.13 C-6.61 6.44 -6.43 3.84 -6.34 1.13 C-4 -0.04 -2.61 0 0 0 Z " fill="#B5A370" transform="translate(763.342041015625,109.87060546875)"/>
<path d="M0 0 C2 3.01 2.98 5.52 4.14 8.93 C4.55 10.15 4.97 11.38 5.4 12.64 C5.73 13.62 5.73 13.62 6.07 14.62 C6.77 16.69 7.48 18.76 8.18 20.82 C9.69 25.23 11.19 29.65 12.69 34.06 C20.11 56.1 20.11 56.1 27.96 78 C28.21 78.72 28.47 79.44 28.74 80.19 C30.03 83.78 30.03 83.78 32.99 85.93 C35.66 86.02 38.32 86.06 41 86 C42.47 89.81 41.43 92.29 40 96 C23.16 98.08 23.16 98.08 17 95 C16.18 93.21 16.18 93.21 15.37 90.84 C15.06 89.95 14.75 89.07 14.44 88.16 C14.11 87.19 13.78 86.22 13.45 85.23 C13.1 84.23 12.76 83.24 12.41 82.22 C11.31 79.02 10.22 75.82 9.12 72.62 C8.04 69.46 6.95 66.3 5.86 63.14 C5.19 61.17 4.51 59.2 3.84 57.23 C0.41 46.33 0.41 46.33 -4.12 35.89 C-5.55 32.82 -4.92 30.01 -4.61 26.68 C-4.54 25.98 -4.48 25.28 -4.41 24.56 C-4.27 23.08 -4.13 21.61 -3.98 20.14 C-3.75 17.88 -3.54 15.62 -3.34 13.36 C-3.2 11.92 -3.06 10.49 -2.92 9.05 C-2.79 7.75 -2.67 6.45 -2.53 5.1 C-2 2 -2 2 0 0 Z " fill="#B4A26F" transform="translate(981,84)"/>
<path d="M0 0 C10.66 11.73 14.32 26.5 14.06 41.94 C13.4 52.18 10.78 60.39 4.81 68.75 C4.38 69.37 3.94 69.99 3.49 70.63 C0.99 73.91 -1.22 75.62 -5.19 76.75 C-4.99 76.18 -4.8 75.61 -4.6 75.03 C-4.34 74.26 -4.08 73.48 -3.81 72.69 C-3.43 71.56 -3.43 71.56 -3.04 70.4 C-2.76 69.53 -2.48 68.65 -2.19 67.75 C-1.83 66.73 -1.48 65.72 -1.11 64.67 C2.31 52.47 1.55 35.1 -4.19 23.75 C-9.35 14.64 -15.04 7.52 -25.36 4.28 C-33.38 2.78 -42.21 3.21 -50.19 4.75 C-49.89 1.97 -49.24 0.81 -47.31 -1.25 C-33.44 -10.13 -12.94 -11.45 0 0 Z " fill="#B5A370" transform="translate(505.1875,58.25)"/>
<path d="M0 0 C4.09 3.94 7.69 8.14 11.25 12.56 C12.11 13.62 12.11 13.62 12.98 14.71 C17.04 19.75 20.97 24.87 24.82 30.07 C30.26 37.39 35.86 44.59 41.5 51.75 C42.13 52.55 42.76 53.35 43.41 54.17 C44.88 56.1 44.88 56.1 47 57 C48.59 57.05 50.17 57.04 51.76 57 C67.41 56.93 67.41 56.93 72.01 60.03 C76 65.32 76 65.32 76 68 C68.16 69.15 60.4 69.11 52.5 68.92 C50.99 68.89 49.49 68.87 47.98 68.86 C45.78 68.84 43.59 68.8 41.39 68.74 C40.09 68.72 38.79 68.7 37.45 68.68 C33.15 67.83 31.77 66.33 29 63 C28.47 62.39 27.93 61.78 27.38 61.15 C26.92 60.59 26.46 60.02 25.98 59.43 C25.46 58.79 24.94 58.14 24.4 57.48 C23.85 56.81 23.31 56.13 22.75 55.44 C21.9 54.38 21.9 54.38 21.02 53.3 C16.97 48.26 13.03 43.15 9.2 37.94 C7.17 35.09 7.17 35.09 5.2 33.13 C0.14 27.56 -0.76 23.43 -0.62 15.97 C-0.56 14.8 -0.5 13.64 -0.44 12.44 C-0.39 10.64 -0.39 10.64 -0.34 8.8 C-0.26 5.87 -0.15 2.93 0 0 Z " fill="#B4A26F" transform="translate(300,113)"/>
<path d="M0 0 C0.99 0.5 0.99 0.5 2 1 C4.47 1.14 6.91 1.23 9.38 1.28 C10.47 1.31 10.47 1.31 11.58 1.34 C14.7 1.42 17.82 1.48 20.94 1.55 C23.21 1.6 25.48 1.66 27.75 1.72 C28.82 1.74 28.82 1.74 29.91 1.76 C34.89 1.89 34.89 1.89 36 3 C36.12 4.81 36.18 6.62 36.21 8.44 C36.24 10.18 36.24 10.18 36.27 11.96 C36.28 13.22 36.3 14.48 36.32 15.79 C36.34 17.07 36.36 18.36 36.38 19.68 C36.43 23.11 36.48 26.53 36.53 29.96 C36.58 33.45 36.64 36.94 36.69 40.43 C36.8 47.29 36.9 54.14 37 61 C43.6 61.33 50.2 61.66 57 62 C57 62.66 57 63.32 57 64 C57.66 64 58.32 64 59 64 C59.1 70.15 59.1 70.15 59 72 C57.09 73.91 53.58 73.19 50.97 73.2 C50.27 73.21 49.56 73.21 48.84 73.22 C47.35 73.23 45.85 73.24 44.36 73.24 C42.08 73.25 39.79 73.28 37.5 73.31 C36.05 73.32 34.61 73.32 33.16 73.33 C32.13 73.35 32.13 73.35 31.08 73.37 C29.15 73.36 29.15 73.36 26 73 C23.76 69.64 23.74 68.47 23.7 64.53 C23.68 63.42 23.66 62.3 23.65 61.15 C23.64 59.94 23.63 58.74 23.62 57.49 C23.6 56.26 23.59 55.02 23.57 53.75 C23.53 50.46 23.49 47.18 23.46 43.89 C23.41 39.26 23.36 34.62 23.29 29.98 C23.26 27.51 23.24 25.04 23.21 22.57 C23.2 21.46 23.19 20.35 23.17 19.21 C23.16 18.22 23.15 17.24 23.14 16.23 C23.25 14.03 23.25 14.03 22 13 C20.44 12.91 18.87 12.89 17.31 12.9 C16.36 12.91 15.42 12.91 14.45 12.91 C12.96 12.92 12.96 12.92 11.44 12.94 C10.44 12.94 9.44 12.95 8.42 12.95 C5.94 12.96 3.47 12.98 1 13 C-0.32 10.36 -0.1 8.32 -0.06 5.38 C-0.05 4.37 -0.04 3.37 -0.04 2.34 C-0.02 1.57 -0.01 0.79 0 0 Z " fill="#6D4C33" transform="translate(757,119)"/>
<path d="M0 0 C4.82 0.12 9.65 0.24 14.47 0.37 C16.11 0.42 17.76 0.46 19.4 0.5 C21.75 0.55 24.11 0.62 26.46 0.68 C27.2 0.7 27.94 0.72 28.7 0.73 C33.89 0.89 33.89 0.89 35 2 C35.12 3.81 35.18 5.62 35.21 7.44 C35.24 9.18 35.24 9.18 35.27 10.96 C35.28 12.22 35.3 13.48 35.32 14.79 C35.34 16.07 35.36 17.36 35.38 18.68 C35.43 22.11 35.48 25.53 35.53 28.96 C35.58 32.45 35.64 35.94 35.69 39.43 C35.8 46.29 35.9 53.14 36 60 C42.93 60.33 49.86 60.66 57 61 C57 64.63 57 68.26 57 72 C52.48 72.07 47.96 72.13 43.44 72.16 C41.9 72.18 40.36 72.2 38.82 72.23 C36.61 72.26 34.4 72.28 32.2 72.29 C31.16 72.32 31.16 72.32 30.11 72.34 C28.16 72.34 28.16 72.34 25 72 C22.75 68.62 22.73 67.4 22.68 63.43 C22.66 62.29 22.64 61.15 22.62 59.97 C22.61 58.74 22.6 57.51 22.59 56.24 C22.57 54.98 22.55 53.72 22.53 52.42 C22.48 49.07 22.44 45.72 22.4 42.37 C22.36 38.95 22.31 35.53 22.26 32.12 C22.16 25.41 22.08 18.71 22 12 C21.34 11.97 20.68 11.95 20 11.92 C17.02 11.81 14.04 11.69 11.06 11.56 C10.02 11.52 8.98 11.48 7.91 11.44 C6.92 11.4 5.93 11.36 4.91 11.32 C3.54 11.26 3.54 11.26 2.13 11.21 C0 11 0 11 -1 10 C-1.24 2.48 -1.24 2.48 0 0 Z " fill="#6D4C33" transform="translate(77,120)"/>
<path d="M0 0 C1.1 4.05 1.38 8.07 1.65 12.24 C1.71 13.07 1.76 13.89 1.82 14.74 C1.94 16.52 2.07 18.3 2.19 20.09 C2.51 24.82 2.84 29.55 3.17 34.28 C3.27 35.73 3.27 35.73 3.38 37.22 C4.03 46.44 4.71 55.66 5.43 64.88 C5.56 66.54 5.69 68.2 5.81 69.85 C5.99 72.16 6.17 74.47 6.35 76.77 C6.45 78.08 6.55 79.38 6.66 80.72 C6.94 84.15 6.94 84.15 8 88 C14.27 88.33 20.54 88.66 27 89 C29 92.99 29.2 94.7 29 99 C20.85 99.98 12.94 100.01 4.75 99.62 C3.81 99.58 2.87 99.54 1.9 99.49 C-4.87 99.13 -4.87 99.13 -6 98 C-6.24 96.11 -6.42 94.22 -6.57 92.32 C-6.67 91.11 -6.77 89.89 -6.88 88.64 C-6.98 87.3 -7.09 85.96 -7.19 84.62 C-7.3 83.25 -7.41 81.88 -7.52 80.51 C-7.76 77.63 -7.98 74.75 -8.21 71.87 C-8.5 68.2 -8.8 64.53 -9.1 60.86 C-9.33 58.02 -9.55 55.19 -9.78 52.36 C-9.94 50.35 -10.1 48.34 -10.26 46.33 C-11.64 28.71 -11.64 28.71 -9.03 21.75 C-8.63 20.65 -8.22 19.55 -7.8 18.41 C-7.37 17.28 -6.94 16.16 -6.5 15 C-6.07 13.84 -5.64 12.69 -5.2 11.5 C-4.14 8.66 -3.08 5.83 -2 3 C-1.34 3 -0.68 3 0 3 C0 2.01 0 1.02 0 0 Z " fill="#B5A370" transform="translate(1064,82)"/>
<path d="M0 0 C0.99 0.33 1.98 0.66 3 1 C4.34 0.67 5.67 0.34 7 0 C18.65 -0.79 29.27 -0.49 38.54 7.56 C41 9.99 42.84 12.71 44.69 15.62 C45.25 16.45 45.25 16.45 45.83 17.3 C51.47 26.07 52.54 35.72 52.44 45.94 C52.43 46.99 52.43 48.04 52.42 49.12 C52.28 56.8 51.3 63 48 70 C47.69 70.89 47.37 71.77 47.05 72.68 C46 75 46 75 43.06 76.88 C40 78 40 78 37 77 C37.14 76.44 37.29 75.88 37.44 75.3 C41.34 57.63 40.29 40.17 30.58 24.81 C25.87 17.81 19.99 13.52 11.74 11.43 C8.36 10.9 5.11 10.91 1.69 10.94 C0.43 10.95 -0.82 10.96 -2.11 10.96 C-3.07 10.98 -4.02 10.99 -5 11 C-5.61 9.17 -5.61 9.17 -6 7 C-4.19 4.25 -4.19 4.25 -2 2 C-1.34 2 -0.68 2 0 2 C0 1.34 0 0.68 0 0 Z " fill="#6D4C33" transform="translate(454,61)"/>
<path d="M0 0 C18.81 0 37.62 0 57 0 C61.49 10.11 61.49 10.11 62.89 14 C63.19 14.82 63.48 15.65 63.79 16.5 C64.09 17.32 64.38 18.15 64.69 19 C65.29 20.69 65.9 22.38 66.51 24.06 C66.77 24.8 67.04 25.53 67.31 26.29 C67.87 28 67.87 28 69 29 C70.49 29.16 71.98 29.25 73.47 29.32 C74.37 29.36 75.27 29.4 76.2 29.44 C77.14 29.48 78.09 29.52 79.06 29.56 C80.01 29.61 80.96 29.65 81.94 29.69 C84.29 29.8 86.65 29.9 89 30 C90.84 33.61 92.42 37.27 94 41 C84.67 41.11 75.38 41.01 66.06 40.56 C65.19 40.52 64.32 40.48 63.43 40.44 C57.25 40.12 57.25 40.12 55 39 C54.14 37.04 53.38 35.04 52.65 33.03 C51.99 31.22 51.99 31.22 51.32 29.36 C50.86 28.08 50.4 26.79 49.94 25.5 C49.03 22.99 48.12 20.48 47.21 17.97 C46.81 16.85 46.41 15.73 46 14.58 C45.24 12.11 45.24 12.11 44 11 C42.56 10.88 41.11 10.82 39.66 10.79 C38.74 10.77 37.82 10.75 36.87 10.73 C35.87 10.72 34.87 10.7 33.84 10.68 C32.82 10.66 31.8 10.64 30.75 10.62 C27.48 10.56 24.21 10.5 20.94 10.44 C18.73 10.39 16.51 10.35 14.3 10.31 C8.87 10.2 3.43 10.1 -2 10 C-3 7 -3 7 0 0 Z " fill="#B5A370" transform="translate(1166,141)"/>
<path d="M0 0 C6.64 0.02 13.28 0.07 19.92 0.15 C22.17 0.18 24.43 0.19 26.69 0.2 C29.94 0.2 33.18 0.25 36.43 0.29 C37.44 0.29 38.45 0.29 39.49 0.28 C42.09 0.34 44.47 0.43 47 1 C49.03 3.23 49.03 3.23 50 6 C50.35 6.81 50.71 7.62 51.07 8.45 C52.12 11.17 53.16 13.9 54.19 16.62 C54.56 17.58 54.92 18.53 55.3 19.52 C55.65 20.43 56 21.35 56.36 22.29 C56.83 23.54 56.83 23.54 57.31 24.81 C58 27 58 27 58 30 C68.89 30.5 68.89 30.5 80 31 C83 41 83 41 83 42 C78.09 42.15 73.18 42.26 68.27 42.33 C66.6 42.36 64.93 42.4 63.26 42.45 C60.85 42.53 58.45 42.56 56.05 42.59 C54.93 42.63 54.93 42.63 53.79 42.68 C51.67 42.68 51.67 42.68 48 42 C44.87 38.45 43.25 34.58 41.64 30.16 C41.29 29.2 40.93 28.24 40.56 27.26 C39.91 25.46 39.91 25.46 39.25 23.62 C37.85 19.79 36.44 15.95 35 12 C22.46 12 9.92 12 -3 12 C-4.21 8.36 -3.67 7.67 -2.06 4.31 C-1.49 3.1 -1.49 3.1 -0.91 1.86 C-0.61 1.25 -0.31 0.63 0 0 Z " fill="#6D4C33" transform="translate(1163,150)"/>
<path d="M0 0 C1.32 0.33 2.64 0.66 4 1 C3.29 6.13 0.95 9.4 -1.92 13.6 C-3.29 15.91 -3.29 15.91 -2.29 18 C-0.84 20.24 0.3 21.1 2.61 22.4 C3.33 22.82 4.06 23.23 4.81 23.65 C5.6 24.08 6.38 24.5 7.19 24.94 C8 25.38 8.81 25.82 9.64 26.27 C30.29 37.2 54.96 40.5 77.55 33.62 C80.13 32.97 82.36 32.89 85 33 C76.19 42.63 64.14 46.76 51.26 47.91 C26.52 48.89 4.1 44.42 -16 29 C-15.33 25.21 -13.61 22.41 -11.62 19.14 C-10.95 18.03 -10.27 16.91 -9.58 15.76 C-8.87 14.59 -8.15 13.42 -7.44 12.25 C-6.72 11.06 -6 9.88 -5.28 8.69 C-3.53 5.79 -1.77 2.89 0 0 Z " fill="#B4A26F" transform="translate(583,136)"/>
<path d="M0 0 C2.48 0.5 2.48 0.5 5 1 C4.17 5.51 1.71 8.85 -0.72 12.66 C-2.24 14.99 -2.24 14.99 -2 18 C11.46 28.23 29.01 35.36 46 36 C47.17 36.05 48.34 36.1 49.54 36.16 C58.13 36.41 65.99 35.51 74.38 33.66 C78 33 81.33 32.89 85 33 C75.51 43.51 60.37 46.62 46.83 47.31 C23.52 48.06 2.52 42.56 -16 28 C-10.95 18.5 -5.49 9.25 0 0 Z " fill="#6D4C33" transform="translate(570,147)"/>
<path d="M0 0 C2.73 -0.03 5.47 -0.05 8.2 -0.07 C9.36 -0.08 9.36 -0.08 10.54 -0.1 C17.7 -0.13 22.39 0.51 27.81 5.69 C32.02 12.05 33.67 17 32.57 24.67 C31.21 30.19 27.74 34.05 23 37 C16 39.58 8.35 39.47 1 39 C0 38 0 38 -0.11 34.4 C-0.11 32.8 -0.11 31.19 -0.1 29.59 C-0.1 28.75 -0.09 27.91 -0.09 27.04 C-0.09 24.34 -0.08 21.64 -0.06 18.94 C-0.06 17.11 -0.05 15.29 -0.05 13.46 C-0.04 8.97 -0.02 4.49 0 0 Z " fill="#B4A26F" transform="translate(300,48)"/>
<path d="M0 0 C0.66 0 1.32 0 2 0 C2.07 1.39 2.07 1.39 2.15 2.8 C2.88 16.24 3.97 29.65 5.06 43.06 C5.25 45.39 5.44 47.73 5.63 50.06 C6.08 55.7 6.54 61.35 7 67 C13.93 67.33 20.86 67.66 28 68 C28.49 73.44 28.49 73.44 29 79 C24.34 79.07 19.67 79.13 15.01 79.16 C13.42 79.18 11.84 79.2 10.25 79.23 C7.97 79.26 5.69 79.28 3.41 79.29 C2.7 79.31 1.99 79.32 1.26 79.34 C-0.74 79.34 -0.74 79.34 -4 79 C-5.94 76.1 -6.28 75.29 -6.56 72.03 C-6.67 70.82 -6.67 70.82 -6.79 69.59 C-6.93 67.77 -7.08 65.95 -7.22 64.13 C-7.63 59 -8.13 53.94 -8.92 48.85 C-11.48 30.41 -7.09 16.8 0 0 Z " fill="#6D4C33" transform="translate(1052,113)"/>
<path d="M0 0 C4.31 4.08 7.89 8.54 11.5 13.25 C12.1 14.03 12.71 14.81 13.33 15.61 C16.48 19.7 19.62 23.81 22.73 27.93 C23.33 28.7 23.92 29.48 24.53 30.29 C25.66 31.78 26.79 33.28 27.91 34.78 C28.42 35.45 28.93 36.12 29.45 36.82 C29.9 37.41 30.34 38 30.8 38.61 C31.97 40.15 31.97 40.15 34 41 C35.61 41.09 37.22 41.13 38.83 41.14 C39.8 41.16 40.76 41.18 41.75 41.2 C43.78 41.23 45.81 41.25 47.84 41.25 C55.22 41.44 55.22 41.44 59.01 44.17 C61 47 61 47 64 53 C50.14 53 36.28 53 22 53 C21.67 52.01 21.34 51.02 21 50 C20.43 49.74 19.86 49.49 19.27 49.23 C15.87 47.39 13.91 44.41 11.62 41.38 C11.17 40.78 10.71 40.19 10.24 39.58 C9.3 38.36 8.38 37.13 7.46 35.89 C6.02 33.97 6.02 33.97 4.32 32.23 C-1.11 26.16 -0.71 20.35 -0.38 12.5 C-0.35 11.3 -0.32 10.09 -0.29 8.85 C-0.22 5.9 -0.12 2.95 0 0 Z " fill="#6E4D33" transform="translate(300,139)"/>
<path d="M0 0 C1.35 2.61 2.49 5.18 3.45 7.95 C3.72 8.72 3.98 9.48 4.26 10.27 C4.54 11.09 4.83 11.91 5.12 12.75 C5.42 13.61 5.71 14.47 6.02 15.35 C6.98 18.09 7.93 20.82 8.88 23.56 C9.82 26.27 10.76 28.98 11.7 31.68 C12.31 33.43 12.91 35.17 13.52 36.91 C15.4 42.31 17.33 47.68 19.38 53.02 C20 55 20 55 20 58 C23.96 58.33 27.92 58.66 32 59 C33 62 33 62 30 69 C23.07 69 16.14 69 9 69 C4.5 58.88 4.5 58.88 2.86 54.09 C2.51 53.08 2.16 52.07 1.8 51.03 C1.28 49.5 1.28 49.5 0.75 47.94 C0.39 46.88 0.02 45.82 -0.35 44.74 C-1.24 42.16 -2.12 39.58 -3 37 C-3.33 37 -3.66 37 -4 37 C-4.31 28.91 -3.78 20.93 -3.12 12.88 C-3.05 11.84 -2.97 10.81 -2.89 9.75 C-2.8 8.78 -2.72 7.81 -2.63 6.8 C-2.56 5.93 -2.49 5.05 -2.41 4.15 C-2 2 -2 2 0 0 Z " fill="#6C4B32" transform="translate(978,121)"/>
<path d="M0 0 C3.05 1.53 3.25 3.83 4.43 6.98 C4.66 7.6 4.88 8.21 5.12 8.84 C5.86 10.81 6.59 12.78 7.31 14.75 C7.79 16.03 8.27 17.32 8.75 18.6 C9.46 20.51 10.17 22.42 10.88 24.33 C13.2 30.57 15.59 36.79 18 43 C16.96 42.93 15.92 42.86 14.84 42.78 C4.88 42.12 -5.02 41.88 -15 42 C-13.44 32.84 -9.83 24.51 -6.38 15.94 C-5.76 14.39 -5.14 12.84 -4.52 11.29 C-3.02 7.52 -1.51 3.76 0 0 Z " fill="#B5A370" transform="translate(1194,68)"/>
<path d="M0 0 C1.19 0.01 1.19 0.01 2.41 0.02 C3.2 0.01 3.99 0.01 4.81 0 C6.91 0.27 6.91 0.27 8.91 2.27 C9.15 4.33 9.15 4.33 9.13 6.9 C9.13 8.34 9.13 8.34 9.13 9.81 C9.12 10.85 9.11 11.89 9.1 12.96 C9.1 14.02 9.1 15.09 9.09 16.18 C9.08 19.58 9.06 22.99 9.03 26.39 C9.02 28.69 9.01 31 9 33.3 C8.98 38.96 8.95 44.61 8.91 50.27 C6.93 50.29 4.95 50.31 2.97 50.33 C1.87 50.34 0.76 50.35 -0.37 50.36 C-3.09 50.27 -3.09 50.27 -4.09 49.27 C-4.27 46.47 -4.38 43.69 -4.45 40.89 C-4.47 40.05 -4.49 39.21 -4.52 38.35 C-4.56 36.57 -4.61 34.79 -4.65 33.01 C-4.72 30.28 -4.8 27.54 -4.88 24.81 C-4.92 23.09 -4.96 21.36 -5.01 19.64 C-5.03 18.82 -5.06 17.99 -5.08 17.15 C-5.12 15.19 -5.11 13.23 -5.09 11.27 C-4.76 10.94 -4.43 10.61 -4.09 10.27 C-4.13 8.24 -4.16 6.2 -4.25 4.18 C-4.01 1.25 -2.84 0.36 0 0 Z " fill="#B5A370" transform="translate(116.09375,29.734375)"/>
<path d="M0 0 C0.8 0.01 1.61 0.03 2.43 0.04 C3.64 0.05 3.64 0.05 4.88 0.06 C6.87 0.23 6.87 0.23 7.87 1.23 C7.96 2.77 7.99 4.3 7.98 5.84 C7.98 6.82 7.98 7.8 7.98 8.81 C7.98 9.88 7.97 10.95 7.97 12.05 C7.97 13.13 7.97 14.22 7.96 15.34 C7.96 18.82 7.95 22.31 7.93 25.79 C7.93 28.15 7.92 30.51 7.92 32.86 C7.91 38.65 7.89 44.44 7.87 50.23 C6.06 50.26 4.25 50.28 2.43 50.29 C1.42 50.3 0.41 50.32 -0.62 50.33 C-3.13 50.23 -3.13 50.23 -4.13 49.23 C-4.3 46.53 -4.41 43.84 -4.48 41.14 C-4.52 39.91 -4.52 39.91 -4.55 38.65 C-4.6 36.9 -4.64 35.16 -4.69 33.41 C-4.75 30.77 -4.83 28.12 -4.91 25.48 C-4.96 23.78 -5 22.08 -5.04 20.39 C-5.07 19.61 -5.09 18.82 -5.12 18.02 C-5.23 12.77 -5.29 7.37 -4.13 2.23 C-2.13 0.23 -2.13 0.23 0 0 Z " fill="#B5A370" transform="translate(797.12890625,29.76953125)"/>
<path d="M0 0 C1.19 3.44 0.82 5.27 -0.5 8.62 C-0.86 9.53 -1.21 10.44 -1.58 11.39 C-1.97 12.37 -2.37 13.36 -2.78 14.37 C-3.18 15.4 -3.59 16.44 -4 17.5 C-5.3 20.82 -6.62 24.13 -7.94 27.44 C-8.79 29.6 -9.64 31.77 -10.49 33.93 C-11.76 37.14 -13.02 40.36 -14.29 43.57 C-18.28 53.68 -22.16 63.83 -26 74 C-27.32 73.67 -28.64 73.34 -30 73 C-32.04 67.51 -32.03 64.29 -29.81 58.81 C-29.55 58.11 -29.28 57.42 -29.01 56.7 C-28.03 54.12 -27.02 51.56 -26 49 C-25.07 46.61 -24.14 44.23 -23.21 41.84 C-16.14 23.67 -16.14 23.67 -13.85 18.29 C-12.84 15.99 -12.84 15.99 -13.06 13.31 C-13.04 12.55 -13.02 11.79 -13 11 C-12.01 10.34 -11.02 9.68 -10 9 C-9.07 7.08 -9.07 7.08 -8.44 4.94 C-7.75 2.78 -7.75 2.78 -7 1 C-4.54 -0.23 -2.72 -0.07 0 0 Z " fill="#B5A370" transform="translate(1050,30)"/>
<path d="M0 0 C2.09 0.57 4.18 1.16 6.27 1.75 C8.01 2.24 8.01 2.24 9.79 2.74 C14.56 4.61 16.79 7.48 19 12 C20.84 17.12 20.71 23.87 19 29 C15.03 29.94 11.32 30.13 7.25 30.12 C6.1 30.13 4.95 30.13 3.77 30.13 C1 30 1 30 0 29 C-0.09 26.85 -0.11 24.71 -0.1 22.56 C-0.09 21.25 -0.09 19.95 -0.09 18.6 C-0.08 17.21 -0.07 15.83 -0.06 14.44 C-0.06 13.04 -0.05 11.65 -0.05 10.26 C-0.04 6.84 -0.02 3.42 0 0 Z " fill="#6D4C33" transform="translate(300,57)"/>
<path d="M0 0 C7.33 2.55 7.33 2.55 10.75 4.26 C10.22 9.61 8.29 13.62 5.75 18.26 C1.87 17.29 -1.52 16.2 -5.06 14.32 C-13.14 10.16 -21.23 8.76 -30.25 8.26 C-29.69 3.63 -29.69 3.63 -27.69 1.93 C-26.76 1.47 -26.76 1.47 -25.81 1.01 C-17.38 -3.13 -8.89 -2.85 0 0 Z " fill="#B5A370" transform="translate(657.247314453125,50.74169921875)"/>
<path d="M0 0 C1.21 -0 1.21 -0 2.44 -0.01 C4.44 0.12 4.44 0.12 5.44 1.12 C5.53 3.94 5.55 6.72 5.54 9.54 C5.53 10.38 5.53 11.22 5.53 12.09 C5.53 14.79 5.51 17.49 5.5 20.19 C5.49 22.01 5.49 23.84 5.49 25.67 C5.48 30.15 5.46 34.64 5.44 39.12 C3.63 39.15 1.81 39.17 0 39.19 C-1.01 39.2 -2.02 39.21 -3.06 39.22 C-5.56 39.12 -5.56 39.12 -6.56 38.12 C-6.65 35.39 -6.68 32.67 -6.66 29.93 C-6.66 29.11 -6.66 28.29 -6.66 27.45 C-6.65 24.82 -6.64 22.19 -6.62 19.56 C-6.62 17.78 -6.62 16.01 -6.61 14.23 C-6.6 9.86 -6.58 5.49 -6.56 1.12 C-4.18 -0.06 -2.65 -0.01 0 0 Z " fill="#6D4C33" transform="translate(787.5625,40.875)"/>
<path d="M0 0 C0.8 0.01 1.61 0.03 2.43 0.04 C3.64 0.05 3.64 0.05 4.88 0.06 C6.87 0.23 6.87 0.23 7.87 1.23 C7.96 4.04 7.99 6.83 7.97 9.64 C7.97 10.48 7.97 11.32 7.96 12.19 C7.96 14.89 7.95 17.59 7.93 20.29 C7.93 22.12 7.92 23.95 7.92 25.77 C7.91 30.26 7.89 34.74 7.87 39.23 C6.06 39.26 4.25 39.28 2.43 39.29 C1.42 39.3 0.41 39.32 -0.62 39.33 C-3.13 39.23 -3.13 39.23 -4.13 38.23 C-4.24 35.59 -4.29 32.97 -4.3 30.33 C-4.3 29.54 -4.3 28.74 -4.31 27.93 C-4.31 26.24 -4.31 24.56 -4.31 22.88 C-4.32 20.31 -4.33 17.73 -4.35 15.15 C-4.36 13.52 -4.36 11.9 -4.36 10.27 C-4.37 9.49 -4.37 8.72 -4.38 7.92 C-4.35 0.47 -4.35 0.47 0 0 Z " fill="#6D4C33" transform="translate(104.12890625,40.76953125)"/>
<path d="M0 0 C0.78 0.04 1.57 0.08 2.38 0.12 C3.42 3.98 3.34 6.16 1.85 9.85 C1.49 10.76 1.14 11.67 0.77 12.6 C0.37 13.57 -0.02 14.54 -0.43 15.54 C-0.83 16.54 -1.23 17.54 -1.64 18.58 C-2.91 21.79 -4.21 24.99 -5.5 28.19 C-6.78 31.39 -8.06 34.6 -9.34 37.81 C-10.14 39.8 -10.94 41.8 -11.74 43.79 C-12.29 45.14 -12.29 45.14 -12.84 46.53 C-13.16 47.32 -13.48 48.11 -13.81 48.93 C-14.57 50.98 -15.14 53 -15.62 55.12 C-16.28 55.12 -16.95 55.12 -17.62 55.12 C-18.32 53.53 -19.01 51.92 -19.69 50.31 C-20.07 49.42 -20.45 48.53 -20.85 47.61 C-22.07 43.71 -20.02 40.56 -18.55 36.89 C-18.13 35.85 -17.72 34.81 -17.29 33.73 C-16.84 32.62 -16.4 31.52 -15.94 30.38 C-12.29 21.3 -12.29 21.3 -8.7 12.21 C-8.43 11.51 -8.16 10.82 -7.88 10.11 C-7.17 8.31 -6.48 6.52 -5.78 4.72 C-4.31 1.42 -3.71 0.18 0 0 Z " fill="#6D4C33" transform="translate(1034.625,40.875)"/>
<path d="M0 0 C9.97 0.86 20.21 1.77 29 7 C30.03 8.8 30.03 8.8 30 11 C28.79 13.8 28.79 13.8 27.06 16.75 C26.5 17.73 25.93 18.72 25.35 19.73 C24.9 20.48 24.46 21.23 24 22 C15.66 20.74 7.36 15.42 1 10 C-0.89 6.14 -1.18 4.04 0 0 Z " fill="#6B4A31" transform="translate(626,58)"/>
<path d="M0 0 C17.83 -1.48 17.83 -1.48 22.89 1.97 C27 7.42 27 7.42 27 10 C20.29 10.88 13.77 11.11 7 11 C7 10.01 7 9.02 7 8 C6.01 7.67 5.02 7.34 4 7 C2.81 4.44 2.81 4.44 2 2 C1.34 2 0.68 2 0 2 C0 1.34 0 0.68 0 0 Z " fill="#947B53" transform="translate(349,171)"/>
<path d="M0 0 C0.33 0 0.66 0 1 0 C1.26 0.89 1.26 0.89 1.52 1.8 C3.42 8.31 5.64 14.64 8 21 C2.72 21 -2.56 21 -8 21 C-6.79 14.28 -5.01 5.01 0 0 Z " fill="#6D4C33" transform="translate(1187,89)"/>
<path d="M0 0 C5.61 0 11.22 0 17 0 C18.8 3.6 20.41 7.3 22 11 C16.39 11 10.78 11 5 11 C5 10.01 5 9.02 5 8 C4.34 8 3.68 8 3 8 C2.69 7.05 2.38 6.1 2.06 5.12 C1.13 2.14 1.13 2.14 0 0 Z " fill="#947B53" transform="translate(1238,171)"/>
<path d="M0 0 C0.79 -0.01 1.59 -0.03 2.41 -0.04 C4.5 0.19 4.5 0.19 6.5 2.19 C6.7 5.01 6.7 5.01 6.62 8.31 C6.61 9.41 6.59 10.5 6.57 11.63 C6.55 12.48 6.52 13.32 6.5 14.19 C6.17 13.2 5.84 12.21 5.5 11.19 C1.87 11.19 -1.76 11.19 -5.5 11.19 C-7.11 7.97 -6.56 4.75 -6.5 1.19 C-4.15 0.01 -2.62 0.02 0 0 Z " fill="#947B53" transform="translate(716.5,29.8125)"/>
<path d="M0 0 C0.79 0.01 1.59 0.03 2.41 0.04 C3.6 0.05 3.6 0.05 4.81 0.06 C6.91 0.23 6.91 0.23 8.91 1.23 C8.91 4.53 8.91 7.83 8.91 11.23 C7.11 11.26 5.32 11.28 3.53 11.29 C2.53 11.3 1.54 11.32 0.51 11.33 C-2.09 11.23 -2.09 11.23 -4.09 10.23 C-4.29 4.18 -4.29 4.18 -4.09 2.23 C-2.09 0.23 -2.09 0.23 0 0 Z " fill="#977F55" transform="translate(186.09375,29.76953125)"/>
<path d="M0 0 C1.77 0.01 1.77 0.01 3.57 0.03 C4.48 0.04 5.38 0.05 6.31 0.06 C8.41 3.46 8.49 6.12 8.31 10.06 C6.35 10.14 4.4 10.2 2.44 10.25 C0.8 10.3 0.8 10.3 -0.87 10.36 C-1.8 10.26 -2.73 10.16 -3.69 10.06 C-5.69 7.06 -5.69 7.06 -5.69 3.06 C-7.01 2.4 -8.33 1.74 -9.69 1.06 C-6.27 -0.08 -3.6 -0.04 0 0 Z " fill="#947B53" transform="translate(1084.6875,170.9375)"/>
<path d="M0 0 C1.15 -0 2.3 -0.01 3.48 -0.01 C6.25 0.12 6.25 0.12 7.25 1.12 C7.39 4.13 7.29 7.12 7.25 10.12 C3.29 10.12 -0.67 10.12 -4.75 10.12 C-4.75 7.49 -4.75 4.84 -4.75 2.12 C-7.06 2.12 -9.37 2.12 -11.75 2.12 C-11.75 1.79 -11.75 1.47 -11.75 1.12 C-7.78 0.19 -4.07 -0.01 0 0 Z " fill="#947B52" transform="translate(890.75,170.875)"/>
<path d="M0 0 C1.16 0.01 2.32 0.02 3.52 0.03 C4.4 0.04 5.28 0.05 6.19 0.06 C7.79 3.28 7.24 6.5 7.19 10.06 C3.23 10.06 -0.73 10.06 -4.81 10.06 C-4.81 7.42 -4.81 4.78 -4.81 2.06 C-7.12 2.06 -9.43 2.06 -11.81 2.06 C-11.81 1.73 -11.81 1.4 -11.81 1.06 C-7.81 0.11 -4.1 -0.04 0 0 Z " fill="#937A52" transform="translate(820.8125,170.9375)"/>
<path d="M0 0 C1.16 0.01 2.32 0.02 3.52 0.03 C4.4 0.04 5.28 0.05 6.19 0.06 C7.79 3.28 7.24 6.5 7.19 10.06 C3.23 10.06 -0.73 10.06 -4.81 10.06 C-4.81 7.42 -4.81 4.78 -4.81 2.06 C-7.12 2.06 -9.43 2.06 -11.81 2.06 C-11.81 1.73 -11.81 1.4 -11.81 1.06 C-7.81 0.11 -4.1 -0.04 0 0 Z " fill="#937A52" transform="translate(56.8125,170.9375)"/>
<path d="M0 0 C1.05 -0.01 2.09 -0.03 3.17 -0.04 C5.81 0.19 5.81 0.19 7.81 2.19 C8.08 4.88 7.9 7.48 7.81 10.19 C3.85 10.19 -0.11 10.19 -4.19 10.19 C-4.19 7.55 -4.19 4.91 -4.19 2.19 C-6.5 2.19 -8.81 2.19 -11.19 2.19 C-11.19 1.86 -11.19 1.53 -11.19 1.19 C-7.41 0.32 -3.87 0.02 0 0 Z " fill="#947B52" transform="translate(139.1875,170.8125)"/>
<path d="M0 0 C2.38 -0.29 2.38 -0.29 5.12 -0.19 C6.04 -0.16 6.95 -0.13 7.88 -0.11 C8.58 -0.07 9.28 -0.04 10 0 C11.71 3.43 11.05 7.22 11 11 C6.71 10.67 2.42 10.34 -2 10 C-2.25 3.38 -2.25 3.38 0 0 Z " fill="#988056" transform="translate(865,30)"/>
<path d="M0 0 C1.19 0.01 1.19 0.01 2.41 0.02 C3.2 0.01 3.99 0.01 4.81 0 C6.91 0.27 6.91 0.27 8.91 2.27 C9.18 5.28 8.99 8.23 8.91 11.27 C4.62 10.94 0.33 10.61 -4.09 10.27 C-4.29 4.21 -4.29 4.21 -4.09 2.27 C-2.09 0.27 -2.09 0.27 0 0 Z " fill="#977F55" transform="translate(116.09375,29.734375)"/>
<path d="M0 0 C1.15 0.01 2.3 0.02 3.49 0.03 C4.36 0.04 5.23 0.05 6.12 0.06 C5.79 3.36 5.47 6.66 5.12 10.06 C1.5 10.06 -2.13 10.06 -5.88 10.06 C-5.88 7.75 -5.88 5.44 -5.88 3.06 C-8.18 2.73 -10.5 2.4 -12.88 2.06 C-12.88 1.73 -12.88 1.4 -12.88 1.06 C-8.52 0.22 -4.43 -0.05 0 0 Z " fill="#917850" transform="translate(954.875,170.9375)"/>
<path d="M0 0 C1.15 0.01 2.3 0.02 3.49 0.03 C4.36 0.04 5.23 0.05 6.12 0.06 C6.12 3.36 6.12 6.66 6.12 10.06 C2.5 10.06 -1.13 10.06 -4.88 10.06 C-4.88 7.42 -4.88 4.78 -4.88 2.06 C-7.51 2.06 -10.15 2.06 -12.88 2.06 C-12.88 1.73 -12.88 1.4 -12.88 1.06 C-8.52 0.22 -4.43 -0.05 0 0 Z " fill="#937A52" transform="translate(737.875,170.9375)"/>
<path d="M0 0 C1.15 0.01 2.3 0.02 3.49 0.03 C4.36 0.04 5.23 0.05 6.12 0.06 C6.12 3.36 6.12 6.66 6.12 10.06 C2.5 10.06 -1.13 10.06 -4.88 10.06 C-4.88 7.42 -4.88 4.78 -4.88 2.06 C-7.51 2.06 -10.16 2.06 -12.88 2.06 C-12.88 1.73 -12.88 1.4 -12.88 1.06 C-8.52 0.22 -4.43 -0.05 0 0 Z " fill="#937A52" transform="translate(210.875,170.9375)"/>
<path d="M0 0 C1.16 0.01 2.32 0.02 3.52 0.03 C4.4 0.04 5.28 0.05 6.19 0.06 C6.19 3.36 6.19 6.66 6.19 10.06 C2.56 10.06 -1.07 10.06 -4.81 10.06 C-4.81 7.42 -4.81 4.78 -4.81 2.06 C-7.12 2.06 -9.43 2.06 -11.81 2.06 C-11.81 1.73 -11.81 1.4 -11.81 1.06 C-7.81 0.11 -4.1 -0.04 0 0 Z " fill="#937A52" transform="translate(280.8125,170.9375)"/>
<path d="M0 0 C1.21 -0 1.21 -0 2.44 -0.01 C4.44 0.12 4.44 0.12 5.44 1.12 C5.58 4.13 5.48 7.12 5.44 10.12 C1.81 10.45 -1.82 10.78 -5.56 11.12 C-7.17 7.91 -6.62 4.69 -6.56 1.12 C-4.18 -0.06 -2.65 -0.01 0 0 Z " fill="#977F55" transform="translate(259.5625,29.875)"/>
<path d="M0 0 C0.8 0.01 1.61 0.03 2.43 0.04 C3.64 0.05 3.64 0.05 4.88 0.06 C6.87 0.23 6.87 0.23 7.87 1.23 C8.01 4.23 7.91 7.22 7.87 10.23 C4.24 10.56 0.61 10.89 -3.13 11.23 C-4.64 8.22 -4.31 5.55 -4.13 2.23 C-2.13 0.23 -2.13 0.23 0 0 Z " fill="#977E55" transform="translate(797.12890625,29.76953125)"/>
<path d="M0 0 C1 1 1 1 1.1 3.07 C1.09 3.89 1.07 4.71 1.06 5.56 C1.05 6.39 1.04 7.22 1.04 8.07 C1.02 8.7 1.01 9.34 1 10 C-0.62 10.19 -2.25 10.38 -3.88 10.56 C-4.78 10.67 -5.68 10.77 -6.62 10.88 C-9 11 -9 11 -11 10 C-11.29 3.95 -11.29 3.95 -11 2 C-6.96 -0.69 -4.79 -0.23 0 0 Z " fill="#9A8157" transform="translate(40,30)"/>
<path d="M0 0 C0.7 -0.02 1.4 -0.03 2.12 -0.05 C2.74 0.07 3.36 0.19 4 0.31 C6.79 4.49 5.8 6.46 5 11.31 C1.37 11.31 -2.26 11.31 -6 11.31 C-6.2 4.48 -6.2 4.48 -6 2.31 C-3.67 -0.01 -3.15 0.02 0 0 Z " fill="#967D54" transform="translate(945,29.6875)"/>
<path d="M0 0 C-0.88 7.75 -0.88 7.75 -2 10 C-4.97 10 -7.94 10 -11 10 C-10.01 7.69 -9.02 5.38 -8 3 C-12.95 2.67 -17.9 2.34 -23 2 C-23 1.67 -23 1.34 -23 1 C-15.32 0.33 -7.72 -0.16 0 0 Z " fill="#917750" transform="translate(1145,171)"/>
<path d="M0 0 C4.75 0.88 4.75 0.88 7 2 C6.47 7.35 4.53 11.36 2 16 C-0.48 15.01 -0.48 15.01 -3 14 C-2.45 9.41 -1.06 6.11 1 2 C0.67 1.34 0.34 0.68 0 0 Z " fill="#947B53" transform="translate(661,53)"/>
<path d="M0 0 C1.47 3.81 0.43 6.29 -1 10 C-5.46 10.5 -5.46 10.5 -10 11 C-9.54 7.53 -9.11 4.33 -8 1 C-5.29 -0.35 -2.99 -0.07 0 0 Z " fill="#947B53" transform="translate(1022,170)"/>
<path d="M0 0 C1.32 0.33 2.64 0.66 4 1 C3.42 5.06 2.11 7.85 -0.06 11.31 C-0.61 12.2 -1.16 13.08 -1.72 13.99 C-2.14 14.65 -2.57 15.32 -3 16 C-4.32 15.34 -5.64 14.68 -7 14 C-6.34 10.43 -4.84 7.82 -2.94 4.75 C-2.39 3.86 -1.84 2.97 -1.28 2.05 C-0.65 1.03 -0.65 1.03 0 0 Z " fill="#988058" transform="translate(583,136)"/>
<path d="M0 0 C0.95 2.17 1.14 3.56 0.4 5.82 C-0.36 7.57 -1.18 9.29 -2 11 C-4.31 11 -6.62 11 -9 11 C-8.4 3.63 -8.4 3.63 -6.75 1 C-4.42 -0.33 -2.64 -0.21 0 0 Z " fill="#977E56" transform="translate(1050,30)"/>
<path d="M0 0 C0.75 1.56 0.75 1.56 1 4 C-0.13 6.5 -1.52 8.67 -3 11 C-4.98 11 -6.96 11 -9 11 C-10 8 -10 8 -8.69 4.38 C-6.33 -0.33 -4.95 -0.13 0 0 Z " fill="#977E56" transform="translate(1173,30)"/>
<path d="M0 0 C4.81 4.03 6.47 7.96 8 14 C8 14.33 8 14.66 8 15 C5.67 15.04 3.33 15.04 1 15 C0 14 0 14 -0.1 10.84 C-0.08 8.91 -0.08 8.91 -0.06 6.94 C-0.05 5.65 -0.04 4.36 -0.04 3.03 C-0.02 2.03 -0.01 1.03 0 0 Z " fill="#300201" transform="translate(300,72)"/>
</svg>
