<?xml version="1.0" encoding="UTF-8"?>
<!-- Generator: visioncortex VTracer 0.6.3 -->
<svg version="1.1" xmlns="http://www.w3.org/2000/svg" width="1280" height="337">
<path d="M0 0 C422.4 0 844.8 0 1280 0 C1280 111.21 1280 222.42 1280 337 C857.6 337 435.2 337 0 337 C0 225.79 0 114.58 0 0 Z " fill="#FBFCA8" transform="translate(0,0)"/>
<path d="M0 0 C1.08 -0.03 2.16 -0.05 3.28 -0.08 C8.24 -0.16 13.21 -0.23 18.18 -0.27 C20.8 -0.31 23.42 -0.35 26.04 -0.42 C29.81 -0.51 33.58 -0.55 37.35 -0.58 C38.52 -0.61 39.69 -0.65 40.89 -0.69 C48.86 -0.67 48.86 -0.67 51.97 1.97 C53.51 4 54.74 6 55.93 8.24 C56.65 9.26 57.36 10.28 58.09 11.33 C60.99 15.66 63.85 19.95 66.31 24.55 C69.27 30.06 72.83 35.16 76.32 40.34 C78.76 43.97 81.14 47.62 83.5 51.3 C83.86 51.88 84.23 52.45 84.61 53.04 C85.35 54.2 86.09 55.35 86.82 56.51 C88.69 59.42 90.56 62.33 92.43 65.24 C93.18 66.41 93.93 67.57 94.68 68.74 C95.05 69.32 95.43 69.9 95.81 70.49 C126.18 117.74 126.18 117.74 127.31 119.49 C128.05 120.65 128.8 121.81 129.55 122.97 C131.49 125.99 133.42 129 135.36 132.02 C135.76 132.64 136.16 133.27 136.57 133.91 C137.68 135.63 138.78 137.36 139.89 139.08 C140.56 140.13 141.24 141.17 141.93 142.24 C142.29 142.81 142.65 143.39 143.01 143.98 C143.93 145.43 144.93 146.84 145.93 148.24 C146.59 148.24 147.25 148.24 147.93 148.24 C148.99 145.07 149.07 142.8 149.08 139.46 C149.09 138.26 149.1 137.06 149.11 135.81 C149.11 134.48 149.12 133.14 149.12 131.8 C149.13 130.4 149.14 128.99 149.15 127.59 C149.17 124.56 149.18 121.53 149.19 118.5 C149.21 113.72 149.24 108.93 149.27 104.15 C149.34 93.13 149.39 82.1 149.45 71.08 C149.5 60.98 149.55 50.88 149.61 40.78 C149.64 36.02 149.66 31.26 149.68 26.5 C149.7 23.54 149.71 20.58 149.73 17.63 C149.74 16.25 149.75 14.88 149.75 13.5 C149.76 11.63 149.77 9.76 149.78 7.89 C149.79 6.84 149.79 5.79 149.8 4.71 C149.93 2.24 149.93 2.24 150.93 0.24 C158.75 0.22 166.56 0.2 174.38 0.19 C177.04 0.18 179.7 0.17 182.36 0.17 C186.17 0.15 189.99 0.15 193.8 0.14 C195.6 0.14 195.6 0.14 197.43 0.13 C199.09 0.13 199.09 0.13 200.77 0.13 C201.75 0.12 202.72 0.12 203.72 0.12 C205.93 0.24 205.93 0.24 206.93 1.24 C207.03 3.77 207.05 6.27 207.04 8.8 C207.04 10 207.04 10 207.04 11.22 C207.03 13.89 207.02 16.57 207.01 19.24 C207 21.15 207 23.05 207 24.95 C206.98 30.02 206.97 35.1 206.95 40.17 C206.93 43.15 206.92 46.14 206.91 49.12 C206.86 62.38 206.8 75.64 206.73 88.89 C206.7 94.53 206.67 100.16 206.65 105.79 C206.59 116.39 206.54 126.98 206.49 137.57 C206.43 149.66 206.37 161.75 206.31 173.84 C206.18 198.64 206.06 223.44 205.93 248.24 C198.25 248.66 190.56 249 182.87 249.27 C180.26 249.38 177.65 249.5 175.03 249.64 C171.27 249.85 167.51 249.98 163.75 250.1 C162 250.21 162 250.21 160.22 250.33 C155.2 250.43 152.19 250.44 148.45 246.87 C146.4 244.07 144.63 241.26 142.93 238.24 C142.08 236.91 141.22 235.58 140.35 234.26 C139.6 233.05 138.86 231.83 138.12 230.62 C137.26 229.23 136.41 227.84 135.55 226.45 C135.11 225.75 134.68 225.05 134.24 224.33 C132.13 220.96 129.97 217.63 127.81 214.3 C123.15 207.14 118.54 199.94 113.93 192.74 C107.07 182.01 107.07 182.01 100.18 171.3 C99.76 170.65 99.34 169.99 98.9 169.31 C96.5 165.61 94.06 161.93 91.59 158.27 C91.04 157.44 90.48 156.61 89.9 155.76 C88.82 154.15 87.73 152.55 86.64 150.95 C86.15 150.23 85.67 149.51 85.17 148.78 C84.74 148.14 84.31 147.5 83.86 146.85 C82.93 145.24 82.93 145.24 82.93 143.24 C82.27 143.24 81.61 143.24 80.93 143.24 C79.67 141.55 79.67 141.55 78.25 139.17 C77.72 138.3 77.19 137.43 76.64 136.54 C76.08 135.59 75.51 134.65 74.93 133.68 C70.93 127.09 66.89 120.55 62.56 114.18 C58.84 108.7 55.45 103.12 52.21 97.34 C51.79 96.65 51.37 95.95 50.93 95.24 C50.6 95.24 50.27 95.24 49.93 95.24 C49.93 145.73 49.93 196.22 49.93 248.24 C9.93 249.24 9.93 249.24 -5.07 249.24 C-6.21 246.95 -6.19 245.7 -6.19 243.16 C-6.2 242.3 -6.2 241.43 -6.2 240.55 C-6.2 239.6 -6.2 238.65 -6.19 237.67 C-6.2 236.66 -6.2 235.66 -6.2 234.62 C-6.2 231.23 -6.2 227.84 -6.2 224.45 C-6.2 222.02 -6.2 219.6 -6.2 217.18 C-6.21 211.27 -6.21 205.36 -6.2 199.45 C-6.2 194.65 -6.2 189.85 -6.2 185.05 C-6.2 184.37 -6.2 183.69 -6.2 182.99 C-6.2 181.6 -6.2 180.21 -6.2 178.83 C-6.21 165.82 -6.2 152.82 -6.2 139.82 C-6.19 128.65 -6.19 117.48 -6.2 106.31 C-6.2 93.35 -6.2 80.39 -6.2 67.44 C-6.2 66.05 -6.2 64.67 -6.2 63.29 C-6.2 62.62 -6.2 61.94 -6.2 61.24 C-6.2 56.44 -6.2 51.64 -6.2 46.84 C-6.21 40.39 -6.2 33.94 -6.2 27.49 C-6.2 25.12 -6.2 22.74 -6.2 20.37 C-6.2 17.14 -6.2 13.91 -6.19 10.69 C-6.2 9.73 -6.2 8.78 -6.2 7.8 C-6.18 0.14 -6.18 0.14 0 0 Z " fill="#FAFCFC" transform="translate(1020.067138671875,13.759521484375)"/>
<path d="M0 0 C2.16 -0.39 2.16 -0.39 4.86 -0.42 C5.87 -0.44 6.88 -0.45 7.93 -0.47 C9.57 -0.47 9.57 -0.47 11.25 -0.47 C12.37 -0.48 13.49 -0.48 14.65 -0.49 C17.02 -0.5 19.4 -0.51 21.78 -0.5 C25.42 -0.5 29.06 -0.54 32.71 -0.59 C35.01 -0.59 37.32 -0.59 39.62 -0.59 C40.71 -0.61 41.81 -0.63 42.94 -0.64 C45.71 -0.62 48.28 -0.54 51 0 C53.06 2.18 53.06 2.18 54 5 C54.41 5.91 54.83 6.82 55.25 7.75 C55.66 8.75 56.07 9.75 56.5 10.78 C56.97 11.91 57.44 13.05 57.92 14.22 C58.43 15.46 58.93 16.7 59.44 17.94 C59.97 19.24 60.51 20.55 61.05 21.85 C65.15 31.84 69.16 41.85 73.16 51.87 C77.48 62.72 81.86 73.55 86.25 84.38 C92.27 99.23 98.25 114.1 104.18 128.99 C109.46 142.22 114.83 155.4 120.31 168.54 C123.03 175.08 125.64 181.64 128.09 188.28 C130.08 193.69 132.27 198.94 134.71 204.16 C137.4 210.1 139.73 216.19 142.12 222.25 C142.92 224.24 143.71 226.24 144.5 228.23 C145.21 230.03 145.93 231.83 146.64 233.63 C147.34 235.38 148.06 237.12 148.84 238.84 C150.37 242.23 151 244.2 151 248 C143.53 248.32 136.05 248.59 128.57 248.81 C125.1 248.91 121.63 249.02 118.16 249.18 C114.16 249.35 110.17 249.46 106.18 249.56 C104.31 249.66 104.31 249.66 102.41 249.75 C94 249.9 94 249.9 91.15 247.32 C89.82 245.25 88.89 243.28 88 241 C87.34 239.67 86.67 238.33 86 237 C85.51 235.73 85.04 234.46 84.6 233.17 C84.35 232.45 84.1 231.74 83.84 231 C83.58 230.25 83.33 229.51 83.06 228.75 C80.35 220.94 77.55 213.2 74.38 205.56 C73.95 204.53 73.52 203.5 73.09 202.44 C72.22 200.1 72.22 200.1 71 199 C68.08 198.9 65.18 198.87 62.26 198.89 C61.34 198.89 60.42 198.89 59.48 198.89 C56.43 198.89 53.39 198.89 50.34 198.9 C48.23 198.9 46.13 198.91 44.02 198.91 C38.47 198.91 32.91 198.92 27.36 198.93 C21.69 198.94 16.03 198.95 10.37 198.95 C-0.76 198.96 -11.88 198.98 -23 199 C-23.14 199.74 -23.27 200.49 -23.42 201.25 C-23.92 203.6 -24.53 205.71 -25.35 207.96 C-25.62 208.7 -25.89 209.44 -26.17 210.21 C-26.46 210.99 -26.75 211.78 -27.05 212.59 C-27.36 213.41 -27.66 214.23 -27.97 215.08 C-28.61 216.82 -29.25 218.55 -29.89 220.28 C-30.87 222.92 -31.84 225.57 -32.81 228.21 C-33.43 229.9 -34.06 231.59 -34.68 233.28 C-34.97 234.06 -35.25 234.85 -35.55 235.65 C-37.14 239.91 -38.88 243.97 -41 248 C-76.49 249.1 -76.49 249.1 -89.62 249.12 C-90.47 249.13 -91.31 249.13 -92.18 249.14 C-97.75 249.12 -97.75 249.12 -100 248 C-99.38 242.08 -97.15 236.97 -94.91 231.52 C-94.49 230.48 -94.07 229.45 -93.64 228.39 C-92.26 225.01 -90.88 221.63 -89.5 218.25 C-88.54 215.89 -87.58 213.54 -86.62 211.18 C-84.68 206.39 -82.73 201.61 -80.78 196.83 C-77.23 188.11 -73.69 179.37 -70.16 170.63 C-68.43 166.35 -66.7 162.07 -64.97 157.8 C-64.47 156.56 -64.47 156.56 -63.96 155.3 C-60.21 146.05 -56.46 136.81 -52.72 127.57 C-47.71 115.23 -42.72 102.88 -37.72 90.53 C-34.91 83.57 -32.1 76.62 -29.29 69.66 C-27.81 66.01 -26.33 62.35 -24.85 58.69 C-12.48 28.08 -12.48 28.08 -6.19 12.88 C-5.78 11.9 -5.38 10.92 -4.97 9.91 C-4.6 9.03 -4.23 8.15 -3.86 7.24 C-3.54 6.49 -3.23 5.73 -2.91 4.96 C-2 3 -2 3 0 0 Z " fill="#FBFDFC" transform="translate(812,14)"/>
<path d="M0 0 C2.16 -0.39 2.16 -0.39 4.86 -0.4 C6.38 -0.42 6.38 -0.42 7.93 -0.44 C9.02 -0.44 10.12 -0.44 11.25 -0.43 C12.93 -0.44 12.93 -0.44 14.65 -0.45 C17.02 -0.46 19.4 -0.45 21.78 -0.45 C25.42 -0.44 29.06 -0.47 32.71 -0.5 C35.01 -0.5 37.32 -0.5 39.62 -0.5 C41.26 -0.51 41.26 -0.51 42.94 -0.53 C44.46 -0.52 44.46 -0.52 46.01 -0.5 C46.9 -0.5 47.8 -0.5 48.72 -0.5 C51 0 51 0 52.75 1.89 C54.09 4.15 55.07 6.34 56 8.79 C56.38 9.79 56.76 10.78 57.16 11.81 C57.58 12.93 58 14.04 58.44 15.19 C59.42 17.74 60.41 20.3 61.41 22.85 C61.68 23.55 61.95 24.26 62.24 24.98 C66.18 35.08 70.33 45.1 74.44 55.12 C82.43 74.64 90.31 94.19 98.11 113.78 C102.27 124.2 106.46 134.6 110.72 144.99 C114.15 153.34 117.49 161.71 120.83 170.1 C125.96 182.97 131.12 195.83 136.44 208.62 C136.92 209.78 137.39 210.93 137.89 212.12 C139.71 216.51 141.54 220.91 143.38 225.29 C144.68 228.38 145.96 231.47 147.25 234.56 C147.83 235.92 147.83 235.92 148.41 237.31 C148.76 238.13 149.1 238.96 149.45 239.82 C149.75 240.53 150.05 241.25 150.36 241.99 C151 244 151 244 151 248 C143.53 248.32 136.05 248.59 128.57 248.81 C125.1 248.91 121.63 249.02 118.16 249.18 C114.16 249.35 110.17 249.46 106.18 249.56 C104.31 249.66 104.31 249.66 102.41 249.75 C94 249.9 94 249.9 91.15 247.32 C89.82 245.25 88.89 243.28 88 241 C87.34 239.67 86.67 238.33 86 237 C85.51 235.73 85.04 234.46 84.6 233.17 C84.35 232.45 84.1 231.74 83.84 231 C83.58 230.25 83.33 229.51 83.06 228.75 C80.35 220.94 77.55 213.2 74.38 205.56 C73.95 204.53 73.52 203.5 73.09 202.44 C72.22 200.1 72.22 200.1 71 199 C68.08 198.9 65.18 198.87 62.26 198.89 C61.34 198.89 60.42 198.89 59.48 198.89 C56.43 198.89 53.39 198.89 50.34 198.9 C48.23 198.9 46.13 198.91 44.02 198.91 C38.47 198.91 32.91 198.92 27.36 198.93 C21.69 198.94 16.03 198.95 10.37 198.95 C-0.76 198.96 -11.88 198.98 -23 199 C-23.14 199.76 -23.29 200.52 -23.43 201.31 C-24.11 204.54 -25.18 207.49 -26.33 210.59 C-26.56 211.22 -26.79 211.85 -27.03 212.5 C-27.77 214.5 -28.51 216.5 -29.25 218.5 C-29.73 219.81 -30.22 221.12 -30.7 222.44 C-32.12 226.3 -33.56 230.15 -35 234 C-35.36 234.96 -35.36 234.96 -35.72 235.93 C-36.41 237.76 -37.1 239.58 -37.8 241.41 C-38.2 242.46 -38.6 243.52 -39.01 244.6 C-40 247 -40 247 -41 248 C-43.42 248.16 -45.81 248.26 -48.23 248.32 C-49.35 248.35 -49.35 248.35 -50.48 248.38 C-52.9 248.45 -55.33 248.5 -57.75 248.56 C-59.4 248.6 -61.05 248.65 -62.7 248.69 C-71.67 248.91 -80.65 249.1 -89.62 249.12 C-90.47 249.13 -91.31 249.13 -92.18 249.14 C-97.75 249.12 -97.75 249.12 -100 248 C-98.67 240.49 -96.03 233.76 -93.07 226.77 C-91.49 223.04 -89.94 219.3 -88.38 215.56 C-88.04 214.74 -87.7 213.92 -87.35 213.07 C-82.66 201.82 -78.12 190.5 -73.56 179.19 C-72.19 175.79 -70.82 172.39 -69.45 168.99 C-68.55 166.76 -67.66 164.54 -66.76 162.32 C-63.02 153.04 -59.26 143.77 -55.5 134.5 C-49.9 120.71 -44.33 106.91 -38.76 93.11 C-21.2 49.61 -21.2 49.61 -14 32 C-13.73 31.34 -13.46 30.67 -13.18 29.99 C-11.5 25.87 -9.81 21.76 -8.12 17.64 C-7.59 16.36 -7.06 15.07 -6.53 13.78 C-5.81 12.02 -5.09 10.27 -4.36 8.51 C-3.75 7.02 -3.75 7.02 -3.12 5.49 C-2 3 -2 3 0 0 Z " fill="#FBFDFC" transform="translate(295,14)"/>
<path d="M0 0 C0.98 -0.01 1.97 -0.01 2.98 -0.02 C6.26 -0.04 9.54 -0.05 12.82 -0.06 C14.5 -0.07 14.5 -0.07 16.22 -0.07 C22.18 -0.09 28.15 -0.11 34.11 -0.12 C40.22 -0.13 46.34 -0.16 52.45 -0.2 C57.19 -0.23 61.92 -0.24 66.65 -0.24 C68.9 -0.25 71.15 -0.26 73.4 -0.28 C91.7 -0.42 109 0.91 125.64 9.18 C126.57 9.63 127.5 10.08 128.46 10.55 C144.99 19.04 155.66 31.53 161.64 49.18 C167.64 68.82 167.43 95.72 157.64 114.18 C145.78 134.02 129.12 147.61 106.38 153.4 C86.3 157.58 66.2 156.18 45.64 156.18 C45.64 186.54 45.64 216.9 45.64 248.18 C5.64 249.18 5.64 249.18 -9.36 249.18 C-11.32 247.22 -10.48 244.2 -10.49 241.59 C-10.49 240.63 -10.49 239.67 -10.49 238.69 C-10.49 237.68 -10.49 236.67 -10.49 235.63 C-10.49 232.22 -10.49 228.81 -10.49 225.41 C-10.49 222.97 -10.49 220.54 -10.49 218.11 C-10.5 212.17 -10.5 206.24 -10.49 200.3 C-10.49 195.48 -10.49 190.65 -10.49 185.83 C-10.49 185.15 -10.49 184.46 -10.49 183.76 C-10.49 182.36 -10.49 180.97 -10.49 179.58 C-10.5 166.52 -10.49 153.45 -10.49 140.39 C-10.48 129.17 -10.48 117.95 -10.49 106.73 C-10.49 93.71 -10.5 80.7 -10.49 67.68 C-10.49 66.3 -10.49 64.91 -10.49 63.52 C-10.49 62.84 -10.49 62.16 -10.49 61.45 C-10.49 56.63 -10.49 51.82 -10.5 47 C-10.5 40.51 -10.5 34.03 -10.49 27.55 C-10.49 25.17 -10.49 22.78 -10.49 20.39 C-10.49 17.15 -10.49 13.91 -10.49 10.67 C-10.49 9.71 -10.49 8.75 -10.49 7.77 C-10.47 -1.26 -8.21 0.02 0 0 Z " fill="#FBFDFD" transform="translate(507.35888671875,13.822998046875)"/>
<path d="M0 0 C1.1 -0 2.2 -0.01 3.33 -0.01 C5.12 -0.01 5.12 -0.01 6.95 -0 C8.16 -0 9.38 -0.01 10.64 -0.01 C13.21 -0.01 15.79 -0.01 18.37 -0 C22.34 0 26.3 -0 30.26 -0.01 C32.76 -0.01 35.26 -0.01 37.76 -0 C38.95 -0.01 40.15 -0.01 41.38 -0.01 C42.48 -0.01 43.58 -0 44.71 0 C46.16 0 46.16 0 47.65 0 C49.85 0.13 49.85 0.13 50.85 1.13 C50.95 3.53 50.97 5.91 50.96 8.32 C50.95 9.46 50.95 9.46 50.95 10.62 C50.95 13.2 50.94 15.77 50.92 18.34 C50.92 20.17 50.91 22.01 50.91 23.85 C50.89 28.85 50.87 33.86 50.85 38.87 C50.84 42 50.83 45.13 50.81 48.26 C50.77 58.07 50.73 67.88 50.68 77.69 C50.63 88.99 50.58 100.29 50.55 111.59 C50.53 120.33 50.49 129.07 50.45 137.82 C50.42 143.03 50.4 148.25 50.39 153.47 C50.38 158.39 50.35 163.31 50.32 168.23 C50.31 170.02 50.3 171.82 50.3 173.61 C50.3 195.21 46.95 216.14 31.79 232.75 C12.69 250.49 -11.12 253.21 -36.11 252.32 C-54.32 251.17 -72.52 242.11 -85.15 229.13 C-81.32 217.79 -77.24 206.57 -72.83 195.44 C-72.4 194.34 -71.97 193.23 -71.52 192.09 C-71.11 191.07 -70.71 190.05 -70.28 188.99 C-69.92 188.08 -69.56 187.16 -69.18 186.22 C-68.15 184.13 -68.15 184.13 -66.15 183.13 C-65.37 183.73 -64.6 184.34 -63.8 184.96 C-53.5 192.86 -43.71 199.46 -30.15 198.13 C-21.62 196.89 -16.36 192.91 -11.15 186.13 C-7.32 179.31 -7.03 171.51 -6.99 163.84 C-6.99 163.14 -6.99 162.44 -6.98 161.72 C-6.97 159.4 -6.96 157.07 -6.96 154.75 C-6.95 153.07 -6.94 151.4 -6.93 149.72 C-6.91 146.13 -6.9 142.53 -6.89 138.94 C-6.87 133.26 -6.84 127.58 -6.81 121.9 C-6.74 108.82 -6.69 95.75 -6.63 82.67 C-6.58 70.67 -6.53 58.67 -6.47 46.67 C-6.44 41.02 -6.42 35.37 -6.4 29.72 C-6.38 26.21 -6.37 22.71 -6.35 19.2 C-6.34 17.57 -6.33 15.94 -6.33 14.31 C-6.32 12.09 -6.31 9.87 -6.3 7.66 C-6.29 6.41 -6.29 5.17 -6.28 3.89 C-6.05 -0.82 -4.23 0 0 0 Z " fill="#FBFDFD" transform="translate(97.146484375,13.87060546875)"/>
<path d="M0 0 C6.89 4.6 11.79 12.45 15 20 C15 20.66 15 21.32 15 22 C15.58 22.23 16.16 22.46 16.76 22.7 C26.24 28.21 32.08 42.98 34.79 53.15 C37.74 64.93 39.41 76.96 37 89 C36.92 90.3 36.84 91.6 36.75 92.94 C34.58 111.92 23.54 128.12 9 140 C-17.67 159.85 -49.53 157 -82 157 C-82 187.36 -82 217.72 -82 249 C-100.15 249 -118.3 249 -137 249 C-137 248.34 -137 247.68 -137 247 C-137.66 247 -138.32 247 -139 247 C-138.99 245.71 -138.98 244.42 -138.96 243.1 C-138.96 241.42 -138.95 239.74 -138.94 238.06 C-138.93 237.21 -138.92 236.36 -138.91 235.49 C-138.91 234.68 -138.91 233.87 -138.9 233.04 C-138.9 232.29 -138.89 231.54 -138.89 230.77 C-138.81 228.97 -138.81 228.97 -140 228 C-143.33 227.76 -146.66 227.62 -150 227.48 C-150.99 227.32 -151.98 227.16 -153 227 C-155.45 223.32 -155.27 221.38 -155.25 217 C-155.26 215.76 -155.26 214.52 -155.27 213.25 C-155 210 -155 210 -153 207 C-139.8 207 -126.6 207 -113 207 C-113 176.64 -113 146.28 -113 115 C-100.46 114.67 -87.92 114.34 -75 114 C-50.93 112.33 -30.54 106.62 -13 89 C3.49 69.44 6.27 47.74 5 23 C4.39 17.23 3.57 11.06 0.9 5.86 C0 4 0 4 0 0 Z " fill="#BDAE75" transform="translate(666,55)"/>
<path d="M0 0 C2.12 -0.08 4.25 -0.14 6.38 -0.19 C7.56 -0.22 8.74 -0.26 9.96 -0.29 C10.96 -0.2 11.97 -0.1 13 0 C15.07 3.1 15.24 3.73 15.2 7.23 C15.19 8.43 15.19 8.43 15.18 9.66 C15.15 10.91 15.15 10.91 15.12 12.19 C15.12 13.03 15.11 13.88 15.1 14.75 C15.07 16.83 15.04 18.92 15 21 C16.48 21.07 16.48 21.07 17.99 21.15 C19.27 21.22 20.55 21.3 21.88 21.38 C23.15 21.44 24.43 21.51 25.74 21.59 C29 22 29 22 31 24 C31.2 26.42 31.27 28.72 31.25 31.13 C31.26 32.25 31.26 32.25 31.26 33.38 C31.27 35.89 31.27 38.39 31.26 40.9 C31.26 42.69 31.27 44.48 31.27 46.27 C31.28 51.14 31.27 56.02 31.27 60.9 C31.26 66 31.27 71.11 31.27 76.22 C31.28 84.81 31.27 93.4 31.26 102 C31.25 111.9 31.25 121.81 31.26 131.72 C31.27 140.23 31.27 148.75 31.27 157.26 C31.27 162.34 31.27 167.42 31.27 172.5 C31.28 177.3 31.27 182.09 31.26 186.88 C31.26 188.62 31.26 190.37 31.27 192.12 C31.32 215.69 28.04 238.46 10.97 256.09 C-0.98 267.33 -16.42 274.15 -32.86 274.86 C-35.19 274.92 -35.19 274.92 -38 276 C-62.81 277.87 -85.08 269.25 -103.91 253.39 C-105 252 -105 252 -104.69 248.94 C-104.46 247.97 -104.23 247 -104 246 C-103.89 243.79 -103.89 243.79 -105 241 C-106.65 240.3 -108.32 239.64 -110 239 C-111.97 237.67 -113.91 236.3 -115.81 234.88 C-116.79 234.15 -117.76 233.43 -118.77 232.68 C-119.87 231.85 -119.87 231.85 -121 231 C-120.12 226.25 -120.12 226.25 -119 224 C-113.43 224.74 -108.77 226.6 -103.61 228.75 C-94.92 231.77 -86.53 232.36 -77.38 232.31 C-76.23 232.31 -75.09 232.3 -73.91 232.3 C-53.5 232.02 -34.9 226.89 -19.62 212.8 C-4.15 196.4 -1.7 175.57 -1.7 154.04 C-1.69 152.38 -1.68 150.71 -1.67 149.05 C-1.65 145.5 -1.64 141.94 -1.63 138.39 C-1.62 132.77 -1.6 127.15 -1.57 121.54 C-1.53 112.66 -1.5 103.78 -1.47 94.91 C-1.42 78.98 -1.35 63.05 -1.28 47.13 C-1.26 41.54 -1.24 35.95 -1.22 30.36 C-1.21 26.9 -1.2 23.43 -1.18 19.97 C-1.18 18.36 -1.17 16.75 -1.17 15.14 C-1.17 12.95 -1.16 10.76 -1.14 8.57 C-1.14 6.73 -1.14 6.73 -1.13 4.85 C-1 2 -1 2 0 0 Z " fill="#BEAF76" transform="translate(148,33)"/>
<path d="M0 0 C1.94 -0.05 3.87 -0.09 5.81 -0.12 C6.89 -0.15 7.97 -0.17 9.08 -0.2 C12 0 12 0 15 2 C15.42 3.96 15.42 3.96 15.48 6.32 C15.51 7.16 15.54 8.01 15.57 8.88 C15.59 9.77 15.61 10.65 15.62 11.56 C15.68 13.31 15.73 15.07 15.79 16.82 C15.81 17.59 15.82 18.37 15.84 19.17 C15.8 21.02 15.8 21.02 17 22 C19.02 22.07 21.04 22.08 23.06 22.06 C24.17 22.05 25.27 22.04 26.41 22.04 C27.26 22.02 28.12 22.01 29 22 C29 22.66 29 23.32 29 24 C29.66 24 30.32 24 31 24 C31.02 55.32 31.04 86.64 31.05 117.97 C31.05 121.66 31.05 125.35 31.05 129.05 C31.06 129.78 31.06 130.52 31.06 131.28 C31.06 143.2 31.07 155.12 31.08 167.05 C31.09 179.27 31.09 191.5 31.09 203.72 C31.1 211.27 31.1 218.82 31.11 226.37 C31.11 232.15 31.11 237.93 31.11 243.71 C31.11 246.09 31.12 248.47 31.12 250.85 C31.12 254.08 31.12 257.31 31.12 260.54 C31.12 261.49 31.13 262.45 31.13 263.43 C31.11 269.89 31.11 269.89 30 271 C28.31 271.12 26.61 271.17 24.92 271.19 C23.29 271.22 23.29 271.22 21.63 271.24 C16.65 271.29 11.68 271.33 6.7 271.35 C4.07 271.37 1.45 271.39 -1.18 271.43 C-4.96 271.49 -8.74 271.51 -12.52 271.52 C-13.69 271.55 -14.86 271.57 -16.07 271.59 C-24.23 271.57 -24.23 271.57 -28.13 268.69 C-28.74 267.8 -29.36 266.91 -30 266 C-30.69 265.09 -30.69 265.09 -31.39 264.17 C-31.92 263.33 -31.92 263.33 -32.46 262.48 C-32.87 261.85 -33.27 261.23 -33.69 260.58 C-34.31 259.61 -34.31 259.61 -34.94 258.62 C-38.72 252.76 -38.72 252.76 -43.12 247.38 C-46.94 243.19 -54 234.75 -54 229 C-36.51 229 -19.02 229 -1 229 C-1.01 222.13 -1.01 215.27 -1.02 208.19 C-1.03 186.24 -1.04 164.3 -1.05 142.35 C-1.05 138.94 -1.05 135.53 -1.05 132.12 C-1.06 131.45 -1.06 130.77 -1.06 130.07 C-1.06 119.07 -1.07 108.08 -1.08 97.08 C-1.09 85.81 -1.09 74.53 -1.09 63.26 C-1.1 56.92 -1.1 50.59 -1.11 44.25 C-1.11 38.29 -1.11 32.34 -1.11 26.38 C-1.11 24.19 -1.12 21.99 -1.12 19.8 C-1.12 16.82 -1.12 13.84 -1.12 10.86 C-1.12 9.98 -1.13 9.1 -1.13 8.2 C-1.11 2.23 -1.11 2.23 0 0 Z " fill="#BBAC74" transform="translate(1227,33)"/>
<path d="M0 0 C0.89 -0 1.79 -0.01 2.71 -0.02 C5.67 -0.03 8.63 -0.04 11.59 -0.04 C13.64 -0.05 15.7 -0.05 17.75 -0.06 C22.05 -0.07 26.36 -0.08 30.67 -0.08 C36.19 -0.08 41.72 -0.11 47.25 -0.14 C51.49 -0.16 55.73 -0.16 59.97 -0.16 C62.01 -0.17 64.04 -0.17 66.08 -0.19 C68.93 -0.2 71.77 -0.2 74.62 -0.2 C75.47 -0.2 76.31 -0.21 77.19 -0.22 C82.96 -0.18 82.96 -0.18 85.06 1.57 C86.53 3.35 87.13 4.77 87.8 6.97 C88.04 7.71 88.28 8.45 88.52 9.22 C88.76 10 89 10.79 89.25 11.6 C91.3 18.02 93.52 24.23 96.3 30.39 C97.67 33.92 98.48 37.48 99.38 41.16 C98.15 41.18 98.15 41.18 96.91 41.19 C89.18 41.29 81.46 41.39 73.74 41.5 C69.77 41.56 65.8 41.61 61.83 41.66 C57.99 41.71 54.15 41.76 50.32 41.81 C48.86 41.83 47.4 41.85 45.95 41.87 C37.72 41.97 29.56 42.24 21.38 43.16 C21.06 44.02 21.06 44.02 20.74 44.89 C18.57 50.81 16.4 56.73 14.22 62.65 C13.41 64.86 12.6 67.07 11.79 69.28 C10.63 72.46 9.46 75.63 8.29 78.81 C7.93 79.8 7.57 80.79 7.19 81.81 C6.85 82.73 6.51 83.65 6.16 84.6 C5.87 85.41 5.57 86.22 5.26 87.05 C4.38 89.16 4.38 89.16 2.38 92.16 C-0.11 92.52 -0.11 92.52 -3.27 92.5 C-4.45 92.5 -5.63 92.5 -6.85 92.5 C-8.77 92.48 -8.77 92.48 -10.73 92.45 C-12.03 92.45 -13.34 92.45 -14.69 92.44 C-18.16 92.43 -21.64 92.4 -25.11 92.37 C-28.66 92.34 -32.2 92.32 -35.75 92.31 C-42.71 92.28 -49.67 92.22 -56.62 92.16 C-57.76 88.75 -57.54 88.3 -56.19 85.15 C-55.71 84.01 -55.71 84.01 -55.22 82.85 C-54.88 82.07 -54.54 81.28 -54.19 80.47 C-53.68 79.28 -53.68 79.28 -53.16 78.06 C-52.32 76.09 -51.48 74.12 -50.62 72.16 C-52.21 70.58 -53.9 70.94 -56.1 70.84 C-57 70.8 -57.9 70.76 -58.82 70.72 C-59.77 70.68 -60.71 70.64 -61.69 70.6 C-62.64 70.56 -63.59 70.51 -64.56 70.47 C-66.92 70.36 -69.27 70.26 -71.62 70.16 C-73.06 65.7 -71.56 62.63 -69.81 58.47 C-69.54 57.78 -69.26 57.1 -68.98 56.39 C-66.9 51.3 -66.9 51.3 -64.62 50.16 C-61.93 50 -59.25 49.9 -56.55 49.84 C-55.76 49.82 -54.96 49.8 -54.14 49.78 C-51.59 49.72 -49.05 49.66 -46.5 49.6 C-44.77 49.56 -43.05 49.51 -41.32 49.47 C-37.09 49.36 -32.86 49.26 -28.62 49.16 C-27.19 45.39 -25.76 41.62 -24.32 37.85 C-23.82 36.52 -23.31 35.19 -22.81 33.86 C-20.3 27.27 -17.79 20.68 -15.41 14.04 C-15.09 13.16 -14.77 12.28 -14.45 11.38 C-13.87 9.76 -13.3 8.15 -12.73 6.53 C-10.11 -0.77 -7.18 0.01 0 0 Z " fill="#BDAE75" transform="translate(282.624755859375,211.8388671875)"/>
<path d="M0 0 C0.89 -0 1.79 -0.01 2.71 -0.02 C5.67 -0.03 8.63 -0.04 11.59 -0.04 C13.64 -0.05 15.7 -0.05 17.75 -0.06 C22.05 -0.07 26.36 -0.08 30.67 -0.08 C36.19 -0.08 41.72 -0.11 47.25 -0.14 C51.49 -0.16 55.73 -0.16 59.97 -0.16 C62.01 -0.17 64.04 -0.17 66.08 -0.19 C68.93 -0.2 71.77 -0.2 74.62 -0.2 C75.47 -0.2 76.31 -0.21 77.19 -0.22 C82.96 -0.18 82.96 -0.18 85.06 1.57 C86.53 3.35 87.13 4.77 87.8 6.97 C88.04 7.71 88.28 8.45 88.52 9.22 C88.76 10 89 10.79 89.25 11.6 C91.3 18.02 93.52 24.23 96.3 30.39 C97.67 33.92 98.48 37.48 99.38 41.16 C98.15 41.18 98.15 41.18 96.91 41.19 C89.18 41.29 81.46 41.39 73.74 41.5 C69.77 41.56 65.8 41.61 61.83 41.66 C57.99 41.71 54.15 41.76 50.32 41.81 C48.86 41.83 47.4 41.85 45.95 41.87 C37.72 41.97 29.56 42.24 21.38 43.16 C21.06 44.02 21.06 44.02 20.74 44.89 C18.57 50.81 16.4 56.73 14.22 62.65 C13.41 64.86 12.6 67.07 11.79 69.28 C10.63 72.46 9.46 75.63 8.29 78.81 C7.93 79.8 7.57 80.79 7.19 81.81 C6.85 82.73 6.51 83.65 6.16 84.6 C5.87 85.41 5.57 86.22 5.26 87.05 C4.38 89.16 4.38 89.16 2.38 92.16 C-0.11 92.52 -0.11 92.52 -3.27 92.5 C-4.45 92.5 -5.63 92.5 -6.85 92.5 C-8.77 92.48 -8.77 92.48 -10.73 92.45 C-12.03 92.45 -13.34 92.45 -14.69 92.44 C-18.16 92.43 -21.64 92.4 -25.11 92.37 C-28.66 92.34 -32.2 92.32 -35.75 92.31 C-42.71 92.28 -49.67 92.22 -56.62 92.16 C-57.76 88.75 -57.54 88.3 -56.19 85.15 C-55.71 84.01 -55.71 84.01 -55.22 82.85 C-54.88 82.07 -54.54 81.28 -54.19 80.47 C-53.68 79.28 -53.68 79.28 -53.16 78.06 C-52.32 76.09 -51.48 74.12 -50.62 72.16 C-52.21 70.58 -53.9 70.94 -56.1 70.84 C-57 70.8 -57.9 70.76 -58.82 70.72 C-59.77 70.68 -60.71 70.64 -61.69 70.6 C-62.64 70.56 -63.59 70.51 -64.56 70.47 C-66.92 70.36 -69.27 70.26 -71.62 70.16 C-73.06 65.7 -71.56 62.63 -69.81 58.47 C-69.54 57.78 -69.26 57.1 -68.98 56.39 C-66.9 51.3 -66.9 51.3 -64.62 50.16 C-61.93 50 -59.25 49.9 -56.55 49.84 C-55.76 49.82 -54.96 49.8 -54.14 49.78 C-51.59 49.72 -49.05 49.66 -46.5 49.6 C-44.77 49.56 -43.05 49.51 -41.32 49.47 C-37.09 49.36 -32.86 49.26 -28.62 49.16 C-27.97 47.41 -27.97 47.41 -27.3 45.62 C-15.34 13.74 -15.34 13.74 -14.47 11.43 C-13.9 9.9 -13.35 8.36 -12.81 6.82 C-10.13 -0.71 -7.41 0.01 0 0 Z " fill="#BDAE75" transform="translate(799.624755859375,211.8388671875)"/>
<path d="M0 0 C3.78 1.26 3.9 2.18 5.75 5.62 C9.96 13.13 14.68 20.27 19.41 27.46 C20.02 28.4 20.64 29.35 21.28 30.32 C21.83 31.15 22.38 31.98 22.94 32.83 C23.96 34.4 23.96 34.4 25 36 C25.56 36.72 26.12 37.45 26.7 38.19 C32.4 46.01 32.97 52.48 32.79 61.93 C32.79 63.4 32.79 64.87 32.8 66.34 C32.8 70.29 32.76 74.25 32.71 78.2 C32.67 82.35 32.66 86.5 32.65 90.64 C32.63 98.48 32.57 106.32 32.5 114.15 C32.43 123.08 32.39 132.01 32.35 140.94 C32.28 159.29 32.15 177.65 32 196 C13.85 196 -4.3 196 -23 196 C-23 195.34 -23 194.68 -23 194 C-23.66 194 -24.32 194 -25 194 C-24.99 192.71 -24.98 191.42 -24.96 190.1 C-24.96 188.42 -24.95 186.74 -24.94 185.06 C-24.93 184.21 -24.92 183.36 -24.91 182.49 C-24.91 181.68 -24.91 180.87 -24.9 180.04 C-24.9 179.29 -24.89 178.54 -24.89 177.77 C-24.81 175.97 -24.81 175.97 -26 175 C-29.33 174.76 -32.66 174.62 -36 174.48 C-36.99 174.32 -37.98 174.16 -39 174 C-41.45 170.32 -41.27 168.38 -41.25 164 C-41.26 162.76 -41.26 161.52 -41.27 160.25 C-41 157 -41 157 -39 154 C-25.8 154 -12.6 154 1 154 C0.67 103.18 0.34 52.36 0 0 Z " fill="#BDAE75" transform="translate(1069,108)"/>
<path d="M0 0 C10.25 6.83 16.96 20.74 19.88 32.38 C23.88 55.55 22.89 80.76 10 101 C6.68 105.35 2.91 109.19 -1 113 C-1.68 113.68 -2.36 114.36 -3.06 115.05 C-28.21 138.63 -65.37 135 -97 135 C-97.33 165.36 -97.66 195.72 -98 227 C-107.03 227.06 -116.07 227.12 -125.38 227.19 C-129.65 227.23 -129.65 227.23 -134.02 227.27 C-136.27 227.28 -138.52 227.29 -140.77 227.29 C-142.54 227.32 -142.54 227.32 -144.34 227.34 C-145.46 227.34 -146.57 227.34 -147.72 227.34 C-148.7 227.35 -149.67 227.35 -150.67 227.36 C-151.44 227.24 -152.21 227.12 -153 227 C-155.45 223.32 -155.27 221.38 -155.25 217 C-155.26 215.76 -155.26 214.52 -155.27 213.25 C-155 210 -155 210 -153 207 C-139.8 207 -126.6 207 -113 207 C-113 176.64 -113 146.28 -113 115 C-100.46 114.67 -87.92 114.34 -75 114 C-50.93 112.33 -30.54 106.62 -13 89 C3.49 69.44 6.27 47.74 5 23 C4.39 17.23 3.57 11.06 0.9 5.86 C0 4 0 4 0 0 Z " fill="#755639" transform="translate(666,55)"/>
<path d="M0 0 C2.12 -0.08 4.25 -0.14 6.38 -0.19 C7.56 -0.22 8.74 -0.26 9.96 -0.29 C10.96 -0.2 11.97 -0.1 13 0 C15.15 3.22 15.22 3.75 14.94 7.38 C14.89 8.22 14.83 9.06 14.77 9.92 C14.7 10.79 14.63 11.66 14.56 12.56 C14.43 14.29 14.31 16.02 14.19 17.75 C14.13 18.52 14.07 19.29 14.01 20.08 C13.85 22.09 13.85 22.09 15 24 C15.09 26.2 15.11 28.4 15.1 30.59 C15.1 31.62 15.1 31.62 15.1 32.67 C15.09 34.98 15.08 37.29 15.07 39.59 C15.06 41.25 15.06 42.9 15.05 44.55 C15.04 49.04 15.02 53.54 15 58.04 C14.98 60.85 14.97 63.66 14.96 66.48 C14.92 75.29 14.88 84.1 14.83 92.91 C14.77 103.07 14.73 113.22 14.7 123.37 C14.67 131.22 14.64 139.08 14.59 146.93 C14.57 151.62 14.54 156.31 14.53 160.99 C14.52 165.41 14.5 169.83 14.46 174.25 C14.45 175.86 14.45 177.47 14.45 179.09 C14.44 199.31 10.88 217.4 -3 233 C-19.93 249.52 -41.04 253.31 -63.88 253.31 C-84.93 253.05 -101.51 245.84 -118 233 C-118.99 232.34 -119.98 231.68 -121 231 C-120.12 226.25 -120.12 226.25 -119 224 C-113.43 224.74 -108.77 226.6 -103.61 228.75 C-94.92 231.77 -86.53 232.36 -77.38 232.31 C-76.23 232.31 -75.09 232.3 -73.91 232.3 C-53.5 232.02 -34.9 226.89 -19.62 212.8 C-4.15 196.4 -1.7 175.57 -1.7 154.04 C-1.69 152.38 -1.68 150.71 -1.67 149.05 C-1.65 145.5 -1.64 141.94 -1.63 138.39 C-1.62 132.77 -1.6 127.15 -1.57 121.54 C-1.53 112.66 -1.5 103.78 -1.47 94.91 C-1.42 78.98 -1.35 63.05 -1.28 47.13 C-1.26 41.54 -1.24 35.95 -1.22 30.36 C-1.21 26.9 -1.2 23.43 -1.18 19.97 C-1.18 18.36 -1.17 16.75 -1.17 15.14 C-1.17 12.95 -1.16 10.76 -1.14 8.57 C-1.14 6.73 -1.14 6.73 -1.13 4.85 C-1 2 -1 2 0 0 Z " fill="#76573A" transform="translate(148,33)"/>
<path d="M0 0 C1.94 -0.05 3.87 -0.09 5.81 -0.12 C6.89 -0.15 7.97 -0.17 9.08 -0.2 C12 0 12 0 15 2 C15.37 3.83 15.37 3.83 15.37 6.1 C15.38 6.97 15.38 7.83 15.39 8.72 C15.38 9.68 15.37 10.63 15.36 11.62 C15.36 12.63 15.37 13.64 15.37 14.68 C15.37 18.09 15.36 21.49 15.34 24.9 C15.34 27.33 15.34 29.77 15.34 32.2 C15.34 37.45 15.33 42.7 15.32 47.95 C15.29 55.55 15.28 63.14 15.28 70.73 C15.27 83.05 15.25 95.36 15.23 107.68 C15.2 119.65 15.18 131.61 15.16 143.58 C15.16 144.32 15.16 145.05 15.16 145.81 C15.16 149.51 15.15 153.21 15.15 156.91 C15.12 187.61 15.07 218.3 15 249 C7.4 249.22 -0.2 249.41 -7.8 249.59 C-10.38 249.66 -12.97 249.72 -15.55 249.8 C-19.27 249.91 -22.98 249.99 -26.7 250.07 C-28.43 250.13 -28.43 250.13 -30.2 250.19 C-31.82 250.22 -31.82 250.22 -33.48 250.25 C-34.42 250.27 -35.37 250.3 -36.35 250.32 C-40.26 249.85 -42.97 248.23 -45.49 245.22 C-45.88 244.58 -46.27 243.94 -46.68 243.28 C-47.11 242.57 -47.55 241.87 -47.99 241.15 C-48.43 240.42 -48.86 239.69 -49.31 238.94 C-49.77 238.2 -50.22 237.47 -50.69 236.72 C-54 231.3 -54 231.3 -54 229 C-36.51 229 -19.02 229 -1 229 C-1.01 222.13 -1.01 215.27 -1.02 208.19 C-1.03 186.24 -1.04 164.3 -1.05 142.35 C-1.05 138.94 -1.05 135.53 -1.05 132.12 C-1.06 131.45 -1.06 130.77 -1.06 130.07 C-1.06 119.07 -1.07 108.08 -1.08 97.08 C-1.09 85.81 -1.09 74.53 -1.09 63.26 C-1.1 56.92 -1.1 50.59 -1.11 44.25 C-1.11 38.29 -1.11 32.34 -1.11 26.38 C-1.11 24.19 -1.12 21.99 -1.12 19.8 C-1.12 16.82 -1.12 13.84 -1.12 10.86 C-1.12 9.98 -1.13 9.1 -1.13 8.2 C-1.11 2.23 -1.11 2.23 0 0 Z " fill="#755639" transform="translate(1227,33)"/>
<path d="M0 0 C0.89 -0 1.79 -0.01 2.71 -0.02 C5.67 -0.03 8.63 -0.04 11.59 -0.04 C13.64 -0.05 15.7 -0.05 17.75 -0.06 C22.05 -0.07 26.36 -0.08 30.67 -0.08 C36.19 -0.08 41.72 -0.11 47.25 -0.14 C51.49 -0.16 55.73 -0.16 59.97 -0.16 C62.01 -0.17 64.04 -0.17 66.08 -0.19 C68.93 -0.2 71.77 -0.2 74.62 -0.2 C75.47 -0.2 76.31 -0.21 77.19 -0.22 C82.95 -0.18 82.95 -0.18 85.03 1.48 C87.13 4.1 87.97 7.01 89.06 10.16 C89.5 11.4 89.94 12.64 90.39 13.91 C91.38 17.16 91.38 17.16 91.38 20.16 C63.33 20.49 35.28 20.82 6.38 21.16 C2.07 31.49 2.07 31.49 -1.92 41.92 C-2.2 42.67 -2.48 43.43 -2.77 44.21 C-3.64 46.57 -4.51 48.93 -5.37 51.29 C-6.26 53.68 -7.14 56.08 -8.02 58.47 C-8.57 59.95 -9.11 61.43 -9.66 62.91 C-11.51 67.94 -11.51 67.94 -12.62 70.16 C-32.09 70.16 -51.56 70.16 -71.62 70.16 C-72.82 65.36 -71.65 62.83 -69.81 58.47 C-69.54 57.78 -69.26 57.1 -68.98 56.39 C-66.9 51.3 -66.9 51.3 -64.62 50.16 C-61.93 50 -59.25 49.9 -56.55 49.84 C-55.76 49.82 -54.96 49.8 -54.14 49.78 C-51.59 49.72 -49.05 49.66 -46.5 49.6 C-44.77 49.56 -43.05 49.51 -41.32 49.47 C-37.09 49.36 -32.86 49.26 -28.62 49.16 C-27.19 45.39 -25.76 41.62 -24.32 37.85 C-23.82 36.52 -23.31 35.19 -22.81 33.86 C-20.3 27.27 -17.79 20.68 -15.41 14.04 C-15.09 13.16 -14.77 12.28 -14.45 11.38 C-13.87 9.76 -13.3 8.15 -12.73 6.53 C-10.11 -0.77 -7.18 0.01 0 0 Z " fill="#755538" transform="translate(282.624755859375,211.8388671875)"/>
<path d="M0 0 C0.89 -0 1.79 -0.01 2.71 -0.02 C5.67 -0.03 8.63 -0.04 11.59 -0.04 C13.64 -0.05 15.7 -0.05 17.75 -0.06 C22.05 -0.07 26.36 -0.08 30.67 -0.08 C36.19 -0.08 41.72 -0.11 47.25 -0.14 C51.49 -0.16 55.73 -0.16 59.97 -0.16 C62.01 -0.17 64.04 -0.17 66.08 -0.19 C68.93 -0.2 71.77 -0.2 74.62 -0.2 C75.47 -0.2 76.31 -0.21 77.19 -0.22 C82.95 -0.18 82.95 -0.18 85.03 1.48 C87.13 4.1 87.97 7.01 89.06 10.16 C89.5 11.4 89.94 12.64 90.39 13.91 C91.38 17.16 91.38 17.16 91.38 20.16 C63.33 20.49 35.28 20.82 6.38 21.16 C2.07 31.49 2.07 31.49 -1.92 41.92 C-2.2 42.67 -2.48 43.43 -2.77 44.21 C-3.64 46.57 -4.51 48.93 -5.37 51.29 C-6.26 53.68 -7.14 56.08 -8.02 58.47 C-8.57 59.95 -9.11 61.43 -9.66 62.91 C-11.51 67.94 -11.51 67.94 -12.62 70.16 C-32.09 70.16 -51.56 70.16 -71.62 70.16 C-72.82 65.36 -71.65 62.83 -69.81 58.47 C-69.54 57.78 -69.26 57.1 -68.98 56.39 C-66.9 51.3 -66.9 51.3 -64.62 50.16 C-61.93 50 -59.25 49.9 -56.55 49.84 C-55.76 49.82 -54.96 49.8 -54.14 49.78 C-51.59 49.72 -49.05 49.66 -46.5 49.6 C-44.77 49.56 -43.05 49.51 -41.32 49.47 C-37.09 49.36 -32.86 49.26 -28.62 49.16 C-27.97 47.41 -27.97 47.41 -27.3 45.62 C-15.34 13.74 -15.34 13.74 -14.47 11.43 C-13.9 9.9 -13.35 8.36 -12.81 6.82 C-10.13 -0.71 -7.41 0.01 0 0 Z " fill="#755538" transform="translate(799.624755859375,211.8388671875)"/>
<path d="M0 0 C3.93 1.31 4.28 2.79 6.25 6.38 C6.79 7.35 7.33 8.33 7.89 9.34 C8.2 9.9 8.51 10.47 8.82 11.05 C10.01 13.1 10.01 13.1 11.71 15.24 C17.46 23.06 17.95 29.55 17.7 39.02 C17.69 40.5 17.68 41.98 17.68 43.46 C17.65 47.44 17.58 51.42 17.51 55.4 C17.44 59.58 17.4 63.75 17.37 67.93 C17.29 75.82 17.18 83.71 17.06 91.6 C16.92 100.59 16.82 109.58 16.73 118.57 C16.53 137.05 16.28 155.52 16 174 C8.2 174.08 0.41 174.13 -7.39 174.16 C-10.04 174.18 -12.7 174.2 -15.35 174.23 C-19.16 174.26 -22.97 174.28 -26.77 174.29 C-28.56 174.32 -28.56 174.32 -30.39 174.34 C-31.49 174.34 -32.59 174.34 -33.72 174.34 C-34.7 174.35 -35.67 174.35 -36.67 174.36 C-37.44 174.24 -38.21 174.12 -39 174 C-41.45 170.32 -41.27 168.38 -41.25 164 C-41.26 162.76 -41.26 161.52 -41.27 160.25 C-41 157 -41 157 -39 154 C-25.8 154 -12.6 154 1 154 C0.67 103.18 0.34 52.36 0 0 Z " fill="#755639" transform="translate(1069,108)"/>
<path d="M0 0 C9.04 3.2 14.6 7.38 19 16 C21.87 23.36 21.18 31.21 21 39 C17.43 39.82 14.14 40.12 10.48 40.1 C9.46 40.09 8.44 40.09 7.38 40.09 C6.33 40.08 5.27 40.07 4.19 40.06 C3.11 40.06 2.04 40.05 0.93 40.05 C-1.71 40.04 -4.36 40.02 -7 40 C-7 47.26 -7 54.52 -7 62 C-10.62 62.91 -13.35 63.13 -17.04 63.13 C-18.2 63.13 -19.35 63.14 -20.54 63.14 C-21.75 63.13 -22.95 63.13 -24.19 63.12 C-25.4 63.13 -26.61 63.13 -27.87 63.14 C-29.02 63.14 -30.17 63.13 -31.36 63.13 C-32.41 63.13 -33.47 63.13 -34.56 63.13 C-37 63 -37 63 -38 62 C-38.09 60.01 -38.12 58.01 -38.11 56.01 C-38.11 54.73 -38.11 53.45 -38.11 52.13 C-38.11 50.72 -38.1 49.31 -38.1 47.9 C-38.1 46.47 -38.09 45.04 -38.09 43.6 C-38.09 39.82 -38.08 36.04 -38.07 32.26 C-38.06 28.41 -38.05 24.56 -38.05 20.7 C-38.04 13.13 -38.02 5.57 -38 -2 C-28.39 -6.8 -9.78 -2.98 0 0 Z " fill="#755639" transform="translate(591,61)"/>
<path d="M0 0 C8.84 21.63 17.59 43.29 26.34 64.95 C30.43 75.07 34.53 85.19 38.62 95.31 C39.33 97.05 40.03 98.78 40.73 100.51 C42.82 105.67 44.91 110.84 47 116 C49.79 122.9 52.58 129.79 55.38 136.69 C55.72 137.54 56.07 138.4 56.42 139.28 C60.56 149.51 64.7 159.74 68.84 169.96 C69.24 170.97 69.65 171.97 70.07 173.01 C70.89 175.04 71.71 177.07 72.53 179.1 C72.93 180.1 73.33 181.1 73.75 182.12 C74.15 183.11 74.55 184.1 74.96 185.12 C80.62 199.13 86.3 213.14 91.99 227.14 C92.92 229.4 93.84 231.67 94.76 233.94 C95.58 235.96 96.4 237.98 97.23 239.99 C97.6 240.9 97.97 241.8 98.35 242.73 C98.67 243.51 98.99 244.29 99.32 245.1 C100 247 100 247 100 249 C92.38 249.12 84.75 249.2 77.13 249.26 C73.59 249.29 70.05 249.32 66.51 249.38 C62.44 249.44 58.37 249.47 54.3 249.49 C53.03 249.51 51.76 249.54 50.45 249.57 C48.68 249.57 48.68 249.57 46.87 249.57 C45.83 249.58 44.79 249.59 43.72 249.6 C40.01 248.78 39.03 247.12 37 244 C35.73 241.25 35.73 241.25 34.75 238.44 C34.41 237.51 34.08 236.58 33.73 235.62 C33 233 33 233 33 229 C49.83 229 66.66 229 84 229 C79.36 216.56 79.36 216.56 74.53 204.2 C74.24 203.48 73.95 202.75 73.65 202 C73.05 200.5 72.44 199 71.84 197.5 C70.93 195.24 70.03 192.98 69.12 190.71 C65.81 182.45 62.44 174.21 59 166 C50.52 145.6 42.22 125.13 34.04 104.61 C28.46 90.62 22.83 76.65 17.19 62.69 C16.79 61.7 16.39 60.72 15.98 59.71 C12 49.86 8.01 40.01 3.98 30.18 C3.37 28.68 2.76 27.19 2.15 25.69 C1.05 22.99 -0.06 20.3 -1.17 17.6 C-3.41 12.12 -5.57 6.75 -7 1 C-4.54 -0.23 -2.72 -0.07 0 0 Z " fill="#755639" transform="translate(362,33)"/>
<path d="M0 0 C7.9 19.4 15.76 38.82 23.61 58.24 C28.9 71.33 34.19 84.42 39.5 97.5 C45.14 111.39 50.76 125.29 56.38 139.19 C62.14 153.46 67.92 167.74 73.69 182.01 C74.74 184.6 75.79 187.19 76.83 189.78 C79.96 197.51 83.09 205.24 86.25 212.96 C87.65 216.39 89.04 219.82 90.44 223.24 C91.1 224.85 91.75 226.46 92.41 228.07 C93.32 230.28 94.22 232.49 95.12 234.7 C95.38 235.34 95.65 235.98 95.92 236.64 C97.57 240.71 98.86 244.76 100 249 C92.38 249.12 84.75 249.2 77.13 249.26 C73.59 249.29 70.05 249.32 66.51 249.38 C62.44 249.44 58.37 249.47 54.3 249.49 C53.03 249.51 51.76 249.54 50.45 249.57 C48.68 249.57 48.68 249.57 46.87 249.57 C45.83 249.58 44.79 249.59 43.72 249.6 C40.01 248.78 39.03 247.12 37 244 C35.73 241.25 35.73 241.25 34.75 238.44 C34.41 237.51 34.08 236.58 33.73 235.62 C33 233 33 233 33 229 C49.83 229 66.66 229 84 229 C79.36 216.56 79.36 216.56 74.53 204.2 C74.24 203.48 73.95 202.75 73.65 202 C73.05 200.5 72.44 199 71.84 197.5 C70.93 195.24 70.03 192.98 69.12 190.71 C65.81 182.45 62.44 174.21 59 166 C50.32 145.12 41.84 124.17 33.46 103.17 C29.13 92.32 24.77 81.47 20.35 70.65 C15.55 58.93 10.81 47.18 6.06 35.44 C5.64 34.4 5.22 33.36 4.79 32.29 C3.58 29.3 2.37 26.3 1.16 23.31 C0.8 22.42 0.44 21.53 0.07 20.61 C-0.62 18.92 -1.3 17.22 -1.98 15.53 C-2.7 13.75 -3.42 11.98 -4.15 10.21 C-4.7 8.86 -4.7 8.86 -5.26 7.48 C-5.59 6.67 -5.93 5.86 -6.27 5.02 C-7 3 -7 3 -7 1 C-4.54 -0.23 -2.72 -0.07 0 0 Z " fill="#755639" transform="translate(879,33)"/>
<path d="M0 0 C3.25 0 3.25 0 7 1 C10.77 7.44 13.28 14.51 16 21.44 C17.06 24.11 18.12 26.78 19.18 29.45 C19.47 30.17 19.76 30.9 20.06 31.66 C24.34 42.4 28.74 53.1 33.12 63.81 C38.6 77.21 44.08 90.6 49.43 104.05 C52.89 112.76 56.41 121.44 59.94 130.12 C61.23 133.32 62.53 136.51 63.82 139.7 C64.16 140.53 64.49 141.35 64.84 142.2 C67.4 148.52 69.96 154.85 72.52 161.17 C72.91 162.13 73.29 163.08 73.69 164.06 C75.67 168.96 77.65 173.87 79.63 178.77 C83.42 188.16 87.22 197.54 91.04 206.91 C92.81 211.25 94.58 215.59 96.35 219.93 C97.19 222 98.04 224.08 98.89 226.15 C100.07 229.03 101.24 231.9 102.41 234.79 C102.76 235.63 103.11 236.48 103.47 237.35 C103.95 238.54 103.95 238.54 104.44 239.75 C104.72 240.43 105 241.11 105.29 241.81 C106 244 106 244 107 250 C87.53 250 68.06 250 48 250 C48 249.34 48 248.68 48 248 C47.34 248 46.68 248 46 248 C44.99 245.4 43.99 242.79 43 240.19 C42.71 239.45 42.43 238.71 42.13 237.95 C41.86 237.24 41.59 236.53 41.31 235.79 C41.06 235.14 40.81 234.48 40.55 233.81 C40 232 40 232 40 229 C39.34 228.67 38.68 228.34 38 228 C55.82 228 73.64 228 92 228 C90.04 223.26 88.08 218.51 86.06 213.62 C73.16 182.31 60.55 150.88 47.88 119.47 C40.48 101.14 33.07 82.82 25.64 64.51 C23.43 59.07 21.23 53.63 19.04 48.2 C17.71 44.92 16.39 41.65 15.06 38.38 C14.59 37.2 14.59 37.2 14.1 36 C10.18 26.31 6.24 16.64 2.08 7.05 C0 2.21 0 2.21 0 0 Z " fill="#BDAE75" transform="translate(887,54)"/>
<path d="M0 0 C3.25 0 3.25 0 7 1 C10.77 7.44 13.28 14.51 16 21.44 C17.06 24.11 18.12 26.79 19.19 29.46 C19.48 30.2 19.77 30.93 20.07 31.68 C24.31 42.31 28.66 52.9 33 63.5 C38.34 76.55 43.67 89.59 48.88 102.69 C54.8 117.58 60.87 132.41 66.93 147.24 C74.75 166.41 82.48 185.61 90.13 204.85 C90.89 206.78 91.66 208.7 92.42 210.62 C92.79 211.54 93.16 212.46 93.53 213.42 C95.57 218.51 97.66 223.58 99.8 228.63 C100.26 229.73 100.73 230.83 101.2 231.96 C102.1 234.07 103 236.18 103.92 238.29 C104.32 239.24 104.72 240.19 105.14 241.17 C105.5 242.01 105.86 242.85 106.23 243.71 C107 246 107 246 107 250 C87.53 250 68.06 250 48 250 C48 249.34 48 248.68 48 248 C47.34 248 46.68 248 46 248 C44.99 245.4 43.99 242.79 43 240.19 C42.71 239.45 42.43 238.71 42.13 237.95 C41.86 237.24 41.59 236.53 41.31 235.79 C41.06 235.14 40.81 234.48 40.55 233.81 C40 232 40 232 40 229 C39.34 228.67 38.68 228.34 38 228 C55.82 228 73.64 228 92 228 C90.04 223.26 88.08 218.51 86.06 213.62 C77.61 193.12 69.3 172.56 61 152 C60.34 150.36 60.34 150.36 59.66 148.69 C55.28 137.83 50.9 126.97 46.52 116.11 C41.11 102.7 35.7 89.29 30.27 75.89 C29.26 73.4 28.25 70.91 27.24 68.42 C23.88 60.1 20.51 51.79 17.14 43.48 C15.37 39.13 13.61 34.78 11.85 30.43 C11 28.33 10.15 26.23 9.3 24.13 C8.11 21.22 6.93 18.3 5.75 15.39 C5.4 14.53 5.05 13.66 4.69 12.77 C2.98 8.55 1.38 4.34 0 0 Z " fill="#BDAE75" transform="translate(370,54)"/>
<path d="M0 0 C0.66 0 1.32 0 2 0 C4.71 7.07 7.41 14.13 10.11 21.2 C11.37 24.48 12.62 27.77 13.88 31.05 C15.32 34.83 16.77 38.6 18.21 42.38 C18.88 44.14 18.88 44.14 19.57 45.93 C19.99 47.04 20.41 48.14 20.85 49.27 C21.4 50.72 21.4 50.72 21.96 52.19 C22.3 53.12 22.65 54.04 23 55 C23.46 55.9 23.91 56.8 24.38 57.73 C25 61 25 61 21 71 C5.82 71 -9.36 71 -25 71 C-26.15 67.54 -25.86 66.95 -24.59 63.68 C-24.25 62.81 -23.92 61.93 -23.57 61.03 C-23.2 60.09 -22.83 59.14 -22.44 58.16 C-21.87 56.68 -21.87 56.68 -21.28 55.17 C-20.05 51.98 -18.81 48.8 -17.56 45.62 C-16.76 43.55 -15.95 41.48 -15.15 39.41 C-13.56 35.3 -11.96 31.19 -10.36 27.09 C-6.86 18.08 -3.43 9.04 0 0 Z " fill="#76573A" transform="translate(319,91)"/>
<path d="M0 0 C0.66 0 1.32 0 2 0 C4.15 5.63 6.3 11.27 8.45 16.9 C9.18 18.81 9.91 20.72 10.64 22.62 C10.99 23.54 11.34 24.46 11.7 25.4 C12.05 26.32 12.4 27.23 12.76 28.18 C13.47 30.03 14.17 31.89 14.86 33.75 C16.57 38.3 18.32 42.81 20.23 47.27 C20.58 48.12 20.92 48.96 21.28 49.82 C21.92 51.39 22.59 52.95 23.29 54.49 C26.19 61.71 24.35 62.64 21 71 C5.82 71 -9.36 71 -25 71 C-26.15 67.54 -25.86 66.95 -24.59 63.68 C-24.25 62.81 -23.92 61.93 -23.57 61.03 C-23.2 60.09 -22.83 59.14 -22.44 58.16 C-21.87 56.68 -21.87 56.68 -21.28 55.17 C-20.05 51.98 -18.81 48.8 -17.56 45.62 C-16.76 43.55 -15.95 41.48 -15.15 39.41 C-13.56 35.3 -11.96 31.19 -10.36 27.09 C-6.86 18.08 -3.43 9.04 0 0 Z " fill="#755739" transform="translate(836,91)"/>
<path d="M0 0 C0.79 -0.01 1.58 -0.02 2.4 -0.03 C3.25 -0.01 4.11 0 4.99 0.02 C5.9 0.01 6.81 0.01 7.75 0 C10.76 -0 13.76 0.03 16.77 0.06 C18.86 0.06 20.95 0.06 23.04 0.06 C27.42 0.07 31.8 0.09 36.18 0.13 C41.79 0.17 47.4 0.19 53.02 0.19 C57.34 0.2 61.65 0.21 65.97 0.23 C68.04 0.24 70.11 0.25 72.18 0.25 C75.07 0.26 77.96 0.28 80.85 0.31 C81.71 0.31 82.57 0.31 83.45 0.31 C84.24 0.32 85.03 0.33 85.84 0.34 C86.87 0.35 86.87 0.35 87.91 0.35 C90.21 0.66 91.8 1.57 93.86 2.61 C95.92 2.63 97.99 2.56 100.04 2.43 C117.72 2.23 136.88 10.81 149.86 22.61 C150.56 23.25 151.27 23.89 152 24.55 C156.95 29.25 162.43 34.55 163.17 41.61 C163.07 42.27 162.96 42.93 162.86 43.61 C161.18 41.42 159.57 39.2 158.02 36.92 C145.56 19.16 126.66 10.74 105.86 6.61 C105.01 6.44 104.16 6.26 103.28 6.08 C98.71 5.46 94.23 5.48 89.63 5.5 C88.61 5.5 87.6 5.5 86.55 5.5 C83.21 5.5 79.86 5.51 76.52 5.52 C74.2 5.52 71.87 5.52 69.55 5.52 C63.45 5.53 57.34 5.53 51.23 5.55 C45 5.56 38.77 5.56 32.53 5.57 C20.31 5.58 8.08 5.59 -4.14 5.61 C-4.17 37.05 -4.18 68.48 -4.19 99.91 C-4.2 103.62 -4.2 107.33 -4.2 111.03 C-4.2 111.77 -4.2 112.51 -4.2 113.27 C-4.2 125.24 -4.21 137.2 -4.22 149.17 C-4.23 161.44 -4.24 173.71 -4.24 185.98 C-4.24 193.55 -4.24 201.13 -4.25 208.7 C-4.26 214.5 -4.26 220.31 -4.26 226.11 C-4.26 228.49 -4.26 230.88 -4.26 233.26 C-4.27 236.51 -4.27 239.75 -4.26 243 C-4.27 243.95 -4.27 244.91 -4.27 245.89 C-4.27 246.76 -4.27 247.62 -4.27 248.51 C-4.27 249.26 -4.27 250.01 -4.27 250.78 C-4.25 252.71 -4.25 252.71 -3.14 254.61 C-8.02 252.74 -8.02 252.74 -9.14 251.61 C-9.25 248.47 -9.3 245.34 -9.3 242.19 C-9.3 241.19 -9.31 240.19 -9.31 239.15 C-9.32 235.77 -9.33 232.38 -9.34 229 C-9.34 226.58 -9.35 224.17 -9.36 221.75 C-9.38 214.48 -9.4 207.21 -9.41 199.94 C-9.42 197.89 -9.42 195.84 -9.42 193.78 C-9.45 181.05 -9.47 168.31 -9.48 155.57 C-9.49 152.62 -9.49 149.66 -9.49 146.71 C-9.49 145.98 -9.49 145.24 -9.5 144.49 C-9.51 132.6 -9.54 120.71 -9.58 108.82 C-9.63 96.62 -9.65 84.43 -9.65 72.23 C-9.66 65.37 -9.67 58.52 -9.7 51.67 C-9.73 45.23 -9.74 38.78 -9.73 32.34 C-9.73 29.97 -9.73 27.6 -9.75 25.23 C-9.78 22 -9.77 18.78 -9.75 15.55 C-9.76 14.61 -9.78 13.66 -9.79 12.69 C-9.74 8.22 -9.59 6.22 -6.86 2.53 C-4.21 0.67 -3.16 -0.01 0 0 Z " fill="#FCFAB1" transform="translate(502.14295959472656,9.385269165039063)"/>
<path d="M0 0 C1.05 -0.01 2.1 -0.02 3.19 -0.03 C4.9 -0.04 4.9 -0.04 6.64 -0.04 C8.39 -0.05 8.39 -0.05 10.17 -0.06 C12.64 -0.07 15.11 -0.08 17.59 -0.08 C21.37 -0.09 25.16 -0.12 28.95 -0.15 C31.35 -0.16 33.74 -0.16 36.14 -0.17 C37.85 -0.19 37.85 -0.19 39.59 -0.2 C40.64 -0.2 41.69 -0.2 42.78 -0.2 C43.71 -0.2 44.64 -0.2 45.6 -0.21 C48.39 0.23 49.28 0.92 50.96 3.16 C51.3 5.06 51.3 5.06 51.25 7.17 C51.24 7.93 51.23 8.69 51.22 9.47 C51.19 10.25 51.17 11.04 51.14 11.85 C51.13 12.65 51.12 13.44 51.1 14.26 C51.07 16.23 51.01 18.2 50.96 20.16 C51.68 20.11 52.4 20.07 53.15 20.02 C59.47 19.78 63.17 19.88 67.96 24.16 C69.89 28.03 69.43 32.8 69.67 37.07 C69.61 40.03 69.61 40.03 70.96 41.16 C72.98 41.32 75.01 41.48 77.05 41.59 C77.68 41.78 78.31 41.97 78.96 42.16 C79.95 44.14 79.95 44.14 80.96 46.16 C76.01 46.16 71.06 46.16 65.96 46.16 C64.78 43.81 64.84 42.42 64.86 39.81 C64.86 38.96 64.86 38.11 64.87 37.23 C64.88 36.34 64.88 35.45 64.89 34.54 C64.9 33.64 64.9 32.74 64.91 31.82 C64.92 29.6 64.93 27.38 64.96 25.16 C61.79 24.11 59.09 23.85 55.77 23.6 C53.85 23.45 51.93 23.31 49.96 23.16 C49.63 17.22 49.3 11.28 48.96 5.16 C30.81 4.83 12.66 4.5 -6.04 4.16 C-6.37 52.67 -6.7 101.18 -7.04 151.16 C-7.37 150.5 -7.7 149.84 -8.04 149.16 C-8.66 148.88 -9.28 148.59 -9.92 148.3 C-12.54 146.9 -13.45 145.48 -15.03 142.98 C-15.57 142.14 -16.11 141.3 -16.66 140.43 C-17.22 139.54 -17.78 138.64 -18.36 137.72 C-18.94 136.81 -19.52 135.9 -20.12 134.96 C-21.77 132.37 -23.41 129.76 -25.04 127.16 C-26.29 125.2 -27.54 123.24 -28.79 121.29 C-29.32 120.46 -29.84 119.63 -30.38 118.78 C-32.38 115.63 -34.4 112.49 -36.42 109.35 C-36.8 108.76 -37.18 108.17 -37.57 107.56 C-38.34 106.36 -39.11 105.16 -39.89 103.96 C-41.77 101.03 -43.66 98.09 -45.54 95.16 C-46.29 93.99 -47.04 92.83 -47.79 91.66 C-61.29 70.66 -61.29 70.66 -62.42 68.91 C-63.17 67.75 -63.92 66.58 -64.67 65.42 C-66.57 62.47 -68.45 59.52 -70.33 56.56 C-73.83 51.03 -77.39 45.6 -81.29 40.35 C-84.65 35.82 -87.47 31.17 -90.04 26.16 C-85.83 28.19 -83.05 29.64 -81.17 34.04 C-79.83 36.89 -79.14 38.09 -76.61 40.1 C-74.04 42.16 -73.24 43.38 -71.76 46.23 C-69.15 51.06 -66.2 55.57 -63.11 60.1 C-59.89 64.87 -56.69 69.62 -53.79 74.6 C-51.12 79.18 -48.01 83.38 -44.85 87.64 C-43.42 89.64 -42.16 91.57 -40.98 93.72 C-39.31 96.7 -37.52 99.38 -35.54 102.16 C-33.22 105.44 -31.08 108.72 -29.13 112.25 C-25.87 117.97 -22.28 123.56 -18.36 128.85 C-15.76 132.4 -13.93 136.19 -12.04 140.16 C-10.8 139.14 -10.8 139.14 -10.93 136.97 C-10.94 136 -10.95 135.03 -10.95 134.03 C-10.96 132.91 -10.96 131.8 -10.96 130.65 C-10.98 128.8 -10.98 128.8 -10.99 126.92 C-11 124.94 -11.01 122.96 -11.02 120.98 C-11.03 118.85 -11.05 116.71 -11.06 114.58 C-11.09 110.13 -11.11 105.69 -11.12 101.24 C-11.13 99.72 -11.13 98.2 -11.14 96.68 C-11.14 95.92 -11.14 95.15 -11.14 94.37 C-11.18 84.01 -11.23 73.66 -11.29 63.31 C-11.34 56.33 -11.37 49.35 -11.38 42.37 C-11.39 38.68 -11.4 34.98 -11.44 31.29 C-11.47 27.17 -11.48 23.04 -11.48 18.92 C-11.5 17.7 -11.51 16.47 -11.53 15.21 C-11.5 6.94 -11.5 6.94 -9.14 2.93 C-5.93 0.22 -4.13 0.03 0 0 Z " fill="#FCFAAC" transform="translate(1177.044677734375,9.8388671875)"/>
<path d="M0 0 C1.58 -0.01 1.58 -0.01 3.19 -0.03 C4.89 -0.04 4.89 -0.04 6.62 -0.04 C7.79 -0.05 8.95 -0.05 10.15 -0.06 C12.62 -0.07 15.08 -0.08 17.55 -0.08 C21.33 -0.09 25.11 -0.12 28.88 -0.15 C31.28 -0.16 33.67 -0.16 36.06 -0.17 C37.76 -0.19 37.76 -0.19 39.5 -0.2 C40.55 -0.2 41.6 -0.2 42.68 -0.2 C43.61 -0.2 44.54 -0.2 45.49 -0.21 C47.84 0.16 47.84 0.16 49.68 1.55 C50.84 3.16 50.84 3.16 50.53 5.35 C50.3 5.95 50.08 6.54 49.84 7.16 C49.51 6.5 49.18 5.84 48.84 5.16 C30.69 5.16 12.54 5.16 -6.16 5.16 C-6.18 10.26 -6.2 15.36 -6.22 20.61 C-6.29 37.45 -6.36 54.3 -6.45 71.14 C-6.5 81.35 -6.54 91.56 -6.58 101.77 C-6.61 110.68 -6.65 119.58 -6.7 128.48 C-6.73 133.2 -6.75 137.91 -6.76 142.62 C-6.77 147.06 -6.8 151.5 -6.83 155.94 C-6.83 157.57 -6.84 159.19 -6.84 160.82 C-6.86 173.98 -6.91 185.66 -16.22 195.85 C-21.95 201.36 -27.71 203.12 -35.53 203.6 C-45.32 203.17 -53.12 199.01 -60.69 193.06 C-63.09 191.22 -65.53 189.67 -68.16 188.16 C-72.62 199.14 -76.98 210.16 -81.22 221.22 C-81.63 222.26 -82.03 223.3 -82.45 224.38 C-83 225.83 -83 225.83 -83.57 227.32 C-84.07 228.61 -84.07 228.61 -84.57 229.93 C-85.41 232.31 -85.41 232.31 -84.16 235.16 C-81.9 236.94 -79.65 238.6 -77.28 240.22 C-76.33 240.89 -76.33 240.89 -75.35 241.58 C-72.64 243.47 -69.91 245.33 -67.16 247.16 C-67.82 247.16 -68.48 247.16 -69.16 247.16 C-70.15 249.14 -70.15 249.14 -71.16 251.16 C-71.61 250.48 -72.07 249.8 -72.53 249.1 C-75 246.34 -77.15 244.74 -80.22 242.72 C-84.25 239.97 -86.86 238.06 -88.16 233.16 C-88.08 228.56 -87.46 225.47 -85.28 221.45 C-83.11 217.23 -81.64 212.94 -80.22 208.41 C-73.65 188.15 -73.65 188.15 -69.16 185.16 C-64.43 185.5 -60.1 188.9 -56.21 191.43 C-46.58 197.69 -38.05 199.82 -26.46 197.66 C-21.59 196.25 -18.72 194.71 -16.16 190.16 C-12.75 182.12 -11.02 174.9 -11.06 166.13 C-11.06 165.45 -11.06 164.77 -11.06 164.06 C-11.07 161.78 -11.08 159.51 -11.09 157.23 C-11.1 155.59 -11.1 153.95 -11.11 152.32 C-11.12 148.79 -11.13 145.27 -11.14 141.75 C-11.17 136.18 -11.18 130.62 -11.19 125.05 C-11.23 109.22 -11.27 93.39 -11.33 77.56 C-11.36 68.81 -11.39 60.06 -11.4 51.32 C-11.41 45.78 -11.43 40.25 -11.46 34.71 C-11.48 31.27 -11.48 27.83 -11.48 24.39 C-11.48 22.79 -11.49 21.19 -11.5 19.6 C-11.52 17.42 -11.52 15.24 -11.51 13.06 C-11.52 11.84 -11.52 10.62 -11.52 9.37 C-11.12 5.83 -10.34 3.95 -8.16 1.16 C-5.16 0.16 -3.13 0.02 0 0 Z " fill="#FCFAAD" transform="translate(98.158203125,9.8388671875)"/>
<path d="M0 0 C1.32 -0.01 1.32 -0.01 2.67 -0.01 C4.07 0 4.07 0 5.51 0.02 C6.94 0.02 6.94 0.02 8.39 0.03 C30.71 0.35 30.71 0.35 37.63 7.27 C37.78 9.85 37.82 12.32 37.76 14.89 C37.75 15.6 37.74 16.3 37.73 17.03 C37.71 18.78 37.67 20.52 37.63 22.27 C34.06 23.08 30.78 23.38 27.11 23.36 C26.09 23.36 25.07 23.36 24.02 23.35 C22.96 23.35 21.91 23.34 20.82 23.33 C19.75 23.32 18.67 23.32 17.56 23.31 C14.92 23.3 12.28 23.28 9.63 23.27 C9.63 30.53 9.63 37.79 9.63 45.27 C6.13 46.14 3.51 46.4 -0.05 46.39 C-1.03 46.39 -2 46.4 -3 46.4 C-5.37 46.27 -5.37 46.27 -6.37 45.27 C-6.47 43.93 -6.51 42.58 -6.51 41.24 C-6.52 40.38 -6.53 39.53 -6.53 38.65 C-6.53 37.72 -6.53 36.79 -6.54 35.83 C-6.54 34.88 -6.54 33.94 -6.55 32.96 C-6.55 30.95 -6.55 28.94 -6.55 26.93 C-6.55 23.84 -6.57 20.76 -6.59 17.68 C-6.59 15.73 -6.6 13.78 -6.6 11.83 C-6.6 10.9 -6.61 9.98 -6.62 9.02 C-6.62 8.17 -6.61 7.31 -6.61 6.42 C-6.61 5.67 -6.61 4.91 -6.61 4.13 C-6.07 0.05 -3.49 0.01 0 0 Z " fill="#BEAF76" transform="translate(574.3671875,77.734375)"/>
<path d="M0 0 C1.6 -0.01 1.6 -0.01 3.23 -0.03 C4.37 -0.01 5.51 0 6.68 0.02 C7.86 0.02 9.04 0.02 10.25 0.02 C12.75 0.03 15.24 0.04 17.73 0.07 C21.54 0.12 25.35 0.11 29.16 0.11 C31.59 0.12 34.01 0.13 36.43 0.15 C38.14 0.15 38.14 0.15 39.88 0.15 C41.48 0.17 41.48 0.17 43.11 0.2 C44.04 0.2 44.98 0.21 45.94 0.22 C49.1 0.7 50.97 1.76 53.55 3.62 C55.4 6.25 55.4 6.25 57.05 9.3 C57.64 10.36 58.23 11.42 58.84 12.52 C59.41 13.54 59.97 14.56 60.55 15.62 C62.19 18.3 63.87 20.96 65.55 23.62 C64.07 24.11 64.07 24.11 62.55 24.62 C61.52 23.06 61.52 23.06 60.47 21.47 C59.56 20.1 58.65 18.73 57.74 17.37 C57.29 16.68 56.84 16 56.37 15.3 C55.93 14.63 55.49 13.97 55.04 13.29 C54.63 12.68 54.23 12.07 53.81 11.45 C53.19 10.54 53.19 10.54 52.55 9.62 C52.14 8.93 51.74 8.24 51.31 7.53 C49.7 5.39 49.7 5.39 47.11 5.13 C45.65 5.15 45.65 5.15 44.17 5.16 C42.51 5.16 42.51 5.16 40.83 5.16 C39.05 5.19 39.05 5.19 37.23 5.22 C35.41 5.23 35.41 5.23 33.54 5.24 C29.65 5.26 25.76 5.31 21.87 5.37 C19.23 5.39 16.6 5.4 13.96 5.42 C7.49 5.46 1.02 5.53 -5.45 5.62 C-5.47 36.9 -5.49 68.19 -5.5 99.48 C-5.5 103.17 -5.5 106.86 -5.5 110.55 C-5.5 111.29 -5.5 112.02 -5.5 112.78 C-5.51 124.69 -5.51 136.6 -5.52 148.51 C-5.53 160.72 -5.54 172.94 -5.54 185.15 C-5.54 192.69 -5.55 200.23 -5.55 207.77 C-5.56 213.55 -5.56 219.33 -5.56 225.1 C-5.56 227.48 -5.56 229.85 -5.56 232.22 C-5.57 235.45 -5.57 238.68 -5.57 241.92 C-5.57 243.34 -5.57 243.34 -5.57 244.79 C-5.57 246.08 -5.57 246.08 -5.57 247.4 C-5.57 248.15 -5.57 248.9 -5.57 249.67 C-5.51 251.83 -5.51 251.83 -4.45 254.62 C-9.32 252.74 -9.32 252.74 -10.45 251.62 C-10.55 248.47 -10.6 245.34 -10.6 242.19 C-10.6 241.19 -10.61 240.19 -10.61 239.15 C-10.63 235.77 -10.63 232.38 -10.64 229 C-10.65 226.58 -10.65 224.17 -10.66 221.75 C-10.69 214.48 -10.7 207.21 -10.72 199.94 C-10.72 197.89 -10.72 195.84 -10.73 193.78 C-10.75 181.05 -10.77 168.31 -10.79 155.57 C-10.79 152.62 -10.79 149.66 -10.8 146.71 C-10.8 145.98 -10.8 145.24 -10.8 144.49 C-10.81 132.6 -10.84 120.71 -10.89 108.82 C-10.93 96.62 -10.95 84.43 -10.96 72.23 C-10.96 65.38 -10.97 58.52 -11 51.67 C-11.04 45.23 -11.04 38.78 -11.03 32.34 C-11.03 29.97 -11.04 27.6 -11.05 25.23 C-11.08 22 -11.07 18.78 -11.05 15.55 C-11.07 14.61 -11.08 13.67 -11.1 12.69 C-11.04 8.16 -10.92 6.23 -8.07 2.53 C-5.08 0.35 -3.67 -0.01 0 0 Z " fill="#FCFAB2" transform="translate(1020.4453125,9.384765625)"/>
<path d="M0 0 C0.66 0 1.32 0 2 0 C3.69 3.91 5.32 7.84 6.92 11.79 C7.47 13.12 8.03 14.45 8.6 15.78 C13.96 28.2 13.96 28.2 11.33 35.45 C10.56 36.95 9.79 38.45 9 40 C1.41 40 -6.18 40 -14 40 C-15 38 -15 38 -13.84 34.39 C-13.26 32.84 -12.67 31.29 -12.07 29.75 C-11.76 28.93 -11.45 28.11 -11.13 27.27 C-10.47 25.55 -9.81 23.82 -9.15 22.1 C-8.13 19.45 -7.12 16.8 -6.11 14.14 C-5.47 12.47 -4.84 10.79 -4.2 9.12 C-3.89 8.32 -3.59 7.53 -3.27 6.7 C-1.12 1.12 -1.12 1.12 0 0 Z " fill="#BEAF76" transform="translate(331,122)"/>
<path d="M0 0 C0.66 0 1.32 0 2 0 C3.68 4.07 5.32 8.16 6.92 12.27 C7.47 13.66 8.03 15.05 8.6 16.43 C9.43 18.43 10.21 20.44 10.98 22.46 C11.47 23.67 11.95 24.87 12.44 26.11 C13 30 13 30 9 40 C1.41 40 -6.18 40 -14 40 C-15 38 -15 38 -13.84 34.39 C-13.26 32.84 -12.67 31.29 -12.07 29.75 C-11.76 28.93 -11.45 28.11 -11.13 27.27 C-10.47 25.55 -9.81 23.82 -9.15 22.1 C-8.13 19.45 -7.12 16.8 -6.11 14.14 C-5.47 12.47 -4.84 10.79 -4.2 9.12 C-3.89 8.32 -3.59 7.53 -3.27 6.7 C-1.12 1.12 -1.12 1.12 0 0 Z " fill="#BEAF76" transform="translate(848,122)"/>
<path d="M0 0 C-2.05 6.4 -4.38 12.64 -6.92 18.86 C-7.3 19.79 -7.67 20.72 -8.06 21.68 C-9.29 24.7 -10.52 27.73 -11.75 30.75 C-12.61 32.87 -13.47 35 -14.33 37.12 C-16.07 41.4 -17.81 45.68 -19.55 49.96 C-21.7 55.26 -23.85 60.55 -25.99 65.85 C-26.6 67.36 -27.22 68.87 -27.83 70.38 C-28.13 71.11 -28.42 71.85 -28.73 72.6 C-29.94 75.59 -31.15 78.58 -32.36 81.57 C-38.4 96.45 -44.43 111.34 -50.45 126.24 C-53.04 132.63 -55.63 139.01 -58.21 145.4 C-60.15 150.18 -62.08 154.96 -64.01 159.73 C-64.96 162.06 -65.9 164.39 -66.85 166.73 C-68.17 169.99 -69.49 173.25 -70.81 176.52 C-71.2 177.49 -71.6 178.46 -72.01 179.46 C-73.81 183.94 -75.55 188.39 -77 193 C-76.34 193 -75.68 193 -75 193 C-75 193.66 -75 194.32 -75 195 C-76.32 194.67 -77.64 194.34 -79 194 C-80.22 189.76 -79.74 187.41 -78.09 183.36 C-77.65 182.29 -77.22 181.22 -76.78 180.11 C-76.31 179 -75.85 177.89 -75.38 176.75 C-74.72 175.11 -74.72 175.11 -74.04 173.43 C-71.69 167.67 -69.16 162.17 -66.02 156.79 C-64.77 154.6 -63.85 152.37 -63 150 C-62.65 149.15 -62.3 148.31 -61.94 147.44 C-61.11 145.28 -60.56 143.23 -60 141 C-51.3 115.02 -51.3 115.02 -47.42 109.93 C-45.89 107.85 -45.57 106.48 -45 104 C-39.98 88.42 -33.72 73.36 -27.38 58.29 C-25.57 53.97 -23.78 49.64 -22 45.31 C-21.73 44.65 -21.45 43.98 -21.17 43.29 C-19.4 39 -17.68 34.7 -16.02 30.37 C-15.12 28.28 -14.13 26.3 -13.08 24.27 C-10.58 19.33 -8.91 14.18 -7.2 8.92 C-6.96 8.19 -6.72 7.47 -6.46 6.73 C-6.25 6.08 -6.04 5.44 -5.83 4.77 C-4.53 1.99 -3.19 0 0 0 Z " fill="#FCFAB3" transform="translate(789,69)"/>
<path d="M0 0 C0.66 0 1.32 0 2 0 C-0.05 6.4 -2.38 12.64 -4.92 18.86 C-5.3 19.79 -5.67 20.72 -6.06 21.68 C-7.29 24.7 -8.52 27.73 -9.75 30.75 C-10.61 32.87 -11.47 35 -12.33 37.12 C-14.07 41.4 -15.81 45.68 -17.55 49.96 C-19.7 55.26 -21.85 60.55 -23.99 65.85 C-24.61 67.36 -25.22 68.87 -25.83 70.39 C-26.13 71.12 -26.42 71.85 -26.73 72.6 C-27.93 75.58 -29.14 78.55 -30.34 81.52 C-33.29 88.79 -36.24 96.05 -39.18 103.32 C-39.53 104.2 -39.89 105.08 -40.25 105.98 C-42.05 110.42 -43.85 114.85 -45.64 119.29 C-49.15 127.97 -52.67 136.65 -56.2 145.32 C-57.21 147.8 -58.22 150.28 -59.22 152.76 C-59.85 154.3 -60.48 155.84 -61.11 157.38 C-65.25 167.53 -69.21 177.72 -73 188 C-72.34 188 -71.68 188 -71 188 C-71 188.66 -71 189.32 -71 190 C-72.32 189.67 -73.64 189.34 -75 189 C-76.32 184.59 -75.61 182.14 -73.88 177.94 C-73.41 176.8 -72.95 175.66 -72.47 174.49 C-71.98 173.34 -71.5 172.19 -71 171 C-70.33 169.38 -70.33 169.38 -69.66 167.73 C-67.98 163.67 -66.27 159.63 -64.54 155.61 C-62.99 151.98 -61.52 148.34 -60.06 144.69 C-59.34 142.87 -59.34 142.87 -58.6 141.01 C-58.22 140.05 -58.22 140.05 -57.83 139.08 C-56.91 136.77 -55.99 134.47 -55.06 132.17 C-53.68 128.71 -52.32 125.25 -50.96 121.79 C-50.29 120.07 -49.61 118.35 -48.94 116.62 C-48.6 115.75 -48.26 114.87 -47.91 113.97 C-47.58 113.13 -47.25 112.28 -46.9 111.41 C-46.61 110.66 -46.31 109.91 -46.01 109.13 C-44.92 106.83 -43.55 105.01 -42 103 C-41.42 101.12 -41.42 101.12 -41 99 C-40.25 96.78 -39.48 94.58 -38.69 92.38 C-38.28 91.23 -37.87 90.08 -37.45 88.9 C-33.61 78.42 -29.21 68.14 -24.98 57.81 C-22.17 50.97 -22.17 50.97 -19.53 44.06 C-17.47 38.5 -15.18 33.03 -12.92 27.56 C-12.13 25.64 -11.34 23.72 -10.56 21.8 C-2.7 2.7 -2.7 2.7 0 0 Z " fill="#FCFAB3" transform="translate(268,74)"/>
<path d="M0 0 C1.48 -0.02 1.48 -0.02 2.98 -0.05 C4.04 -0.05 5.1 -0.05 6.19 -0.05 C7.83 -0.06 7.83 -0.06 9.5 -0.07 C11.81 -0.08 14.12 -0.09 16.42 -0.08 C19.96 -0.08 23.49 -0.12 27.02 -0.17 C29.26 -0.17 31.51 -0.17 33.75 -0.17 C35.33 -0.2 35.33 -0.2 36.95 -0.22 C44.28 -0.15 44.28 -0.15 48.15 2.8 C49.95 5.31 51.42 7.68 52.72 10.48 C53.12 11.32 53.51 12.16 53.92 13.02 C54.64 14.56 55.35 16.1 56.05 17.65 C57.31 19.92 58.66 20.47 61.04 21.42 C61.04 22.08 61.04 22.74 61.04 23.42 C59.06 23.75 57.08 24.08 55.04 24.42 C52.32 19.18 49.98 13.93 47.87 8.42 C47.2 6.46 47.2 6.46 46.04 5.42 C44.44 5.33 42.84 5.3 41.24 5.31 C39.71 5.31 39.71 5.31 38.15 5.31 C37.04 5.31 35.93 5.32 34.78 5.32 C33.09 5.32 33.09 5.32 31.36 5.33 C27.73 5.33 24.1 5.34 20.47 5.36 C18.02 5.36 15.57 5.37 13.12 5.37 C7.09 5.38 1.06 5.4 -4.96 5.42 C-10.82 18.96 -16.52 32.55 -22.03 46.23 C-22.71 47.92 -23.39 49.61 -24.07 51.29 C-25.71 55.33 -27.34 59.38 -28.96 63.42 C-29.62 63.09 -30.28 62.76 -30.96 62.42 C-30.03 57.33 -28.42 52.61 -26.71 47.73 C-26.4 46.83 -26.08 45.93 -25.76 45 C-23.88 39.73 -21.81 34.76 -19.15 29.83 C-16.57 24.58 -14.88 18.94 -12.96 13.42 C-12.29 11.52 -11.61 9.62 -10.9 7.73 C-10.62 6.97 -10.34 6.2 -10.05 5.41 C-7.72 1.15 -4.68 0.05 0 0 Z " fill="#FCFAAD" transform="translate(299.964599609375,9.580078125)"/>
<path d="M0 0 C1.48 -0.01 1.48 -0.01 2.99 -0.02 C4.06 -0.02 5.12 -0.01 6.22 -0.01 C7.32 -0.01 8.42 -0.01 9.54 -0.01 C11.86 -0.01 14.18 -0.01 16.5 -0 C20.05 0.01 23.6 -0 27.15 -0.01 C29.41 -0.01 31.66 -0.01 33.91 -0.01 C34.97 -0.01 36.04 -0.01 37.13 -0.02 C38.12 -0.01 39.12 -0.01 40.14 0 C41.44 0 41.44 0 42.77 0 C45.34 0.28 46.95 0.91 49.13 2.26 C50.29 3.92 50.29 3.92 51.2 5.88 C51.69 6.95 51.69 6.95 52.2 8.03 C53.1 10.19 53.84 12.35 54.57 14.57 C55.89 18.3 57.54 19.51 61.13 21.26 C61.13 21.92 61.13 22.58 61.13 23.26 C59.15 23.59 57.17 23.92 55.13 24.26 C51.94 17.99 49.05 11.68 46.13 5.26 C29.3 5.26 12.47 5.26 -4.87 5.26 C-10.33 18 -15.75 30.72 -20.93 43.57 C-21.51 45.02 -22.1 46.46 -22.69 47.91 C-24.08 51.36 -25.47 54.81 -26.87 58.26 C-27.53 57.93 -28.19 57.6 -28.87 57.26 C-27.8 51.26 -26.05 45.71 -23.93 40.01 C-23.68 39.32 -23.42 38.64 -23.16 37.93 C-22.08 35.07 -20.96 32.41 -19.36 29.79 C-16.96 25.71 -15.69 21.24 -14.2 16.76 C-8.51 0.02 -8.51 0.02 0 0 Z " fill="#FCFAAE" transform="translate(816.866943359375,9.7412109375)"/>
<path d="M0 0 C0 0.66 0 1.32 0 2 C0.66 2.33 1.32 2.66 2 3 C-2.49 13.25 -7.81 17.99 -18.23 22.15 C-21 23 -21 23 -25 23 C-26.2 20.6 -26.11 19.11 -26.1 16.43 C-26.09 15.53 -26.09 14.64 -26.09 13.71 C-26.08 12.78 -26.07 11.84 -26.06 10.88 C-26.06 9.93 -26.05 8.99 -26.05 8.01 C-26.04 5.67 -26.02 3.34 -26 1 C-22.23 0.83 -18.46 0.67 -14.69 0.5 C-13.62 0.45 -12.54 0.4 -11.44 0.36 C-9.9 0.29 -9.9 0.29 -8.32 0.22 C-7.38 0.18 -6.43 0.13 -5.45 0.09 C-3.64 0.02 -1.82 0 0 0 Z " fill="#FCFCA8" transform="translate(610,100)"/>
<path d="M0 0 C0.66 0 1.32 0 2 0 C3.74 2.45 5.35 4.9 6.94 7.44 C7.94 9.02 8.95 10.6 9.95 12.18 C10.46 12.99 10.98 13.8 11.5 14.64 C13.7 18.11 15.95 21.55 18.19 25 C26.9 38.44 35.5 51.96 44.12 65.46 C52.36 78.34 60.64 91.19 69 104 C68.01 104.5 68.01 104.5 67 105 C63.89 102.24 61.74 99.75 59.81 96.06 C57.54 91.72 54.79 87.92 51.88 84 C48.06 78.84 45.53 74.32 44 68 C43.34 68 42.68 68 42 68 C37.6 62.85 34.3 57.67 33 51 C32.34 51 31.68 51 31 51 C28.19 47.43 25.86 43.83 23.71 39.83 C21.02 34.94 18 30.31 14.88 25.69 C14.35 24.9 13.83 24.12 13.29 23.31 C11.87 21.2 10.45 19.09 9 17 C8.53 16.28 8.06 15.56 7.58 14.81 C5.94 12.58 5.94 12.58 2 12 C2 46.98 2 81.96 2 118 C1.67 118 1.34 118 1 118 C0.67 79.06 0.34 40.12 0 0 Z " fill="#FCFAAF" transform="translate(1101,157)"/>
<path d="M0 0 C3.53 1.18 3.84 1.89 5.71 4.97 C6.21 5.79 6.72 6.61 7.24 7.45 C7.76 8.31 8.28 9.17 8.81 10.06 C12.22 15.65 15.68 21.05 19.67 26.24 C21.39 28.52 22.93 30.89 24.44 33.31 C25.03 34.25 25.62 35.19 26.22 36.16 C26.81 37.09 27.4 38.03 28 39 C29.12 40.77 30.25 42.54 31.38 44.31 C31.95 45.22 32.53 46.13 33.12 47.06 C36.35 52.12 39.6 57.16 42.84 62.2 C45.11 65.72 47.37 69.24 49.64 72.77 C51.45 75.59 53.26 78.4 55.07 81.22 C55.77 82.3 56.47 83.38 57.19 84.5 C57.55 85.05 57.9 85.61 58.27 86.18 C60.67 89.9 63.04 93.64 65.4 97.39 C66.62 99.32 67.84 101.25 69.06 103.19 C69.66 104.14 70.27 105.1 70.89 106.08 C74.57 111.87 78.35 117.43 82.64 122.78 C84.3 125.5 84.65 127.86 85 131 C84.67 130.34 84.34 129.68 84 129 C83.37 128.71 82.74 128.41 82.1 128.11 C79.6 126.79 78.86 125.64 77.45 123.22 C77 122.46 76.55 121.71 76.09 120.93 C75.63 120.13 75.17 119.33 74.69 118.5 C73.71 116.85 72.73 115.2 71.74 113.55 C71.27 112.76 70.8 111.97 70.31 111.15 C68.75 108.59 67.07 106.13 65.31 103.69 C61.99 99.07 59.05 94.27 56.1 89.42 C52.88 84.14 49.5 78.96 46.14 73.77 C44.26 70.85 42.38 67.92 40.5 65 C39.75 63.83 39 62.67 38.25 61.5 C33.75 54.5 33.75 54.5 32.62 52.75 C31.88 51.58 31.13 50.42 30.38 49.25 C28.49 46.31 26.6 43.37 24.71 40.43 C19.03 31.54 13.24 22.73 7.28 14.02 C6.82 13.35 6.36 12.67 5.88 11.97 C4.98 10.64 4.07 9.31 3.15 7.99 C0 3.34 0 3.34 0 0 Z " fill="#826745" transform="translate(1084,34)"/>
<path d="M0 0 C8.25 0.33 16.5 0.66 25 1 C22.69 6.61 20.38 12.22 18 18 C10.41 18 2.82 18 -5 18 C-6.39 13.82 -4.7 11.16 -3.06 7.31 C-1.55 3.69 -1.55 3.69 0 0 Z " fill="#968156" transform="translate(733,263)"/>
<path d="M0 0 C8.25 0.33 16.5 0.66 25 1 C22.69 6.61 20.38 12.22 18 18 C10.41 18 2.82 18 -5 18 C-6.39 13.82 -4.7 11.16 -3.06 7.31 C-1.55 3.69 -1.55 3.69 0 0 Z " fill="#968156" transform="translate(216,263)"/>
<path d="M0 0 C0.98 -0 0.98 -0 1.97 -0.01 C4.13 -0.01 6.28 -0.01 8.44 -0 C9.93 -0 11.42 -0.01 12.92 -0.01 C16.05 -0.01 19.19 -0.01 22.32 -0 C26.34 0 30.36 0 34.39 -0 C37.47 -0.01 40.56 -0.01 43.65 -0 C45.13 -0 46.61 -0 48.1 -0.01 C50.17 -0.01 52.24 -0.01 54.31 0 C56.08 0 56.08 0 57.88 0 C60.65 0.13 60.65 0.13 62.65 1.13 C63.72 3.2 63.72 3.2 64.78 5.69 C65.13 6.52 65.49 7.34 65.85 8.2 C66.25 9.15 66.25 9.15 66.65 10.13 C62.96 9.49 62.96 9.49 61.39 7.61 C58.87 5.46 56.98 5.74 53.7 5.73 C52.48 5.72 51.25 5.7 49.99 5.69 C48.65 5.69 47.31 5.69 45.97 5.69 C44.6 5.68 43.23 5.66 41.85 5.65 C38.24 5.61 34.62 5.59 31 5.58 C25.21 5.55 19.43 5.51 13.65 5.45 C11.63 5.44 9.61 5.43 7.6 5.43 C6.37 5.42 5.13 5.41 3.87 5.4 C2.78 5.4 1.7 5.39 0.59 5.39 C-2.45 5.12 -4.63 4.51 -7.35 3.13 C-7.68 2.47 -8.01 1.81 -8.35 1.13 C-5.52 -0.28 -3.16 0 0 0 Z " fill="#FCFAAC" transform="translate(321.345703125,252.87060546875)"/>
<path d="M0 0 C8.7 -0.02 17.4 -0.04 26.1 -0.05 C30.14 -0.06 34.18 -0.06 38.22 -0.08 C42.12 -0.09 46.02 -0.09 49.91 -0.09 C51.4 -0.1 52.89 -0.1 54.38 -0.11 C56.46 -0.11 58.54 -0.11 60.62 -0.11 C61.81 -0.12 62.99 -0.12 64.22 -0.12 C67 0 67 0 69 1 C70.07 3.07 70.07 3.07 71.12 5.56 C71.48 6.39 71.83 7.22 72.2 8.07 C72.59 9.02 72.59 9.02 73 10 C70.62 9.69 70.62 9.69 68 9 C67.01 7.51 67.01 7.51 66 6 C63.94 5.53 63.94 5.53 61.53 5.58 C60.6 5.57 59.67 5.55 58.71 5.53 C57.7 5.53 56.69 5.53 55.65 5.52 C54.08 5.5 54.08 5.5 52.48 5.48 C49.11 5.43 45.74 5.4 42.38 5.38 C37.99 5.33 33.6 5.27 29.21 5.21 C28.15 5.2 27.09 5.18 26 5.17 C2.66 4.83 2.66 4.83 -1 3 C-0.67 2.01 -0.34 1.02 0 0 Z " fill="#FCFAAC" transform="translate(832,253)"/>
<path d="M0 0 C0.27 0.64 0.54 1.28 0.81 1.94 C1.89 4.33 1.89 4.33 5 5 C6.91 8.74 8.11 12.39 9.19 16.44 C10.56 21.26 12.68 25.46 15 29.88 C18 35.61 20.09 40.92 21.23 47.35 C21.9 50.17 21.9 50.17 23.92 52.87 C26.18 56.27 27.4 59.63 28.56 63.5 C30.01 68.24 31.75 72.58 34 77 C34.93 79.34 35.83 81.69 36.69 84.06 C37.12 85.25 37.56 86.44 38.01 87.66 C38.9 90.68 39.22 92.89 39 96 C38.34 96 37.68 96 37 96 C36.57 94.92 36.57 94.92 36.12 93.83 C33.35 86.93 30.57 80.04 27.79 73.15 C26.36 69.61 24.94 66.07 23.51 62.53 C21.86 58.42 20.2 54.31 18.54 50.2 C18.27 49.52 18 48.84 17.72 48.15 C14.76 40.81 11.79 33.47 8.79 26.14 C8.54 25.52 8.28 24.9 8.02 24.25 C6.82 21.32 5.62 18.39 4.42 15.46 C3.99 14.43 3.57 13.4 3.14 12.34 C2.59 11.01 2.59 11.01 2.03 9.64 C0.92 6.79 -0.05 3.91 -1 1 C-0.67 0.67 -0.34 0.34 0 0 Z " fill="#FCFAAB" transform="translate(391,86)"/>
<path d="M0 0 C2.12 -0.08 4.25 -0.14 6.38 -0.19 C7.56 -0.22 8.74 -0.26 9.96 -0.29 C11.47 -0.15 11.47 -0.15 13 0 C15.15 3.22 15.22 3.8 14.98 7.45 C14.93 8.3 14.87 9.14 14.82 10.02 C14.76 10.9 14.69 11.78 14.62 12.69 C14.57 13.58 14.51 14.47 14.45 15.39 C14.31 17.6 14.16 19.8 14 22 C11.88 22.22 9.75 22.43 7.62 22.62 C6.44 22.74 5.26 22.86 4.04 22.98 C3.04 22.98 2.03 22.99 1 23 C-1 21 -1 21 -1.24 19.06 C-1.24 18.29 -1.23 17.51 -1.23 16.72 C-1.23 15.88 -1.23 15.04 -1.22 14.17 C-1.21 13.29 -1.2 12.41 -1.19 11.5 C-1.19 10.62 -1.19 9.74 -1.19 8.83 C-1.14 2.28 -1.14 2.28 0 0 Z " fill="#978257" transform="translate(148,33)"/>
<path d="M0 0 C1.96 -0.05 3.92 -0.09 5.88 -0.12 C7.51 -0.16 7.51 -0.16 9.18 -0.2 C12 0 12 0 14 2 C14.23 4.06 14.23 4.06 14.2 6.57 C14.19 7.91 14.19 7.91 14.18 9.29 C14.16 10.22 14.14 11.16 14.12 12.12 C14.12 13.07 14.11 14.01 14.1 14.99 C14.07 17.33 14.04 19.66 14 22 C9.05 22 4.1 22 -1 22 C-1.03 18.71 -1.05 15.42 -1.06 12.12 C-1.08 10.72 -1.08 10.72 -1.09 9.29 C-1.09 8.39 -1.09 7.49 -1.1 6.57 C-1.1 5.74 -1.11 4.92 -1.11 4.06 C-1 2 -1 2 0 0 Z " fill="#968156" transform="translate(1227,33)"/>
<path d="M0 0 C0.27 0.64 0.54 1.28 0.81 1.94 C1.89 4.33 1.89 4.33 5 5 C7.18 9.17 8.41 13.42 9.69 17.94 C11.53 24.14 14.21 29.55 17.21 35.25 C19.54 39.77 20.81 43.79 21.52 48.84 C22.23 52.02 23.94 54.27 25.77 56.93 C27.61 60.02 28.39 63.3 29.32 66.76 C29.94 69.13 29.94 69.13 31.5 71.5 C33.44 74.73 34.23 78.03 35.24 81.64 C35.94 84.15 35.94 84.15 37.69 86.69 C39.48 89.85 39.21 92.43 39 96 C38.34 96 37.68 96 37 96 C30.08 79.02 23.19 62.03 16.4 45 C13.92 38.77 11.41 32.54 8.88 26.33 C8.62 25.71 8.37 25.09 8.11 24.45 C6.9 21.5 5.69 18.55 4.48 15.6 C4.05 14.56 3.62 13.51 3.18 12.44 C2.81 11.53 2.43 10.62 2.05 9.68 C0.93 6.82 -0.05 3.92 -1 1 C-0.67 0.67 -0.34 0.34 0 0 Z " fill="#FCFAAB" transform="translate(908,86)"/>
<path d="M0 0 C5.28 0.33 10.56 0.66 16 1 C16 6.61 16 12.22 16 18 C13.57 18.04 11.13 18.08 8.62 18.12 C7.86 18.14 7.1 18.16 6.31 18.18 C4.54 18.19 2.77 18.1 1 18 C-1 16 -1 16 -1.23 12.81 C-1.22 11.55 -1.2 10.3 -1.19 9 C-1.18 7.74 -1.17 6.48 -1.17 5.19 C-1 2 -1 2 0 0 Z " fill="#978257" transform="translate(1029,263)"/>
<path d="M0 0 C5.28 0.33 10.56 0.66 16 1 C16 6.61 16 12.22 16 18 C13.57 18.04 11.13 18.08 8.62 18.12 C7.86 18.14 7.1 18.16 6.31 18.18 C4.54 18.19 2.77 18.1 1 18 C-1 16 -1 16 -1.23 12.81 C-1.22 11.55 -1.2 10.3 -1.19 9 C-1.18 7.74 -1.17 6.48 -1.17 5.19 C-1 2 -1 2 0 0 Z " fill="#978257" transform="translate(512,263)"/>
<path d="M0 0 C1.33 0 1.33 0 2.68 0 C5.51 0.01 8.35 0.02 11.18 0.04 C13.1 0.04 15.02 0.04 16.93 0.05 C21.64 0.06 26.35 0.08 31.05 0.1 C31.55 1.58 31.55 1.58 32.05 3.1 C18.88 6.86 4.75 5.69 -8.95 6.1 C-8.95 32.5 -8.95 58.9 -8.95 86.1 C-9.28 86.1 -9.61 86.1 -9.95 86.1 C-10.28 58.05 -10.61 30 -10.95 1.1 C-7.56 -0.59 -3.72 -0.02 0 0 Z " fill="#FCFAAB" transform="translate(594.9453125,210.90234375)"/>
<path d="M0 0 C4.08 4.64 6.34 9.32 7.81 15.31 C8.87 18.6 9.99 20.74 11.81 23.62 C16.89 31.77 19.69 40.75 22.32 49.92 C23.18 52.55 24.49 54.7 26 57 C27.35 59.85 28 62.02 28.33 65.18 C29.09 69.52 30.58 72.8 32.56 76.69 C36 83.48 36 83.48 36 88 C35.34 88 34.68 88 34 88 C26.58 70.29 19.31 52.51 12.08 34.71 C10.75 31.43 9.41 28.14 8.07 24.86 C6.54 21.13 5.03 17.39 3.51 13.64 C3.04 12.5 2.57 11.36 2.09 10.18 C1.66 9.13 1.24 8.08 0.81 7 C0.43 6.08 0.06 5.16 -0.33 4.21 C-1 2 -1 2 0 0 Z " fill="#FCFAAB" transform="translate(959,212)"/>
<path d="M0 0 C0.66 0 1.32 0 2 0 C1.84 8.53 -2.09 13.11 -8 18.98 C-12.05 22.69 -16.18 25.4 -21 28 C-21.61 28.47 -22.21 28.93 -22.84 29.41 C-29.04 33.96 -36.25 37.65 -44 38 C-44.5 36.51 -44.5 36.51 -45 35 C-44.06 34.66 -43.11 34.32 -42.14 33.97 C-25.16 27.65 -10.39 17.46 -1.09 1.55 C-0.73 1.04 -0.37 0.53 0 0 Z " fill="#FCFAAB" transform="translate(694,172)"/>
<path d="M0 0 C0.33 0.66 0.66 1.32 1 2 C2.32 2.69 3.66 3.35 5 4 C7.04 5.26 9.06 6.56 11.06 7.88 C12.11 8.55 13.15 9.23 14.22 9.93 C16.74 11.8 18.31 13.39 20 16 C19.47 16.87 19.47 16.87 18.94 17.75 C17.8 20.48 17.94 21.27 19 24 C26.03 31.58 35.81 35.69 45 40 C45.99 40.5 45.99 40.5 47 41 C46.67 41.99 46.34 42.98 46 44 C42.33 43.29 39.3 41.72 36 40 C36 39.34 36 38.68 36 38 C35.38 37.85 34.77 37.71 34.13 37.55 C27.78 35.87 21.52 33.97 17 29 C15.94 26 15.94 26 15.12 22.62 C13.45 15.7 10.41 13.24 4.46 9.59 C2 8 2 8 0 5 C-0.12 2.31 -0.12 2.31 0 0 Z " fill="#FCFAAB" transform="translate(26,262)"/>
<path d="M0 0 C1.12 3.36 0.97 3.74 -0.34 6.82 C-0.65 7.59 -0.97 8.36 -1.3 9.16 C-1.66 9.99 -2.01 10.83 -2.38 11.69 C-3.11 13.48 -3.85 15.28 -4.58 17.07 C-4.97 18.02 -5.36 18.98 -5.77 19.96 C-7.93 25.3 -10.01 30.68 -12.06 36.06 C-12.47 37.1 -12.87 38.14 -13.29 39.22 C-13.66 40.19 -14.03 41.16 -14.41 42.16 C-14.91 43.45 -14.91 43.45 -15.41 44.77 C-16.26 47.15 -16.26 47.15 -15 50 C-12.74 51.78 -10.49 53.44 -8.12 55.06 C-7.49 55.51 -6.85 55.96 -6.19 56.42 C-3.48 58.31 -0.75 60.17 2 62 C1.34 62 0.68 62 0 62 C-0.66 63.32 -1.32 64.64 -2 66 C-2.45 65.32 -2.91 64.64 -3.38 63.94 C-5.84 61.18 -8 59.58 -11.06 57.56 C-15.09 54.8 -17.7 52.9 -19 48 C-18.93 43.4 -18.3 40.3 -16.12 36.29 C-13.95 32.06 -12.48 27.77 -11.06 23.25 C-4.49 2.99 -4.49 2.99 0 0 Z " fill="#FCFAB2" transform="translate(29,195)"/>
<path d="M0 0 C4.6 0.61 8.56 1.85 12.88 3.56 C14.03 4.02 15.18 4.47 16.37 4.94 C17.67 5.47 17.67 5.47 19 6 C19 6.66 19 7.32 19 8 C19.66 8.33 20.32 8.66 21 9 C19.68 12.3 18.36 15.6 17 19 C10 15.83 4.11 11.63 -2 7 C-1.12 2.25 -1.12 2.25 0 0 Z " fill="#978257" transform="translate(29,257)"/>
<path d="M0 0 C3.94 1.31 5.21 3.42 7 7 C8.06 9.93 9 12.88 9.94 15.85 C12.17 22.48 15.31 28.69 18.56 34.88 C21.04 39.74 22.52 44.73 24.02 49.96 C24.88 52.61 25.84 54.83 27.19 57.25 C29.42 61.35 29.79 65.39 30 70 C29.34 70 28.68 70 28 70 C25.23 63.24 22.47 56.47 19.71 49.71 C18.42 46.56 17.14 43.42 15.85 40.28 C4.91 13.54 4.91 13.54 0 0 Z " fill="#FCFAAB" transform="translate(441,213)"/>
<path d="M0 0 C16.06 -1.46 34.34 7.01 47 16.5 C48.36 17.64 49.69 18.81 51 20 C51.71 20.64 52.41 21.28 53.14 21.93 C58.09 26.64 63.58 31.93 64.31 39 C64.21 39.66 64.11 40.32 64 41 C62.32 38.8 60.72 36.58 59.16 34.3 C46.56 16.35 27.86 8.47 7 4 C4.33 3.35 1.66 2.68 -1 2 C-0.67 1.34 -0.34 0.68 0 0 Z " fill="#FCFAB2" transform="translate(601,12)"/>
<path d="M0 0 C1.49 0.99 1.49 0.99 3 2 C3.82 2.28 4.64 2.56 5.49 2.86 C8.5 4.23 9.41 5.52 11.12 8.31 C11.63 9.12 12.14 9.92 12.66 10.75 C13.65 12.42 14.64 14.08 15.62 15.75 C16.99 18.12 16.99 18.12 19.06 20.44 C21 23 21 23 21.75 25.81 C23.36 29.91 25.87 32.04 29.02 35.05 C31.6 37.59 33.35 39.77 35 43 C34.75 45.88 34.75 45.88 34 48 C33.34 48 32.68 48 32 48 C31.49 47.07 30.98 46.14 30.46 45.18 C26.48 37.99 22.69 31.24 16.5 25.65 C14.59 23.56 13.52 21.34 12.25 18.81 C8.76 12.23 4.25 7.21 -1 2 C-0.67 1.34 -0.34 0.68 0 0 Z " fill="#FBF9AB" transform="translate(665,51)"/>
<path d="M0 0 C1.92 -0.08 3.83 -0.14 5.75 -0.19 C7.35 -0.24 7.35 -0.24 8.98 -0.29 C12.31 0.03 13.66 0.65 16 3 C16 3.66 16 4.32 16 5 C16.99 5.33 17.98 5.66 19 6 C19.06 7 19.12 8 19.18 9.03 C19.31 10.96 19.31 10.96 19.44 12.94 C19.52 14.23 19.6 15.51 19.68 16.84 C19.65 19.86 19.65 19.86 21 21 C23.03 21.16 25.06 21.32 27.09 21.43 C29 22 29 22 30.25 24.04 C30.5 24.69 30.75 25.33 31 26 C28.35 25.86 25.71 25.71 23.06 25.56 C22.31 25.52 21.55 25.48 20.78 25.44 C15.11 25.11 15.11 25.11 14 24 C13.93 22.6 13.92 21.19 13.94 19.78 C13.95 18.93 13.95 18.08 13.96 17.21 C13.99 15.4 14.01 13.6 14.04 11.79 C14.05 10.94 14.05 10.09 14.06 9.22 C14.07 8.43 14.09 7.65 14.1 6.84 C14.2 4.98 14.2 4.98 13 4 C10.82 3.77 8.63 3.59 6.44 3.44 C4.64 3.31 4.64 3.31 2.81 3.18 C1.88 3.12 0.95 3.06 0 3 C0 2.01 0 1.02 0 0 Z " fill="#FCFAAB" transform="translate(148,30)"/>
<path d="M0 0 C1.32 0 2.64 0 4 0 C3.81 0.57 3.61 1.14 3.41 1.72 C0.35 9.7 0.35 9.7 -1 18 C-0.11 17.98 -0.11 17.98 0.8 17.97 C3.49 17.93 6.18 17.9 8.88 17.88 C9.81 17.86 10.75 17.84 11.71 17.82 C13.06 17.81 13.06 17.81 14.43 17.8 C15.26 17.79 16.08 17.78 16.94 17.77 C19 18 19 18 21 20 C19.68 23.3 18.36 26.6 17 30 C15 29 15 29 13 23 C6.07 22.5 6.07 22.5 -1 22 C-1.33 21.01 -1.66 20.02 -2 19 C-2.66 19 -3.32 19 -4 19 C-5.38 13.5 -4.86 10.78 -2.01 5.89 C-0.97 3.94 -0.45 2.16 0 0 Z " fill="#FCFAAC" transform="translate(729,264)"/>
<path d="M0 0 C0.66 0 1.32 0 2 0 C2 0.66 2 1.32 2 2 C2.61 2.23 3.22 2.46 3.85 2.7 C6.62 4.38 7.14 5.91 8.38 8.88 C10.31 13.1 10.31 13.1 14 15.88 C18.19 18.84 19.1 22.4 20.82 27.12 C21.84 29.99 21.84 29.99 23.6 32.05 C25.36 34.5 25.49 36.26 25.69 39.25 C25.75 40.14 25.82 41.03 25.89 41.95 C25.92 42.63 25.96 43.3 26 44 C25.34 44 24.68 44 24 44 C20.7 36.08 17.4 28.16 14 20 C12.35 20 10.7 20 9 20 C5.37 17.69 4.29 13.3 2.81 9.44 C2.54 8.75 2.27 8.07 1.99 7.36 C0 2.29 0 2.29 0 0 Z " fill="#FCFAAB" transform="translate(363,36)"/>
<path d="M0 0 C1.34 3.27 2.67 6.54 4 9.81 C4.38 10.74 4.76 11.67 5.16 12.63 C5.52 13.52 5.88 14.41 6.25 15.33 C6.59 16.15 6.92 16.98 7.27 17.82 C8 20 8 20 8 23 C5.69 23 3.38 23 1 23 C-0.34 19.71 -1.67 16.42 -3 13.12 C-3.38 12.19 -3.76 11.25 -4.16 10.29 C-4.52 9.39 -4.88 8.49 -5.25 7.57 C-5.59 6.74 -5.92 5.92 -6.27 5.06 C-7 3 -7 3 -7 1 C-4.54 -0.23 -2.72 -0.07 0 0 Z " fill="#968156" transform="translate(879,33)"/>
<path d="M0 0 C1.32 0 2.64 0 4 0 C3.81 0.57 3.61 1.14 3.41 1.72 C0.35 9.7 0.35 9.7 -1 18 C-0.11 17.98 -0.11 17.98 0.8 17.97 C3.49 17.93 6.18 17.9 8.88 17.88 C9.81 17.86 10.75 17.84 11.71 17.82 C13.06 17.81 13.06 17.81 14.43 17.8 C15.26 17.79 16.08 17.78 16.94 17.77 C19 18 19 18 21 20 C20.01 22.31 19.02 24.62 18 27 C17.33 26.36 16.65 25.71 15.96 25.05 C12.34 22.54 10.05 22.41 5.69 22.25 C4.43 22.19 3.18 22.14 1.89 22.08 C0.46 22.04 0.46 22.04 -1 22 C-1.33 21.01 -1.66 20.02 -2 19 C-2.66 19 -3.32 19 -4 19 C-4.47 11.67 -3.1 6.63 0 0 Z " fill="#FCFAAC" transform="translate(212,264)"/>
<path d="M0 0 C1.34 3.27 2.67 6.54 4 9.81 C4.38 10.74 4.76 11.67 5.16 12.63 C5.52 13.52 5.88 14.41 6.25 15.33 C6.59 16.15 6.92 16.98 7.27 17.82 C8 20 8 20 8 23 C5.69 23 3.38 23 1 23 C-0.34 19.71 -1.67 16.42 -3 13.12 C-3.38 12.19 -3.76 11.25 -4.16 10.29 C-4.52 9.39 -4.88 8.49 -5.25 7.57 C-5.59 6.74 -5.92 5.92 -6.27 5.06 C-7 3 -7 3 -7 1 C-4.54 -0.23 -2.72 -0.07 0 0 Z " fill="#968156" transform="translate(362,33)"/>
<path d="M0 0 C0.66 0 1.32 0 2 0 C3.37 1.76 3.37 1.76 4.88 4.12 C5.67 5.35 5.67 5.35 6.49 6.61 C7.7 8.52 8.88 10.45 10.06 12.38 C11.79 15.13 11.79 15.13 14.5 16.25 C18 18.7 18.62 21.57 20.02 25.51 C20.97 28.24 20.97 28.24 23.25 31.12 C25.63 35.03 25.31 37.49 25 42 C24.34 42 23.68 42 23 42 C20.03 34.74 17.06 27.48 14 20 C12.35 20 10.7 20 9 20 C5.37 17.69 4.29 13.3 2.81 9.44 C2.54 8.75 2.27 8.07 1.99 7.36 C0 2.29 0 2.29 0 0 Z " fill="#FCFAAB" transform="translate(880,36)"/>
<path d="M0 0 C1.32 0 2.64 0 4 0 C4.41 1.06 4.82 2.12 5.24 3.21 C5.79 4.6 6.33 5.99 6.88 7.38 C7.14 8.07 7.41 8.77 7.69 9.49 C9.29 13.59 9.29 13.59 12 17 C13.13 17.2 14.25 17.39 15.41 17.59 C19 19 19 19 20.13 20.72 C21.04 22.95 21.77 25.18 22.44 27.5 C22.82 28.68 22.82 28.68 23.21 29.88 C25 35.51 25 35.51 25 38 C23.51 37.5 23.51 37.5 22 37 C20.61 34.2 20.61 34.2 19.19 30.69 C16.83 25.33 15.23 22.83 10 20 C3.68 14.7 1.98 7.76 0 0 Z " fill="#FCFAAC" transform="translate(391,264)"/>
<path d="M0 0 C0.66 0 1.32 0 2 0 C3.34 1.75 3.34 1.75 4.87 4.21 C5.72 5.57 5.72 5.57 6.59 6.96 C7.2 7.94 7.81 8.92 8.44 9.94 C9.71 11.97 10.98 14 12.26 16.03 C12.89 17.04 13.52 18.05 14.18 19.1 C16.68 23.09 19.24 27.05 21.81 31 C22.69 32.35 23.57 33.71 24.45 35.06 C24.87 35.71 25.29 36.36 25.72 37.02 C29.16 42.34 32.58 47.67 36 53 C35.01 53.5 35.01 53.5 34 54 C30.89 51.24 28.74 48.75 26.81 45.06 C24.54 40.72 21.79 36.92 18.88 33 C15.06 27.84 12.53 23.32 11 17 C10.34 17 9.68 17 9 17 C4.6 11.85 1.3 6.67 0 0 Z " fill="#FCFAB3" transform="translate(1134,208)"/>
<path d="M0 0 C1.32 0 2.64 0 4 0 C4.41 1.06 4.82 2.12 5.24 3.21 C5.79 4.6 6.33 5.99 6.88 7.38 C7.14 8.07 7.41 8.77 7.69 9.49 C9.29 13.59 9.29 13.59 12 17 C13.13 17.23 14.27 17.46 15.44 17.69 C19 19 19 19 20.81 22.15 C21.2 23.4 21.6 24.65 22 25.94 C22.41 27.18 22.83 28.43 23.25 29.71 C24 33 24 33 23 36 C20.54 33.2 19.01 31.04 17.75 27.5 C15.7 23.4 13.86 22.25 9.94 20.14 C6.48 18.11 4.75 16.05 3.61 12.21 C3.4 11.49 3.18 10.78 2.96 10.05 C2.64 8.94 2.64 8.94 2.31 7.81 C2.09 7.06 1.86 6.31 1.63 5.54 C1.08 3.7 0.54 1.85 0 0 Z " fill="#FCFAAC" transform="translate(908,264)"/>
<path d="M0 0 C4.6 2.25 6.81 5.24 9.31 9.56 C9.67 10.15 10.03 10.74 10.4 11.35 C13 15.7 13 15.7 13 18 C13.61 18.26 14.22 18.51 14.84 18.78 C17.24 20.14 18.08 21.2 19.51 23.52 C19.94 24.21 20.37 24.91 20.81 25.62 C21.46 26.7 21.46 26.7 22.12 27.81 C22.57 28.52 23.01 29.24 23.46 29.97 C25.66 33.55 27.61 37.02 29 41 C24.82 38.86 22.95 36.8 20.62 32.75 C18.45 29.15 16.4 26.17 13.31 23.31 C10.24 20.45 8.61 17.67 6.91 13.85 C5.96 11.73 5.96 11.73 3.75 9.25 C2 7 2 7 2 3 C1.34 2.67 0.68 2.34 0 2 C0 1.34 0 0.68 0 0 Z " fill="#FCFAAC" transform="translate(1170,262)"/>
<path d="M0 0 C0.66 0 1.32 0 2 0 C3.53 2.22 4.93 4.44 6.31 6.75 C7.21 8.21 8.1 9.67 9 11.13 C9.72 12.3 9.72 12.3 10.45 13.5 C13.2 17.94 16.04 22.31 18.88 26.69 C19.42 27.54 19.97 28.38 20.53 29.26 C22.69 32.59 24.83 35.79 27.34 38.88 C29.41 41.53 29.69 43.69 30 47 C29.67 46.34 29.34 45.68 29 45 C28.37 44.71 27.74 44.41 27.1 44.11 C24.6 42.79 23.86 41.64 22.45 39.22 C22 38.46 21.55 37.71 21.09 36.93 C20.63 36.13 20.17 35.33 19.69 34.5 C18.71 32.85 17.73 31.2 16.74 29.55 C16.27 28.76 15.8 27.97 15.31 27.15 C13.75 24.59 12.07 22.13 10.31 19.69 C7.57 15.87 5 11.98 2.5 8 C1.81 6.91 1.12 5.81 0.41 4.69 C-0.06 3.8 -0.52 2.91 -1 2 C-0.67 1.34 -0.34 0.68 0 0 Z " fill="#806443" transform="translate(1139,118)"/>
<path d="M0 0 C1.14 3.34 0.89 5.07 -0.45 8.31 C-0.96 9.57 -0.96 9.57 -1.48 10.86 C-1.86 11.75 -2.23 12.65 -2.62 13.58 C-3 14.5 -3.38 15.43 -3.77 16.39 C-4.98 19.35 -6.21 22.3 -7.44 25.25 C-8.26 27.25 -9.09 29.26 -9.91 31.27 C-11.93 36.18 -13.96 41.09 -16 46 C-16.66 45.67 -17.32 45.34 -18 45 C-17.06 39.91 -15.46 35.19 -13.75 30.31 C-13.28 28.97 -13.28 28.97 -12.8 27.6 C-10.88 22.2 -8.78 17.03 -6.06 11.98 C-5.02 10.04 -4.15 8.09 -3.31 6.06 C-2 3 -2 3 0 0 Z " fill="#FCFAB3" transform="translate(287,27)"/>
<path d="M0 0 C0 0.66 0 1.32 0 2 C0.66 2.33 1.32 2.66 2 3 C-2.49 13.25 -7.81 17.99 -18.23 22.15 C-21 23 -21 23 -25 23 C-26.35 20.29 -26.07 17.99 -26 15 C-25.5 15.52 -25.01 16.03 -24.5 16.56 C-21.6 18.23 -19.54 18.45 -16.23 17.91 C-11.52 15.99 -7.97 12.03 -5 8 C-4.02 5.43 -4.02 5.43 -4 3 C-4.66 2.34 -5.32 1.68 -6 1 C-3 0 -3 0 0 0 Z " fill="#FBFAB0" transform="translate(610,100)"/>
<path d="M0 0 C2.88 -0.12 2.88 -0.12 6 0 C8.73 2.73 9.43 5.91 10.56 9.5 C12.04 14.34 12.04 14.34 14 19 C10.69 19.25 10.69 19.25 7 19 C4.33 16.2 3.11 13.11 1.81 9.5 C1.47 8.56 1.12 7.62 0.77 6.66 C0 4 0 4 0 0 Z " fill="#978257" transform="translate(912,262)"/>
<path d="M0 0 C3.53 1.18 3.84 1.89 5.71 4.97 C6.21 5.79 6.72 6.61 7.24 7.45 C7.76 8.31 8.28 9.17 8.81 10.06 C12.21 15.64 15.66 21.03 19.64 26.21 C21.5 28.65 23.2 31.18 24.88 33.75 C25.47 34.65 26.07 35.55 26.68 36.48 C28 39 28 39 28 43 C24.26 39.49 21.54 36.02 18.81 31.62 C18.04 30.39 17.26 29.15 16.48 27.91 C16.07 27.28 15.67 26.64 15.26 25.98 C13.12 22.62 10.9 19.31 8.69 16 C8.28 15.39 7.87 14.78 7.45 14.15 C7.06 13.56 6.67 12.98 6.26 12.38 C5.7 11.53 5.7 11.53 5.12 10.66 C4.01 9.01 2.86 7.38 1.71 5.75 C0 3 0 3 0 0 Z " fill="#836846" transform="translate(1084,34)"/>
<path d="M0 0 C2.88 -0.12 2.88 -0.12 6 0 C8.73 2.73 9.43 5.91 10.56 9.5 C12.04 14.34 12.04 14.34 14 19 C10.69 19.25 10.69 19.25 7 19 C4.33 16.2 3.11 13.11 1.81 9.5 C1.47 8.56 1.12 7.62 0.77 6.66 C0 4 0 4 0 0 Z " fill="#978257" transform="translate(395,262)"/>
<path d="M0 0 C1.04 3.15 1 4.8 -0.26 7.85 C-0.56 8.59 -0.86 9.33 -1.17 10.09 C-1.51 10.88 -1.84 11.67 -2.18 12.48 C-2.52 13.3 -2.85 14.12 -3.2 14.96 C-4.27 17.56 -5.35 20.15 -6.44 22.75 C-7.17 24.51 -7.89 26.28 -8.62 28.04 C-10.4 32.37 -12.2 36.68 -14 41 C-14.66 40.67 -15.32 40.34 -16 40 C-14.93 34 -13.19 28.45 -11.06 22.75 C-10.81 22.06 -10.56 21.38 -10.3 20.67 C-8.84 16.86 -7.14 13.47 -5 10 C-4.17 7.94 -3.46 5.87 -2.75 3.77 C-2 2 -2 2 0 0 Z " fill="#FCFAB3" transform="translate(804,27)"/>
<path d="M0 0 C5.51 3.68 10.75 9.89 12.7 16.31 C12.8 16.87 12.9 17.43 13 18 C12.34 18 11.68 18 11 18 C11 17.34 11 16.68 11 16 C10.05 15.71 9.1 15.42 8.12 15.12 C4.93 13.98 3.6 13.27 2.15 10.2 C1.89 9.51 1.64 8.83 1.38 8.12 C1.11 7.45 0.85 6.77 0.59 6.07 C0 4 0 4 0 0 Z " fill="#988357" transform="translate(666,55)"/>
<path d="M0 0 C3.72 1.32 6.4 2.92 9.44 5.44 C12.84 8.17 16 10.26 20 12 C19.01 12.5 19.01 12.5 18 13 C16.87 15.02 16.87 15.02 16 17 C15.32 15.98 15.32 15.98 14.62 14.94 C11.53 11.48 8.15 9.3 4.24 6.84 C1.69 4.75 0.95 3.12 0 0 Z " fill="#FBF9B0" transform="translate(11,244)"/>
<path d="M0 0 C0.99 0.5 0.99 0.5 2 1 C2 1.66 2 2.32 2 3 C2.92 2.98 3.83 2.95 4.77 2.93 C5.96 2.91 7.15 2.89 8.38 2.88 C9.56 2.85 10.74 2.83 11.96 2.8 C15 3 15 3 17 5 C16.62 7.12 16.62 7.12 16 9 C13.89 8.77 11.79 8.52 9.69 8.25 C8.52 8.11 7.34 7.97 6.14 7.83 C3 7 3 7 1.08 5.11 C0 3 0 3 0 0 Z " fill="#FCFAAC" transform="translate(1028,279)"/>
<path d="M0 0 C0.99 0.5 0.99 0.5 2 1 C2 1.66 2 2.32 2 3 C2.92 2.98 3.83 2.95 4.77 2.93 C5.96 2.91 7.15 2.89 8.38 2.88 C9.56 2.85 10.74 2.83 11.96 2.8 C15 3 15 3 17 5 C16.62 7.12 16.62 7.12 16 9 C13.89 8.77 11.79 8.52 9.69 8.25 C8.52 8.11 7.34 7.97 6.14 7.83 C3 7 3 7 1.08 5.11 C0 3 0 3 0 0 Z " fill="#FCFAAC" transform="translate(511,279)"/>
<path d="M0 0 C1.32 0 2.64 0 4 0 C3.81 0.57 3.61 1.14 3.41 1.72 C1.82 6.45 0.35 11.19 -1 16 C-1.33 16.99 -1.66 17.98 -2 19 C-2.66 19 -3.32 19 -4 19 C-5.38 13.5 -4.86 10.78 -2.01 5.89 C-0.97 3.94 -0.45 2.16 0 0 Z " fill="#FBF8AB" transform="translate(729,264)"/>
<path d="M0 0 C0.99 0.33 1.98 0.66 3 1 C3.99 3.18 3.99 3.18 4.88 5.88 C6.39 10.08 6.39 10.08 9.75 13 C10.86 13.5 10.86 13.5 12 14 C12 14.66 12 15.32 12 16 C10.02 16.33 8.04 16.66 6 17 C0 5.26 0 5.26 0 0 Z " fill="#FCFAB2" transform="translate(349,17)"/>
<path d="M0 0 C1.32 0 2.64 0 4 0 C3.81 0.57 3.61 1.14 3.41 1.72 C1.82 6.45 0.35 11.19 -1 16 C-1.33 16.99 -1.66 17.98 -2 19 C-2.66 19 -3.32 19 -4 19 C-4.47 11.67 -3.1 6.63 0 0 Z " fill="#FAF8AB" transform="translate(212,264)"/>
<path d="M0 0 C3.61 1.2 3.97 2.1 5.92 5.25 C6.45 6.11 6.98 6.96 7.53 7.84 C8.08 8.74 8.62 9.64 9.19 10.56 C9.75 11.46 10.31 12.37 10.88 13.29 C12.26 15.53 13.63 17.76 15 20 C14.01 20.33 13.02 20.66 12 21 C9.99 18.07 7.99 15.13 6 12.19 C5.43 11.35 4.86 10.52 4.27 9.66 C3.72 8.86 3.18 8.06 2.62 7.23 C2.12 6.49 1.62 5.75 1.1 4.99 C0 3 0 3 0 0 Z " fill="#958056" transform="translate(1084,34)"/>
<path d="M0 0 C2.79 3.4 5.35 6.87 7.75 10.56 C8.36 11.49 8.98 12.42 9.61 13.38 C11 16 11 16 11 20 C5.95 15.56 1.91 10.06 -1 4 C-0.7 1.66 -0.7 1.66 0 0 Z " fill="#846946" transform="translate(1128,99)"/>
<path d="M0 0 C3.97 5.1 6.33 9.44 7.69 15.81 C8.06 17.55 8.06 17.55 8.45 19.33 C8.63 20.21 8.81 21.09 9 22 C8.34 22 7.68 22 7 22 C5.63 18.9 4.28 15.8 2.94 12.69 C2.55 11.81 2.16 10.93 1.76 10.02 C1.39 9.17 1.03 8.32 0.65 7.45 C0.31 6.67 -0.03 5.89 -0.38 5.08 C-1 3 -1 3 0 0 Z " fill="#FCFAAB" transform="translate(431,184)"/>
<path d="M0 0 C0.99 0.33 1.98 0.66 3 1 C3.73 3.07 3.73 3.07 4.19 5.56 C4.35 6.39 4.5 7.22 4.67 8.07 C4.78 8.7 4.89 9.34 5 10 C2.69 10 0.38 10 -2 10 C-2.69 8.38 -2.69 8.38 -3 6 C-1.56 2.75 -1.56 2.75 0 0 Z " fill="#FCFAB0" transform="translate(860,153)"/>
<path d="M0 0 C0.99 0.33 1.98 0.66 3 1 C3.73 3.07 3.73 3.07 4.19 5.56 C4.35 6.39 4.5 7.22 4.67 8.07 C4.78 8.7 4.89 9.34 5 10 C2.69 10 0.38 10 -2 10 C-2.69 8.38 -2.69 8.38 -3 6 C-1.56 2.75 -1.56 2.75 0 0 Z " fill="#FCFAB0" transform="translate(343,153)"/>
<path d="M0 0 C1.11 3.28 0.93 4.95 -0.43 8.11 C-0.75 8.86 -1.07 9.62 -1.4 10.39 C-1.74 11.17 -2.08 11.95 -2.44 12.75 C-2.78 13.54 -3.11 14.34 -3.46 15.15 C-4.3 17.11 -5.15 19.05 -6 21 C-6.66 19.68 -7.32 18.36 -8 17 C-7.01 15.51 -7.01 15.51 -6 14 C-5.3 12.35 -4.64 10.68 -4 9 C-2.8 5.92 -1.52 2.94 0 0 Z " fill="#FCFBB7" transform="translate(730,210)"/>
<path d="M0 0 C3 1 3 1 4.35 3.55 C4.77 4.6 5.19 5.66 5.62 6.75 C6.05 7.8 6.48 8.84 6.91 9.92 C7.87 12.63 8.53 15.18 9 18 C8.34 18 7.68 18 7 18 C5.83 15.19 4.66 12.38 3.5 9.56 C3 8.36 3 8.36 2.49 7.13 C2.01 5.99 2.01 5.99 1.53 4.82 C1.24 4.11 0.94 3.4 0.64 2.67 C0 1 0 1 0 0 Z " fill="#FCFAAB" transform="translate(948,188)"/>
<path d="M0 0 C0.33 0.66 0.66 1.32 1 2 C-0.91 3.01 -2.83 4.01 -4.75 5 C-5.82 5.56 -6.88 6.11 -7.98 6.69 C-11 8 -11 8 -15 8 C-15 7.34 -15 6.68 -15 6 C-10.05 4.02 -5.1 2.04 0 0 Z " fill="#FCFAAA" transform="translate(150,297)"/>
<path d="M0 0 C3.96 4.62 6 7.85 6 14 C5.34 14 4.68 14 4 14 C2.35 9.71 0.7 5.42 -1 1 C-0.67 0.67 -0.34 0.34 0 0 Z " fill="#FCFAAB" transform="translate(472,286)"/>
<path d="M0 0 C2.12 2.58 3.68 4.62 4 8 C3.06 10.25 3.06 10.25 2 12 C1.34 12 0.68 12 0 12 C-1.29 3.43 -1.29 3.43 0 0 Z " fill="#FCFAAB" transform="translate(703,114)"/>
<path d="M0 0 C0.66 0 1.32 0 2 0 C3.32 1.61 3.32 1.61 4.69 3.75 C5.15 4.45 5.6 5.14 6.07 5.86 C7.17 8.39 6.94 9.46 6 12 C5.02 10.73 4.04 9.46 3.06 8.19 C2.52 7.48 1.97 6.77 1.41 6.04 C0 4 0 4 -1 1 C-0.67 0.67 -0.34 0.34 0 0 Z " fill="#7E6241" transform="translate(1121,90)"/>
<path d="M0 0 C0.99 0.33 1.98 0.66 3 1 C1.52 5.68 1.52 5.68 -1.12 7.31 C-2.05 7.65 -2.05 7.65 -3 8 C-2.45 4.63 -1.95 2.92 0 0 Z " fill="#FCFAAB" transform="translate(167,278)"/>
</svg>
