<?xml version="1.0" encoding="UTF-8"?>
<!-- Generator: visioncortex VTracer 0.6.3 -->
<svg version="1.1" xmlns="http://www.w3.org/2000/svg" width="1280" height="310">
<path d="M0 0 C422.4 0 844.8 0 1280 0 C1280 102.3 1280 204.6 1280 310 C857.6 310 435.2 310 0 310 C0 207.7 0 105.4 0 0 Z " fill="#300201" transform="translate(0,0)"/>
<path d="M0 0 C7.39 -0.03 14.77 -0.04 22.16 -0.05 C24.68 -0.06 27.19 -0.07 29.71 -0.08 C33.31 -0.09 36.92 -0.09 40.53 -0.1 C42.23 -0.11 42.23 -0.11 43.96 -0.11 C45.52 -0.11 45.52 -0.11 47.11 -0.11 C48.03 -0.12 48.96 -0.12 49.91 -0.12 C52 0 52 0 53 1 C53.12 3.6 53.18 6.18 53.19 8.78 C53.2 10 53.2 10 53.21 11.25 C53.23 13.02 53.25 14.8 53.26 16.57 C53.28 19.38 53.31 22.18 53.34 24.99 C53.4 30.95 53.45 36.91 53.5 42.88 C53.56 49.77 53.62 56.67 53.69 63.57 C53.72 66.34 53.74 69.11 53.76 71.88 C53.78 73.57 53.79 75.27 53.81 76.96 C53.81 77.74 53.82 78.51 53.82 79.31 C53.86 82.47 53.99 84.98 55 88 C55.56 87.14 56.11 86.27 56.68 85.38 C58.92 82.03 61.44 78.98 64.06 75.94 C65.04 74.79 66.02 73.64 67 72.5 C67.5 71.92 68 71.34 68.51 70.74 C70.85 68 73.18 65.25 75.5 62.5 C76.41 61.42 77.32 60.35 78.23 59.27 C80.12 57.04 82.01 54.81 83.89 52.57 C84.37 52.01 84.84 51.45 85.33 50.87 C86.27 49.76 87.2 48.65 88.13 47.55 C91.29 43.81 94.52 40.16 97.86 36.59 C99.29 34.92 99.29 34.92 99 32 C99.82 31.71 99.82 31.71 100.66 31.41 C104.58 29.05 107.08 25.2 109.85 21.61 C112.81 17.93 114.43 16.76 119 16 C121.69 13.55 123.97 11.04 126.17 8.15 C129.43 3.95 132.06 0.58 137.26 -0.98 C141.03 -1.3 144.65 -1.29 148.43 -1.14 C149.8 -1.13 151.17 -1.12 152.54 -1.11 C156.11 -1.08 159.68 -0.98 163.25 -0.87 C166.18 -0.79 169.1 -0.76 172.02 -0.73 C178.06 -0.67 184.09 -0.58 190.13 -0.4 C191.19 -0.37 192.26 -0.34 193.35 -0.31 C196 0 196 0 199 2 C198.04 2.93 198.04 2.93 197.06 3.88 C190.44 10.52 184.41 17.67 178.51 24.96 C175.06 29.14 171.5 33.22 167.94 37.31 C163.95 41.89 160.01 46.51 156.1 51.15 C152.72 55.16 149.3 59.15 145.88 63.12 C142.38 67.19 138.94 71.28 135.56 75.44 C132.02 79.8 128.37 84.07 124.69 88.31 C124.14 88.94 123.6 89.57 123.04 90.22 C120.21 93.48 117.36 96.72 114.46 99.93 C113.9 100.56 113.34 101.19 112.76 101.84 C111.69 103.05 110.61 104.25 109.52 105.43 C106.85 108.34 106.85 108.34 105.86 112.04 C107.56 114.97 109.79 117.32 112.12 119.75 C113.14 120.83 114.15 121.91 115.17 122.99 C115.66 123.51 116.15 124.03 116.66 124.57 C120.48 128.65 124.09 132.92 127.71 137.18 C133.53 144.02 139.45 150.73 145.54 157.33 C148.17 160.18 150.72 163.08 153.26 166.01 C155.32 168.36 157.41 170.68 159.5 173 C164.3 178.32 169.04 183.69 173.68 189.15 C179.74 196.28 185.93 203.24 192.3 210.09 C196.4 214.51 200.43 218.97 204.12 223.75 C206.19 226.22 208.43 228.07 211 230 C211.11 229.32 211.22 228.64 211.33 227.94 C212.13 224.43 213.41 221.21 214.78 217.89 C215.07 217.2 215.35 216.5 215.64 215.78 C216.59 213.45 217.55 211.13 218.5 208.81 C219.18 207.15 219.85 205.5 220.53 203.84 C221.96 200.34 223.39 196.83 224.82 193.33 C227.97 185.63 231.09 177.92 234.21 170.21 C235.26 167.6 236.32 164.99 237.37 162.38 C241.18 152.98 244.98 143.59 248.77 134.19 C249.17 133.2 249.57 132.21 249.99 131.19 C251.6 127.2 253.22 123.2 254.83 119.2 C259.92 106.61 265.01 94.03 270.12 81.45 C280.7 55.48 280.7 55.48 290.94 29.38 C295.6 17.2 295.6 17.2 298 16 C301.67 15.86 305.33 15.96 309 16 C311.31 10.72 313.62 5.44 316 0 C322.92 -0.1 329.85 -0.17 336.77 -0.22 C339.13 -0.24 341.48 -0.27 343.84 -0.3 C347.22 -0.35 350.6 -0.37 353.99 -0.39 C355.04 -0.41 356.1 -0.43 357.19 -0.45 C358.17 -0.45 359.15 -0.45 360.16 -0.45 C361.03 -0.46 361.89 -0.47 362.78 -0.48 C365 -0 365 -0 366.73 1.87 C368.18 4.3 369.2 6.68 370.21 9.32 C370.62 10.39 371.04 11.47 371.46 12.58 C371.91 13.75 372.35 14.92 372.81 16.12 C373.8 18.69 374.79 21.25 375.79 23.8 C376.05 24.47 376.31 25.14 376.58 25.83 C379.51 33.35 382.6 40.8 385.69 48.25 C390.94 60.93 396.1 73.64 401.19 86.38 C401.52 87.22 401.86 88.06 402.21 88.93 C405.59 97.4 408.96 105.88 412.28 114.37 C412.53 115.01 412.78 115.66 413.04 116.32 C414.19 119.25 415.33 122.18 416.46 125.11 C418.35 129.96 420.3 134.73 422.49 139.45 C424.76 144.37 426.72 149.37 428.63 154.43 C430.14 158.35 431.7 162.24 433.28 166.13 C433.57 166.85 433.86 167.57 434.16 168.3 C434.77 169.8 435.38 171.3 435.99 172.8 C437.63 176.84 439.27 180.87 440.91 184.91 C441.25 185.74 441.58 186.57 441.93 187.42 C445.28 195.68 448.62 203.93 451.95 212.19 C452.56 213.72 453.18 215.25 453.8 216.78 C454.66 218.9 455.51 221.03 456.37 223.16 C456.85 224.36 457.34 225.57 457.84 226.81 C459 230 459 230 460 235 C451.75 235 443.5 235 435 235 C435.8 236.9 436.61 238.79 437.44 240.75 C438.88 244.16 440.15 247.4 441 251 C433.75 251.07 426.5 251.12 419.25 251.16 C415.88 251.17 412.52 251.19 409.15 251.23 C405.28 251.26 401.41 251.28 397.54 251.29 C395.73 251.32 395.73 251.32 393.88 251.34 C392.2 251.34 392.2 251.34 390.48 251.34 C389 251.35 389 251.35 387.49 251.36 C385 251 385 251 383.26 249.73 C381.88 247.84 381.09 246.15 380.3 243.94 C380 243.13 379.7 242.32 379.4 241.49 C378.93 240.18 378.93 240.18 378.46 238.84 C378.13 237.95 377.81 237.05 377.47 236.12 C376.43 233.25 375.4 230.38 374.38 227.5 C373.68 225.56 372.97 223.63 372.27 221.69 C367.47 208.41 367.47 208.41 366 204 C341.25 204 316.5 204 291 204 C288.03 211.92 285.06 219.84 282 228 C280.51 231.47 280.51 231.47 279 235 C274.38 235.33 269.76 235.66 265 236 C264.57 237.55 264.13 239.09 263.69 240.69 C262.6 244.55 261.44 247.78 259 251 C256.41 251.72 256.41 251.72 253.18 251.84 C251.93 251.89 250.68 251.93 249.39 251.98 C240.63 252.07 231.88 251.82 223.12 251.56 C221.17 251.51 219.21 251.46 217.25 251.4 C212.5 251.28 207.75 251.14 203 251 C202.67 250.34 202.34 249.68 202 249 C202.73 246.93 203.56 244.89 204.44 242.88 C205.15 241.23 205.15 241.23 205.87 239.55 C206.24 238.71 206.62 237.87 207 237 C205.25 235.25 202.81 235.77 200.43 235.68 C199.31 235.64 198.18 235.6 197.03 235.56 C195.84 235.52 194.66 235.48 193.44 235.44 C192.25 235.39 191.06 235.35 189.84 235.31 C186.89 235.2 183.95 235.1 181 235 C181 235.66 181 236.32 181 237 C181.99 237.33 182.98 237.66 184 238 C185.35 239.65 186.69 241.32 188 243 C188.99 243.66 189.98 244.32 191 245 C191 245.99 191 246.98 191 248 C191.66 248.33 192.32 248.66 193 249 C193.33 249.66 193.66 250.32 194 251 C184.67 251.26 175.35 251.45 166.02 251.57 C161.68 251.63 157.35 251.7 153.02 251.83 C148.83 251.95 144.64 252.02 140.45 252.04 C138.86 252.06 137.27 252.1 135.68 252.16 C128.26 252.43 121.86 252.57 116.13 247.26 C113.93 244.95 111.95 242.52 110 240 C109.2 239.03 108.39 238.06 107.56 237.06 C106.1 235.3 104.67 233.53 103.25 231.75 C100.92 228.9 98.49 226.2 96 223.5 C92.74 219.96 89.63 216.37 86.62 212.62 C83.24 208.42 79.69 204.44 76 200.5 C71.54 195.73 67.3 190.84 63.23 185.73 C61.32 183.39 59.36 181.1 57.36 178.83 C56.73 178.11 56.1 177.39 55.45 176.65 C54.97 176.11 54.49 175.56 54 175 C54 175.74 54 176.47 54.01 177.23 C54.03 184.16 54.04 191.1 54.05 198.03 C54.06 201.59 54.06 205.15 54.08 208.72 C54.09 212.81 54.09 216.9 54.1 221 C54.1 222.28 54.11 223.57 54.11 224.89 C54.11 226.07 54.11 227.25 54.11 228.47 C54.12 229.52 54.12 230.56 54.12 231.64 C54 234 54 234 53 235 C51.59 235.16 50.17 235.25 48.75 235.32 C47.47 235.38 47.47 235.38 46.16 235.44 C45.26 235.48 44.36 235.52 43.44 235.56 C42.08 235.63 42.08 235.63 40.71 235.69 C38.47 235.8 36.24 235.9 34 236 C34.33 236.66 34.66 237.32 35 238 C34.91 240.21 34.76 242.42 34.56 244.62 C34.46 245.81 34.36 247 34.25 248.23 C34.17 249.14 34.09 250.06 34 251 C26.47 251.03 18.94 251.04 11.41 251.05 C8.85 251.06 6.28 251.07 3.72 251.08 C0.04 251.09 -3.63 251.09 -7.31 251.1 C-8.46 251.1 -9.62 251.11 -10.81 251.11 C-12.4 251.11 -12.4 251.11 -14.02 251.11 C-14.96 251.12 -15.9 251.12 -16.87 251.12 C-19 251 -19 251 -20 250 C-20.11 247.22 -20.16 244.47 -20.16 241.69 C-20.17 240.81 -20.18 239.93 -20.18 239.02 C-20.2 236.04 -20.21 233.06 -20.22 230.08 C-20.23 227.95 -20.24 225.83 -20.26 223.7 C-20.29 217.9 -20.31 212.1 -20.34 206.31 C-20.36 201.47 -20.38 196.63 -20.4 191.79 C-20.46 180.36 -20.51 168.93 -20.56 157.5 C-20.61 145.72 -20.66 133.95 -20.72 122.17 C-20.77 112.06 -20.82 101.94 -20.87 91.83 C-20.89 85.79 -20.92 79.75 -20.95 73.72 C-20.98 68.03 -21 62.34 -21.02 56.65 C-21.03 54.57 -21.04 52.49 -21.06 50.4 C-21.22 20.83 -21.22 20.83 -18 16 C-15.05 15.78 -12.32 15.72 -9.38 15.81 C-8.57 15.83 -7.77 15.84 -6.95 15.85 C-4.96 15.89 -2.98 15.94 -1 16 C-1.01 15.01 -1.02 14.03 -1.04 13.01 C-1.04 11.73 -1.05 10.45 -1.06 9.12 C-1.07 7.85 -1.09 6.57 -1.1 5.26 C-1 2 -1 2 0 0 Z " fill="#FAFCFC" transform="translate(800,16)"/>
<path d="M0 0 C1.08 0.29 2.15 0.57 3.26 0.87 C31.76 9.43 55.04 32.78 69.42 58.14 C85.01 87.14 87.48 123.44 78.97 155 C70.05 183.89 49.07 211.5 22.53 226.39 C20.71 227.3 18.86 228.16 17 229 C17.66 229.66 18.32 230.32 19 231 C-2.25 248.38 -26.41 255.43 -53.75 255.31 C-55.07 255.31 -56.39 255.3 -57.74 255.3 C-67.52 255.18 -76.53 254.45 -86 252 C-86.65 251.84 -87.3 251.68 -87.97 251.51 C-117.24 244.1 -142.22 223.66 -157.79 198.1 C-174.2 169.66 -178.27 133.92 -170.25 102.19 C-165.21 85.04 -157.92 68.48 -146 55 C-145.27 54.15 -144.53 53.29 -143.78 52.41 C-133.33 40.48 -133.33 40.48 -126.55 36.59 C-123.73 34.83 -121.77 32.86 -119.5 30.44 C-88.07 -1.51 -42.69 -11.64 0 0 Z " fill="#FAFCFC" transform="translate(213,16)"/>
<path d="M0 0 C0.87 0 1.74 0 2.63 0.01 C3.61 0.01 4.59 0.01 5.6 0.01 C6.67 0.01 7.74 0.02 8.84 0.02 C10.47 0.02 10.47 0.02 12.13 0.03 C15.61 0.03 19.1 0.05 22.58 0.06 C24.94 0.06 27.29 0.07 29.65 0.07 C35.44 0.08 41.23 0.1 47.02 0.12 C50.24 6.38 53.18 12.66 55.76 19.21 C56.09 20.05 56.42 20.88 56.77 21.73 C57.81 24.36 58.85 26.99 59.89 29.62 C60.58 31.35 61.27 33.08 61.96 34.81 C65.59 43.94 69.19 53.08 72.71 62.25 C74.58 67.09 76.65 71.8 78.84 76.5 C81.72 82.9 84.07 89.53 86.49 96.12 C86.87 97.15 86.87 97.15 87.26 98.2 C87.75 99.5 88.23 100.81 88.7 102.12 C90.09 105.89 91.65 109.54 93.34 113.19 C95.9 118.79 98.23 124.46 100.5 130.18 C100.9 131.2 101.31 132.23 101.73 133.28 C102.59 135.44 103.46 137.61 104.32 139.78 C106.55 145.41 108.8 151.04 111.05 156.67 C111.48 157.76 111.92 158.86 112.37 159.99 C117.19 172.06 122.09 184.1 127.02 196.12 C130.02 203.45 133.03 210.78 136.02 218.12 C136.34 218.9 136.66 219.68 136.99 220.48 C137.86 222.61 138.72 224.74 139.58 226.87 C140.06 228.04 140.53 229.21 141.02 230.42 C142.02 233.12 142.02 233.12 142.02 235.12 C129.64 235.62 129.64 235.62 117.02 236.12 C119 240.58 119 240.58 121.02 245.12 C121.35 246.44 121.68 247.76 122.02 249.12 C122.68 249.78 123.34 250.44 124.02 251.12 C116.51 251.24 109 251.32 101.49 251.38 C98 251.41 94.51 251.44 91.03 251.5 C87.02 251.56 83.01 251.59 79 251.61 C77.75 251.63 76.49 251.66 75.2 251.69 C74.04 251.69 72.88 251.69 71.68 251.69 C70.66 251.7 69.64 251.71 68.58 251.72 C66.02 251.12 66.02 251.12 64.27 248.85 C63.21 246.54 62.19 244.28 61.32 241.9 C61.02 241.1 60.72 240.3 60.42 239.48 C60.11 238.63 59.8 237.79 59.48 236.92 C59.15 236.04 58.83 235.16 58.49 234.26 C57.45 231.46 56.42 228.67 55.39 225.87 C54.36 223.06 53.32 220.25 52.28 217.44 C51.63 215.7 50.98 213.95 50.34 212.2 C49.17 208.38 49.17 208.38 47.02 205.12 C44.72 205 42.42 204.94 40.11 204.91 C39.39 204.91 38.67 204.9 37.93 204.88 C35.53 204.85 33.13 204.83 30.73 204.8 C29.08 204.78 27.42 204.76 25.76 204.74 C21.39 204.69 17.02 204.64 12.65 204.59 C7.41 204.53 2.17 204.46 -3.07 204.4 C-11.04 204.3 -19.01 204.21 -26.98 204.12 C-30.94 214.35 -34.9 224.58 -38.98 235.12 C-43.93 235.45 -48.88 235.78 -53.98 236.12 C-54.31 238.43 -54.64 240.74 -54.98 243.12 C-56.3 245.76 -57.62 248.4 -58.98 251.12 C-77.46 251.12 -95.94 251.12 -114.98 251.12 C-115.98 249.12 -115.98 249.12 -115.08 246.4 C-114.59 245.22 -114.11 244.05 -113.61 242.84 C-113.33 242.17 -113.06 241.51 -112.78 240.83 C-112.18 239.36 -111.57 237.89 -110.96 236.42 C-109.6 233.15 -108.26 229.87 -106.92 226.59 C-106.17 224.77 -105.42 222.95 -104.67 221.13 C-100.09 209.98 -95.59 198.79 -91.09 187.61 C-88.61 181.46 -86.13 175.31 -83.64 169.16 C-83.16 167.95 -82.68 166.75 -82.18 165.52 C-77.78 154.63 -73.39 143.75 -68.98 132.87 C-68.47 131.6 -68.47 131.6 -67.94 130.3 C-64.35 121.44 -60.76 112.58 -57.16 103.72 C-50.44 87.16 -43.75 70.59 -37.11 54 C-36.58 52.67 -36.58 52.67 -36.03 51.32 C-35.04 48.84 -34.04 46.35 -33.05 43.86 C-32.61 42.75 -32.61 42.75 -32.15 41.61 C-31.03 38.8 -29.94 36 -28.98 33.12 C-29.64 32.79 -30.3 32.46 -30.98 32.12 C-29.99 31.79 -29 31.46 -27.98 31.12 C-26.83 28.79 -25.85 26.54 -24.92 24.12 C-22.23 17.25 -22.23 17.25 -19.98 16.12 C-17.94 16.05 -15.9 16.04 -13.86 16.06 C-12.76 16.07 -11.66 16.08 -10.54 16.09 C-9.27 16.1 -9.27 16.1 -7.98 16.12 C-7.79 15.05 -7.79 15.05 -7.61 13.95 C-6.98 11.1 -6.08 8.57 -4.98 5.87 C-4.63 5 -4.28 4.13 -3.92 3.23 C-2.55 0.15 -2.55 0.15 0 0 Z " fill="#FAFCFC" transform="translate(626.9804840087891,15.879745483398438)"/>
<path d="M0 0 C1.79 1.54 1.79 1.54 3.79 4.54 C3.52 9.41 0.93 13.64 -1.24 17.91 C-1.64 18.7 -2.04 19.49 -2.45 20.31 C-3.72 22.83 -4.99 25.34 -6.27 27.86 C-7.13 29.57 -8 31.28 -8.86 32.99 C-10.97 37.18 -13.09 41.36 -15.21 45.54 C-19.54 45.54 -21.48 44.58 -25.21 42.54 C-25.46 43.39 -25.72 44.24 -25.99 45.12 C-27.28 48.74 -28.88 51.97 -30.71 55.36 C-31.32 56.5 -31.92 57.64 -32.55 58.81 C-34.21 61.54 -34.21 61.54 -36.21 62.54 C-38.26 61.6 -40.28 60.56 -42.27 59.48 C-57.08 51.77 -73.28 46.18 -90.21 47.54 C-92.04 49.38 -91.44 51.89 -91.54 54.34 C-90.88 58.71 -88.84 61.05 -85.41 63.72 C-84.29 64.45 -83.16 65.16 -82.02 65.86 C-81.4 66.24 -80.78 66.63 -80.14 67.03 C-71.09 72.57 -61.56 77.04 -51.9 81.39 C-27.85 92.25 -1.91 106.05 8.79 131.96 C14.68 148.82 12.56 168.62 5.23 184.73 C-3.82 202.37 -17.58 214.02 -36.27 220.33 C-49.54 224.54 -62.23 225.78 -76.08 225.79 C-76.77 225.79 -77.46 225.79 -78.17 225.8 C-89.1 225.78 -99.57 225.18 -110.21 222.54 C-111.26 222.29 -111.26 222.29 -112.33 222.04 C-122.75 219.51 -132.03 215.59 -141.44 210.5 C-143.04 209.64 -144.65 208.8 -146.27 207.98 C-153.05 204.44 -159.13 200.18 -165.21 195.54 C-164.56 192.19 -163.29 189.77 -161.48 186.88 C-160.95 186.01 -160.41 185.13 -159.85 184.23 C-158.71 182.39 -157.57 180.56 -156.42 178.72 C-155.89 177.85 -155.35 176.97 -154.8 176.07 C-154.3 175.27 -153.8 174.48 -153.29 173.66 C-151.98 171.49 -151.98 171.49 -152.21 168.54 C-151.55 168.87 -150.89 169.2 -150.21 169.54 C-149.8 168.71 -149.8 168.71 -149.39 167.85 C-148.12 165.37 -146.72 162.99 -145.27 160.61 C-144.77 159.77 -144.26 158.94 -143.74 158.08 C-142.98 156.82 -142.98 156.82 -142.21 155.54 C-141.21 153.88 -140.21 152.21 -139.21 150.54 C-134.82 152.05 -131.33 154.45 -127.58 157.11 C-121.75 161.11 -115.78 164.45 -109.39 167.48 C-108.63 167.85 -107.87 168.21 -107.08 168.59 C-97.29 173.1 -88.89 175 -78.08 174.73 C-77.03 174.72 -75.98 174.7 -74.89 174.69 C-72.33 174.65 -69.77 174.61 -67.21 174.54 C-67.15 172.97 -67.11 171.39 -67.08 169.81 C-67.04 168.49 -67.04 168.49 -67.01 167.15 C-67.45 161.35 -71.11 157.44 -75.23 153.66 C-79.66 149.96 -84.58 147.45 -89.71 144.86 C-90.71 144.34 -91.71 143.82 -92.74 143.29 C-98.82 140.18 -104.97 137.24 -111.18 134.39 C-134.37 123.66 -153.01 110.25 -162.26 85.59 C-167.53 68.62 -163.15 51.45 -155.38 36.12 C-154 33.56 -154 33.56 -154.21 30.54 C-153.55 30.87 -152.89 31.2 -152.21 31.54 C-151.98 30.99 -151.75 30.44 -151.52 29.87 C-149.83 26.88 -147.7 24.77 -145.27 22.36 C-144.39 21.48 -143.52 20.59 -142.62 19.69 C-140.21 17.54 -140.21 17.54 -137.21 16.54 C-136.88 15.88 -136.55 15.22 -136.21 14.54 C-135.59 14.24 -134.97 13.94 -134.33 13.64 C-131.92 12.4 -130.92 11.17 -129.27 9.04 C-98.78 -26.7 -36.85 -25.31 0 0 Z " fill="#FAFCFC" transform="translate(496.20703125,29.45703125)"/>
<path d="M0 0 C14.14 10.73 21.78 30.74 24.62 47.56 C24.9 49.98 25.07 52.37 25.16 54.8 C25.22 56.17 25.22 56.17 25.28 57.55 C25.64 73.38 23.02 94.66 13.16 107.8 C9.04 111 5.34 112.08 0.16 111.8 C-0.5 112.13 -1.15 112.45 -1.83 112.78 C-6.33 114.31 -10.69 114.14 -15.41 114.12 C-16.39 114.11 -17.38 114.11 -18.4 114.1 C-35.45 113.82 -48.7 107.47 -61 95.75 C-74.84 81.23 -77.32 60 -77.06 40.77 C-76.5 22.97 -70.6 5.36 -58.84 -8.2 C-58.3 -8 -57.77 -7.81 -57.21 -7.61 C-54.11 -7.07 -52 -7.78 -48.97 -8.63 C-32 -12.72 -14.63 -9.48 0 0 Z " fill="#300201" transform="translate(193.84375,89.1953125)"/>
<path d="M0 0 C-1.48 3.24 -3.37 6.15 -5.33 9.12 C-23.94 37.78 -31.38 73.32 -24.31 107.06 C-23.62 110.07 -22.84 113.03 -22 116 C-21.83 116.65 -21.66 117.3 -21.48 117.97 C-17.44 133.09 -9.74 148.57 1 160 C1.75 160.83 1.75 160.83 2.52 161.67 C21.98 182.95 47.77 197.93 77 200 C97.99 200.81 116.95 199.9 136.85 192.81 C138.87 192.11 140.93 191.54 143 191 C143.99 191.66 144.98 192.32 146 193 C124.75 210.38 100.59 217.43 73.25 217.31 C71.93 217.31 70.61 217.3 69.26 217.3 C59.48 217.18 50.47 216.45 41 214 C40.35 213.84 39.7 213.68 39.03 213.51 C9.76 206.1 -15.22 185.66 -30.79 160.1 C-47.2 131.66 -51.27 95.92 -43.25 64.19 C-38.21 47.04 -30.92 30.48 -19 17 C-18.27 16.15 -17.53 15.29 -16.78 14.41 C-4.16 0 -4.16 0 0 0 Z " fill="#B4A26E" transform="translate(86,54)"/>
<path d="M0 0 C0.99 0.33 1.98 0.66 3 1 C2.6 1.39 2.2 1.78 1.79 2.19 C-16.72 21.66 -24.74 50.91 -26 77 C-26.04 77.81 -26.09 78.61 -26.13 79.45 C-26.98 112.08 -15.24 141.56 6 166 C6.53 166.61 7.05 167.22 7.6 167.86 C21.52 182.85 41.34 193.13 61 198 C62.23 198.32 63.46 198.64 64.73 198.96 C90.65 204.6 122.45 203 146.27 190.25 C149 189 149 189 151.38 189.31 C152.18 189.65 152.18 189.65 153 190 C122.6 212.64 91.3 222.2 53.38 217.25 C51.24 216.87 49.12 216.45 47 216 C46.37 215.87 45.74 215.74 45.09 215.61 C16.37 209.62 -10.31 191.36 -26.62 166.89 C-45.9 136.34 -49.84 99.95 -42.16 65.18 C-37.47 47.45 -28.98 30.88 -17 17 C-16.58 16.5 -16.15 16.01 -15.72 15.5 C-9.86 8.67 -9.86 8.67 -7 6 C-6.01 6 -5.02 6 -4 6 C-3.57 5.07 -3.57 5.07 -3.12 4.12 C-2 2 -2 2 0 0 Z " fill="#6D4C33" transform="translate(66,69)"/>
<path d="M0 0 C1.94 0.31 1.94 0.31 4 1 C4.5 2.49 4.5 2.49 5 4 C5.66 4.33 6.32 4.66 7 5 C6.64 5.58 6.28 6.17 5.91 6.77 C4.29 9.43 2.68 12.09 1.06 14.75 C0.5 15.67 -0.07 16.59 -0.65 17.54 C-1.18 18.43 -1.72 19.32 -2.28 20.23 C-3.02 21.46 -3.02 21.46 -3.78 22.71 C-4.91 24.84 -5.54 26.65 -6 29 C1.75 34.54 9.46 39.72 18 44 C18.98 44.5 19.96 45.01 20.98 45.52 C29.71 49.79 38.59 52.68 48 55 C49 55.25 49 55.25 50.02 55.5 C74.01 61.22 100.92 59.51 124.17 51.85 C127.8 50.76 131.23 50.3 135 50 C130.81 54.41 126 57.59 121 61 C120.4 61.43 119.81 61.86 119.19 62.3 C116.17 64.45 113.69 65.57 110 66 C110 66.66 110 67.32 110 68 C111.32 67.67 112.64 67.34 114 67 C99.26 83.21 77.18 89.55 56 91 C18.69 92.44 -15.29 84.42 -45 61 C-43.43 56.63 -41.2 52.76 -38.82 48.79 C-38.42 48.11 -38.01 47.42 -37.59 46.72 C-36.29 44.54 -34.99 42.36 -33.69 40.19 C-32.82 38.74 -31.96 37.29 -31.1 35.83 C-27.13 29.18 -23.15 22.54 -19 16 C-17.86 16.46 -17.86 16.46 -16.69 16.94 C-14.81 17.68 -12.91 18.36 -11 19 C-10.48 18.09 -9.97 17.19 -9.44 16.25 C-6.33 10.81 -3.16 5.41 0 0 Z " fill="#6D4C33" transform="translate(338,196)"/>
<path d="M0 0 C2.75 -0.25 5.26 -0.33 8 -0.25 C9.11 -0.24 9.11 -0.24 10.23 -0.23 C15.69 -0.15 15.69 -0.15 18 1 C18.33 72.61 18.66 144.22 19 218 C34.84 218.5 34.84 218.5 51 219 C53.49 222.74 53.06 224.29 52.62 228.69 C52.51 229.87 52.4 231.05 52.29 232.26 C52.19 233.17 52.1 234.07 52 235 C44.47 235.03 36.94 235.04 29.41 235.05 C26.85 235.06 24.28 235.07 21.72 235.08 C18.04 235.09 14.37 235.09 10.69 235.1 C9.54 235.1 8.38 235.11 7.19 235.11 C5.6 235.11 5.6 235.11 3.98 235.11 C3.04 235.12 2.1 235.12 1.13 235.12 C-1 235 -1 235 -2 234 C-2.11 231.22 -2.16 228.47 -2.16 225.69 C-2.17 224.81 -2.18 223.93 -2.18 223.02 C-2.2 220.04 -2.21 217.06 -2.22 214.08 C-2.23 211.95 -2.24 209.83 -2.26 207.7 C-2.29 201.9 -2.31 196.1 -2.34 190.31 C-2.36 185.47 -2.38 180.63 -2.4 175.79 C-2.46 164.36 -2.51 152.93 -2.56 141.5 C-2.61 129.72 -2.66 117.95 -2.72 106.17 C-2.77 96.06 -2.82 85.94 -2.87 75.83 C-2.89 69.79 -2.92 63.75 -2.95 57.72 C-2.98 52.03 -3 46.34 -3.02 40.65 C-3.03 38.57 -3.04 36.49 -3.06 34.4 C-3.22 4.83 -3.22 4.83 0 0 Z " fill="#B5A36E" transform="translate(782,32)"/>
<path d="M0 0 C2.77 -0.25 5.3 -0.33 8.06 -0.25 C9.18 -0.24 9.18 -0.24 10.32 -0.23 C15.85 -0.15 15.85 -0.15 17 1 C17.11 3.79 17.15 6.56 17.16 9.36 C17.17 10.69 17.17 10.69 17.17 12.05 C17.19 15.04 17.2 18.04 17.21 21.03 C17.21 23.17 17.22 25.31 17.24 27.45 C17.26 33.27 17.28 39.1 17.3 44.92 C17.33 51 17.35 57.08 17.38 63.16 C17.43 74.68 17.47 86.2 17.52 97.72 C17.57 110.83 17.62 123.94 17.68 137.06 C17.79 164.04 17.9 191.02 18 218 C18.99 218.03 19.99 218.05 21.01 218.08 C24.69 218.17 28.37 218.27 32.04 218.37 C33.64 218.42 35.23 218.46 36.83 218.5 C39.11 218.55 41.4 218.62 43.68 218.68 C44.4 218.7 45.12 218.72 45.86 218.73 C50.89 218.89 50.89 218.89 52 220 C52.07 222.53 52.09 225.03 52.06 227.56 C52.06 228.27 52.05 228.98 52.05 229.72 C52.04 231.48 52.02 233.24 52 235 C44.63 235.08 37.26 235.13 29.89 235.16 C27.38 235.18 24.88 235.2 22.37 235.23 C18.77 235.26 15.17 235.28 11.57 235.29 C10.44 235.31 9.32 235.32 8.15 235.34 C7.11 235.34 6.07 235.34 5 235.34 C3.62 235.35 3.62 235.35 2.21 235.36 C1.48 235.24 0.75 235.12 0 235 C-2.31 231.53 -2.25 230.18 -2.23 226.09 C-2.23 224.94 -2.23 223.78 -2.22 222.59 C-2.21 221.39 -2.2 220.18 -2.19 218.94 C-2.19 217.73 -2.19 216.52 -2.19 215.27 C-2.14 206.28 -2.14 206.28 -1 204 C-1.66 203.67 -2.32 203.34 -3 203 C-0.03 203 2.94 203 6 203 C5.72 202.4 5.44 201.79 5.16 201.17 C3.9 198.41 2.67 195.64 1.44 192.88 C0.78 191.45 0.78 191.45 0.11 189.99 C-0.3 189.06 -0.71 188.14 -1.13 187.18 C-1.7 185.91 -1.7 185.91 -2.29 184.61 C-3.17 181.38 -2.55 179.3 -2 176 C-1.92 173.58 -1.89 171.15 -1.89 168.73 C-1.89 168.02 -1.89 167.31 -1.89 166.58 C-1.9 164.22 -1.91 161.85 -1.92 159.49 C-1.92 157.79 -1.92 156.08 -1.93 154.38 C-1.93 150.73 -1.94 147.07 -1.96 143.42 C-1.97 137.64 -1.98 131.86 -1.99 126.09 C-2.02 109.66 -2.05 93.24 -2.1 76.81 C-2.12 67.73 -2.14 58.66 -2.15 49.58 C-2.15 43.83 -2.17 38.09 -2.19 32.34 C-2.2 28.77 -2.21 25.21 -2.21 21.64 C-2.21 19.98 -2.22 18.32 -2.22 16.66 C-2.24 14.4 -2.24 12.15 -2.23 9.89 C-2.24 8.62 -2.24 7.36 -2.24 6.05 C-2 3 -2 3 0 0 Z " fill="#6D4C33" transform="translate(763,48)"/>
<path d="M0 0 C0.66 0 1.32 0 2 0 C1.29 3.63 -0.23 6.63 -1.88 9.94 C-8.57 24.45 -11.06 41.54 -5.94 57 C3.66 81.93 24.34 93.66 47.31 104.32 C54.46 107.65 61.39 111.32 68.31 115.09 C69.79 115.89 71.29 116.64 72.8 117.39 C79.56 120.8 84.61 125.68 87.94 132.56 C89.74 138.4 89.49 143.4 87.17 149.01 C84.24 154 79.62 157.8 74.06 159.44 C71 160 71 160 70 160 C69.99 159.37 69.97 158.74 69.96 158.09 C69.5 149.85 67.05 144.68 60.98 139.12 C56.55 135.42 51.63 132.9 46.5 130.31 C45.5 129.8 44.5 129.28 43.46 128.75 C37.38 125.63 31.24 122.7 25.03 119.84 C1.84 109.12 -16.8 95.7 -26.05 71.04 C-31.33 54.08 -26.95 36.91 -19.17 21.57 C-17.79 19.02 -17.79 19.02 -18 16 C-17.34 16.33 -16.68 16.66 -16 17 C-15.77 16.45 -15.54 15.89 -15.31 15.32 C-13.62 12.33 -11.49 10.23 -9.06 7.81 C-8.19 6.93 -7.31 6.05 -6.41 5.14 C-4 3 -4 3 -1 2 C-0.67 1.34 -0.34 0.68 0 0 Z " fill="#B4A26D" transform="translate(360,44)"/>
<path d="M0 0 C0.58 0.23 1.15 0.45 1.75 0.69 C1.36 1.44 0.98 2.19 0.58 2.97 C-7.13 18.7 -11.35 35.28 -6.34 52.62 C3.26 79.61 25.17 91.67 49.75 103.69 C51.84 104.68 53.93 105.67 56.03 106.65 C57.05 107.13 58.07 107.61 59.12 108.1 C61.06 109 63 109.89 64.95 110.77 C74.5 115.19 84.58 121.53 88.75 131.69 C88.98 134.23 88.98 134.23 88.94 136.88 C88.93 137.76 88.92 138.64 88.92 139.54 C88.75 141.69 88.75 141.69 87.75 142.69 C80.4 143.84 70.59 144.92 64.09 140.74 C61.94 139.07 59.94 137.24 57.92 135.41 C54.67 132.47 51.19 130.57 47.25 128.69 C46.59 128.37 45.93 128.05 45.26 127.73 C43.09 126.7 40.92 125.69 38.75 124.69 C-13.82 100.25 -13.82 100.25 -24.5 74.19 C-24.76 73.56 -25.02 72.93 -25.28 72.28 C-31.18 57.17 -28.6 40.45 -22.66 25.82 C-19.4 18.57 -9.44 -1.31 0 0 Z " fill="#6C4B32" transform="translate(341.25,62.3125)"/>
<path d="M0 0 C1.15 1.15 2.31 2.31 3.46 3.46 C4.49 4.49 5.52 5.5 6.57 6.5 C10.97 10.75 14.78 15.34 18.61 20.1 C21.83 24.01 25.24 27.73 28.67 31.46 C34.33 37.63 39.74 44.02 45.18 50.38 C50 56 54.85 61.6 59.7 67.2 C61.93 69.76 64.14 72.33 66.36 74.89 C66.92 75.54 67.47 76.19 68.05 76.85 C69.09 78.05 70.12 79.26 71.16 80.46 C72.17 81.63 73.2 82.79 74.25 83.93 C76 86 76 86 77.88 88.86 C80.81 92.88 83.31 96.25 88.2 97.61 C94.48 98.55 100.79 98.34 107.12 98.19 C109.05 98.18 110.98 98.18 112.91 98.18 C117.61 98.18 122.3 98.11 127 98 C127 98.66 127 99.32 127 100 C127.99 100.33 128.98 100.66 130 101 C131.35 102.65 132.69 104.32 134 106 C134.99 106.66 135.98 107.32 137 108 C137 108.99 137 109.98 137 111 C137.66 111.33 138.32 111.66 139 112 C139.33 112.66 139.66 113.32 140 114 C130.67 114.26 121.35 114.45 112.02 114.57 C107.68 114.63 103.35 114.7 99.02 114.83 C94.83 114.95 90.64 115.02 86.45 115.04 C84.86 115.06 83.27 115.1 81.68 115.16 C74.26 115.43 67.86 115.57 62.13 110.26 C59.93 107.95 57.95 105.52 56 103 C55.2 102.03 54.39 101.06 53.56 100.06 C52.1 98.3 50.67 96.53 49.25 94.75 C46.92 91.9 44.49 89.2 42 86.5 C38.74 82.96 35.63 79.37 32.62 75.62 C29.24 71.42 25.69 67.44 22 63.5 C17.57 58.76 13.36 53.91 9.33 48.83 C7.18 46.05 7.18 46.05 4.97 44.28 C0.56 40.23 -1.43 37.11 -1.78 31.01 C-1.84 27.2 -1.72 23.42 -1.56 19.62 C-1.53 18.05 -1.5 16.48 -1.48 14.91 C-1.25 3.76 -1.25 3.76 0 0 Z " fill="#B4A26E" transform="translate(854,153)"/>
<path d="M0 0 C1.05 -0 1.05 -0 2.12 -0.01 C4 0.12 4 0.12 6 1.12 C5.4 7.17 3.02 12.34 0.69 17.88 C-0.32 20.31 -1.33 22.75 -2.34 25.2 C-2.62 25.87 -2.9 26.55 -3.19 27.25 C-6.92 36.32 -10.53 45.44 -14.16 54.56 C-21.95 74.08 -29.82 93.56 -37.78 113.01 C-43.14 126.09 -48.46 139.19 -53.69 152.33 C-56.37 159.07 -59.08 165.81 -61.81 172.53 C-62.14 173.35 -62.48 174.16 -62.82 175 C-64.69 179.62 -66.57 184.24 -68.45 188.86 C-72.4 198.58 -76.19 208.34 -80 218.12 C-66.14 218.46 -52.28 218.78 -38 219.12 C-39 227.12 -39 227.12 -43 235.12 C-61.48 235.12 -79.96 235.12 -99 235.12 C-100 233.12 -100 233.12 -99.1 230.41 C-98.61 229.23 -98.13 228.05 -97.62 226.84 C-97.35 226.18 -97.08 225.52 -96.8 224.83 C-96.2 223.36 -95.59 221.89 -94.98 220.42 C-93.62 217.15 -92.28 213.87 -90.94 210.59 C-90.19 208.77 -89.44 206.95 -88.69 205.13 C-84.11 193.98 -79.61 182.8 -75.11 171.62 C-72.63 165.46 -70.15 159.31 -67.66 153.16 C-67.18 151.96 -66.7 150.76 -66.2 149.52 C-61.8 138.64 -57.4 127.75 -53 116.88 C-52.49 115.61 -52.49 115.61 -51.96 114.31 C-48.37 105.45 -44.78 96.59 -41.18 87.73 C-34.46 71.17 -27.77 54.59 -21.12 38 C-20.59 36.68 -20.59 36.68 -20.05 35.33 C-19.06 32.84 -18.06 30.35 -17.07 27.87 C-16.77 27.13 -16.48 26.38 -16.17 25.62 C-15.05 22.8 -13.96 20 -13 17.12 C-13.66 16.8 -14.32 16.47 -15 16.12 C-14.01 15.8 -13.02 15.47 -12 15.12 C-10.85 12.79 -9.87 10.54 -8.94 8.12 C-5.75 -0.02 -5.75 -0.02 0 0 Z " fill="#B5A36E" transform="translate(611,31.875)"/>
<path d="M0 0 C0.91 0.01 1.82 0.02 2.76 0.03 C3.81 0.04 3.81 0.04 4.88 0.06 C5.07 4.38 4.63 7.38 2.92 11.34 C2.47 12.39 2.03 13.43 1.57 14.51 C0.83 16.24 0.83 16.24 0.06 18 C-1.04 20.6 -2.14 23.21 -3.24 25.82 C-3.54 26.53 -3.84 27.24 -4.15 27.98 C-8.41 38.06 -12.47 48.22 -16.56 58.38 C-18.22 62.48 -19.87 66.58 -21.53 70.69 C-21.93 71.68 -22.33 72.67 -22.75 73.7 C-25 79.28 -27.26 84.86 -29.53 90.44 C-29.91 91.38 -29.91 91.38 -30.31 92.34 C-30.68 93.26 -30.68 93.26 -31.07 94.2 C-37.41 109.77 -43.66 125.37 -49.89 140.98 C-57.73 160.62 -65.65 180.24 -73.59 199.85 C-74.02 200.91 -74.45 201.98 -74.89 203.08 C-75.7 205.08 -76.51 207.07 -77.32 209.07 C-77.68 209.95 -78.03 210.83 -78.4 211.74 C-78.71 212.51 -79.02 213.27 -79.34 214.06 C-79.99 215.71 -80.57 217.38 -81.12 219.06 C-79.28 219.05 -79.28 219.05 -77.39 219.05 C-72.83 219.03 -68.28 219.02 -63.72 219.01 C-61.74 219 -59.77 219 -57.79 218.99 C-54.96 218.97 -52.12 218.97 -49.29 218.96 C-48.4 218.96 -47.52 218.95 -46.6 218.95 C-40.35 218.95 -40.35 218.95 -38.12 220.06 C-38.55 221.63 -38.99 223.19 -39.44 224.75 C-39.68 225.62 -39.92 226.49 -40.18 227.39 C-41.22 230.34 -42.23 232.55 -44.12 235.06 C-46.71 235.78 -46.71 235.78 -49.95 235.9 C-51.2 235.95 -52.45 235.99 -53.74 236.04 C-62.5 236.13 -71.25 235.89 -80 235.62 C-81.96 235.57 -83.92 235.52 -85.88 235.47 C-90.63 235.34 -95.38 235.2 -100.12 235.06 C-100.46 234.4 -100.78 233.74 -101.12 233.06 C-99.94 229.91 -98.54 226.88 -97.16 223.81 C-96.82 222.91 -96.48 222 -96.12 221.06 C-96.46 220.4 -96.78 219.74 -97.12 219.06 C-95.14 218.73 -93.16 218.4 -91.12 218.06 C-91.5 217.54 -91.88 217.02 -92.28 216.49 C-93.52 212.93 -92.14 210.52 -90.71 207.23 C-90.42 206.54 -90.14 205.86 -89.85 205.15 C-88.89 202.84 -87.91 200.55 -86.94 198.25 C-86.25 196.6 -85.57 194.95 -84.88 193.3 C-83.41 189.75 -81.93 186.2 -80.45 182.65 C-76.91 174.17 -73.49 165.65 -70.06 157.13 C-68.05 152.15 -66.04 147.18 -64.03 142.2 C-63.21 140.18 -62.4 138.16 -61.58 136.14 C-61.18 135.14 -60.77 134.14 -60.35 133.1 C-59.95 132.1 -59.54 131.1 -59.12 130.06 C-55.88 122.02 -52.63 113.98 -49.38 105.94 C-48.98 104.96 -48.59 103.98 -48.18 102.98 C-43.13 90.49 -38.07 78 -33.01 65.52 C-22.42 39.55 -22.42 39.55 -12.19 13.44 C-7.01 -0.09 -7.01 -0.09 0 0 Z " fill="#B5A36E" transform="translate(1103.125,31.9375)"/>
<path d="M0 0 C0.99 0.49 0.99 0.49 2 1 C1.39 5.78 -0.01 9.96 -1.85 14.38 C-2.14 15.09 -2.43 15.8 -2.73 16.54 C-3.69 18.88 -4.66 21.22 -5.62 23.56 C-6.3 25.22 -6.98 26.88 -7.66 28.54 C-9.07 31.99 -10.48 35.43 -11.9 38.88 C-14.81 45.98 -17.69 53.09 -20.57 60.21 C-22.14 64.09 -23.72 67.97 -25.29 71.85 C-25.6 72.62 -25.91 73.38 -26.23 74.18 C-28.01 78.55 -29.78 82.92 -31.56 87.3 C-37.74 102.52 -43.9 117.75 -50.05 132.99 C-50.31 133.65 -50.58 134.32 -50.86 135 C-53.33 141.13 -55.8 147.27 -58.27 153.4 C-68.84 179.63 -68.84 179.63 -73.43 190.89 C-73.74 191.66 -74.05 192.43 -74.38 193.22 C-75.74 196.56 -77.1 199.91 -78.47 203.25 C-78.92 204.35 -79.38 205.46 -79.84 206.59 C-80.21 207.51 -80.59 208.42 -80.98 209.37 C-82.08 212.21 -83.06 215.09 -84 218 C-82.8 218.02 -81.6 218.04 -80.36 218.06 C-75.91 218.14 -71.47 218.22 -67.02 218.32 C-65.09 218.36 -63.17 218.39 -61.24 218.42 C-58.48 218.47 -55.71 218.53 -52.95 218.59 C-52.08 218.6 -51.22 218.61 -50.33 218.62 C-44.23 218.77 -44.23 218.77 -42 221 C-42.27 226.68 -44.27 229.55 -47 235 C-65.48 235 -83.96 235 -103 235 C-102.28 229.98 -101.79 226.92 -99.98 222.48 C-99.33 220.87 -99.33 220.87 -98.67 219.22 C-98.18 218.03 -97.69 216.85 -97.19 215.62 C-96.65 214.3 -96.11 212.98 -95.58 211.66 C-93.73 207.1 -91.87 202.55 -90 198 C-87.48 191.86 -84.97 185.71 -82.45 179.57 C-81.65 177.59 -80.84 175.62 -80.03 173.64 C-73.96 158.81 -67.96 143.95 -62.02 129.07 C-61.67 128.2 -61.32 127.32 -60.96 126.42 C-57.44 117.63 -53.93 108.83 -50.43 100.04 C-43.73 83.24 -37 66.47 -30.06 49.78 C-27.21 42.93 -24.4 36.07 -21.65 29.18 C-21.18 27.99 -21.18 27.99 -20.69 26.78 C-19.45 23.67 -18.21 20.56 -16.98 17.44 C-16.04 15.08 -15.1 12.72 -14.15 10.37 C-13.88 9.66 -13.6 8.96 -13.32 8.24 C-10.16 0.41 -8.08 -0.51 0 0 Z " fill="#6D4C33" transform="translate(596,48)"/>
<path d="M0 0 C15.32 12.22 23.63 31.25 25.81 50.35 C27.75 72.23 24.4 94.24 10.38 111.77 C0.88 122.45 0.88 122.45 -5 123.44 C-3.99 120.86 -2.94 118.31 -1.82 115.78 C8 93.51 8.77 68.17 0.62 45.22 C-4.54 32.5 -12.54 19.83 -25 13.44 C-40.28 7.46 -54.33 5.43 -70.36 9.88 C-73 10.44 -73 10.44 -76 9.44 C-72.5 1.61 -64.7 -2.55 -57 -5.56 C-37.89 -11.75 -17.13 -11.69 0 0 Z " fill="#B5A36E" transform="translate(212,72.5625)"/>
<path d="M0 0 C14.14 10.73 21.78 30.74 24.62 47.56 C24.9 49.98 25.07 52.37 25.16 54.8 C25.22 56.17 25.22 56.17 25.28 57.55 C25.63 73.36 23.03 94.69 13.16 107.8 C9.2 110.83 6.13 111.8 1.16 111.8 C-0.14 107.91 0.82 106.45 2.09 102.55 C8.27 80.73 5.59 54.77 -4.99 34.93 C-7.59 30.54 -10.46 26.62 -13.84 22.8 C-14.39 22.17 -14.93 21.53 -15.49 20.88 C-22.28 13.45 -31.26 10.19 -40.84 7.8 C-41.59 7.62 -42.33 7.43 -43.1 7.23 C-46.88 6.64 -50.59 6.66 -54.41 6.68 C-55.54 6.67 -55.54 6.67 -56.69 6.67 C-60.25 6.67 -63.43 6.85 -66.84 7.8 C-67.17 6.81 -67.5 5.82 -67.84 4.8 C-66.73 2.68 -66.73 2.68 -65.09 0.37 C-64.56 -0.39 -64.03 -1.16 -63.48 -1.94 C-61.96 -4.04 -60.41 -6.12 -58.84 -8.2 C-58.3 -8 -57.77 -7.81 -57.21 -7.61 C-54.11 -7.07 -52 -7.78 -48.97 -8.63 C-32 -12.72 -14.63 -9.48 0 0 Z " fill="#6C4B32" transform="translate(193.84375,89.1953125)"/>
<path d="M0 0 C29.37 0 58.74 0 89 0 C94.74 13.77 94.74 13.77 97.08 20.1 C97.34 20.79 97.59 21.48 97.86 22.19 C98.66 24.33 99.45 26.48 100.25 28.62 C101.06 30.81 101.87 32.99 102.69 35.17 C103.19 36.51 103.69 37.86 104.19 39.2 C105.05 41.52 105.89 43.79 107 46 C108.39 46.01 108.39 46.01 109.8 46.03 C113.23 46.07 116.65 46.13 120.08 46.21 C121.56 46.24 123.05 46.26 124.53 46.27 C126.66 46.29 128.79 46.34 130.93 46.39 C132.21 46.41 133.49 46.43 134.81 46.45 C138 47 138 47 139.89 48.88 C141.14 51.27 141.88 53.52 142.56 56.12 C143.53 59.97 143.53 59.97 146 63 C138.49 63.12 130.98 63.2 123.47 63.26 C119.98 63.29 116.49 63.32 113.01 63.38 C109 63.44 104.99 63.47 100.98 63.49 C99.73 63.51 98.47 63.54 97.18 63.57 C96.02 63.57 94.86 63.57 93.66 63.57 C92.64 63.58 91.62 63.59 90.56 63.6 C88 63 88 63 86.25 60.73 C85.19 58.42 84.18 56.16 83.3 53.78 C83 52.98 82.7 52.18 82.4 51.36 C81.93 50.09 81.93 50.09 81.46 48.8 C81.13 47.92 80.81 47.04 80.47 46.14 C79.43 43.34 78.4 40.55 77.38 37.75 C76.34 34.94 75.3 32.13 74.26 29.32 C73.61 27.58 72.96 25.83 72.32 24.08 C71.15 20.25 71.15 20.25 69 17 C66.7 16.88 64.4 16.82 62.09 16.79 C61.37 16.78 60.65 16.77 59.91 16.76 C57.51 16.73 55.11 16.71 52.71 16.68 C51.06 16.66 49.4 16.64 47.74 16.62 C43.37 16.57 39 16.52 34.63 16.47 C30.17 16.42 25.71 16.36 21.26 16.31 C12.5 16.2 3.75 16.1 -5 16 C-4.74 14.64 -4.47 13.29 -4.19 11.94 C-4.04 11.18 -3.89 10.43 -3.73 9.65 C-2.81 6.33 -1.36 3.17 0 0 Z " fill="#B5A36E" transform="translate(605,204)"/>
<path d="M0 0 C0.82 0 1.64 0.01 2.48 0.01 C3.34 0.01 4.2 0.01 5.08 0.01 C7.94 0.01 10.79 0.02 13.64 0.03 C15.61 0.03 17.58 0.03 19.55 0.03 C24.75 0.03 29.95 0.04 35.15 0.06 C40.45 0.07 45.76 0.07 51.06 0.08 C61.47 0.09 71.88 0.1 82.29 0.12 C86.58 8.54 86.58 8.54 87.94 12.31 C88.2 13.02 88.46 13.73 88.73 14.47 C88.99 15.21 89.25 15.95 89.53 16.71 C89.81 17.49 90.09 18.28 90.38 19.08 C90.97 20.72 91.56 22.36 92.15 24 C93.05 26.52 93.96 29.03 94.87 31.54 C95.44 33.14 96.01 34.74 96.59 36.34 C96.86 37.09 97.13 37.84 97.41 38.61 C99.29 43.89 99.29 43.89 99.29 46.12 C115.63 46.62 115.63 46.62 132.29 47.12 C137.29 59.12 137.29 59.12 138.29 63.12 C131.04 63.19 123.79 63.25 116.54 63.28 C113.18 63.3 109.81 63.32 106.44 63.35 C102.57 63.39 98.7 63.4 94.83 63.42 C93.02 63.44 93.02 63.44 91.17 63.46 C90.05 63.46 88.93 63.46 87.77 63.46 C86.29 63.47 86.29 63.47 84.78 63.49 C82.29 63.12 82.29 63.12 80.55 61.86 C79.17 59.96 78.38 58.27 77.59 56.07 C77.29 55.26 77 54.45 76.69 53.61 C76.38 52.74 76.07 51.87 75.75 50.97 C75.43 50.07 75.1 49.17 74.76 48.24 C73.72 45.37 72.69 42.5 71.67 39.62 C70.97 37.69 70.27 35.75 69.56 33.82 C64.76 20.53 64.76 20.53 63.29 16.12 C38.87 16.12 14.45 16.12 -10.71 16.12 C-11.71 14.12 -11.71 14.12 -10.75 11.12 C-10.28 9.95 -9.81 8.77 -9.33 7.56 C-8.87 6.39 -8.41 5.21 -7.94 4 C-5.98 -0.59 -4.85 0.01 0 0 Z " fill="#B4A26E" transform="translate(1102.7090148925781,203.87557983398438)"/>
<path d="M0 0 C1.18 1.19 1.18 1.19 2.39 2.4 C3.82 3.82 5.25 5.24 6.7 6.63 C11.06 10.84 14.82 15.4 18.61 20.11 C20.99 22.99 23.47 25.75 26 28.5 C29.27 32.06 32.41 35.67 35.44 39.44 C39.09 43.97 42.94 48.25 46.91 52.51 C50.69 56.59 54.2 60.85 57.64 65.23 C58.42 66.15 59.2 67.06 60 68 C60.44 68.69 60.88 69.38 61.33 70.09 C63.75 73.32 65.94 75.61 70.03 76.38 C77.08 76.96 84.19 76.55 91.24 76.26 C107 75.68 107 75.68 112.22 79.13 C115.1 82.27 117.2 85.38 119.08 89.2 C119.98 91.18 119.98 91.18 122 93 C112.57 93.09 103.14 93.16 93.71 93.21 C89.33 93.23 84.95 93.26 80.57 93.3 C76.34 93.35 72.11 93.37 67.88 93.38 C66.27 93.39 64.66 93.4 63.05 93.42 C60.79 93.45 58.53 93.46 56.27 93.45 C54.34 93.47 54.34 93.47 52.37 93.48 C46.35 92.62 43.41 88.52 39.81 83.94 C35.83 78.96 31.64 74.24 27.33 69.54 C21.77 63.48 16.46 57.21 11.17 50.92 C10.73 50.4 10.29 49.88 9.84 49.34 C9.4 48.79 8.95 48.24 8.49 47.67 C7.02 45.93 7.02 45.93 5.11 44.5 C1.48 41.33 -0.13 38.59 -0.56 33.8 C-0.78 28.7 -0.61 23.61 -0.44 18.5 C-0.4 16.71 -0.37 14.91 -0.34 13.12 C-0.27 8.74 -0.14 4.37 0 0 Z " fill="#6D4C33" transform="translate(853,190)"/>
<path d="M0 0 C1.34 0.01 2.69 0.04 4.03 0.06 C4.76 0.07 5.49 0.08 6.25 0.09 C8.68 0.12 11.11 0.16 13.54 0.2 C15.22 0.23 16.9 0.25 18.58 0.27 C23.01 0.34 27.44 0.41 31.87 0.48 C36.39 0.55 40.9 0.61 45.42 0.68 C54.29 0.81 63.16 0.94 72.03 1.08 C74.65 6.84 77.07 12.62 79.27 18.55 C79.55 19.31 79.83 20.07 80.12 20.85 C80.71 22.43 81.3 24.02 81.89 25.6 C82.79 28.04 83.7 30.47 84.61 32.9 C85.18 34.45 85.76 36 86.33 37.55 C86.6 38.27 86.87 39 87.15 39.75 C89.03 44.85 89.03 44.85 89.03 47.08 C105.37 47.58 105.37 47.58 122.03 48.08 C128.03 63.08 128.03 63.08 128.03 64.08 C120.78 64.15 113.53 64.21 106.28 64.24 C102.92 64.25 99.55 64.27 96.18 64.31 C92.31 64.34 88.45 64.36 84.58 64.38 C82.76 64.4 82.76 64.4 80.91 64.42 C79.79 64.42 78.67 64.42 77.51 64.42 C76.03 64.43 76.03 64.43 74.52 64.44 C72.03 64.08 72.03 64.08 70.3 62.81 C68.94 60.95 68.13 59.29 67.33 57.13 C67.03 56.35 66.74 55.56 66.43 54.75 C66.12 53.9 65.81 53.05 65.49 52.18 C65.17 51.31 64.84 50.43 64.5 49.53 C63.82 47.68 63.13 45.84 62.45 43.99 C61.41 41.16 60.36 38.33 59.31 35.51 C58.64 33.71 57.97 31.91 57.31 30.12 C56.99 29.27 56.68 28.43 56.36 27.56 C56.07 26.77 55.77 25.98 55.48 25.16 C55.22 24.47 54.96 23.78 54.7 23.06 C54.04 21.1 53.53 19.09 53.03 17.08 C32.9 17.08 12.77 17.08 -7.97 17.08 C-8.97 15.08 -8.97 15.08 -8.01 11.86 C-7.54 10.58 -7.07 9.3 -6.59 8.02 C-6.36 7.37 -6.12 6.72 -5.88 6.05 C-3.7 0.1 -3.7 0.1 0 0 Z " fill="#6D4C33" transform="translate(1093.967544555664,218.91770935058594)"/>
<path d="M0 0 C9.73 0.04 19.45 0.1 29.18 0.18 C33.7 0.22 38.21 0.26 42.73 0.27 C47.09 0.29 51.44 0.32 55.8 0.37 C57.47 0.38 59.13 0.39 60.79 0.39 C63.12 0.39 65.45 0.42 67.77 0.45 C68.47 0.45 69.16 0.44 69.87 0.44 C72.94 0.51 74.58 0.6 76.85 2.77 C77.95 4.9 78.89 6.95 79.7 9.2 C80 10.02 80.3 10.84 80.6 11.68 C81.07 12.99 81.07 12.99 81.54 14.32 C81.87 15.23 82.19 16.13 82.53 17.06 C83.57 19.93 84.6 22.81 85.62 25.69 C86.66 28.58 87.7 31.46 88.74 34.35 C89.39 36.14 90.04 37.94 90.68 39.74 C90.97 40.55 91.26 41.35 91.56 42.19 C91.81 42.9 92.07 43.61 92.33 44.35 C92.88 46.01 92.88 46.01 94 47 C96.29 47.16 98.58 47.25 100.88 47.32 C101.57 47.34 102.25 47.36 102.96 47.38 C105.16 47.44 107.36 47.5 109.56 47.56 C111.05 47.61 112.54 47.65 114.03 47.69 C117.69 47.8 121.34 47.9 125 48 C125.82 49.54 126.63 51.08 127.44 52.62 C128.12 53.91 128.12 53.91 128.81 55.23 C130.07 58.17 130.6 60.83 131 64 C123.24 64.13 115.48 64.21 107.72 64.27 C105.08 64.3 102.44 64.33 99.8 64.38 C96.01 64.44 92.22 64.47 88.42 64.49 C86.65 64.53 86.65 64.53 84.84 64.57 C76.74 64.57 76.74 64.57 73.45 62.04 C71.53 58.02 69.87 53.99 68.36 49.8 C68.04 48.92 67.71 48.04 67.38 47.14 C66.35 44.34 65.33 41.55 64.31 38.75 C63.28 35.94 62.25 33.13 61.21 30.32 C60.57 28.58 59.93 26.83 59.3 25.08 C58.14 21.25 58.14 21.25 56 18 C54.1 17.88 52.19 17.82 50.29 17.79 C49.07 17.77 47.84 17.75 46.59 17.73 C45.24 17.72 43.9 17.7 42.56 17.68 C41.19 17.66 39.83 17.64 38.46 17.62 C34.86 17.57 31.26 17.52 27.65 17.47 C23.98 17.42 20.31 17.36 16.63 17.31 C9.42 17.2 2.21 17.1 -5 17 C-4.41 12.81 -3.43 9.08 -1.94 5.12 C-1.58 4.16 -1.21 3.19 -0.84 2.2 C-0.56 1.47 -0.29 0.75 0 0 Z " fill="#6D4C33" transform="translate(599,219)"/>
<path d="M0 0 C1.94 0.31 1.94 0.31 4 1 C4.33 1.99 4.66 2.98 5 4 C5.66 4.33 6.32 4.66 7 5 C6.64 5.58 6.28 6.17 5.91 6.77 C4.29 9.43 2.68 12.09 1.06 14.75 C0.5 15.67 -0.07 16.59 -0.65 17.54 C-1.18 18.43 -1.72 19.32 -2.28 20.23 C-3.02 21.46 -3.02 21.46 -3.78 22.71 C-4.91 24.84 -5.54 26.65 -6 29 C1.75 34.54 9.46 39.72 18 44 C18.98 44.5 19.96 45.01 20.98 45.52 C29.71 49.79 38.59 52.68 48 55 C49 55.25 49 55.25 50.02 55.5 C74.01 61.22 100.92 59.51 124.17 51.85 C127.8 50.76 131.23 50.3 135 50 C130.81 54.41 126 57.58 121 61 C120.05 61.7 119.1 62.4 118.12 63.12 C92.84 78.3 56.96 78.46 29 72 C28.31 71.85 27.63 71.7 26.92 71.54 C8.53 67.38 -12.86 57.77 -26 44 C-17.15 27.97 -17.15 27.97 -12.26 20.86 C-10.77 18.65 -9.44 16.37 -8.14 14.04 C-6.55 11.19 -4.9 8.38 -3.25 5.56 C-2.64 4.51 -2.02 3.46 -1.39 2.38 C-0.93 1.59 -0.47 0.81 0 0 Z " fill="#B4A26D" transform="translate(338,196)"/>
<path d="M0 0 C0.91 0.01 1.82 0.02 2.76 0.03 C3.81 0.04 3.81 0.04 4.88 0.06 C4.55 7.43 1.83 13.64 -1.04 20.33 C-2.64 24.08 -4.21 27.84 -5.78 31.61 C-6.12 32.43 -6.46 33.25 -6.82 34.09 C-10.9 43.86 -14.81 53.7 -18.72 63.54 C-25.27 80 -31.88 96.43 -38.62 112.81 C-43.68 125.09 -48.68 137.38 -53.59 149.72 C-57.81 160.31 -62.09 170.87 -66.38 181.44 C-66.71 182.27 -67.05 183.11 -67.4 183.97 C-69.31 188.67 -71.22 193.36 -73.12 198.06 C-74.12 197.73 -75.11 197.4 -76.12 197.06 C-76.12 196.4 -76.12 195.74 -76.12 195.06 C-77.02 194.72 -77.02 194.72 -77.94 194.38 C-80.96 192.56 -81.87 191.39 -83.12 188.06 C-82.38 184.76 -80.89 181.82 -79.43 178.78 C-78.56 176.89 -77.7 174.99 -76.85 173.09 C-76.39 172.1 -75.94 171.11 -75.48 170.09 C-73.27 165.15 -71.28 160.13 -69.29 155.09 C-68.89 154.07 -68.48 153.05 -68.06 151.99 C-66.81 148.85 -65.56 145.71 -64.31 142.56 C-59.14 129.52 -53.91 116.51 -48.52 103.55 C-41.05 85.57 -33.85 67.48 -26.64 49.39 C-23.77 42.19 -20.89 34.98 -18.01 27.77 C-17.02 25.28 -16.03 22.8 -15.04 20.31 C-14.43 18.79 -13.82 17.26 -13.21 15.74 C-12.94 15.06 -12.67 14.39 -12.4 13.69 C-11.65 11.81 -10.89 9.94 -10.12 8.06 C-9.73 7.07 -9.73 7.07 -9.34 6.07 C-7.07 0.48 -5.88 -0.08 0 0 Z " fill="#6D4C33" transform="translate(1084.125,47.9375)"/>
<path d="M0 0 C0.66 0 1.32 0 2 0 C2.32 0.86 2.64 1.72 2.96 2.61 C6.15 11.18 9.43 19.7 12.78 28.21 C13.63 30.38 14.48 32.55 15.33 34.73 C16.65 38.08 17.96 41.44 19.29 44.79 C20.58 48.08 21.87 51.36 23.15 54.65 C23.55 55.66 23.96 56.67 24.37 57.71 C24.73 58.64 25.09 59.57 25.46 60.53 C25.79 61.35 26.11 62.16 26.44 63.01 C27 65 27 65 26 67 C9.5 67 -7 67 -24 67 C-25.17 63.48 -24.83 62.92 -23.44 59.61 C-23.06 58.69 -22.68 57.77 -22.29 56.82 C-21.87 55.81 -21.44 54.8 -21 53.75 C-20.08 51.52 -19.17 49.28 -18.26 47.05 C-18.01 46.44 -17.76 45.83 -17.5 45.2 C-13.82 36.17 -10.36 27.05 -6.88 17.94 C-6.19 16.16 -5.51 14.38 -4.83 12.6 C-3.22 8.4 -1.61 4.2 0 0 Z " fill="#B5A36E" transform="translate(1140,90)"/>
<path d="M0 0 C0.66 0 1.32 0 2 0 C2.5 1.45 2.5 1.45 3 2.92 C5.93 11.37 9.02 19.74 12.27 28.07 C12.64 29.02 13.01 29.97 13.39 30.95 C14.92 34.86 16.45 38.77 17.99 42.68 C19.13 45.58 20.26 48.48 21.39 51.39 C21.74 52.26 22.09 53.14 22.45 54.05 C22.93 55.29 22.93 55.29 23.42 56.55 C23.7 57.27 23.98 57.98 24.27 58.72 C25 61 25 61 26 67 C9.5 67 -7 67 -24 67 C-25.42 62.73 -23.67 59.88 -22.06 55.88 C-21.72 55.01 -21.38 54.14 -21.03 53.24 C-20.21 51.14 -19.38 49.04 -18.55 46.95 C-16.66 42.16 -14.8 37.36 -12.94 32.56 C-10.07 25.18 -7.2 17.8 -4.32 10.43 C-4 9.61 -3.68 8.79 -3.35 7.94 C-1.12 2.23 -1.12 2.23 0 0 Z " fill="#B4A26D" transform="translate(649,90)"/>
<path d="M0 0 C4.12 -0.06 8.25 -0.09 12.38 -0.12 C13.55 -0.14 14.73 -0.16 15.94 -0.18 C17.62 -0.19 17.62 -0.19 19.34 -0.2 C20.37 -0.21 21.41 -0.22 22.48 -0.23 C25 0 25 0 27 2 C25.35 6.29 23.7 10.58 22 15 C42.29 15.5 42.29 15.5 63 16 C64 22 64 22 60 32 C41.19 32 22.38 32 3 32 C4.11 24.2 4.11 24.2 5.62 21.19 C6.31 19.61 6.31 19.61 7 18 C6.67 17.34 6.34 16.68 6 16 C6.99 15.34 7.98 14.68 9 14 C9 12.68 9 11.36 9 10 C7.03 8.2 5.11 6.6 3 5 C1.12 3.31 1.12 3.31 0 2 C0 1.34 0 0.68 0 0 Z " fill="#6E4D34" transform="translate(981,251)"/>
<path d="M0 0 C-0.61 4.82 -2.65 8.55 -4.94 12.75 C-5.3 13.43 -5.66 14.12 -6.03 14.82 C-8.74 19.87 -8.74 19.87 -11 21 C-13.06 20.05 -15.07 19.01 -17.06 17.94 C-32.28 10.02 -47.72 5.39 -65 6 C-65.68 4.25 -65.68 4.25 -66 2 C-62.74 -4.03 -57.66 -7.16 -51.34 -9.32 C-34.53 -14.17 -15.23 -7.61 0 0 Z " fill="#B4A26D" transform="translate(471,71)"/>
<path d="M0 0 C0.33 0.66 0.66 1.32 1 2 C1.53 1.83 2.06 1.66 2.61 1.49 C17.06 -1.49 34.38 5.59 47 12 C46.43 17.19 43.9 21.31 41.44 25.81 C41.01 26.6 40.59 27.39 40.15 28.2 C39.11 30.14 38.06 32.07 37 34 C31.94 33.44 27.85 31.74 23.38 29.44 C22.68 29.08 21.98 28.73 21.27 28.37 C1.35 18.06 1.35 18.06 -1 11 C-1.13 9.06 -1.13 9.06 -1.12 7 C-1.13 6.32 -1.13 5.64 -1.13 4.94 C-1 3 -1 3 0 0 Z " fill="#6C4B32" transform="translate(405,75)"/>
<path d="M0 0 C2.75 -0.25 5.26 -0.33 8 -0.25 C9.11 -0.24 9.11 -0.24 10.23 -0.23 C15.69 -0.15 15.69 -0.15 18 1 C18.33 72.61 18.66 144.22 19 218 C34.84 218.5 34.84 218.5 51 219 C54.21 223.82 52.61 228.35 52 234 C46.06 234 40.12 234 34 234 C34 229.71 34 225.42 34 221 C32.86 221.01 31.71 221.02 30.54 221.04 C29.04 221.04 27.55 221.05 26.06 221.06 C25.31 221.07 24.55 221.08 23.78 221.09 C21.85 221.1 19.92 221.05 18 221 C15.99 218.99 16.85 214.89 16.84 212.14 C16.83 210.88 16.83 210.88 16.83 209.61 C16.81 206.79 16.8 203.98 16.79 201.16 C16.79 199.15 16.78 197.14 16.76 195.13 C16.74 189.66 16.72 184.18 16.7 178.71 C16.67 172.99 16.65 167.28 16.62 161.56 C16.57 150.73 16.53 139.9 16.48 129.07 C16.43 116.74 16.38 104.42 16.32 92.09 C16.21 66.73 16.1 41.36 16 16 C15.02 16 14.05 16 13.04 16 C8.36 16 3.68 16 -1 16 C-2.8 14.2 -2.17 11.55 -2.19 9.12 C-2.2 8.06 -2.22 6.99 -2.23 5.88 C-2 3 -2 3 0 0 Z " fill="#957C51" transform="translate(782,32)"/>
<path d="M0 0 C3.68 2.45 4.44 4.97 5.92 8.94 C6.18 9.62 6.44 10.31 6.71 11.01 C7.55 13.19 8.37 15.38 9.19 17.56 C9.75 19.04 10.32 20.51 10.88 21.99 C15 32.79 15 32.79 15 34 C6.42 34 -2.16 34 -11 34 C-12.27 30.19 -11.5 29.11 -9.98 25.45 C-9.54 24.36 -9.09 23.27 -8.63 22.14 C-8.15 21 -7.68 19.86 -7.19 18.69 C-6.26 16.44 -5.34 14.2 -4.42 11.95 C-3.8 10.45 -3.8 10.45 -3.16 8.93 C-1.99 5.98 -0.97 3.01 0 0 Z " fill="#6D4C33" transform="translate(1127,123)"/>
<path d="M0 0 C3.15 2.61 4.21 5.55 5.66 9.31 C5.9 9.92 6.14 10.53 6.38 11.16 C7.14 13.1 7.88 15.05 8.62 17 C9.13 18.31 9.64 19.62 10.15 20.93 C13.71 30.12 13.71 30.12 15 34 C6.42 34 -2.16 34 -11 34 C-12.17 30.49 -11.8 29.8 -10.49 26.46 C-10.14 25.57 -9.8 24.68 -9.44 23.76 C-9.07 22.83 -8.7 21.9 -8.31 20.94 C-7.96 20.03 -7.61 19.13 -7.24 18.2 C-6.17 15.46 -5.09 12.73 -4 10 C-3.62 9.04 -3.23 8.08 -2.84 7.09 C-1.89 4.72 -0.95 2.36 0 0 Z " fill="#6D4C33" transform="translate(636,123)"/>
<path d="M0 0 C4.47 -0.12 8.93 -0.21 13.4 -0.27 C14.92 -0.3 16.43 -0.33 17.95 -0.38 C20.14 -0.44 22.32 -0.47 24.51 -0.49 C25.83 -0.51 27.14 -0.54 28.49 -0.57 C32.87 0.14 34.18 1.67 37 5 C37.93 5.7 38.86 6.4 39.81 7.12 C40.53 7.74 41.26 8.36 42 9 C42 9.99 42 10.98 42 12 C42.66 12.33 43.32 12.66 44 13 C38.81 14.73 33.29 14.42 27.86 14.51 C26.42 14.55 24.97 14.59 23.53 14.66 C11.6 15.18 11.6 15.18 7.82 12.39 C6.26 10.32 5.15 8.32 4 6 C2.68 3.99 1.35 1.99 0 0 Z " fill="#92794F" transform="translate(949,252)"/>
<path d="M0 0 C1.32 0.66 2.64 1.32 4 2 C3.34 2.33 2.68 2.66 2 3 C1.74 3.55 1.49 4.09 1.22 4.65 C-0.54 8.03 -3.06 10.72 -5.56 13.56 C-6.66 14.82 -7.75 16.09 -8.85 17.35 C-9.39 17.97 -9.93 18.59 -10.48 19.23 C-12.53 21.62 -14.52 24.05 -16.5 26.5 C-20.89 31.9 -25.41 37.17 -29.95 42.45 C-40.24 54.41 -50.39 66.48 -60 79 C-62.43 75.36 -62.16 73.29 -62 69 C-61.34 69.99 -60.68 70.98 -60 72 C-59.44 71.14 -58.89 70.27 -58.32 69.38 C-56.08 66.03 -53.56 62.98 -50.94 59.94 C-49.96 58.79 -48.98 57.64 -48 56.5 C-47.5 55.92 -47 55.34 -46.49 54.74 C-44.15 52 -41.82 49.25 -39.5 46.5 C-38.59 45.42 -37.68 44.35 -36.77 43.27 C-34.88 41.04 -32.99 38.81 -31.11 36.57 C-30.63 36.01 -30.16 35.45 -29.67 34.87 C-28.73 33.76 -27.8 32.65 -26.87 31.55 C-23.71 27.81 -20.48 24.16 -17.14 20.59 C-15.71 18.92 -15.71 18.92 -16 16 C-15.19 15.71 -15.19 15.71 -14.36 15.41 C-10.94 13.37 -8.8 10.5 -6.31 7.44 C-5.33 6.25 -4.35 5.06 -3.36 3.87 C-2.58 2.92 -1.8 1.98 -1 1 C-0.67 0.67 -0.34 0.34 0 0 Z " fill="#B4A26E" transform="translate(915,32)"/>
<path d="M0 0 C1.14 -0.03 2.29 -0.06 3.47 -0.09 C4.56 -0.1 5.66 -0.1 6.79 -0.11 C7.79 -0.13 8.79 -0.14 9.82 -0.16 C12.38 0.31 12.38 0.31 14.16 2.18 C15.54 4.6 16.32 6.88 17.06 9.56 C17.31 10.45 17.57 11.35 17.82 12.27 C18.01 12.94 18.19 13.62 18.38 14.31 C17.38 15.31 17.38 15.31 15.06 15.43 C14.06 15.42 13.06 15.42 12.03 15.41 C10.95 15.41 9.87 15.4 8.76 15.4 C7.62 15.39 6.48 15.38 5.31 15.38 C4.17 15.37 3.03 15.37 1.86 15.36 C-0.97 15.35 -3.8 15.33 -6.62 15.31 C-7.3 13.9 -7.97 12.48 -8.62 11.06 C-9 10.27 -9.37 9.48 -9.75 8.67 C-10.62 6.31 -10.62 6.31 -10.62 2.31 C-12.93 2.31 -15.25 2.31 -17.62 2.31 C-17.62 1.98 -17.62 1.65 -17.62 1.31 C-11.77 -0.02 -5.98 0.05 0 0 Z " fill="#93794F" transform="translate(730.625,250.6875)"/>
<path d="M0 0 C8.25 0 16.5 0 25 0 C29 8 29 8 30 14 C21.75 14 13.5 14 5 14 C1 3 1 3 0 0 Z " fill="#92784F" transform="translate(1210,252)"/>
<path d="M0 0 C0.5 0.99 0.5 0.99 1 2 C1.66 2.33 2.32 2.66 3 3 C2.31 3.74 1.62 4.48 0.91 5.24 C-4.47 11.04 -9.66 16.92 -14.62 23.09 C-17.36 26.44 -20.17 29.72 -23 33 C-33.52 44.78 -33.52 44.78 -42 58 C-42.33 58 -42.66 58 -43 58 C-43.33 54.37 -43.66 50.74 -44 47 C-43.34 47.66 -42.68 48.32 -42 49 C-41.45 48.27 -41.45 48.27 -40.89 47.52 C-36.63 41.94 -32.13 36.61 -27.55 31.3 C-24.48 27.74 -21.46 24.15 -18.5 20.5 C-14.91 16.08 -11.25 11.71 -7.56 7.38 C-7.04 6.76 -6.52 6.14 -5.98 5.51 C-2.23 1.12 -2.23 1.12 0 0 Z " fill="#6D4C33" transform="translate(897,48)"/>
<path d="M0 0 C5.94 0 11.88 0 18 0 C20.01 4.03 18.41 9.7 18 14 C12.06 14 6.12 14 0 14 C0 9.38 0 4.76 0 0 Z " fill="#93794F" transform="translate(816,252)"/>
<path d="M0 0 C0.33 0 0.66 0 1 0 C1.33 66.33 1.66 132.66 2 201 C17.84 201.5 17.84 201.5 34 202 C34 202.33 34 202.66 34 203 C25.33 203.6 16.69 204.1 8 204.12 C6.97 204.13 6.97 204.13 5.92 204.14 C1.12 204.12 1.12 204.12 0 203 C-0.1 200.38 -0.13 197.79 -0.12 195.17 C-0.12 194.34 -0.12 193.51 -0.12 192.66 C-0.12 189.86 -0.12 187.05 -0.11 184.25 C-0.11 182.25 -0.11 180.25 -0.11 178.25 C-0.11 172.8 -0.11 167.36 -0.1 161.91 C-0.1 156.22 -0.09 150.53 -0.09 144.85 C-0.09 134.07 -0.08 123.29 -0.07 112.52 C-0.06 100.25 -0.06 87.98 -0.05 75.72 C-0.04 50.48 -0.02 25.24 0 0 Z " fill="#977F53" transform="translate(799,49)"/>
<path d="M0 0 C-0.5 5.66 -1.55 9.88 -4 15 C-8.29 15 -12.58 15 -17 15 C-14.12 5.25 -14.12 5.25 -13 3 C-22.57 2.67 -32.14 2.34 -42 2 C-42 1.67 -42 1.34 -42 1 C-12.86 -0.19 -12.86 -0.19 0 0 Z " fill="#92794F" transform="translate(573,251)"/>
<path d="M0 0 C-0.45 1.58 -0.91 3.17 -1.38 4.75 C-1.76 6.07 -1.76 6.07 -2.15 7.42 C-3 10 -3 10 -5 14 C-8.96 14 -12.92 14 -17 14 C-16.47 9.51 -15.71 6.26 -14 2 C-23.57 1.67 -33.14 1.34 -43 1 C-43 0.67 -43 0.34 -43 0 C-38.6 -0.17 -34.21 -0.34 -29.81 -0.5 C-28.59 -0.55 -27.36 -0.6 -26.1 -0.64 C-3 -1.5 -3 -1.5 0 0 Z " fill="#937A50" transform="translate(1065,252)"/>
<path d="M0 0 C3.34 0.61 6.02 1.35 9 3 C8.39 7.82 6.35 11.55 4.06 15.75 C3.7 16.43 3.34 17.12 2.97 17.82 C0.26 22.87 0.26 22.87 -2 24 C-4.48 22.89 -6.68 21.42 -9 20 C-7.56 15.26 -5.63 11.01 -3.38 6.62 C-2.89 5.66 -2.89 5.66 -2.39 4.68 C-1.6 3.12 -0.8 1.56 0 0 Z " fill="#957B51" transform="translate(462,68)"/>
<path d="M0 0 C0.91 0.01 1.82 0.02 2.76 0.03 C3.46 0.04 4.16 0.05 4.88 0.06 C5.71 6.41 2.81 10.64 -0.12 16.06 C-3.76 16.06 -7.38 16.06 -11.12 16.06 C-10.63 10.42 -9.71 6.12 -7.12 1.06 C-4.6 -0.2 -2.81 -0.04 0 0 Z " fill="#977F53" transform="translate(1103.125,31.9375)"/>
<path d="M0 0 C1.05 -0 1.05 -0 2.12 -0.01 C4 0.12 4 0.12 6 1.12 C5.43 6.73 3.37 11.08 1 16.12 C-2.63 16.12 -6.26 16.12 -10 16.12 C-9.51 10.48 -8.58 6.18 -6 1.12 C-3.75 0 -2.49 -0.01 0 0 Z " fill="#977F53" transform="translate(611,31.875)"/>
<path d="M0 0 C1.94 0.31 1.94 0.31 4 1 C4.33 1.99 4.66 2.98 5 4 C5.66 4.33 6.32 4.66 7 5 C1.06 14.9 1.06 14.9 -5 25 C-5.33 24.34 -5.66 23.68 -6 23 C-7.64 22.28 -9.31 21.61 -11 21 C-9.67 16.34 -7.73 12.98 -5 9 C-3.29 6.03 -1.64 3.02 0 0 Z " fill="#967D52" transform="translate(338,196)"/>
<path d="M0 0 C4.12 -0.06 8.25 -0.09 12.38 -0.12 C13.55 -0.14 14.73 -0.16 15.94 -0.18 C17.62 -0.19 17.62 -0.19 19.34 -0.2 C20.37 -0.21 21.41 -0.22 22.48 -0.23 C25 0 25 0 27 2 C22.38 2.33 17.76 2.66 13 3 C12.67 4.98 12.34 6.96 12 9 C11.34 9.66 10.68 10.32 10 11 C8.89 10.06 7.79 9.13 6.69 8.19 C6.07 7.67 5.46 7.14 4.82 6.61 C1.48 3.66 1.48 3.66 0 2 C0 1.34 0 0.68 0 0 Z " fill="#360A06" transform="translate(981,251)"/>
<path d="M0 0 C1.32 0.66 2.64 1.32 4 2 C3.01 2.49 3.01 2.49 2 3 C1.72 3.57 1.45 4.14 1.16 4.73 C-0.35 7.68 -2.38 9.81 -4.62 12.25 C-5.44 13.14 -6.26 14.03 -7.1 14.95 C-8.04 15.97 -8.04 15.97 -9 17 C-9.99 16.01 -10.98 15.02 -12 14 C-10.19 11.85 -8.38 9.71 -6.56 7.56 C-6.05 6.95 -5.53 6.34 -5 5.71 C-1.11 1.11 -1.11 1.11 0 0 Z " fill="#967D52" transform="translate(915,32)"/>
<path d="M0 0 C-1.76 1.37 -3.53 2.72 -5.31 4.06 C-6.3 4.82 -7.28 5.57 -8.3 6.35 C-9.64 7.17 -9.64 7.17 -11 8 C-11.99 7.67 -12.98 7.34 -14 7 C-13.67 6.01 -13.34 5.02 -13 4 C-13.33 3.34 -13.66 2.68 -14 2 C-12.23 1.47 -10.46 0.95 -8.69 0.44 C-7.7 0.15 -6.72 -0.14 -5.7 -0.44 C-3 -1 -3 -1 0 0 Z " fill="#8B704B" transform="translate(473,247)"/>
<path d="M0 0 C0.66 0 1.32 0 2 0 C1.94 1.75 1.94 1.75 1 4 C-1.25 5.73 -3.4 6.77 -6 8 C-6.66 7.67 -7.32 7.34 -8 7 C-5.64 4.47 -4.34 3.11 -1 2 C-0.67 1.34 -0.34 0.68 0 0 Z " fill="#B5A47A" transform="translate(360,44)"/>
<path d="M0 0 C1.98 0.95 3.96 1.91 5.94 2.88 C7.04 3.41 8.14 3.94 9.28 4.49 C12 6 12 6 13 8 C7.98 6.46 3.39 4.97 -1 2 C-0.67 1.34 -0.34 0.68 0 0 Z " fill="#320402" transform="translate(425,100)"/>
</svg>
