<?xml version="1.0" encoding="UTF-8"?>
<!-- Generator: visioncortex VTracer 0.6.3 -->
<svg version="1.1" xmlns="http://www.w3.org/2000/svg" width="1280" height="234">
<path d="M0 0 C422.4 0 844.8 0 1280 0 C1280 77.22 1280 154.44 1280 234 C857.6 234 435.2 234 0 234 C0 156.78 0 79.56 0 0 Z " fill="#300201" transform="translate(0,0)"/>
<path d="M0 0 C8.01 6.68 14.44 14.03 20.31 22.66 C20.79 23.33 21.27 24 21.76 24.7 C35.19 44.6 37.48 70.72 33.55 93.96 C32.73 97.96 31.6 101.79 30.31 105.66 C30.05 106.55 29.78 107.45 29.51 108.37 C23.18 126.98 6.15 145.4 -11.07 154.44 C-11.93 154.84 -12.8 155.24 -13.69 155.66 C-13.36 156.32 -13.03 156.98 -12.69 157.66 C-19.41 162.84 -25.9 167.14 -33.87 170.1 C-34.81 170.45 -34.81 170.45 -35.77 170.81 C-57.12 178.27 -84.36 177.36 -104.93 167.97 C-126.39 157.57 -142.05 140.86 -150.69 118.66 C-158.67 94.23 -158.03 67.89 -146.69 44.66 C-144.2 39.89 -141.47 35.26 -138.69 30.66 C-138.22 29.79 -137.75 28.93 -137.27 28.03 C-135.36 25.17 -133.21 23.4 -130.5 21.28 C-124.94 16.86 -119.53 12.34 -114.36 7.47 C-83.48 -21.27 -34.05 -27.1 0 0 Z " fill="#FAFCFC" transform="translate(836.68505859375,34.34130859375)"/>
<path d="M0 0 C23.96 -0.6 45.46 7.01 63.04 23.4 C81.09 40.87 90.59 62.74 91.15 87.7 C91.39 114.86 83.93 137.62 64.71 157.33 C47.77 173.91 27.59 180.84 4 181.47 C-19.35 181.05 -39.59 173.66 -57.25 158.16 C-58.01 157.49 -58.77 156.83 -59.55 156.14 C-75.92 140.85 -84.3 118.32 -85.45 96.25 C-85.85 76.09 -81.59 57.09 -70.25 40.16 C-69.52 38.99 -69.52 38.99 -68.79 37.8 C-56.68 18.66 -36.07 6.98 -14.46 1.83 C-9.55 0.8 -5.01 0.24 0 0 Z " fill="#FAFCFC" transform="translate(1149.25,16.84375)"/>
<path d="M0 0 C1.27 -0.01 2.53 -0.02 3.84 -0.03 C5.23 -0.03 6.63 -0.04 8.02 -0.04 C8.72 -0.04 9.43 -0.05 10.16 -0.05 C13.9 -0.07 17.65 -0.07 21.4 -0.08 C24.47 -0.08 27.54 -0.1 30.61 -0.12 C72.4 -0.43 72.4 -0.43 85.55 6.85 C86.21 7.2 86.87 7.55 87.54 7.91 C98.81 14.14 106.2 24.33 109.92 36.66 C113.14 51.86 112.45 69.46 103.84 82.72 C97.73 90.75 89.53 99.55 79.42 102.04 C78.62 102.08 77.81 102.12 76.98 102.16 C79.21 107.16 82.02 110.82 85.61 114.85 C86.69 116.09 87.78 117.33 88.86 118.58 C89.4 119.18 89.93 119.79 90.48 120.42 C92.55 122.81 94.55 125.26 96.55 127.72 C101.6 133.95 106.79 140.05 111.98 146.16 C115.66 150.49 119.33 154.82 122.98 159.16 C123.42 159.68 123.86 160.2 124.31 160.73 C125.56 162.23 126.8 163.73 128.05 165.22 C129.12 166.51 129.12 166.51 130.21 167.82 C131.77 169.89 132.93 171.8 133.98 174.16 C131.69 175.31 130.19 175.36 127.63 175.48 C126.36 175.54 126.36 175.54 125.05 175.6 C124.16 175.64 123.28 175.68 122.36 175.72 C121.01 175.79 121.01 175.79 119.64 175.85 C117.42 175.96 115.2 176.06 112.98 176.16 C113.42 176.72 113.85 177.27 114.3 177.84 C114.85 178.57 115.41 179.29 115.98 180.04 C116.54 180.76 117.1 181.47 117.67 182.22 C118.98 184.16 118.98 184.16 118.98 186.16 C119.97 186.49 120.96 186.82 121.98 187.16 C108.71 187.27 95.44 187.26 82.17 186.91 C81.12 186.9 80.08 186.88 79 186.87 C71.79 186.63 71.79 186.63 68.05 184.45 C65.8 181.96 63.76 179.44 61.8 176.72 C61.02 175.66 60.24 174.6 59.43 173.5 C59.03 172.95 58.63 172.4 58.21 171.83 C56.22 169.12 54.16 166.45 52.11 163.79 C51.7 163.26 51.29 162.72 50.87 162.18 C44.65 154.12 38.35 146.11 31.98 138.16 C31.98 150.04 31.98 161.92 31.98 174.16 C25.05 175.15 25.05 175.15 17.98 176.16 C17.65 179.79 17.32 183.42 16.98 187.16 C7.86 187.27 -1.22 187.06 -10.33 186.72 C-11.46 186.68 -12.58 186.65 -13.75 186.6 C-14.8 186.56 -15.86 186.52 -16.94 186.48 C-18.37 186.42 -18.37 186.42 -19.83 186.37 C-22.02 186.16 -22.02 186.16 -23.02 185.16 C-23.11 183.13 -23.14 181.09 -23.14 179.05 C-23.14 178.4 -23.15 177.76 -23.15 177.09 C-23.15 174.91 -23.15 172.73 -23.15 170.55 C-23.15 168.99 -23.15 167.44 -23.15 165.88 C-23.16 161.64 -23.15 157.39 -23.15 153.15 C-23.15 148.7 -23.15 144.26 -23.15 139.81 C-23.15 132.34 -23.15 124.86 -23.15 117.39 C-23.14 108.76 -23.14 100.14 -23.15 91.52 C-23.15 84.11 -23.15 76.7 -23.15 69.29 C-23.15 64.87 -23.15 60.45 -23.15 56.03 C-23.16 51.86 -23.15 47.69 -23.15 43.52 C-23.15 42 -23.15 40.48 -23.15 38.96 C-23.17 19.27 -23.17 19.27 -22.02 13.16 C-19.25 11.78 -16.97 12.07 -13.89 12.1 C-12.8 12.11 -11.7 12.12 -10.57 12.13 C-9.73 12.14 -8.88 12.15 -8.02 12.16 C-8.02 8.53 -8.02 4.9 -8.02 1.16 C-5.27 -0.21 -3.07 0.02 0 0 Z " fill="#FAFCFC" transform="translate(913.015869140625,19.8388671875)"/>
<path d="M0 0 C0.74 -0.01 1.49 -0.02 2.26 -0.02 C3.83 -0.04 5.41 -0.05 6.99 -0.06 C9.4 -0.07 11.81 -0.12 14.22 -0.16 C15.75 -0.17 17.28 -0.18 18.81 -0.19 C19.53 -0.21 20.26 -0.22 21 -0.24 C25.97 -0.22 25.97 -0.22 28.29 1.89 C29.67 4.64 30.88 7.38 32 10.24 C32.48 11.44 32.95 12.64 33.44 13.88 C33.69 14.51 33.94 15.15 34.2 15.81 C35.26 18.55 36.35 21.28 37.43 24.01 C37.98 25.41 38.54 26.82 39.09 28.22 C41.49 34.29 43.94 40.33 46.41 46.36 C52.67 61.68 58.86 77.02 65.05 92.37 C65.97 94.64 66.88 96.92 67.8 99.19 C68.26 100.33 68.72 101.48 69.2 102.65 C72.1 109.84 75 117.02 77.92 124.2 C79.85 128.97 81.78 133.73 83.71 138.49 C84.63 140.76 85.55 143.03 86.47 145.31 C87.76 148.47 89.04 151.64 90.32 154.81 C90.7 155.74 91.08 156.66 91.47 157.62 C93.68 163.1 95.68 168.61 97.47 174.24 C93.91 175.43 90.5 175.59 86.79 175.8 C86.08 175.84 85.38 175.89 84.66 175.93 C82.93 176.04 81.2 176.14 79.47 176.24 C79.97 177.31 80.46 178.38 80.97 179.49 C82.36 182.49 82.47 183.7 82.47 187.24 C72.33 187.35 62.18 187.28 52.04 186.99 C51.03 186.97 50.03 186.96 49 186.95 C48.07 186.91 47.13 186.88 46.16 186.85 C45.33 186.83 44.5 186.81 43.64 186.78 C41.47 186.24 41.47 186.24 39.83 184.59 C38.23 181.81 37.12 179.06 36.03 176.05 C35.59 174.86 35.15 173.66 34.7 172.44 C34.26 171.19 33.81 169.95 33.35 168.68 C32.89 167.42 32.43 166.16 31.97 164.9 C28.8 156.23 28.8 156.23 27.47 152.24 C26.46 152.24 26.46 152.24 25.44 152.25 C18.46 152.27 11.49 152.28 4.51 152.29 C1.91 152.3 -0.7 152.31 -3.31 152.31 C-7.04 152.33 -10.78 152.33 -14.52 152.34 C-15.69 152.34 -16.86 152.35 -18.07 152.35 C-19.15 152.35 -20.23 152.35 -21.34 152.35 C-22.78 152.36 -22.78 152.36 -24.24 152.36 C-26.53 152.24 -26.53 152.24 -28.53 151.24 C-28.63 152.06 -28.73 152.88 -28.84 153.72 C-29.65 157.87 -31.01 161.61 -32.53 165.55 C-32.8 166.28 -33.07 167.01 -33.36 167.76 C-35.39 173.1 -35.39 173.1 -36.53 174.24 C-41.58 175.16 -46.53 175.37 -51.65 175.34 C-52.39 175.33 -53.14 175.33 -53.91 175.33 C-56.26 175.33 -58.61 175.31 -60.96 175.3 C-62.57 175.3 -64.18 175.29 -65.78 175.29 C-69.7 175.28 -73.61 175.26 -77.53 175.24 C-78.67 171.16 -78.39 169.02 -76.7 165.16 C-76.04 163.61 -76.04 163.61 -75.37 162.03 C-74.86 160.88 -74.36 159.73 -73.84 158.55 C-72.72 155.93 -71.61 153.31 -70.5 150.68 C-70.19 149.96 -69.88 149.23 -69.57 148.49 C-65.6 139.12 -61.88 129.66 -58.12 120.21 C-51.02 102.36 -43.81 84.56 -36.4 66.82 C-30.59 52.88 -24.98 38.86 -19.53 24.77 C-18.65 22.55 -17.71 20.37 -16.74 18.18 C-15.34 15.31 -15.34 15.31 -15.53 12.24 C-14.53 10.9 -13.53 9.57 -12.53 8.24 C-11.98 7.02 -11.46 5.79 -10.96 4.55 C-8.61 -0.87 -5.32 0.05 0 0 Z " fill="#FAFCFC" transform="translate(268.52734375,19.76171875)"/>
<path d="M0 0 C1.53 1.18 1.53 1.18 3.53 4.18 C3.23 8.86 0.89 12.83 -1.22 16.93 C-1.58 17.63 -1.94 18.34 -2.31 19.07 C-3.35 21.11 -4.41 23.14 -5.47 25.18 C-5.99 26.17 -6.51 27.16 -7.04 28.19 C-10.18 34.03 -10.18 34.03 -12.47 35.18 C-14.5 34.24 -16.5 33.24 -18.47 32.18 C-18.7 32.98 -18.92 33.78 -19.16 34.61 C-20.26 37.62 -21.48 40.12 -23.05 42.9 C-23.5 43.7 -23.96 44.5 -24.42 45.33 C-24.77 45.94 -25.11 46.55 -25.47 47.18 C-25.98 46.95 -26.49 46.72 -27.02 46.49 C-46 38.06 -46 38.06 -66.47 36.18 C-66.87 40.25 -67.05 42.41 -64.53 45.74 C-56.92 51.79 -49.11 55.87 -40.16 59.61 C-26.86 65.34 -15.97 71.02 -5.47 81.18 C-4.83 81.72 -4.2 82.26 -3.54 82.81 C4.34 89.76 8.88 100.31 9.73 110.64 C10.04 126.99 5.75 140.33 -5.47 152.18 C-21.45 166.08 -42.84 169.45 -63.47 168.18 C-85.15 166.21 -103.79 158.83 -121.47 146.18 C-120.93 141.59 -118.9 138.33 -116.41 134.55 C-113.39 130.24 -113.39 130.24 -112.47 125.18 C-111.81 125.51 -111.15 125.84 -110.47 126.18 C-110.2 125.45 -109.94 124.72 -109.66 123.98 C-108.47 121.17 -107.07 118.87 -105.34 116.36 C-104.8 115.57 -104.27 114.78 -103.71 113.97 C-103.3 113.38 -102.89 112.79 -102.47 112.18 C-99.54 113.59 -96.76 115.17 -93.98 116.86 C-78.65 126.01 -66.5 131.09 -48.47 130.18 C-49.42 123.89 -50.73 118.64 -55.47 114.18 C-60.8 110.54 -66.77 108.03 -72.6 105.31 C-73.32 104.98 -74.04 104.65 -74.78 104.3 C-75.51 103.96 -76.23 103.63 -76.98 103.28 C-94.74 94.94 -112.19 84.98 -119.56 65.88 C-123.92 52.95 -121.29 39.84 -115.66 27.74 C-113.17 22.99 -110.83 20.22 -106.47 17.18 C-106.14 16.52 -105.81 15.86 -105.47 15.18 C-104.48 15.18 -103.49 15.18 -102.47 15.18 C-102.14 14.19 -101.81 13.2 -101.47 12.18 C-99.48 10.82 -97.48 9.49 -95.47 8.18 C-93.78 6.53 -92.12 4.86 -90.47 3.18 C-66.88 -20.35 -26.73 -15.44 0 0 Z " fill="#FAFCFC" transform="translate(163.46875,29.82421875)"/>
<path d="M0 0 C1.32 -0.01 2.64 -0.01 4 -0.02 C5.45 -0.02 6.9 -0.01 8.35 -0.01 C9.84 -0.01 11.33 -0.01 12.82 -0.01 C15.96 -0.02 19.09 -0.01 22.23 -0 C26.21 0.01 30.19 0 34.17 -0.01 C37.26 -0.02 40.35 -0.01 43.43 -0.01 C44.9 -0.01 46.36 -0.01 47.83 -0.01 C64.81 -0.06 84.66 1.05 97.74 13.26 C98.47 13.88 99.21 14.51 99.97 15.15 C110.42 24.61 114.85 36.4 115.74 50.26 C115.8 51.13 115.85 52 115.91 52.9 C116.38 68.2 112.14 81.59 102.08 93.17 C98.56 96.81 94.76 99.88 90.63 102.8 C88.66 104.25 88.66 104.25 86.81 106.18 C76.31 116.69 64.18 120.54 49.74 122.26 C44.13 122.26 38.52 122.26 32.74 122.26 C32.41 139.42 32.08 156.58 31.74 174.26 C24.51 175.16 17.68 175.44 10.43 175.44 C8.35 175.45 6.27 175.46 4.19 175.48 C2.88 175.49 1.56 175.49 0.21 175.49 C-0.98 175.49 -2.18 175.5 -3.41 175.5 C-6.26 175.26 -6.26 175.26 -8.26 173.26 C-8.53 170.53 -8.53 170.53 -8.55 166.97 C-8.55 166.32 -8.56 165.67 -8.57 165 C-8.59 162.8 -8.59 160.61 -8.6 158.41 C-8.61 156.84 -8.62 155.27 -8.63 153.7 C-8.66 149.43 -8.68 145.15 -8.7 140.87 C-8.72 136.4 -8.75 131.92 -8.78 127.45 C-8.82 119.92 -8.86 112.4 -8.9 104.87 C-8.93 96.19 -8.98 87.5 -9.04 78.82 C-9.09 70.45 -9.14 62.09 -9.18 53.73 C-9.2 50.18 -9.22 46.62 -9.24 43.07 C-9.27 38.88 -9.29 34.68 -9.31 30.48 C-9.31 28.95 -9.32 27.42 -9.33 25.88 C-9.45 7.53 -9.45 7.53 -8.26 2.26 C-5.5 -0.51 -3.88 0.01 0 0 Z " fill="#FAFCFC" transform="translate(554.262939453125,19.7412109375)"/>
<path d="M0 0 C1.32 -0.01 2.64 -0.01 4 -0.02 C5.45 -0.02 6.9 -0.02 8.35 -0.02 C9.84 -0.03 11.33 -0.03 12.82 -0.03 C15.96 -0.04 19.09 -0.04 22.23 -0.04 C26.21 -0.04 30.19 -0.05 34.17 -0.07 C37.26 -0.08 40.35 -0.08 43.43 -0.08 C44.9 -0.08 46.36 -0.09 47.83 -0.1 C64.8 -0.18 84.68 0.93 97.74 13.15 C98.48 13.79 99.23 14.44 100 15.11 C110.95 25.14 115.07 38.01 115.87 52.49 C116.26 68.82 111.76 82.89 100.42 94.83 C97.12 98.02 93.47 100.42 89.56 102.79 C87.43 104.1 87.43 104.1 86.74 107.15 C84.41 108.86 84.41 108.86 81.49 110.65 C80.06 111.53 80.06 111.53 78.6 112.43 C77.65 112.99 76.71 113.56 75.74 114.15 C74.88 114.68 74.02 115.22 73.13 115.77 C60.91 122.8 46.32 122.15 32.74 122.15 C32.41 139.31 32.08 156.47 31.74 174.15 C24.51 175.05 17.68 175.33 10.43 175.33 C8.35 175.33 6.27 175.35 4.19 175.37 C2.88 175.37 1.56 175.37 0.21 175.38 C-0.98 175.38 -2.18 175.38 -3.41 175.39 C-6.26 175.15 -6.26 175.15 -8.26 173.15 C-8.53 170.42 -8.53 170.42 -8.55 166.87 C-8.55 166.22 -8.56 165.56 -8.57 164.89 C-8.59 162.7 -8.59 160.51 -8.6 158.31 C-8.61 156.74 -8.62 155.18 -8.63 153.61 C-8.66 149.34 -8.68 145.07 -8.7 140.79 C-8.72 136.32 -8.75 131.85 -8.78 127.38 C-8.82 119.86 -8.86 112.33 -8.9 104.81 C-8.93 96.13 -8.98 87.46 -9.04 78.78 C-9.09 70.42 -9.14 62.07 -9.18 53.71 C-9.2 50.16 -9.22 46.61 -9.24 43.06 C-9.27 38.87 -9.29 34.68 -9.31 30.48 C-9.31 28.95 -9.32 27.42 -9.33 25.89 C-9.46 6.78 -9.46 6.78 -8.26 1.15 C-5.46 -0.26 -3.14 0.01 0 0 Z " fill="#FAFCFC" transform="translate(397.262939453125,19.854736328125)"/>
<path d="M0 0 C-0.97 2.84 -1.91 4.9 -3.86 7.21 C-6.31 10.4 -7.93 13.71 -9.5 17.38 C-9.8 18.07 -10.1 18.77 -10.41 19.48 C-20.36 43.21 -20.84 69.36 -11.46 93.32 C-2.72 114.48 13.83 130.68 34.85 139.8 C51.56 146.48 69.19 147.37 86.81 144.69 C87.98 144.51 87.98 144.51 89.17 144.33 C93.99 143.53 98.46 142.29 103.06 140.62 C105.43 139.86 107.53 139.76 110 140 C106.27 144.03 101.93 147.54 97 150 C97.66 150.33 98.32 150.66 99 151 C85.86 161.11 72.25 167.08 56 170 C54.74 170.23 54.74 170.23 53.46 170.46 C51.3 170.76 49.18 170.9 47 171 C45.47 171.11 45.47 171.11 43.9 171.23 C20.01 172.21 -2.39 163.17 -20.02 147.32 C-31.95 136.21 -39.22 123.5 -44 108 C-44.34 106.93 -44.68 105.86 -45.03 104.75 C-51.61 79.89 -46.13 54.15 -33.9 32.09 C-30.05 25.83 -25.44 19.96 -20 15 C-19.34 15 -18.68 15 -18 15 C-17.34 13.68 -16.68 12.36 -16 11 C-15.34 11 -14.68 11 -14 11 C-11.73 8.85 -9.58 6.62 -7.45 4.33 C-3.31 0 -3.31 0 0 0 Z " fill="#6D4C33" transform="translate(1083,51)"/>
<path d="M0 0 C11.64 10.52 17.36 25.31 18.2 40.69 C18.36 53.86 16.88 67.43 10 79 C3.09 85.48 -7.54 84.34 -16.32 84.21 C-27.97 83.83 -37.36 78.5 -45.88 70.69 C-55.82 59.98 -58.22 44.08 -58 30 C-56.92 17.76 -53.55 2.48 -44 -6 C-40.5 -6.94 -40.5 -6.94 -37 -7 C-36.05 -7.19 -35.1 -7.37 -34.12 -7.56 C-22.4 -9.2 -9.64 -7.25 0 0 Z " fill="#300201" transform="translate(1165,75)"/>
<path d="M0 0 C10.94 8.08 17.38 21.68 19.57 34.81 C21.45 50.3 19.85 66.71 12.02 80.49 C7.11 85.54 -0.59 85.75 -7.24 85.87 C-20.96 85.84 -30.12 83.22 -40.98 74.49 C-41.64 73.97 -42.3 73.45 -42.98 72.91 C-52.86 64.17 -55.15 49.56 -55.94 37.02 C-56.1 22.8 -52.62 7.43 -42.98 -3.51 C-42.32 -3.51 -41.66 -3.51 -40.98 -3.51 C-40.98 -4.17 -40.98 -4.83 -40.98 -5.51 C-39.99 -5.18 -39 -4.85 -37.98 -4.51 C-36.02 -4.83 -36.02 -4.83 -33.92 -5.45 C-22.32 -8.18 -10.22 -6.22 0 0 Z " fill="#300201" transform="translate(793.98046875,73.5078125)"/>
<path d="M0 0 C2.57 -0.33 2.57 -0.33 5.56 -0.25 C7.05 -0.23 7.05 -0.23 8.57 -0.2 C11 0 11 0 12 1 C12.11 3.06 12.14 5.12 12.15 7.19 C12.16 7.84 12.16 8.49 12.16 9.17 C12.18 11.37 12.18 13.58 12.19 15.79 C12.2 17.36 12.21 18.93 12.21 20.51 C12.23 23.91 12.25 27.31 12.26 30.71 C12.28 36.08 12.31 41.44 12.34 46.81 C12.4 59.18 12.46 71.54 12.51 83.91 C12.56 95.24 12.62 106.57 12.68 117.9 C12.71 123.24 12.73 128.59 12.75 133.93 C12.76 137.25 12.78 140.56 12.8 143.88 C12.81 145.43 12.81 146.97 12.82 148.51 C12.82 150.61 12.83 152.71 12.85 154.81 C12.85 155.99 12.86 157.17 12.86 158.38 C12.7 160.93 12.7 160.93 14 162 C15.61 162.15 17.22 162.23 18.84 162.28 C19.82 162.32 20.8 162.36 21.81 162.39 C22.84 162.43 23.87 162.46 24.94 162.5 C26.97 162.57 29 162.64 31.03 162.72 C31.93 162.75 32.84 162.78 33.77 162.81 C36 163 36 163 38 164 C38.03 165.46 38.05 166.92 38.06 168.38 C38.07 169.19 38.09 170 38.1 170.84 C38 173 38 173 37 175 C32.38 175 27.76 175 23 175 C23.19 176.42 23.37 177.85 23.56 179.31 C23.97 182.47 24.03 183.91 23 187 C10.46 187 -2.08 187 -15 187 C-16.46 184.07 -16.12 181.5 -16.12 178.23 C-16.12 177.53 -16.12 176.82 -16.12 176.1 C-16.12 173.73 -16.12 171.35 -16.11 168.98 C-16.11 167.29 -16.11 165.59 -16.11 163.9 C-16.11 159.29 -16.11 154.68 -16.1 150.07 C-16.1 145.25 -16.09 140.43 -16.09 135.62 C-16.09 126.5 -16.08 117.37 -16.07 108.25 C-16.06 97.87 -16.06 87.48 -16.05 77.1 C-16.04 55.73 -16.02 34.37 -16 13 C-13.24 11.62 -10.95 11.9 -7.88 11.94 C-6.78 11.95 -5.68 11.96 -4.55 11.96 C-3.71 11.98 -2.87 11.99 -2 12 C-2.02 11.39 -2.05 10.77 -2.07 10.14 C-2.1 8.92 -2.1 8.92 -2.12 7.69 C-2.15 6.89 -2.17 6.09 -2.2 5.26 C-2 3 -2 3 0 0 Z " fill="#6D4C33" transform="translate(534,32)"/>
<path d="M0 0 C2.57 -0.33 2.57 -0.33 5.56 -0.25 C7.05 -0.23 7.05 -0.23 8.57 -0.2 C11 0 11 0 12 1 C12.11 3.06 12.14 5.12 12.15 7.19 C12.16 7.84 12.16 8.49 12.16 9.17 C12.18 11.37 12.18 13.58 12.19 15.79 C12.2 17.36 12.21 18.93 12.21 20.51 C12.23 23.91 12.25 27.31 12.26 30.71 C12.28 36.08 12.31 41.44 12.34 46.81 C12.4 59.18 12.46 71.54 12.51 83.91 C12.56 95.24 12.62 106.57 12.68 117.9 C12.71 123.24 12.73 128.59 12.75 133.93 C12.76 137.25 12.78 140.56 12.8 143.88 C12.81 145.43 12.81 146.97 12.82 148.51 C12.82 150.61 12.83 152.71 12.85 154.81 C12.85 155.99 12.86 157.17 12.86 158.38 C12.7 160.93 12.7 160.93 14 162 C15.61 162.15 17.22 162.23 18.84 162.28 C19.82 162.32 20.8 162.36 21.81 162.39 C22.84 162.43 23.87 162.46 24.94 162.5 C26.97 162.57 29 162.64 31.03 162.72 C31.93 162.75 32.84 162.78 33.77 162.81 C36 163 36 163 38 164 C38.03 165.46 38.05 166.92 38.06 168.38 C38.07 169.19 38.09 170 38.1 170.84 C38 173 38 173 37 175 C32.38 175 27.76 175 23 175 C23 178.96 23 182.92 23 187 C10.46 187 -2.08 187 -15 187 C-16.23 184.55 -16.11 182.95 -16.1 180.21 C-16.09 179.27 -16.09 178.33 -16.09 177.36 C-16.08 176.37 -16.07 175.39 -16.06 174.38 C-16.06 173.38 -16.05 172.39 -16.05 171.37 C-16.04 168.91 -16.02 166.46 -16 164 C-16.66 163.67 -17.32 163.34 -18 163 C-15.69 162.67 -13.38 162.34 -11 162 C-11.43 161.15 -11.85 160.3 -12.29 159.43 C-16.4 150.7 -17.84 143.78 -17.59 134.02 C-17.58 132.7 -17.57 131.38 -17.56 130.02 C-17.54 126.45 -17.48 122.89 -17.41 119.32 C-17.34 115.57 -17.31 111.83 -17.27 108.08 C-17.2 101.01 -17.1 93.94 -16.99 86.87 C-16.86 78.8 -16.77 70.74 -16.68 62.68 C-16.49 46.12 -16.26 29.56 -16 13 C-13.24 11.62 -10.95 11.9 -7.88 11.94 C-6.78 11.95 -5.68 11.96 -4.55 11.96 C-3.71 11.98 -2.87 11.99 -2 12 C-2.02 11.39 -2.05 10.77 -2.07 10.14 C-2.1 8.92 -2.1 8.92 -2.12 7.69 C-2.15 6.89 -2.17 6.09 -2.2 5.26 C-2 3 -2 3 0 0 Z " fill="#6D4C33" transform="translate(377,32)"/>
<path d="M0 0 C1.45 0.03 1.45 0.03 2.94 0.06 C2.94 0.72 2.94 1.38 2.94 2.06 C3.93 2.56 3.93 2.56 4.94 3.06 C4.69 3.66 4.45 4.26 4.2 4.87 C-2.21 20.57 -8.58 36.28 -14.94 52 C-20.91 66.77 -26.92 81.53 -32.94 96.29 C-36.59 105.24 -40.23 114.18 -43.87 123.13 C-44.98 125.85 -46.08 128.57 -47.19 131.28 C-48.67 134.91 -50.14 138.54 -51.61 142.18 C-52.35 143.99 -53.09 145.8 -53.83 147.62 C-54.25 148.67 -54.68 149.73 -55.11 150.81 C-55.47 151.69 -55.83 152.58 -56.2 153.48 C-57.15 156.33 -57.64 159.1 -58.06 162.06 C-56.81 162.1 -56.81 162.1 -55.52 162.14 C-52.42 162.23 -49.31 162.33 -46.21 162.43 C-44.2 162.5 -42.2 162.56 -40.19 162.62 C-38.93 162.66 -37.68 162.7 -36.38 162.75 C-34.64 162.8 -34.64 162.8 -32.86 162.86 C-30.06 163.06 -30.06 163.06 -28.06 164.06 C-28.54 165.71 -29.02 167.36 -29.5 169 C-29.9 170.37 -29.9 170.37 -30.31 171.78 C-31.06 174.06 -31.06 174.06 -32.06 175.06 C-33.74 175.3 -35.43 175.48 -37.12 175.62 C-38.04 175.71 -38.96 175.79 -39.91 175.88 C-40.62 175.94 -41.33 176 -42.06 176.06 C-42.27 176.77 -42.47 177.48 -42.68 178.21 C-42.95 179.13 -43.22 180.05 -43.5 181 C-43.9 182.37 -43.9 182.37 -44.31 183.78 C-45.06 186.06 -45.06 186.06 -46.06 187.06 C-49.09 187.15 -52.1 187.18 -55.13 187.16 C-56.04 187.16 -56.95 187.16 -57.88 187.16 C-60.8 187.15 -63.71 187.14 -66.62 187.12 C-68.6 187.12 -70.57 187.12 -72.54 187.11 C-77.38 187.1 -82.22 187.08 -87.06 187.06 C-88.45 182.89 -86.81 180.28 -85.18 176.41 C-84.7 175.23 -84.7 175.23 -84.21 174.03 C-83.12 171.39 -82.03 168.76 -80.94 166.12 C-80.17 164.26 -79.4 162.39 -78.64 160.52 C-77.42 157.54 -76.19 154.56 -74.97 151.58 C-70.48 140.67 -66.07 129.73 -61.66 118.79 C-59.43 113.25 -57.19 107.71 -54.95 102.16 C-54.53 101.11 -54.1 100.05 -53.66 98.97 C-48.66 86.58 -43.63 74.2 -38.59 61.83 C-36.91 57.7 -35.24 53.57 -33.56 49.44 C-32.68 47.26 -31.8 45.09 -30.92 42.91 C-30.36 41.54 -29.8 40.18 -29.25 38.81 C-27.99 35.71 -26.74 32.62 -25.48 29.53 C-24.53 27.2 -23.59 24.88 -22.65 22.55 C-21.99 20.92 -21.99 20.92 -21.31 19.27 C-20.93 18.31 -20.54 17.35 -20.14 16.36 C-19.06 14.06 -19.06 14.06 -17.06 12.06 C-14.37 11.79 -11.77 11.98 -9.06 12.06 C-8.54 10.89 -8.54 10.89 -8 9.69 C-7.55 8.68 -7.09 7.67 -6.62 6.62 C-6.17 5.62 -5.72 4.61 -5.25 3.57 C-3.59 0.07 -3.59 0.07 0 0 Z " fill="#6D4C33" transform="translate(249.0625,31.9375)"/>
<path d="M0 0 C-0.36 3.12 -1.22 4.25 -3.33 6.68 C-6.15 10 -7.88 13.44 -9.56 17.44 C-9.86 18.13 -10.16 18.82 -10.46 19.53 C-14.31 28.8 -17.58 38.92 -18 49 C-18.05 50.12 -18.1 51.25 -18.16 52.4 C-18.73 76.82 -12.31 100.67 4.75 118.77 C22.59 137.07 44.29 145.6 69.75 146.31 C75.52 146.22 81.12 145.55 86.81 144.69 C87.98 144.51 87.98 144.51 89.17 144.33 C93.99 143.53 98.46 142.29 103.06 140.62 C105.43 139.86 107.53 139.76 110 140 C99.44 151.05 83.03 157.33 67.83 158.18 C36.49 158.74 13.57 153.96 -9.81 131.62 C-27.51 113.31 -33.52 89.23 -33.21 64.43 C-32.68 45.57 -25.61 29.86 -16 14 C-15.54 13.14 -15.08 12.29 -14.61 11.4 C-12.6 8.4 -10.25 6.45 -7.44 4.19 C-6.47 3.4 -5.5 2.61 -4.5 1.79 C-2 0 -2 0 0 0 Z " fill="#B5A370" transform="translate(714,51)"/>
<path d="M0 0 C0.66 0 1.32 0 2 0 C0.46 3.23 -1.32 6.29 -3.12 9.38 C-16.27 32.13 -20.58 56.56 -14.97 82.36 C-10.59 98.77 -3 112.16 9 124 C9.67 124.67 10.34 125.34 11.03 126.02 C27.6 141.51 48.65 147.61 70.88 147.44 C72.19 147.43 73.5 147.43 74.85 147.43 C83.31 147.3 90.82 146.45 98.89 143.96 C102.95 142.71 106.78 142.3 111 142 C107.9 145.41 104.48 147.75 100.5 150 C99.88 150.35 99.27 150.7 98.63 151.06 C78.19 162.3 52.29 163.77 30.07 157.64 C8.34 150.95 -10.95 135.8 -22.02 115.88 C-33.09 94.53 -35.68 68.1 -29 45 C-27.54 40.56 -25.87 36.28 -24 32 C-23.63 31.14 -23.26 30.28 -22.88 29.39 C-18.66 20.26 -12.42 11.79 -5 5 C-4.34 5 -3.68 5 -3 5 C-2.69 4.36 -2.38 3.72 -2.06 3.06 C-1 1 -1 1 0 0 Z " fill="#6D4C33" transform="translate(699,61)"/>
<path d="M0 0 C0.99 0 1.98 0 3 0 C2.03 2.84 1.09 4.9 -0.86 7.21 C-3.31 10.4 -4.93 13.71 -6.5 17.38 C-6.8 18.07 -7.1 18.77 -7.41 19.48 C-17.36 43.21 -17.84 69.36 -8.46 93.32 C0.28 114.48 16.83 130.68 37.85 139.8 C54.56 146.48 72.19 147.37 89.81 144.69 C90.98 144.51 90.98 144.51 92.17 144.33 C96.99 143.53 101.46 142.29 106.06 140.62 C108.43 139.86 110.53 139.76 113 140 C106.42 147.11 99.01 150.79 90 154 C88.38 154.6 88.38 154.6 86.72 155.2 C64.27 162.13 37.51 160.08 16.68 149.27 C-3.8 138.03 -19.45 120.65 -26.23 98.09 C-33.66 71.65 -30.7 45.85 -17.75 21.75 C-16.25 19.08 -14.7 16.55 -13 14 C-12.34 14 -11.68 14 -11 14 C-10.92 13.25 -10.83 12.5 -10.75 11.73 C-9.84 8.42 -8.7 7.44 -6.06 5.31 C-5 4.44 -5 4.44 -3.91 3.55 C-3.28 3.04 -2.65 2.53 -2 2 C-1.34 1.34 -0.68 0.68 0 0 Z " fill="#B4A270" transform="translate(1080,51)"/>
<path d="M0 0 C1.32 0.33 2.64 0.66 4 1 C4 1.66 4 2.32 4 3 C4.66 3.33 5.32 3.66 6 4 C5.04 5.57 5.04 5.57 4.07 7.18 C3.23 8.55 2.4 9.93 1.56 11.31 C1.14 12 0.72 12.69 0.29 13.4 C-0.12 14.07 -0.52 14.74 -0.93 15.43 C-1.49 16.34 -1.49 16.34 -2.06 17.28 C-3.15 19.15 -3.15 19.15 -4 22 C-2.94 22.38 -2.94 22.38 -1.86 22.77 C1.29 24.12 3.94 25.81 6.81 27.69 C18.85 35.26 30.9 39.92 45 42 C45.8 42.13 46.59 42.26 47.41 42.39 C62.74 44.54 79.36 43.06 94 38 C96.87 37.88 96.87 37.88 99 38 C95.24 42.26 91.19 44.77 86.21 47.47 C83.75 49.17 83.24 50.36 82 53 C68.22 65.08 46.3 69.14 28.43 68.39 C6.98 66.84 -15.12 59.7 -32 46 C-31.41 41.58 -29.75 38.45 -27.5 34.62 C-27.15 34.03 -26.8 33.43 -26.45 32.82 C-25.31 30.87 -24.15 28.94 -23 27 C-22.58 26.3 -22.17 25.61 -21.74 24.89 C-19.18 20.58 -16.59 16.29 -14 12 C-11.61 12.58 -9.33 13.22 -7 14 C-6.66 13.04 -6.66 13.04 -6.31 12.06 C-4.51 7.87 -2.26 3.96 0 0 Z " fill="#6D4C33" transform="translate(46,154)"/>
<path d="M0 0 C0.89 -0.01 1.77 -0.03 2.69 -0.04 C5 0.19 5 0.19 7 2.19 C7.26 4.91 7.26 4.91 7.27 8.46 C7.28 9.11 7.28 9.76 7.29 10.43 C7.3 12.62 7.3 14.81 7.3 16.99 C7.31 18.56 7.32 20.12 7.33 21.69 C7.35 25.06 7.36 28.44 7.37 31.81 C7.38 37.15 7.4 42.48 7.43 47.81 C7.47 56.24 7.5 64.66 7.53 73.09 C7.58 88.19 7.65 103.3 7.72 118.4 C7.74 123.7 7.76 129.01 7.78 134.31 C7.79 137.61 7.8 140.9 7.82 144.19 C7.82 145.73 7.83 147.26 7.83 148.79 C7.83 150.88 7.84 152.96 7.86 155.04 C7.86 156.21 7.86 157.38 7.87 158.59 C7.71 161.12 7.71 161.12 9 162.19 C10.61 162.32 12.23 162.39 13.84 162.43 C15.31 162.48 15.31 162.48 16.81 162.53 C18.89 162.59 20.97 162.65 23.05 162.71 C24.03 162.74 25.02 162.77 26.03 162.81 C27.38 162.85 27.38 162.85 28.77 162.88 C31 163.19 31 163.19 33 165.19 C32.98 167.57 32.98 167.57 32.62 170.31 C32.51 171.22 32.4 172.13 32.29 173.07 C32.19 173.77 32.1 174.47 32 175.19 C22.88 175.33 13.8 175.09 4.69 174.75 C3.56 174.71 2.43 174.67 1.27 174.63 C0.22 174.59 -0.84 174.55 -1.93 174.5 C-3.36 174.45 -3.36 174.45 -4.81 174.39 C-7 174.19 -7 174.19 -8 173.19 C-8.1 171.15 -8.13 169.11 -8.13 167.07 C-8.13 166.43 -8.13 165.78 -8.13 165.12 C-8.14 162.94 -8.13 160.76 -8.13 158.58 C-8.13 157.02 -8.13 155.46 -8.13 153.91 C-8.14 149.66 -8.14 145.42 -8.13 141.17 C-8.13 136.73 -8.13 132.28 -8.14 127.84 C-8.14 120.36 -8.14 112.89 -8.13 105.41 C-8.12 96.79 -8.13 88.17 -8.13 79.55 C-8.14 72.14 -8.14 64.73 -8.13 57.32 C-8.13 52.9 -8.13 48.48 -8.14 44.06 C-8.14 39.89 -8.14 35.72 -8.13 31.55 C-8.13 30.03 -8.13 28.51 -8.13 26.98 C-8.16 7.3 -8.16 7.3 -7 1.19 C-4.52 -0.05 -2.76 0.02 0 0 Z " fill="#B5A370" transform="translate(898,31.8125)"/>
<path d="M0 0 C3.96 0 7.92 0 12 0 C12.33 53.13 12.66 106.26 13 161 C21.25 161.33 29.5 161.66 38 162 C38 166.29 38 170.58 38 175 C32.62 175.07 27.25 175.13 21.87 175.16 C20.05 175.18 18.22 175.2 16.39 175.23 C13.76 175.26 11.13 175.28 8.51 175.29 C7.69 175.31 6.87 175.32 6.02 175.34 C3.72 175.34 3.72 175.34 0 175 C-2.45 171.33 -2.25 169.57 -2.25 165.2 C-2.26 164.5 -2.26 163.81 -2.26 163.09 C-2.27 160.76 -2.27 158.42 -2.26 156.09 C-2.26 154.41 -2.27 152.74 -2.27 151.07 C-2.28 146.52 -2.27 141.98 -2.27 137.43 C-2.26 132.68 -2.27 127.93 -2.27 123.18 C-2.28 115.21 -2.27 107.23 -2.26 99.25 C-2.25 90.02 -2.25 80.79 -2.26 71.55 C-2.27 63.64 -2.27 55.72 -2.27 47.8 C-2.27 43.07 -2.27 38.34 -2.27 33.6 C-2.28 29.16 -2.27 24.71 -2.26 20.26 C-2.26 18.62 -2.26 16.99 -2.27 15.35 C-2.27 13.13 -2.26 10.9 -2.25 8.67 C-2.25 7.43 -2.25 6.18 -2.25 4.89 C-2 2 -2 2 0 0 Z " fill="#6D4C33" transform="translate(878,44)"/>
<path d="M0 0 C2.57 -0.33 2.57 -0.33 5.56 -0.25 C7.05 -0.23 7.05 -0.23 8.57 -0.2 C11 0 11 0 12 1 C12.11 3.06 12.14 5.12 12.15 7.19 C12.16 7.84 12.16 8.49 12.16 9.17 C12.18 11.37 12.18 13.58 12.19 15.79 C12.2 17.36 12.21 18.93 12.21 20.51 C12.23 23.91 12.25 27.31 12.26 30.71 C12.28 36.08 12.31 41.44 12.34 46.81 C12.4 59.18 12.46 71.54 12.51 83.91 C12.56 95.24 12.62 106.57 12.68 117.9 C12.71 123.24 12.73 128.59 12.75 133.93 C12.76 137.25 12.78 140.56 12.8 143.88 C12.81 145.43 12.81 146.97 12.82 148.51 C12.82 150.61 12.83 152.71 12.85 154.81 C12.85 155.99 12.86 157.17 12.86 158.38 C12.7 160.93 12.7 160.93 14 162 C15.61 162.15 17.22 162.23 18.84 162.28 C19.82 162.32 20.8 162.36 21.81 162.39 C22.84 162.43 23.87 162.46 24.94 162.5 C26.97 162.57 29 162.64 31.03 162.72 C31.93 162.75 32.84 162.78 33.77 162.81 C36 163 36 163 38 164 C38.03 165.46 38.05 166.92 38.06 168.38 C38.07 169.19 38.09 170 38.1 170.84 C38 173 38 173 37 175 C28.05 175.14 19.13 174.91 10.19 174.56 C9.11 174.52 8.03 174.48 6.91 174.44 C5.9 174.4 4.9 174.36 3.86 174.32 C2.49 174.26 2.49 174.26 1.09 174.21 C-1 174 -1 174 -2 173 C-2.11 170.94 -2.15 168.89 -2.16 166.83 C-2.17 166.18 -2.18 165.52 -2.18 164.85 C-2.2 162.65 -2.21 160.45 -2.22 158.25 C-2.23 156.68 -2.24 155.11 -2.26 153.53 C-2.29 149.25 -2.31 144.97 -2.34 140.68 C-2.36 137.11 -2.38 133.53 -2.4 129.96 C-2.46 121.52 -2.51 113.07 -2.56 104.63 C-2.61 95.93 -2.66 87.23 -2.72 78.53 C-2.77 71.06 -2.82 63.59 -2.87 56.12 C-2.89 51.66 -2.92 47.2 -2.95 42.74 C-2.98 38.54 -3 34.33 -3.02 30.13 C-3.03 28.59 -3.04 27.05 -3.06 25.52 C-3.21 4.82 -3.21 4.82 0 0 Z " fill="#B5A370" transform="translate(534,32)"/>
<path d="M0 0 C2.57 -0.33 2.57 -0.33 5.56 -0.25 C7.05 -0.23 7.05 -0.23 8.57 -0.2 C11 0 11 0 12 1 C12.11 3.06 12.14 5.12 12.15 7.19 C12.16 7.84 12.16 8.49 12.16 9.17 C12.18 11.37 12.18 13.58 12.19 15.79 C12.2 17.36 12.21 18.93 12.21 20.51 C12.23 23.91 12.25 27.31 12.26 30.71 C12.28 36.08 12.31 41.44 12.34 46.81 C12.4 59.18 12.46 71.54 12.51 83.91 C12.56 95.24 12.62 106.57 12.68 117.9 C12.71 123.24 12.73 128.59 12.75 133.93 C12.76 137.25 12.78 140.56 12.8 143.88 C12.81 145.43 12.81 146.97 12.82 148.51 C12.82 150.61 12.83 152.71 12.85 154.81 C12.85 155.99 12.86 157.17 12.86 158.38 C12.7 160.93 12.7 160.93 14 162 C15.61 162.15 17.22 162.23 18.84 162.28 C19.82 162.32 20.8 162.36 21.81 162.39 C22.84 162.43 23.87 162.46 24.94 162.5 C26.97 162.57 29 162.64 31.03 162.72 C31.93 162.75 32.84 162.78 33.77 162.81 C36 163 36 163 38 164 C38.03 165.46 38.05 166.92 38.06 168.38 C38.07 169.19 38.09 170 38.1 170.84 C38 173 38 173 37 175 C28.05 175.14 19.13 174.91 10.19 174.56 C9.11 174.52 8.03 174.48 6.91 174.44 C5.9 174.4 4.9 174.36 3.86 174.32 C2.49 174.26 2.49 174.26 1.09 174.21 C-1 174 -1 174 -2 173 C-2.11 170.94 -2.15 168.89 -2.16 166.83 C-2.17 166.18 -2.18 165.52 -2.18 164.85 C-2.2 162.65 -2.21 160.45 -2.22 158.25 C-2.23 156.68 -2.24 155.11 -2.26 153.53 C-2.29 149.25 -2.31 144.97 -2.34 140.68 C-2.36 137.11 -2.38 133.53 -2.4 129.96 C-2.46 121.52 -2.51 113.07 -2.56 104.63 C-2.61 95.93 -2.66 87.23 -2.72 78.53 C-2.77 71.06 -2.82 63.59 -2.87 56.12 C-2.89 51.66 -2.92 47.2 -2.95 42.74 C-2.98 38.54 -3 34.33 -3.02 30.13 C-3.03 28.59 -3.04 27.05 -3.06 25.52 C-3.21 4.82 -3.21 4.82 0 0 Z " fill="#B5A370" transform="translate(377,32)"/>
<path d="M0 0 C0.99 0.33 1.98 0.66 3 1 C2.67 1.57 2.35 2.14 2.01 2.73 C-3.99 13.87 -7.24 26.54 -3.69 38.97 C2.26 56.54 14.9 65.78 31 74 C34.23 75.57 37.49 77.1 40.75 78.62 C59.79 87.51 59.79 87.51 65 95 C65.65 95.93 65.65 95.93 66.31 96.88 C67.88 101.72 67.7 106.23 65.44 110.75 C63.01 114.56 60.05 116.12 56 118 C55.34 118 54.68 118 54 118 C53.76 117.26 53.52 116.53 53.27 115.77 C49.5 104.79 45.31 101.06 35 96 C32.24 94.7 29.46 93.41 26.69 92.12 C8.23 83.54 -10.4 73.63 -18.09 53.7 C-22.45 40.78 -19.83 27.67 -14.19 15.56 C-11.71 10.82 -9.36 8.04 -5 5 C-4.67 4.34 -4.34 3.68 -4 3 C-3.01 3 -2.02 3 -1 3 C-0.67 2.01 -0.34 1.02 0 0 Z " fill="#B4A270" transform="translate(62,42)"/>
<path d="M0 0 C-1.56 4.82 -3.31 9.57 -5.1 14.32 C-8.8 25.33 -7.73 36.5 -3 47 C5.73 64 23.74 72.2 40.42 79.46 C59.94 88.18 59.94 88.18 64 97 C64.57 100 64.86 102.95 65 106 C61.84 107.05 59.44 107.2 56.12 107.25 C55.1 107.28 54.07 107.3 53.01 107.33 C49.59 106.96 47.72 106.07 45 104 C45 103.34 45 102.68 45 102 C44.49 101.74 43.98 101.49 43.45 101.23 C41.53 100.26 39.6 99.3 37.67 98.34 C37.04 98.02 36.42 97.71 35.77 97.39 C34.39 96.7 33.01 96 31.63 95.31 C28.02 93.5 24.41 91.71 20.78 89.94 C3.58 81.55 -12.56 72.23 -20.38 53.88 C-24.5 41.45 -22.05 29.19 -16.9 17.51 C-13.99 11.8 -7.14 0 0 0 Z " fill="#6D4C33" transform="translate(50,54)"/>
<path d="M0 0 C1.45 0.03 1.45 0.03 2.94 0.06 C2.94 0.72 2.94 1.38 2.94 2.06 C3.93 2.56 3.93 2.56 4.94 3.06 C4.69 3.66 4.45 4.26 4.2 4.87 C-2.21 20.57 -8.58 36.28 -14.94 52 C-20.91 66.77 -26.92 81.53 -32.94 96.29 C-36.59 105.24 -40.23 114.18 -43.87 123.13 C-44.98 125.85 -46.08 128.57 -47.19 131.28 C-48.67 134.91 -50.14 138.54 -51.61 142.18 C-52.35 143.99 -53.09 145.8 -53.83 147.62 C-54.46 149.2 -54.46 149.2 -55.11 150.81 C-55.65 152.14 -55.65 152.14 -56.2 153.48 C-57.15 156.33 -57.64 159.1 -58.06 162.06 C-56.81 162.1 -56.81 162.1 -55.52 162.14 C-52.42 162.23 -49.31 162.33 -46.21 162.43 C-44.2 162.5 -42.2 162.56 -40.19 162.62 C-38.93 162.66 -37.68 162.7 -36.38 162.75 C-34.64 162.8 -34.64 162.8 -32.86 162.86 C-30.06 163.06 -30.06 163.06 -28.06 164.06 C-28.54 165.71 -29.02 167.36 -29.5 169 C-29.9 170.37 -29.9 170.37 -30.31 171.78 C-31.06 174.06 -31.06 174.06 -32.06 175.06 C-35.09 175.08 -38.1 175.03 -41.13 174.94 C-42.04 174.92 -42.95 174.89 -43.88 174.87 C-46.8 174.79 -49.71 174.71 -52.62 174.62 C-54.6 174.57 -56.57 174.52 -58.54 174.47 C-63.38 174.34 -68.22 174.2 -73.06 174.06 C-73.39 173.4 -73.72 172.74 -74.06 172.06 C-73.19 169.46 -73.19 169.46 -71.77 166.08 C-71.51 165.46 -71.25 164.84 -70.98 164.2 C-70.4 162.82 -69.83 161.45 -69.24 160.08 C-67.61 156.22 -66.01 152.35 -64.39 148.48 C-63.87 147.23 -63.87 147.23 -63.34 145.95 C-59.15 135.9 -55.07 125.79 -51 115.69 C-50.2 113.71 -49.41 111.74 -48.61 109.77 C-46.53 104.62 -44.45 99.47 -42.38 94.32 C-38.68 85.17 -34.99 76.02 -31.3 66.87 C-29.98 63.61 -28.67 60.36 -27.36 57.1 C-22.97 46.23 -18.56 35.36 -14.11 24.52 C-12.03 19.44 -9.97 14.35 -7.96 9.24 C-4.2 0.09 -4.2 0.09 0 0 Z " fill="#B5A370" transform="translate(249.0625,31.9375)"/>
<path d="M0 0 C0.66 0 1.32 0 2 0 C3.25 1.34 3.25 1.34 4.65 3.23 C5.18 3.92 5.7 4.62 6.24 5.33 C7.08 6.47 7.08 6.47 7.94 7.62 C9.12 9.2 10.31 10.78 11.5 12.35 C12.39 13.54 12.39 13.54 13.29 14.74 C15.65 17.86 18.07 20.93 20.5 24 C24.57 29.15 28.58 34.34 32.56 39.56 C33.11 40.28 33.65 40.99 34.22 41.73 C36.77 45.08 39.33 48.43 41.87 51.79 C42.75 52.95 43.62 54.1 44.5 55.25 C45.25 56.25 46.01 57.24 46.78 58.27 C49.03 61.04 51.43 63.52 54 66 C54.33 66.33 54.66 66.66 55 67 C56.85 67.05 58.69 67.04 60.54 67 C62.25 67 62.25 67 63.99 67 C66.39 67 68.79 66.97 71.19 66.9 C79.79 66.99 79.79 66.99 83.4 70 C88 75.79 88 75.79 88 79 C89.48 79.5 89.48 79.5 91 80 C77.73 80.11 64.46 80.1 51.19 79.75 C50.14 79.74 49.09 79.72 48.01 79.71 C40.81 79.47 40.81 79.47 37.06 77.29 C34.82 74.8 32.78 72.28 30.81 69.56 C30.03 68.5 29.25 67.44 28.45 66.34 C28.05 65.79 27.64 65.24 27.23 64.67 C25.23 61.96 23.18 59.29 21.12 56.62 C20.72 56.09 20.31 55.56 19.89 55.02 C17.62 52.08 15.33 49.15 13.03 46.24 C12.29 45.31 12.29 45.31 11.53 44.35 C10.58 43.15 9.62 41.95 8.67 40.76 C6.71 38.29 4.92 35.86 3.31 33.16 C2.18 30.87 2.18 30.87 0 30 C0 20.1 0 10.2 0 0 Z " fill="#B4A270" transform="translate(944,127)"/>
<path d="M0 0 C8.57 8.69 15.06 21.96 15.77 34.17 C15.81 34.85 15.85 35.53 15.89 36.23 C16.76 53.02 14.88 69.02 3.23 82 C0.81 84.49 -1.58 86.92 -4.23 89.17 C-4.89 89.17 -5.55 89.17 -6.23 89.17 C-5.22 84.64 -3.59 80.29 -2.05 75.92 C3.31 60.28 2.06 41.75 -4.98 26.86 C-11.11 15.54 -17.7 8.49 -30.15 4.73 C-40.1 2.06 -49.24 3.27 -59.23 5.17 C-59.23 2.17 -59.23 2.17 -57.94 0.74 C-41.03 -12.16 -16.89 -13.85 0 0 Z " fill="#B5A370" transform="translate(1181.234375,64.83203125)"/>
<path d="M0 0 C12.04 12.31 15.77 28.15 15.74 44.78 C15.34 62.06 9.71 74.83 -2.81 86.95 C-4.63 88.53 -4.63 88.53 -5.63 88.53 C-5.12 82.87 -3.5 77.93 -1.57 72.59 C2.96 57.8 1.17 40.07 -5.38 26.22 C-11.69 14.56 -18.83 7.38 -31.63 3.53 C-40.71 1.36 -49.63 2.61 -58.63 4.53 C-57.93 0.9 -56.73 -0.85 -53.77 -3.17 C-37.19 -13.28 -14.85 -13.36 0 0 Z " fill="#B5A370" transform="translate(812.6328125,65.46875)"/>
<path d="M0 0 C10.94 8.08 17.38 21.68 19.57 34.81 C21.45 50.3 19.85 66.71 12.02 80.49 C9.12 83.1 6.88 83.96 3.02 84.49 C1.49 80.52 2.57 76.99 3.46 72.99 C7.14 54.64 4.59 37.38 -5.83 21.71 C-12.55 12.62 -20.89 8.32 -31.98 6.49 C-36.33 6.27 -40.63 6.33 -44.98 6.49 C-45.97 6.49 -46.96 6.49 -47.98 6.49 C-47.48 2.11 -46 -0.31 -42.98 -3.51 C-42.32 -3.51 -41.66 -3.51 -40.98 -3.51 C-40.98 -4.17 -40.98 -4.83 -40.98 -5.51 C-39.99 -5.18 -39 -4.85 -37.98 -4.51 C-36.02 -4.83 -36.02 -4.83 -33.92 -5.45 C-22.32 -8.18 -10.22 -6.22 0 0 Z " fill="#6D4C33" transform="translate(793.98046875,73.5078125)"/>
<path d="M0 0 C11.64 10.52 17.36 25.31 18.2 40.69 C18.36 53.85 16.9 67.45 10 79 C6.96 81.8 4.19 83 0 83 C0.47 78.74 1.07 74.67 2.06 70.5 C5.25 54.56 2.8 36.83 -6 23 C-12.58 13.2 -19.6 8.36 -31.02 5.49 C-36.34 4.61 -41.63 4.79 -47 5 C-47.99 5 -48.98 5 -50 5 C-49.56 0.07 -47.54 -2.62 -44 -6 C-40.56 -6.81 -40.56 -6.81 -37 -7 C-36.05 -7.19 -35.1 -7.37 -34.12 -7.56 C-22.4 -9.2 -9.64 -7.25 0 0 Z " fill="#6C4B32" transform="translate(1165,75)"/>
<path d="M0 0 C21.45 0 42.9 0 65 0 C70.62 11.23 70.62 11.23 72.17 15.72 C72.5 16.67 72.84 17.62 73.19 18.6 C73.52 19.56 73.85 20.51 74.19 21.5 C74.86 23.45 75.54 25.4 76.23 27.34 C76.52 28.19 76.82 29.04 77.12 29.91 C77.92 32.17 77.92 32.17 80 34 C82.32 34.37 82.32 34.37 85.01 34.41 C85.99 34.45 86.98 34.49 88 34.53 C89.03 34.56 90.06 34.59 91.12 34.62 C92.17 34.66 93.21 34.7 94.28 34.74 C96.85 34.84 99.43 34.92 102 35 C102.68 36.24 103.34 37.5 104 38.75 C104.56 39.79 104.56 39.79 105.12 40.86 C106 43 106 43 106 47 C95.85 47.11 85.71 47.04 75.56 46.75 C74.56 46.74 73.56 46.72 72.53 46.71 C71.59 46.67 70.66 46.64 69.69 46.61 C68.86 46.59 68.02 46.57 67.17 46.55 C65 46 65 46 63.36 44.35 C61.75 41.58 60.65 38.82 59.55 35.81 C59.12 34.62 58.68 33.43 58.23 32.2 C57.78 30.96 57.34 29.72 56.88 28.44 C56.42 27.18 55.96 25.92 55.5 24.67 C52.33 15.99 52.33 15.99 51 12 C33.18 12 15.36 12 -3 12 C-4 9 -4 9 0 0 Z " fill="#B4A26F" transform="translate(245,160)"/>
<path d="M0 0 C18.48 0.33 36.96 0.66 56 1 C58.4 5.8 60.52 10.05 62.32 15 C62.71 16.05 63.1 17.1 63.5 18.19 C63.89 19.26 64.28 20.33 64.69 21.44 C65.48 23.6 66.28 25.77 67.07 27.93 C67.42 28.88 67.77 29.83 68.12 30.81 C68.81 32.94 68.81 32.94 70 34 C71.71 34.16 73.42 34.25 75.13 34.32 C76.68 34.38 76.68 34.38 78.26 34.44 C79.35 34.48 80.44 34.52 81.56 34.56 C82.65 34.61 83.75 34.65 84.87 34.69 C87.58 34.8 90.29 34.9 93 35 C93 35.66 93 36.32 93 37 C93.66 37.33 94.32 37.66 95 38 C95.64 40.3 96.02 42.61 96.44 44.97 C96.62 45.64 96.81 46.31 97 47 C97.66 47.33 98.32 47.66 99 48 C93.09 48.12 87.18 48.21 81.28 48.27 C79.27 48.3 77.26 48.33 75.25 48.38 C72.36 48.44 69.47 48.47 66.58 48.49 C65.68 48.51 64.78 48.54 63.86 48.57 C57.66 48.57 57.66 48.57 54.58 45.9 C52.84 42.71 51.46 39.57 50.2 36.17 C49.77 35 49.33 33.84 48.88 32.64 C48.34 31.17 47.8 29.7 47.25 28.19 C45.52 23.51 43.78 18.82 42 14 C27.15 13.67 12.3 13.34 -3 13 C-2 6 -2 6 0 0 Z " fill="#6D4D33" transform="translate(240,171)"/>
<path d="M0 0 C6.21 2.3 11.89 5.05 15.21 11.03 C17.21 17.75 17.69 27.21 14.68 33.57 C13.18 35.54 11.75 37.23 9.89 38.87 C9.38 39.35 8.86 39.83 8.32 40.32 C1.28 44.69 -5.87 45.18 -13.98 45 C-14.93 44.99 -15.89 44.99 -16.87 44.98 C-23.83 44.9 -23.83 44.9 -24.98 43.75 C-25.07 42.36 -25.1 40.98 -25.09 39.59 C-25.09 38.27 -25.09 38.27 -25.09 36.92 C-25.09 35.49 -25.09 35.49 -25.08 34.02 C-25.08 33.05 -25.08 32.07 -25.07 31.07 C-25.07 27.94 -25.06 24.81 -25.04 21.68 C-25.04 19.57 -25.03 17.45 -25.03 15.34 C-25.02 10.14 -25 4.94 -24.98 -0.25 C-18.78 -3.35 -6.56 -1.82 0 0 Z " fill="#B4A26F" transform="translate(610.98046875,53.25390625)"/>
<path d="M0 0 C6.21 2.3 11.89 5.05 15.21 11.03 C17.21 17.75 17.69 27.21 14.68 33.57 C13.18 35.54 11.75 37.23 9.89 38.87 C9.38 39.35 8.86 39.83 8.32 40.32 C1.28 44.69 -5.87 45.18 -13.98 45 C-14.93 44.99 -15.89 44.99 -16.87 44.98 C-23.83 44.9 -23.83 44.9 -24.98 43.75 C-25.07 42.36 -25.1 40.98 -25.09 39.59 C-25.09 38.27 -25.09 38.27 -25.09 36.92 C-25.09 35.49 -25.09 35.49 -25.08 34.02 C-25.08 33.05 -25.08 32.07 -25.07 31.07 C-25.07 27.94 -25.06 24.81 -25.04 21.68 C-25.04 19.57 -25.03 17.45 -25.03 15.34 C-25.02 10.14 -25 4.94 -24.98 -0.25 C-18.78 -3.35 -6.56 -1.82 0 0 Z " fill="#B4A26F" transform="translate(453.98046875,53.25390625)"/>
<path d="M0 0 C1.32 0.33 2.64 0.66 4 1 C4 1.66 4 2.32 4 3 C4.66 3.33 5.32 3.66 6 4 C5.36 5.05 4.72 6.1 4.07 7.18 C3.23 8.55 2.4 9.93 1.56 11.31 C1.14 12 0.72 12.69 0.29 13.4 C-0.12 14.07 -0.52 14.74 -0.93 15.43 C-1.49 16.34 -1.49 16.34 -2.06 17.28 C-3.15 19.15 -3.15 19.15 -4 22 C-2.94 22.38 -2.94 22.38 -1.86 22.77 C1.29 24.12 3.94 25.81 6.81 27.69 C18.85 35.26 30.9 39.92 45 42 C45.8 42.13 46.59 42.26 47.41 42.39 C62.74 44.54 79.36 43.06 94 38 C96.88 37.88 96.88 37.88 99 38 C91.07 47.35 79.61 51.3 68 54 C67.25 54.18 66.49 54.35 65.72 54.53 C35.55 59.74 6.71 51.21 -18 34 C-17.38 28.68 -14.58 24.89 -11.71 20.55 C-10.75 19.07 -9.87 17.54 -9 16 C-9.33 15.34 -9.66 14.68 -10 14 C-9.01 14 -8.02 14 -7 14 C-6.66 13.04 -6.66 13.04 -6.31 12.06 C-4.51 7.87 -2.26 3.96 0 0 Z " fill="#B4A26F" transform="translate(46,154)"/>
<path d="M0 0 C7.87 0.06 15.92 0.7 22.5 5.44 C28.44 12.1 29.7 18.45 29.38 27.29 C28.77 33.12 27.04 36.66 22.69 40.69 C19.82 42.96 17.74 43.93 14.06 44.31 C13.18 44.65 12.31 44.98 11.4 45.32 C7.59 46.45 4.12 46.54 0.19 46.44 C-0.5 46.43 -1.19 46.42 -1.9 46.41 C-3.58 46.39 -5.26 46.35 -6.94 46.31 C-11.08 38.03 -9.07 23.47 -9.12 14.44 C-9.14 13.28 -9.15 12.12 -9.16 10.92 C-9.17 9.84 -9.17 8.75 -9.17 7.63 C-9.17 6.66 -9.18 5.68 -9.18 4.67 C-8.62 -0.81 -4.53 0.01 0 0 Z " fill="#B4A26F" transform="translate(952.9375,51.6875)"/>
<path d="M0 0 C4.06 1.35 4.73 3.42 7 7 C8.5 9.01 10.02 11.01 11.56 13 C11.99 13.56 12.42 14.11 12.87 14.69 C16.51 19.39 20.19 24.07 23.87 28.74 C26.22 31.72 28.55 34.71 30.85 37.74 C31.3 38.34 31.76 38.94 32.23 39.56 C33.1 40.7 33.97 41.85 34.83 43 C37.01 45.96 37.01 45.96 40 48 C41.83 48.09 43.66 48.13 45.49 48.14 C46.59 48.16 47.69 48.18 48.82 48.2 C51.14 48.23 53.45 48.25 55.77 48.25 C64.26 48.44 64.26 48.44 68.15 51.38 C68.76 52.24 69.37 53.11 70 54 C70.76 54.89 71.53 55.77 72.31 56.69 C74 59 74 59 74 61 C75.49 61.5 75.49 61.5 77 62 C69.99 62.13 62.98 62.21 55.97 62.27 C53.58 62.3 51.2 62.33 48.81 62.38 C45.38 62.44 41.95 62.47 38.52 62.49 C37.46 62.51 36.4 62.54 35.3 62.57 C27.03 62.57 27.03 62.57 23.48 59.71 C19.48 55.33 19.48 55.33 17.85 53.14 C17.32 52.44 16.79 51.73 16.24 51.01 C15.44 49.92 15.44 49.92 14.62 48.81 C13.56 47.38 12.49 45.95 11.41 44.52 C10.87 43.78 10.34 43.04 9.78 42.28 C8.02 39.94 8.02 39.94 5.82 37.77 C0.08 31.66 -0.95 26.71 -0.7 18.46 C-0.64 17.1 -0.57 15.74 -0.5 14.38 C-0.46 12.98 -0.42 11.58 -0.39 10.18 C-0.3 6.78 -0.17 3.39 0 0 Z " fill="#6E4D34" transform="translate(944,157)"/>
<path d="M0 0 C0.33 0 0.66 0 1 0 C1.35 1.27 1.69 2.54 2.05 3.85 C4.81 13.07 8.62 21.94 12.18 30.87 C13.14 33.27 14.09 35.68 15.04 38.09 C15.34 38.82 15.64 39.56 15.94 40.31 C17.32 43.81 18 46.19 18 50 C5.79 50 -6.42 50 -19 50 C-18.18 45.06 -17.2 41.65 -15.31 37.12 C-14.77 35.8 -14.22 34.47 -13.68 33.14 C-13.4 32.46 -13.12 31.78 -12.83 31.08 C-11.47 27.68 -10.21 24.25 -8.94 20.81 C-1.92 1.92 -1.92 1.92 0 0 Z " fill="#B4A270" transform="translate(278,75)"/>
<path d="M0 0 C7.49 0.48 15.4 1.38 20.93 6.94 C25.32 12.66 26.14 17.03 26.06 24.19 C26.06 24.94 26.05 25.69 26.05 26.46 C26.04 28.31 26.02 30.15 26 32 C20.97 34.72 15.8 34.26 10.25 34.19 C8.79 34.19 8.79 34.19 7.31 34.19 C0.14 34.14 0.14 34.14 -1 33 C-1.1 30.73 -1.13 28.46 -1.13 26.19 C-1.13 25.51 -1.13 24.83 -1.14 24.12 C-1.14 22.68 -1.13 21.23 -1.13 19.79 C-1.13 17.58 -1.13 15.36 -1.14 13.15 C-1.14 11.74 -1.13 10.34 -1.13 8.94 C-1.13 7.66 -1.13 6.38 -1.13 5.06 C-1 2 -1 2 0 0 Z " fill="#6C4B32" transform="translate(587,64)"/>
<path d="M0 0 C7.49 0.48 15.4 1.38 20.93 6.94 C25.32 12.66 26.14 17.03 26.06 24.19 C26.06 24.94 26.05 25.69 26.05 26.46 C26.04 28.31 26.02 30.15 26 32 C20.97 34.72 15.8 34.26 10.25 34.19 C8.79 34.19 8.79 34.19 7.31 34.19 C0.14 34.14 0.14 34.14 -1 33 C-1.1 30.73 -1.13 28.46 -1.13 26.19 C-1.13 25.51 -1.13 24.83 -1.14 24.12 C-1.14 22.68 -1.13 21.23 -1.13 19.79 C-1.13 17.58 -1.13 15.36 -1.14 13.15 C-1.14 11.74 -1.13 10.34 -1.13 8.94 C-1.13 7.66 -1.13 6.38 -1.13 5.06 C-1 2 -1 2 0 0 Z " fill="#6C4B32" transform="translate(430,64)"/>
<path d="M0 0 C12.19 1.65 12.19 1.65 17 6 C21.32 11.72 23.14 16.32 23.19 23.5 C23.2 24.44 23.22 25.38 23.23 26.34 C22.99 29.16 22.71 30.74 21 33 C16.89 34.44 12.5 34.12 8.19 34.06 C7.49 34.06 6.8 34.05 6.09 34.05 C4.39 34.04 2.7 34.02 1 34 C-0.47 31.05 -0.38 27.99 -0.56 24.75 C-0.6 24.04 -0.65 23.33 -0.69 22.6 C-1.73 3.47 -1.73 3.47 0 0 Z " fill="#6C4B32" transform="translate(945,64)"/>
<path d="M0 0 C0 0.66 0 1.32 0 2 C0.66 2 1.32 2 2 2 C0.9 5.88 -0.61 9.23 -2.58 12.72 C-3.03 13.53 -3.49 14.33 -3.95 15.16 C-4.3 15.76 -4.64 16.37 -5 17 C-5.51 16.77 -6.03 16.55 -6.55 16.31 C-25.06 8.04 -25.06 8.04 -45 6 C-45.62 4.16 -45.62 4.16 -46 2 C-34.29 -13 -14.59 -5.9 0 0 Z " fill="#B4A26F" transform="translate(143,60)"/>
<path d="M0 0 C0.66 0.33 1.32 0.66 2 1 C3.58 0.91 3.58 0.91 5.19 0.81 C15.02 0.69 25.33 4.74 34 9 C33.4 13.14 31.99 16.18 29.94 19.81 C29.39 20.79 28.84 21.76 28.28 22.77 C27.86 23.51 27.43 24.24 27 25 C21.56 24.53 17.64 23.08 12.94 20.25 C12.06 19.75 12.06 19.75 11.16 19.23 C1.2 13.39 1.2 13.39 -1 9 C-1.23 2.47 -1.23 2.47 0 0 Z " fill="#6B4A31" transform="translate(97,64)"/>
<path d="M0 0 C-10.72 11.28 -24.87 16.56 -40.28 17.08 C-45.52 17.16 -50.76 17.1 -56 17 C-56 13.37 -56 9.74 -56 6 C-53.11 4.56 -50.56 4.83 -47.33 4.79 C-45.95 4.76 -44.57 4.73 -43.18 4.7 C-41.02 4.66 -38.86 4.63 -36.69 4.6 C-24.35 4.43 -11.79 -0.31 0 0 Z " fill="#B29F6D" transform="translate(642,125)"/>
<path d="M0 0 C-10.72 11.28 -24.87 16.56 -40.28 17.08 C-45.52 17.16 -50.76 17.1 -56 17 C-56 13.37 -56 9.74 -56 6 C-53.11 4.56 -50.56 4.83 -47.33 4.79 C-45.95 4.76 -44.57 4.73 -43.18 4.7 C-41.02 4.66 -38.86 4.63 -36.69 4.6 C-24.35 4.43 -11.79 -0.31 0 0 Z " fill="#B29F6D" transform="translate(485,125)"/>
<path d="M0 0 C-3.71 4.06 -7.34 6.67 -12.25 9.12 C-12.94 9.47 -13.62 9.81 -14.33 10.17 C-21.86 13.73 -29.73 15.32 -38 16 C-38.66 15.67 -39.32 15.34 -40 15 C-40.03 13.54 -40.05 12.08 -40.06 10.62 C-40.07 9.81 -40.09 9 -40.1 8.16 C-40 6 -40 6 -39 4 C-37.96 3.96 -36.92 3.93 -35.84 3.89 C-26.85 3.5 -18.3 2.5 -9.49 0.62 C-6.23 0.04 -3.29 -0.12 0 0 Z " fill="#6C4B32" transform="translate(626,138)"/>
<path d="M0 0 C-3.71 4.06 -7.34 6.67 -12.25 9.12 C-12.94 9.47 -13.62 9.81 -14.33 10.17 C-21.86 13.73 -29.73 15.32 -38 16 C-38.66 15.67 -39.32 15.34 -40 15 C-40.03 13.54 -40.05 12.08 -40.06 10.62 C-40.07 9.81 -40.09 9 -40.1 8.16 C-40 6 -40 6 -39 4 C-37.96 3.96 -36.92 3.93 -35.84 3.89 C-26.85 3.5 -18.3 2.5 -9.49 0.62 C-6.23 0.04 -3.29 -0.12 0 0 Z " fill="#6C4B32" transform="translate(469,138)"/>
<path d="M0 0 C3.69 -0.26 7.37 -0.42 11.06 -0.56 C12.1 -0.64 13.14 -0.71 14.21 -0.79 C21.82 -1.01 21.82 -1.01 25.31 1.97 C30 7.87 30 7.87 30 11 C30.99 11.33 31.98 11.66 33 12 C28.81 12.29 24.63 12.47 20.44 12.62 C19.26 12.71 18.07 12.79 16.86 12.88 C8.22 13.12 8.22 13.12 4.6 9.8 C0 3.36 0 3.36 0 0 Z " fill="#9A805C" transform="translate(1002,195)"/>
<path d="M0 0 C3 1 3 1 3.97 2.89 C4.37 4.1 4.37 4.1 4.79 5.33 C5.09 6.21 5.39 7.09 5.7 8 C6.01 8.93 6.31 9.86 6.62 10.81 C6.94 11.73 7.25 12.64 7.57 13.59 C8.85 17.38 10.03 21.11 11 25 C4.73 25 -1.54 25 -8 25 C-7.17 20 -5.94 15.97 -4 11.38 C-1.63 5.81 -1.63 5.81 0 0 Z " fill="#6C4B32" transform="translate(267,100)"/>
<path d="M0 0 C6.27 0 12.54 0 19 0 C23 8 23 8 23 12 C17.06 12 11.12 12 5 12 C3.35 8.04 1.7 4.08 0 0 Z " fill="#9A805B" transform="translate(328,195)"/>
<path d="M0 0 C5.56 2.13 8.11 3.56 11.07 8.79 C12.51 12.22 12.8 15.3 13 19 C11.02 19.03 9.04 19.05 7.06 19.06 C5.96 19.07 4.86 19.09 3.72 19.1 C1 19 1 19 0 18 C-0.09 16.66 -0.11 15.31 -0.1 13.96 C-0.09 13.16 -0.09 12.35 -0.09 11.51 C-0.08 10.66 -0.07 9.81 -0.06 8.94 C-0.06 8.08 -0.05 7.23 -0.05 6.35 C-0.04 4.23 -0.02 2.12 0 0 Z " fill="#300201" transform="translate(586,79)"/>
<path d="M0 0 C5.56 2.13 8.11 3.56 11.07 8.79 C12.51 12.22 12.8 15.3 13 19 C11.02 19.03 9.04 19.05 7.06 19.06 C5.96 19.07 4.86 19.09 3.72 19.1 C1 19 1 19 0 18 C-0.09 16.66 -0.11 15.31 -0.1 13.96 C-0.09 13.16 -0.09 12.35 -0.09 11.51 C-0.08 10.66 -0.07 9.81 -0.06 8.94 C-0.06 8.08 -0.05 7.23 -0.05 6.35 C-0.04 4.23 -0.02 2.12 0 0 Z " fill="#300201" transform="translate(429,79)"/>
<path d="M0 0 C0.89 -0.01 1.77 -0.03 2.69 -0.04 C5 0.19 5 0.19 7 2.19 C7.28 5.87 7.09 9.49 7 13.19 C2.71 13.19 -1.58 13.19 -6 13.19 C-7.26 10.66 -7.1 8.88 -7.06 6.06 C-7.05 5.15 -7.04 4.24 -7.04 3.3 C-7.02 2.61 -7.01 1.91 -7 1.19 C-4.52 -0.05 -2.76 0.02 0 0 Z " fill="#977D57" transform="translate(898,31.8125)"/>
<path d="M0 0 C2.57 -0.33 2.57 -0.33 5.56 -0.25 C7.05 -0.23 7.05 -0.23 8.57 -0.2 C11 0 11 0 12 1 C12.07 2.85 12.08 4.71 12.06 6.56 C12.05 7.57 12.04 8.59 12.04 9.63 C12.02 10.41 12.01 11.19 12 12 C9.85 12.03 7.71 12.05 5.56 12.06 C4.37 12.07 3.17 12.09 1.94 12.1 C-1 12 -1 12 -2 11 C-2.36 3.54 -2.36 3.54 0 0 Z " fill="#987D57" transform="translate(534,32)"/>
<path d="M0 0 C2.57 -0.33 2.57 -0.33 5.56 -0.25 C7.05 -0.23 7.05 -0.23 8.57 -0.2 C11 0 11 0 12 1 C12.07 2.85 12.08 4.71 12.06 6.56 C12.05 7.57 12.04 8.59 12.04 9.63 C12.02 10.41 12.01 11.19 12 12 C9.85 12.03 7.71 12.05 5.56 12.06 C4.37 12.07 3.17 12.09 1.94 12.1 C-1 12 -1 12 -2 11 C-2.36 3.54 -2.36 3.54 0 0 Z " fill="#987D57" transform="translate(377,32)"/>
<path d="M0 0 C2.29 -0.03 4.58 -0.05 6.88 -0.06 C8.15 -0.07 9.43 -0.09 10.74 -0.1 C14 0 14 0 16 1 C16.03 2.48 16.05 3.96 16.06 5.44 C16.07 6.26 16.09 7.08 16.1 7.93 C16 10 16 10 15 11 C12.84 11.1 10.67 11.13 8.5 11.12 C7.31 11.13 6.13 11.13 4.91 11.13 C2 11 2 11 1 10 C1.09 8.47 1.25 6.95 1.44 5.44 C1.54 4.61 1.64 3.78 1.75 2.93 C1.83 2.3 1.91 1.66 2 1 C1.34 0.67 0.68 0.34 0 0 Z " fill="#957A55" transform="translate(556,195)"/>
<path d="M0 0 C2.29 -0.03 4.58 -0.05 6.88 -0.06 C8.15 -0.07 9.43 -0.09 10.74 -0.1 C14 0 14 0 16 1 C16.03 2.48 16.05 3.96 16.06 5.44 C16.07 6.26 16.09 7.08 16.1 7.93 C16 10 16 10 15 11 C12.84 11.1 10.67 11.13 8.5 11.12 C7.31 11.13 6.13 11.13 4.91 11.13 C2 11 2 11 1 10 C1.09 8.47 1.25 6.95 1.44 5.44 C1.54 4.61 1.64 3.78 1.75 2.93 C1.83 2.3 1.91 1.66 2 1 C1.34 0.67 0.68 0.34 0 0 Z " fill="#957A55" transform="translate(399,195)"/>
<path d="M0 0 C2.29 -0.05 4.58 -0.09 6.88 -0.12 C8.79 -0.16 8.79 -0.16 10.74 -0.2 C14 0 14 0 16 2 C15.98 4.38 15.98 4.38 15.62 7.12 C15.46 8.49 15.46 8.49 15.29 9.88 C15.15 10.93 15.15 10.93 15 12 C12.85 11.86 10.71 11.71 8.56 11.56 C7.37 11.48 6.17 11.4 4.94 11.32 C2 11 2 11 1 10 C0.77 8.32 0.59 6.63 0.44 4.94 C0.35 4.02 0.27 3.1 0.18 2.15 C0.09 1.09 0.09 1.09 0 0 Z " fill="#957A55" transform="translate(915,195)"/>
<path d="M0 0 C1.65 0.33 3.3 0.66 5 1 C5 1.66 5 2.32 5 3 C5.66 3 6.32 3 7 3 C5.45 8.48 2.84 13.11 0 18 C-1.98 17.01 -3.96 16.02 -6 15 C-4.68 10.61 -2.92 6.69 -0.8 2.64 C0.07 1.15 0.07 1.15 0 0 Z " fill="#967B56" transform="translate(138,59)"/>
<path d="M0 0 C1.32 0.33 2.64 0.66 4 1 C4 1.66 4 2.32 4 3 C4.66 3.33 5.32 3.66 6 4 C1.55 11.43 1.55 11.43 -3 19 C-3.33 18.34 -3.66 17.68 -4 17 C-5.98 16.27 -7.98 15.6 -10 15 C-9.01 14.67 -8.02 14.34 -7 14 C-6.28 12.36 -5.63 10.68 -5 9 C-3.39 5.97 -1.7 2.98 0 0 Z " fill="#967B56" transform="translate(46,154)"/>
<path d="M0 0 C1.45 0.03 1.45 0.03 2.94 0.06 C2.94 0.72 2.94 1.38 2.94 2.06 C3.6 2.39 4.26 2.72 4.94 3.06 C3.29 6.36 1.64 9.66 -0.06 13.06 C-2.37 13.06 -4.68 13.06 -7.06 13.06 C-8.27 9.45 -7.76 8.78 -6.19 5.44 C-5.82 4.64 -5.45 3.84 -5.07 3.02 C-3.55 0.07 -3.55 0.07 0 0 Z " fill="#977D57" transform="translate(249.0625,31.9375)"/>
<path d="M0 0 C5.65 5.47 8.05 10.51 10 18 C7.03 18 4.06 18 1 18 C-0.59 14.81 -0.1 11.37 -0.06 7.88 C-0.06 7.12 -0.05 6.37 -0.05 5.59 C-0.04 3.73 -0.02 1.86 0 0 Z " fill="#300201" transform="translate(945,80)"/>
<path d="M0 0 C1.62 -0.03 3.25 -0.05 4.88 -0.06 C5.78 -0.07 6.68 -0.09 7.62 -0.1 C10 0 10 0 12 1 C11.01 4.3 10.02 7.6 9 11 C5.7 11 2.4 11 -1 11 C-0.01 8.03 0.98 5.06 2 2 C1.34 1.34 0.68 0.68 0 0 Z " fill="#967B56" transform="translate(209,195)"/>
</svg>
