<?xml version="1.0" encoding="UTF-8"?>
<!-- Generator: visioncortex VTracer 0.6.3 -->
<svg version="1.1" xmlns="http://www.w3.org/2000/svg" width="1280" height="302">
<path d="M0 0 C422.4 0 844.8 0 1280 0 C1280 99.66 1280 199.32 1280 302 C857.6 302 435.2 302 0 302 C0 202.34 0 102.68 0 0 Z " fill="#300201" transform="translate(0,0)"/>
<path d="M0 0 C1.19 0.27 2.38 0.53 3.6 0.81 C21.69 5.4 36.56 15.31 50 28 C51.11 29 51.11 29 52.24 30.01 C59.45 36.75 64.68 44.76 70 53 C70.67 54.02 71.35 55.05 72.04 56.1 C88.28 82.13 90.28 116.38 84.04 145.77 C76.87 176.62 57.24 201.64 31 219 C31.33 219.66 31.66 220.32 32 221 C31.15 221.54 30.31 222.07 29.44 222.62 C26.94 224.28 24.69 226.08 22.44 228.06 C19.78 230.4 17.12 232.3 14 234 C14.99 234 15.98 234 17 234 C15.36 235.7 13.69 237.36 12 239 C11.45 239.53 10.91 240.06 10.34 240.61 C4.48 246.03 -2.1 250.03 -9 254 C-9.81 254.48 -10.62 254.95 -11.46 255.44 C-16.56 258.22 -21.84 260.02 -27.38 261.69 C-28.05 261.89 -28.72 262.09 -29.41 262.3 C-58.66 270.64 -91.44 267.62 -118.44 253.81 C-145.07 238.89 -164.97 216.03 -174.01 186.63 C-183.33 152.54 -179.94 117.92 -162.75 86.88 C-159.89 82.15 -156.68 77.74 -153.31 73.38 C-152.85 72.77 -152.39 72.17 -151.91 71.54 C-149.48 68.48 -147.49 66.66 -144 65 C-143.29 63.69 -142.63 62.35 -142 61 C-140.55 59.57 -140.55 59.57 -138.75 58.12 C-134.6 54.63 -130.81 50.86 -127 47 C-122.8 42.76 -118.6 38.61 -114.04 34.76 C-111.91 32.92 -109.88 31 -107.84 29.06 C-78.64 1.57 -39.06 -9.11 0 0 Z " fill="#FAFCFC" transform="translate(400,22)"/>
<path d="M0 0 C2.74 2.31 5.38 4.72 7.99 7.18 C8.83 7.95 8.83 7.95 9.68 8.73 C17.67 16.17 24.25 23.84 29.99 33.18 C30.57 34.09 30.57 34.09 31.15 35.02 C48.27 62.54 52.19 96.67 45.15 128.15 C43.13 136.16 40.43 143.68 36.99 151.18 C36.7 151.86 36.41 152.54 36.1 153.24 C30.67 165.11 21.96 174.88 12.99 184.18 C12.4 184.82 11.81 185.47 11.2 186.13 C6.99 190.59 2.2 194.19 -2.74 197.8 C-4.2 198.88 -5.61 200.03 -7.01 201.18 C-7.01 201.84 -7.01 202.5 -7.01 203.18 C-8.4 204.13 -9.8 205.07 -11.22 205.97 C-13.79 207.71 -16.06 209.74 -18.39 211.78 C-20.2 213.34 -22.07 214.78 -24.01 216.18 C-23.35 216.51 -22.69 216.84 -22.01 217.18 C-43.74 238.34 -70.78 248.63 -101.13 248.49 C-102.4 248.48 -103.68 248.48 -104.99 248.47 C-138.31 248.06 -164.78 235.33 -188.31 211.88 C-209.6 189.34 -218.76 158.07 -218.25 127.5 C-216.89 98.42 -206.34 67.84 -185.01 47.18 C-183.03 45.64 -181.02 44.18 -178.97 42.74 C-176.19 40.53 -174.07 37.91 -171.8 35.2 C-169.36 32.45 -166.63 30.15 -163.8 27.82 C-161.91 26.21 -161.91 26.21 -160.46 23.97 C-159.98 23.38 -159.5 22.79 -159.01 22.18 C-158.02 22.18 -157.03 22.18 -156.01 22.18 C-155.68 21.19 -155.35 20.2 -155.01 19.18 C-154.35 19.18 -153.69 19.18 -153.01 19.18 C-152.68 18.19 -152.35 17.2 -152.01 16.18 C-150.47 14.63 -150.47 14.63 -148.51 12.99 C-146.27 11.11 -144.06 9.23 -141.93 7.22 C-105.39 -27.09 -39.66 -31.95 0 0 Z " fill="#FAFCFC" transform="translate(1211.005615234375,39.822998046875)"/>
<path d="M0 0 C1.46 -0.01 1.46 -0.01 2.95 -0.02 C4.54 -0.01 4.54 -0.01 6.15 -0.01 C7.23 -0.01 8.31 -0.01 9.42 -0.01 C11.71 -0.01 14 -0.01 16.28 -0 C19.79 0.01 23.3 -0 26.81 -0.01 C29.03 -0.01 31.25 -0.01 33.46 -0.01 C34.52 -0.01 35.57 -0.01 36.66 -0.02 C37.63 -0.01 38.61 -0.01 39.61 0 C40.47 0 41.33 0 42.22 0 C44.31 0.26 44.31 0.26 46.31 2.26 C46.49 5.06 46.56 7.76 46.53 10.56 C46.53 11.42 46.53 12.28 46.53 13.17 C46.53 16.01 46.52 18.86 46.5 21.7 C46.5 23.67 46.5 25.64 46.49 27.61 C46.49 32.81 46.47 38 46.44 43.19 C46.42 48.48 46.41 53.78 46.4 59.08 C46.38 69.47 46.35 79.86 46.31 90.26 C46.97 90.26 47.63 90.26 48.31 90.26 C50.4 88.03 52.4 85.78 54.37 83.45 C54.96 82.76 55.54 82.07 56.15 81.37 C60.17 76.65 64.1 71.88 68 67.07 C70.72 63.76 73.51 60.51 76.31 57.26 C79.86 53.13 83.37 48.99 86.81 44.76 C90.24 40.53 93.75 36.38 97.31 32.26 C100.88 28.11 104.41 23.94 107.87 19.7 C111.3 15.48 114.75 11.3 118.24 7.13 C118.72 6.56 119.19 6 119.68 5.41 C123.08 1.37 123.08 1.37 125.31 0.26 C127.17 0.16 129.05 0.12 130.92 0.11 C132.09 0.11 133.27 0.1 134.48 0.09 C135.75 0.09 137.03 0.09 138.34 0.09 C139.64 0.09 140.94 0.08 142.28 0.08 C145.04 0.07 147.8 0.07 150.56 0.07 C154.09 0.07 157.63 0.06 161.17 0.04 C164.54 0.03 167.91 0.03 171.28 0.03 C172.55 0.02 173.82 0.01 175.14 0.01 C176.9 0.01 176.9 0.01 178.7 0.02 C180.25 0.01 180.25 0.01 181.84 0.01 C184.31 0.26 184.31 0.26 186.31 2.26 C180.76 9.15 175.06 15.89 169.25 22.57 C165.26 27.15 161.32 31.77 157.41 36.41 C154.02 40.42 150.61 44.41 147.18 48.38 C143.69 52.44 140.24 56.53 136.87 60.7 C131.71 67.04 126.33 73.18 120.97 79.35 C116.38 84.63 111.83 89.93 107.31 95.26 C106.85 95.79 106.4 96.32 105.93 96.87 C104.65 98.37 103.38 99.88 102.12 101.38 C101.4 102.23 100.69 103.08 99.95 103.95 C98.32 106.24 97.66 107.51 97.31 110.26 C98.95 112.6 100.57 114.6 102.49 116.7 C103.04 117.31 103.58 117.92 104.14 118.56 C108.36 123.3 112.69 127.94 117.02 132.58 C120.03 135.81 122.87 139.12 125.62 142.57 C130.06 148.11 134.91 153.21 139.79 158.35 C144.09 162.9 148.1 167.58 151.99 172.47 C155.9 177.18 160.13 181.59 164.31 186.05 C168.69 190.72 172.86 195.56 177.01 200.43 C178.02 201.62 179.04 202.82 180.06 204.01 C180.57 204.61 181.08 205.21 181.6 205.82 C185.94 210.89 190.45 215.79 195.03 220.64 C197.31 223.26 197.31 223.26 200.31 228.26 C191.07 228.59 181.83 228.92 172.31 229.26 C172.31 232.31 174.14 233.44 176.18 235.63 C178.78 238.42 180.68 240.83 182.31 244.26 C165.59 245.03 148.88 245.45 132.15 245.17 C130.47 245.15 128.78 245.13 127.1 245.12 C124.73 245.11 122.36 245.06 119.98 245 C118.93 245 118.93 245 117.85 245 C114.06 244.87 112.45 244.38 109.52 241.91 C108.79 241.04 108.06 240.16 107.31 239.26 C106.77 238.7 106.24 238.15 105.69 237.58 C99.37 230.87 93.25 224.1 87.48 216.9 C85.18 214.1 82.77 211.43 80.31 208.76 C77.03 205.2 73.9 201.59 70.87 197.82 C66.87 192.86 62.64 188.2 58.28 183.57 C54.12 178.94 50.24 174.07 46.31 169.26 C46.31 188.73 46.31 208.2 46.31 228.26 C31.2 229.05 16.37 229.7 1.31 228.82 C0.27 228.76 0.27 228.76 -0.78 228.7 C-5.57 228.38 -5.57 228.38 -6.69 227.26 C-6.81 224.57 -6.85 221.91 -6.86 219.22 C-6.86 218.37 -6.87 217.52 -6.88 216.64 C-6.89 213.76 -6.9 210.88 -6.91 208 C-6.93 205.94 -6.94 203.89 -6.95 201.83 C-6.98 196.22 -7.01 190.62 -7.03 185.01 C-7.05 180.33 -7.07 175.65 -7.1 170.97 C-7.15 159.91 -7.2 148.86 -7.25 137.8 C-7.3 126.42 -7.36 115.03 -7.42 103.64 C-7.47 93.86 -7.52 84.08 -7.56 74.3 C-7.59 68.46 -7.61 62.62 -7.64 56.78 C-7.67 51.28 -7.7 45.78 -7.72 40.27 C-7.73 38.26 -7.74 36.25 -7.75 34.24 C-7.89 9.59 -7.89 9.59 -6.69 2.26 C-4.2 -0.23 -3.44 0.01 0 0 Z " fill="#FAFCFC" transform="translate(551.693359375,22.7412109375)"/>
<path d="M0 0 C3.54 -0.07 7.07 -0.17 10.61 -0.35 C33.39 -1.46 33.39 -1.46 39.1 2.42 C42.52 6.07 44.37 10.16 46.04 14.83 C47.46 18.33 49.64 21.28 51.82 24.35 C52.65 25.58 53.48 26.82 54.31 28.05 C54.73 28.68 55.15 29.3 55.58 29.94 C58.4 34.19 61.14 38.48 63.9 42.76 C67.29 48.01 70.74 53.22 74.23 58.4 C75.88 60.91 75.88 60.91 77.42 63.68 C78.75 66.21 78.75 66.21 81.88 66.91 C82.21 66.39 82.54 65.86 82.88 65.33 C93.81 47.85 93.81 47.85 99.51 39.89 C101.07 37.64 102.4 35.3 103.72 32.91 C105.37 30.08 107.15 27.34 108.95 24.6 C109.62 23.57 110.29 22.54 110.98 21.49 C112.88 18.91 112.88 18.91 115.88 16.91 C116.7 16.97 117.51 17.02 118.35 17.08 C121.05 17.19 121.05 17.19 122.8 14.9 C123.65 13.57 123.65 13.57 124.51 12.22 C125.36 10.92 125.36 10.92 126.24 9.59 C127.34 7.8 128.4 5.98 129.41 4.14 C130.88 1.91 130.88 1.91 133.88 0.91 C135.76 0.81 137.64 0.77 139.52 0.77 C140.67 0.76 141.83 0.75 143.02 0.75 C144.89 0.74 144.89 0.74 146.79 0.74 C148.07 0.74 149.35 0.74 150.67 0.73 C153.37 0.73 156.08 0.73 158.78 0.73 C162.25 0.73 165.72 0.71 169.19 0.7 C172.5 0.68 175.8 0.68 179.11 0.68 C180.36 0.67 181.61 0.67 182.89 0.66 C184.62 0.66 184.62 0.66 186.38 0.67 C187.4 0.67 188.41 0.67 189.46 0.66 C191.88 0.91 191.88 0.91 193.88 2.91 C179.4 24.99 164.86 47.03 150.07 68.91 C148.87 70.68 147.68 72.46 146.48 74.23 C145.89 75.1 145.3 75.98 144.69 76.88 C144.1 77.74 143.52 78.61 142.91 79.5 C142.33 80.36 141.75 81.22 141.15 82.11 C135.33 90.73 129.52 99.37 123.74 108.02 C122.68 109.6 121.62 111.18 120.56 112.76 C119.1 114.92 117.66 117.09 116.21 119.25 C115.79 119.89 115.36 120.53 114.92 121.18 C112.23 125.22 110.77 128.22 110.73 133.07 C110.72 133.91 110.71 134.76 110.7 135.63 C110.69 136.55 110.69 137.48 110.68 138.43 C110.67 139.41 110.66 140.38 110.65 141.39 C110.62 144.62 110.59 147.85 110.57 151.08 C110.55 153.32 110.53 155.55 110.51 157.79 C110.45 163.69 110.4 169.58 110.35 175.47 C110.3 181.49 110.25 187.5 110.19 193.51 C110.08 205.31 109.98 217.11 109.88 228.91 C107.06 229.08 104.24 229.24 101.42 229.4 C100.64 229.45 99.85 229.5 99.04 229.54 C87.98 230.18 76.95 230.12 65.88 229.47 C65.2 229.43 64.51 229.4 63.8 229.35 C59.01 229.04 59.01 229.04 57.88 227.91 C57.81 224.86 57.8 221.83 57.84 218.78 C57.85 216.79 57.86 214.8 57.88 212.81 C57.88 211.75 57.89 210.68 57.9 209.59 C57.94 202.78 57.93 195.96 57.93 189.15 C57.93 183.17 57.95 177.19 58.01 171.22 C58.07 165.43 58.07 159.65 58.05 153.86 C58.05 151.67 58.06 149.47 58.1 147.28 C58.31 133.2 56.88 123.76 48.12 112.51 C46.44 110.33 44.96 108.03 43.46 105.71 C42.45 104.21 41.44 102.72 40.42 101.23 C39.87 100.41 39.31 99.59 38.74 98.74 C37 96.17 35.25 93.6 33.51 91.04 C31.21 87.64 28.91 84.25 26.61 80.86 C26.05 80.03 25.49 79.2 24.91 78.35 C20.55 71.91 16.23 65.45 11.93 58.97 C8.46 53.76 4.94 48.57 1.38 43.41 C-3.94 35.67 -9.18 27.87 -14.37 20.04 C-16.11 17.41 -17.87 14.79 -19.64 12.19 C-20.38 11.11 -21.11 10.03 -21.87 8.91 C-22.5 7.98 -23.13 7.05 -23.79 6.1 C-25.12 3.91 -25.12 3.91 -25.12 1.91 C-18.27 -1.51 -7.62 0.15 0 0 Z " fill="#FAFCFC" transform="translate(800.1152267456055,22.088873863220215)"/>
<path d="M0 0 C1.31 -0 2.63 -0.01 3.98 -0.01 C5.44 -0.01 6.9 -0.01 8.36 -0.01 C9.89 -0.01 11.43 -0.02 12.96 -0.02 C17.13 -0.03 21.3 -0.03 25.47 -0.03 C28.95 -0.03 32.42 -0.04 35.9 -0.04 C44.1 -0.05 52.3 -0.05 60.5 -0.05 C68.97 -0.05 77.43 -0.06 85.9 -0.08 C93.17 -0.09 100.43 -0.1 107.7 -0.1 C112.04 -0.09 116.38 -0.1 120.72 -0.11 C124.8 -0.12 128.88 -0.12 132.96 -0.11 C134.46 -0.11 135.96 -0.11 137.46 -0.12 C139.5 -0.13 141.55 -0.12 143.59 -0.11 C144.73 -0.11 145.88 -0.11 147.06 -0.12 C149.73 0.13 149.73 0.13 151.73 2.13 C151.97 4.04 151.97 4.04 151.96 6.4 C151.96 7.72 151.96 7.72 151.96 9.07 C151.95 10.02 151.94 10.97 151.93 11.95 C151.92 12.93 151.92 13.9 151.92 14.9 C151.91 18.02 151.88 21.14 151.86 24.26 C151.85 26.37 151.84 28.48 151.83 30.59 C151.81 35.77 151.77 40.95 151.73 46.13 C134.04 47.56 116.55 47.13 98.73 47.13 C98.4 106.86 98.07 166.59 97.73 228.13 C76.7 229.3 76.7 229.3 70.54 229.26 C69.82 229.26 69.09 229.25 68.34 229.25 C47.67 229.07 47.67 229.07 45.73 227.13 C45.62 224.83 45.59 222.53 45.58 220.22 C45.57 219.49 45.57 218.76 45.57 218.01 C45.55 215.54 45.55 213.07 45.54 210.6 C45.53 208.84 45.52 207.08 45.52 205.32 C45.5 201.52 45.48 197.71 45.47 193.91 C45.45 187.9 45.42 181.89 45.39 175.89 C45.33 162.05 45.27 148.21 45.22 134.38 C45.17 121.7 45.11 109.02 45.05 96.34 C45.02 90.37 45 84.39 44.98 78.41 C44.97 74.7 44.95 70.99 44.93 67.27 C44.92 65.55 44.92 63.82 44.91 62.09 C44.91 59.74 44.9 57.39 44.88 55.04 C44.87 53.07 44.87 53.07 44.87 51.05 C45.06 48.24 45.06 48.24 43.73 47.13 C42.15 47.02 40.56 46.98 38.97 46.96 C37.95 46.95 36.94 46.93 35.89 46.92 C34.79 46.91 33.68 46.9 32.55 46.89 C30.23 46.85 27.92 46.82 25.61 46.79 C21.95 46.74 18.28 46.7 14.62 46.66 C11.09 46.62 7.57 46.57 4.05 46.51 C2.94 46.5 1.84 46.5 0.71 46.49 C-0.82 46.46 -0.82 46.46 -2.38 46.44 C-3.72 46.42 -3.72 46.42 -5.1 46.41 C-7.27 46.13 -7.27 46.13 -9.27 44.13 C-9.6 41.57 -9.6 41.57 -9.72 38.34 C-9.76 37.16 -9.81 35.98 -9.85 34.76 C-9.89 33.5 -9.92 32.24 -9.96 30.95 C-10 29.68 -10.04 28.41 -10.08 27.11 C-10.32 18.38 -10.23 9.81 -9.27 1.13 C-5.95 0.03 -3.49 0.01 0 0 Z " fill="#FAFCFC" transform="translate(60.26966857910156,22.866287231445313)"/>
<path d="M0 0 C4.06 -0.15 8.12 -0.23 12.19 -0.31 C13.91 -0.38 13.91 -0.38 15.67 -0.44 C24.21 -0.56 24.21 -0.56 28.07 2.19 C28.71 3.12 29.35 4.04 30 5 C30.61 5.84 31.22 6.68 31.85 7.55 C32.73 8.92 32.73 8.92 33.62 10.31 C34.32 11.37 35.01 12.43 35.72 13.52 C36.09 14.09 36.46 14.65 36.84 15.24 C38.43 17.64 40.06 20.02 41.71 22.39 C46.35 29.1 50.92 35.86 55.44 42.66 C60.41 50.13 65.4 57.57 70.43 65 C71.04 65.91 71.66 66.81 72.29 67.75 C74.78 71.43 77.28 75.12 79.78 78.8 C81.64 81.55 83.5 84.31 85.37 87.06 C85.92 87.87 86.47 88.68 87.03 89.51 C88.12 91.13 89.2 92.76 90.26 94.4 C91.99 97.07 91.99 97.07 94.16 99.69 C101.92 110.19 101.12 120.77 101 133.36 C101.01 135.61 101.02 137.86 101.03 140.1 C101.06 145.97 101.04 151.84 101.01 157.71 C100.99 163.72 101.02 169.73 101.04 175.73 C101.07 187.49 101.05 199.24 101 211 C104.17 211.17 107.34 211.33 110.52 211.5 C111.4 211.54 112.29 211.59 113.21 211.64 C120.15 211.99 127.05 212.11 134 212 C135.5 215 135.09 217.79 135.06 221.12 C135.05 222.41 135.04 223.69 135.04 225.01 C135.02 226.49 135.02 226.49 135 228 C133.86 227.99 132.71 227.98 131.54 227.96 C130.04 227.96 128.55 227.95 127.06 227.94 C126.31 227.93 125.55 227.92 124.78 227.91 C122.85 227.9 120.92 227.95 119 228 C116.94 230.06 117.59 234.22 117.44 237.06 C117.37 238.2 117.37 238.2 117.31 239.36 C117.2 241.24 117.1 243.12 117 245 C109.76 245.03 102.51 245.04 95.27 245.05 C92.8 245.06 90.33 245.07 87.86 245.08 C84.33 245.09 80.79 245.09 77.25 245.1 C76.14 245.1 75.03 245.11 73.89 245.11 C72.36 245.11 72.36 245.11 70.8 245.11 C69.44 245.12 69.44 245.12 68.06 245.12 C66 245 66 245 65 244 C65.03 241.09 65.12 238.21 65.25 235.31 C65.33 233.41 65.4 231.51 65.47 229.61 C65.51 228.59 65.55 227.58 65.59 226.53 C70.07 162.86 70.07 162.86 43.25 107.96 C41.87 106.5 40.48 105.03 39.1 103.57 C32.41 96.37 27.31 87.99 21.99 79.77 C19.06 75.27 16.04 70.84 13.03 66.41 C11.86 64.67 10.69 62.94 9.52 61.2 C7.74 58.58 5.97 55.96 4.2 53.34 C0.73 48.2 -2.74 43.05 -6.2 37.89 C-7.27 36.31 -8.33 34.73 -9.4 33.15 C-10.87 30.99 -12.32 28.82 -13.77 26.66 C-14.2 26.02 -14.64 25.39 -15.08 24.73 C-18 20.34 -18 20.34 -18 17 C-9.09 17 -0.18 17 9 17 C4.55 9.97 4.55 9.97 0 3 C0 2.01 0 1.02 0 0 Z " fill="#6C4B32" transform="translate(758,39)"/>
<path d="M0 0 C0.66 0 1.32 0 2 0 C1.04 2.81 0.09 4.89 -1.8 7.2 C-8.42 15.65 -12.97 26 -16.38 36.12 C-16.6 36.79 -16.83 37.46 -17.06 38.14 C-20.99 50.55 -22.56 62.71 -22.44 75.69 C-22.43 76.38 -22.43 77.07 -22.43 77.79 C-22.21 110.85 -10.41 139.51 13.04 163.05 C35.12 183.72 62.27 192.45 92.06 192.38 C93.22 192.37 93.22 192.37 94.41 192.37 C113.57 192.31 129.28 188.71 146.73 180.76 C149 180 149 180 152 181 C151.15 181.54 150.31 182.07 149.44 182.62 C146.28 184.72 143.46 187.11 140.61 189.61 C138.81 191.17 136.94 192.61 135 194 C135.66 194.33 136.32 194.66 137 195 C115.27 216.17 88.23 226.45 57.88 226.31 C56.6 226.31 55.33 226.3 54.02 226.3 C20.69 225.89 -5.77 213.15 -29.3 189.7 C-50.59 167.17 -59.76 135.89 -59.25 105.32 C-57.88 76.24 -47.34 45.67 -26 25 C-24.03 23.46 -22.01 22.01 -19.97 20.56 C-17.19 18.36 -15.06 15.74 -12.8 13.02 C-10.36 10.28 -7.63 7.97 -4.8 5.64 C-2.9 4.02 -2.9 4.02 -1.39 1.8 C-0.93 1.2 -0.47 0.61 0 0 Z " fill="#6D4C33" transform="translate(1052,62)"/>
<path d="M0 0 C0 0.99 0 1.98 0 3 C-0.66 3 -1.32 3 -2 3 C-2.28 3.58 -2.55 4.15 -2.84 4.75 C-3.98 6.96 -5.27 8.98 -6.62 11.06 C-16.92 28.27 -23.59 48.88 -24 69 C-24.04 69.91 -24.08 70.82 -24.12 71.75 C-24.87 102.33 -15.31 133.45 5.93 155.88 C7.27 157.27 8.64 158.63 10 160 C11.02 161.04 11.02 161.04 12.07 162.1 C37.47 186.26 67.86 191.85 101.7 191.23 C116.05 190.86 128.55 187.3 141.65 181.55 C142.43 181.21 143.22 180.87 144.04 180.51 C145.08 180.04 145.08 180.04 146.14 179.56 C148 179 148 179 151 180 C150.15 180.54 149.31 181.07 148.44 181.62 C145.94 183.28 143.69 185.08 141.44 187.06 C138.78 189.4 136.12 191.3 133 193 C133.99 193 134.98 193 136 193 C134.36 194.7 132.69 196.36 131 198 C130.45 198.53 129.91 199.06 129.34 199.61 C123.48 205.03 116.9 209.03 110 213 C109.19 213.48 108.38 213.95 107.54 214.44 C102.44 217.22 97.16 219.02 91.62 220.69 C90.95 220.89 90.28 221.09 89.59 221.3 C60.34 229.64 27.56 226.62 0.56 212.81 C-26.07 197.89 -45.97 175.03 -55.01 145.63 C-64.33 111.54 -60.94 76.92 -43.75 45.88 C-40.89 41.15 -37.68 36.74 -34.31 32.38 C-33.85 31.77 -33.39 31.17 -32.91 30.54 C-30.48 27.48 -28.49 25.66 -25 24 C-24.3 22.69 -23.63 21.35 -23 20 C-21.44 18.46 -21.44 18.46 -19.56 16.94 C-14.91 13.02 -10.74 8.73 -6.52 4.36 C-4.35 2.33 -2.72 1.1 0 0 Z " fill="#6D4C33" transform="translate(281,63)"/>
<path d="M0 0 C0.7 0 1.41 0.01 2.13 0.01 C2.83 0.01 3.53 0 4.26 0 C9.5 0.01 9.5 0.01 10.63 1.14 C10.77 3.12 10.86 5.11 10.91 7.11 C10.97 8.92 10.97 8.92 11.02 10.77 C11.09 13.35 11.16 15.92 11.23 18.5 C11.29 20.32 11.29 20.32 11.35 22.17 C11.38 23.29 11.41 24.41 11.44 25.56 C11.34 28.07 11.34 28.07 12.63 29.14 C14.21 29.25 15.8 29.29 17.39 29.31 C18.91 29.33 18.91 29.33 20.47 29.35 C21.57 29.36 22.67 29.37 23.81 29.38 C26.12 29.42 28.44 29.45 30.75 29.48 C34.41 29.53 38.08 29.57 41.74 29.61 C45.27 29.65 48.79 29.7 52.31 29.76 C53.41 29.77 54.52 29.77 55.65 29.78 C57.18 29.81 57.18 29.81 58.74 29.83 C60.08 29.85 60.08 29.85 61.46 29.86 C63.63 30.14 63.63 30.14 65.63 32.14 C65.89 35.18 65.89 35.18 65.91 39.17 C65.91 39.91 65.92 40.64 65.92 41.39 C65.94 43.86 65.94 46.33 65.95 48.8 C65.96 50.56 65.97 52.32 65.98 54.09 C66.01 58.89 66.02 63.69 66.03 68.48 C66.05 73.5 66.08 78.51 66.1 83.52 C66.15 93.01 66.19 102.51 66.22 112 C66.26 122.81 66.31 133.62 66.36 144.43 C66.46 166.66 66.55 188.9 66.63 211.14 C69.62 211.3 72.62 211.47 75.62 211.63 C76.45 211.68 77.29 211.73 78.16 211.78 C85.33 212.16 92.44 212.21 99.63 212.14 C99.63 217.42 99.63 222.7 99.63 228.14 C91.69 228.07 91.69 228.07 89.19 228.05 C87.33 228.04 85.48 228.09 83.63 228.14 C81.57 230.2 82.21 234.35 82.07 237.2 C82 238.34 82 238.34 81.94 239.5 C81.83 241.38 81.73 243.26 81.63 245.14 C74.38 245.16 67.14 245.18 59.89 245.19 C57.43 245.2 54.96 245.2 52.49 245.21 C48.96 245.22 45.42 245.23 41.88 245.23 C40.77 245.24 39.66 245.24 38.52 245.25 C36.99 245.25 36.99 245.25 35.42 245.25 C34.07 245.25 34.07 245.25 32.69 245.26 C30.63 245.14 30.63 245.14 29.63 244.14 C29.52 241.8 29.47 239.49 29.47 237.15 C29.46 236.04 29.46 236.04 29.46 234.9 C29.44 232.4 29.43 229.91 29.42 227.41 C29.41 225.62 29.4 223.84 29.39 222.06 C29.37 217.2 29.35 212.34 29.33 207.49 C29.3 202.42 29.28 197.35 29.25 192.28 C29.2 182.67 29.15 173.06 29.11 163.45 C29.06 152.51 29.01 141.58 28.95 130.64 C28.84 108.14 28.73 85.64 28.63 63.14 C27.98 63.13 27.33 63.12 26.66 63.11 C19.93 63 13.2 62.88 6.47 62.76 C3.95 62.72 1.44 62.68 -1.08 62.64 C-4.69 62.58 -8.29 62.52 -11.9 62.45 C-13.03 62.44 -14.16 62.42 -15.33 62.4 C-16.37 62.38 -17.41 62.36 -18.48 62.34 C-19.41 62.33 -20.33 62.31 -21.28 62.29 C-23.37 62.14 -23.37 62.14 -24.37 61.14 C-24.48 58.06 -24.54 55 -24.54 51.92 C-24.54 51 -24.55 50.07 -24.55 49.12 C-24.55 47.15 -24.56 45.19 -24.56 43.23 C-24.56 40.22 -24.58 37.2 -24.6 34.19 C-24.6 32.29 -24.6 30.39 -24.6 28.48 C-24.61 27.58 -24.62 26.67 -24.62 25.74 C-24.62 24.9 -24.62 24.07 -24.61 23.2 C-24.62 22.46 -24.62 21.73 -24.62 20.96 C-24.37 19.14 -24.37 19.14 -22.37 17.14 C-19.79 16.99 -17.32 16.95 -14.75 17.01 C-13.69 17.03 -13.69 17.03 -12.61 17.04 C-10.86 17.06 -9.12 17.1 -7.37 17.14 C-7.31 15.99 -7.25 14.85 -7.19 13.67 C-7.1 12.18 -7.02 10.69 -6.93 9.2 C-6.89 8.44 -6.85 7.69 -6.81 6.91 C-6.41 0.01 -6.41 0.01 0 0 Z " fill="#6D4C33" transform="translate(40.37109375,38.86328125)"/>
<path d="M0 0 C0.83 0 1.66 0.01 2.51 0.01 C14.93 0.25 27.48 3.67 36.84 12.27 C55.03 32.37 58.88 54.94 57.69 81.31 C56.63 93.09 52.85 108.1 43.69 116.31 C40.76 117.82 37.9 118.66 34.69 119.31 C33.82 119.49 32.95 119.67 32.06 119.86 C13.83 122.31 -3.35 120.72 -18.31 109.31 C-32.95 97.69 -38.82 83.55 -41.31 65.31 C-42.98 44.4 -40.14 23.56 -27.31 6.31 C-26.45 5.14 -26.45 5.14 -25.56 3.94 C-25.15 3.4 -24.74 2.86 -24.31 2.31 C-23.65 2.64 -22.99 2.97 -22.31 3.31 C-20.39 2.96 -20.39 2.96 -18.31 2.31 C-12.14 0.72 -6.37 -0.05 0 0 Z " fill="#300201" transform="translate(354.3125,84.6875)"/>
<path d="M0 0 C0.83 0.01 1.66 0.01 2.51 0.02 C15 0.26 27.93 3.69 37.38 12.31 C51.89 28.36 58.3 47.78 58.12 69.19 C58.12 69.85 58.12 70.5 58.12 71.18 C58.05 81.2 57.39 89.93 53.69 99.31 C53.23 100.6 52.78 101.88 52.33 103.17 C48.55 113.44 48.55 113.44 44.56 116 C42.75 116.71 42.75 116.71 40.69 117.31 C39.9 117.6 39.12 117.89 38.31 118.19 C23.02 123.04 4.3 121.88 -9.94 114.62 C-25.82 105.33 -34.41 93.82 -39.06 76.06 C-44.41 54.06 -41.74 30.36 -30.19 10.75 C-28.36 7.82 -26.41 5.05 -24.31 2.31 C-23.65 2.64 -22.99 2.97 -22.31 3.31 C-20.39 2.96 -20.39 2.96 -18.31 2.31 C-12.14 0.72 -6.37 -0.05 0 0 Z " fill="#300201" transform="translate(1126.3125,84.6875)"/>
<path d="M0 0 C3.93 -0.03 3.93 -0.03 7.94 -0.06 C8.76 -0.07 9.59 -0.08 10.44 -0.09 C12.29 -0.1 14.15 -0.05 16 0 C18.04 2.04 17.15 6.3 17.16 9.09 C17.17 10.38 17.17 10.38 17.17 11.69 C17.19 14.59 17.2 17.49 17.21 20.39 C17.21 22.46 17.22 24.53 17.24 26.6 C17.26 32.23 17.28 37.87 17.3 43.51 C17.33 49.39 17.35 55.27 17.38 61.16 C17.43 72.3 17.47 83.45 17.52 94.6 C17.57 107.29 17.62 119.98 17.68 132.67 C17.79 158.78 17.9 184.89 18 211 C21 211.17 23.99 211.33 26.99 211.5 C27.83 211.54 28.66 211.59 29.53 211.64 C36.69 212.03 43.82 212.11 51 212 C52.43 214.87 52.13 217.37 52.12 220.56 C52.13 222.33 52.13 222.33 52.13 224.13 C52 227 52 227 51 228 C48.14 228.24 45.3 228.42 42.44 228.56 C41.63 228.61 40.82 228.65 39.99 228.69 C38 228.8 36 228.9 34 229 C34 234.28 34 239.56 34 245 C26.76 245.02 19.51 245.04 12.27 245.05 C9.8 245.06 7.33 245.07 4.86 245.08 C1.33 245.09 -2.21 245.09 -5.75 245.1 C-6.86 245.1 -7.97 245.11 -9.11 245.11 C-10.64 245.11 -10.64 245.11 -12.2 245.11 C-13.56 245.12 -13.56 245.12 -14.94 245.12 C-17 245 -17 245 -18 244 C-18.1 241.11 -18.14 238.24 -18.13 235.35 C-18.14 233.97 -18.14 233.97 -18.14 232.57 C-18.15 229.47 -18.15 226.37 -18.15 223.26 C-18.15 221.05 -18.15 218.84 -18.16 216.62 C-18.16 210.59 -18.17 204.56 -18.17 198.53 C-18.17 193.51 -18.17 188.48 -18.18 183.45 C-18.18 172.28 -18.19 161.11 -18.19 149.94 C-18.19 149.27 -18.19 148.6 -18.19 147.9 C-18.19 147.23 -18.19 146.56 -18.19 145.87 C-18.18 134.98 -18.19 124.09 -18.21 113.19 C-18.22 102.02 -18.23 90.85 -18.23 79.68 C-18.23 73.4 -18.23 67.13 -18.24 60.85 C-18.25 54.95 -18.25 49.05 -18.24 43.15 C-18.24 40.98 -18.25 38.81 -18.25 36.63 C-18.26 33.68 -18.25 30.73 -18.25 27.78 C-18.25 26.91 -18.26 26.04 -18.26 25.14 C-18.23 19.23 -18.23 19.23 -16 17 C-13.41 16.85 -10.96 16.81 -8.38 16.88 C-4.72 16.94 -4.72 16.94 -1 17 C-0.67 11.39 -0.34 5.78 0 0 Z " fill="#6D4C33" transform="translate(528,39)"/>
<path d="M0 0 C4.06 -0.15 8.12 -0.23 12.19 -0.31 C13.91 -0.38 13.91 -0.38 15.67 -0.44 C24.21 -0.56 24.21 -0.56 28.07 2.19 C28.71 3.12 29.35 4.04 30 5 C30.61 5.84 31.22 6.68 31.85 7.55 C32.73 8.92 32.73 8.92 33.62 10.31 C34.32 11.37 35.01 12.43 35.72 13.52 C36.09 14.09 36.46 14.65 36.84 15.24 C38.43 17.64 40.06 20.02 41.71 22.39 C46.35 29.1 50.92 35.86 55.44 42.66 C60.41 50.13 65.4 57.57 70.43 65 C71.04 65.91 71.66 66.81 72.29 67.75 C74.78 71.43 77.28 75.12 79.78 78.8 C81.64 81.55 83.5 84.31 85.37 87.06 C85.92 87.87 86.47 88.68 87.03 89.51 C88.12 91.13 89.2 92.76 90.26 94.4 C91.99 97.07 91.99 97.07 94.16 99.69 C101.92 110.19 101.12 120.77 101 133.36 C101.01 135.61 101.02 137.86 101.03 140.1 C101.06 145.97 101.04 151.84 101.01 157.71 C100.99 163.72 101.02 169.73 101.04 175.73 C101.07 187.49 101.05 199.24 101 211 C104.17 211.17 107.34 211.33 110.52 211.5 C111.4 211.54 112.29 211.59 113.21 211.64 C120.15 211.99 127.05 212.11 134 212 C135.5 215 135.09 217.79 135.06 221.12 C135.05 222.41 135.04 223.69 135.04 225.01 C135.02 226.49 135.02 226.49 135 228 C133.87 227.99 132.74 227.98 131.57 227.96 C130.09 227.96 128.61 227.95 127.12 227.94 C126.38 227.93 125.63 227.92 124.86 227.91 C120.8 227.79 120.8 227.79 117 229 C114.53 229.03 112.09 229 109.62 228.91 C108.89 228.89 108.17 228.87 107.42 228.85 C105.88 228.8 104.34 228.75 102.8 228.7 C100.44 228.63 98.08 228.56 95.72 228.49 C94.23 228.45 92.74 228.4 91.25 228.35 C90.54 228.33 89.83 228.31 89.09 228.29 C84.12 228.12 84.12 228.12 83 227 C83.02 224.08 83.11 221.19 83.24 218.28 C83.6 208.72 83.83 199.16 83.98 189.59 C84.07 183.81 84.22 178.04 84.48 172.27 C86.06 137.1 79.61 115.75 57.41 88.31 C52.43 82.12 48.17 75.48 43.88 68.81 C42.31 66.45 40.74 64.1 39.16 61.75 C31.75 50.63 24.34 39.51 16.93 28.39 C16.4 27.6 15.87 26.81 15.33 25.99 C14.3 24.45 13.27 22.91 12.25 21.36 C10 17.99 7.75 14.63 5.46 11.29 C4.72 10.22 3.99 9.15 3.23 8.04 C2.6 7.13 1.97 6.21 1.32 5.27 C0 3 0 3 0 0 Z " fill="#B4A26F" transform="translate(758,39)"/>
<path d="M0 0 C0.66 0 1.32 0 2 0 C1.04 2.81 0.09 4.89 -1.8 7.2 C-8.42 15.65 -12.97 26 -16.38 36.12 C-16.6 36.79 -16.83 37.46 -17.06 38.14 C-20.99 50.55 -22.56 62.71 -22.44 75.69 C-22.43 76.38 -22.43 77.07 -22.43 77.79 C-22.21 110.85 -10.41 139.51 13.04 163.05 C35.12 183.72 62.27 192.45 92.06 192.38 C93.22 192.37 93.22 192.37 94.41 192.37 C113.57 192.31 129.28 188.71 146.73 180.76 C149 180 149 180 152 181 C151.15 181.54 150.31 182.07 149.44 182.62 C147.09 184.18 145.06 185.83 143 187.75 C120.42 207.36 89.57 210.18 61 209 C29.78 206.54 3.29 190.21 -17 167 C-38.01 141.04 -43.92 106.44 -40.7 73.93 C-37.21 48.78 -25.5 24.43 -7 7 C-6.04 6.05 -5.08 5.09 -4.12 4.12 C-2.75 2.75 -1.38 1.38 0 0 Z " fill="#B4A270" transform="translate(1052,62)"/>
<path d="M0 0 C0 0.99 0 1.98 0 3 C-0.66 3 -1.32 3 -2 3 C-2.28 3.58 -2.55 4.15 -2.84 4.75 C-3.98 6.96 -5.27 8.98 -6.62 11.06 C-16.92 28.27 -23.59 48.88 -24 69 C-24.04 69.91 -24.08 70.82 -24.12 71.75 C-24.87 102.33 -15.31 133.45 5.93 155.88 C7.27 157.27 8.64 158.63 10 160 C11.02 161.04 11.02 161.04 12.07 162.1 C37.47 186.26 67.86 191.85 101.7 191.23 C116.05 190.86 128.55 187.3 141.65 181.55 C142.43 181.21 143.22 180.87 144.04 180.51 C145.08 180.04 145.08 180.04 146.14 179.56 C148 179 148 179 151 180 C150.15 180.54 149.31 181.07 148.44 181.62 C146.07 183.19 144.23 184.72 142.12 186.69 C119.53 206.26 88.58 209.53 60 208 C30.07 205.51 3 190.42 -16.68 168.02 C-34.68 145.89 -42.45 119.16 -42.38 90.94 C-42.37 90.21 -42.37 89.49 -42.37 88.74 C-42.28 61.21 -33.43 31.23 -13.51 11.24 C-12.52 10.25 -12.52 10.25 -11.5 9.25 C-10.5 8.24 -10.5 8.24 -9.49 7.21 C-8.84 6.57 -8.2 5.93 -7.53 5.27 C-6.95 4.69 -6.37 4.11 -5.77 3.51 C-3.94 1.95 -2.18 0.98 0 0 Z " fill="#B4A26F" transform="translate(281,63)"/>
<path d="M0 0 C0.7 0 1.41 0.01 2.13 0.01 C2.83 0.01 3.53 0 4.26 0 C9.5 0.01 9.5 0.01 10.63 1.14 C10.77 3.12 10.86 5.11 10.91 7.11 C10.95 8.32 10.98 9.53 11.02 10.77 C11.09 13.35 11.16 15.92 11.23 18.5 C11.27 19.71 11.31 20.92 11.35 22.17 C11.38 23.29 11.41 24.41 11.44 25.56 C11.34 28.07 11.34 28.07 12.63 29.14 C14.21 29.25 15.8 29.29 17.39 29.31 C18.91 29.33 18.91 29.33 20.47 29.35 C21.57 29.36 22.67 29.37 23.81 29.38 C26.12 29.42 28.44 29.45 30.75 29.48 C34.41 29.53 38.08 29.57 41.74 29.61 C45.27 29.65 48.79 29.7 52.31 29.76 C53.41 29.77 54.52 29.77 55.65 29.78 C57.18 29.81 57.18 29.81 58.74 29.83 C60.08 29.85 60.08 29.85 61.46 29.86 C63.63 30.14 63.63 30.14 65.63 32.14 C65.89 35.18 65.89 35.18 65.91 39.17 C65.91 39.91 65.92 40.64 65.92 41.39 C65.94 43.86 65.94 46.33 65.95 48.8 C65.96 50.56 65.97 52.32 65.98 54.09 C66.01 58.89 66.02 63.69 66.03 68.48 C66.05 73.5 66.08 78.51 66.1 83.52 C66.15 93.01 66.19 102.51 66.22 112 C66.26 122.81 66.31 133.62 66.36 144.43 C66.46 166.66 66.55 188.9 66.63 211.14 C69.62 211.3 72.62 211.47 75.62 211.63 C76.45 211.68 77.29 211.73 78.16 211.78 C85.33 212.16 92.44 212.21 99.63 212.14 C99.63 217.42 99.63 222.7 99.63 228.14 C91.75 228.07 91.75 228.07 89.28 228.05 C85.33 227.95 85.33 227.95 81.63 229.14 C79.16 229.17 76.72 229.13 74.25 229.05 C73.52 229.03 72.8 229.01 72.05 228.99 C70.51 228.94 68.97 228.89 67.43 228.84 C65.07 228.76 62.71 228.69 60.35 228.63 C58.86 228.58 57.37 228.54 55.88 228.49 C55.16 228.47 54.45 228.45 53.72 228.43 C48.74 228.25 48.74 228.25 47.63 227.14 C47.52 224.81 47.48 222.52 47.48 220.19 C47.47 219.45 47.47 218.72 47.46 217.96 C47.45 215.48 47.45 213 47.44 210.52 C47.43 208.74 47.42 206.97 47.41 205.2 C47.4 201.38 47.38 197.55 47.37 193.73 C47.35 187.69 47.32 181.64 47.29 175.6 C47.23 161.69 47.17 147.78 47.12 133.86 C47.07 121.11 47.01 108.36 46.95 95.62 C46.92 89.6 46.9 83.59 46.88 77.58 C46.87 73.85 46.85 70.12 46.83 66.38 C46.82 64.65 46.82 62.91 46.81 61.17 C46.81 58.81 46.79 56.45 46.78 54.08 C46.78 53.39 46.78 52.69 46.78 51.97 C47.02 48.78 47.02 48.78 45.63 46.14 C44.01 46.02 42.38 45.97 40.76 45.95 C39.2 45.92 39.2 45.92 37.61 45.9 C36.48 45.88 35.35 45.87 34.19 45.86 C33.04 45.84 31.89 45.82 30.71 45.8 C27.01 45.74 23.32 45.69 19.63 45.64 C14.77 45.57 9.92 45.5 5.07 45.42 C3.94 45.4 2.81 45.39 1.64 45.38 C0.09 45.35 0.09 45.35 -1.5 45.33 C-2.42 45.31 -3.34 45.3 -4.28 45.29 C-6.37 45.14 -6.37 45.14 -7.37 44.14 C-7.47 42.41 -7.5 40.68 -7.5 38.95 C-7.51 37.87 -7.51 36.78 -7.51 35.66 C-7.51 34.5 -7.5 33.34 -7.5 32.14 C-7.49 30.96 -7.49 29.79 -7.49 28.58 C-7.45 21.74 -7.33 14.91 -6.93 8.07 C-6.89 7.37 -6.86 6.67 -6.81 5.95 C-6.42 0.08 -5.87 0.01 0 0 Z " fill="#B4A26F" transform="translate(40.37109375,38.86328125)"/>
<path d="M0 0 C1.99 -0.02 3.97 -0.03 5.96 -0.05 C7.45 -0.06 8.95 -0.07 10.44 -0.09 C12.29 -0.1 14.15 -0.05 16 0 C18.04 2.04 17.15 6.3 17.16 9.09 C17.17 10.38 17.17 10.38 17.17 11.69 C17.19 14.59 17.2 17.49 17.21 20.39 C17.21 22.46 17.22 24.53 17.24 26.6 C17.26 32.23 17.28 37.87 17.3 43.51 C17.33 49.39 17.35 55.27 17.38 61.16 C17.43 72.3 17.47 83.45 17.52 94.6 C17.57 107.29 17.62 119.98 17.68 132.67 C17.79 158.78 17.9 184.89 18 211 C21 211.17 23.99 211.33 26.99 211.5 C27.83 211.54 28.66 211.59 29.53 211.64 C36.69 212.03 43.82 212.11 51 212 C52.43 214.87 52.13 217.37 52.12 220.56 C52.13 222.33 52.13 222.33 52.13 224.13 C52 227 52 227 51 228 C49.41 228.1 47.81 228.13 46.22 228.13 C44.69 228.13 44.69 228.13 43.14 228.14 C42.03 228.14 40.92 228.13 39.78 228.13 C38.65 228.13 37.52 228.13 36.36 228.14 C33.97 228.14 31.58 228.13 29.19 228.13 C25.52 228.13 21.84 228.13 18.17 228.14 C15.85 228.14 13.54 228.13 11.22 228.13 C10.11 228.13 9 228.14 7.86 228.14 C6.85 228.14 5.83 228.13 4.78 228.13 C3.88 228.13 2.98 228.13 2.05 228.13 C0 228 0 228 -1 227 C-1.1 224.35 -1.13 221.72 -1.13 219.07 C-1.13 217.8 -1.13 217.8 -1.13 216.52 C-1.14 213.67 -1.13 210.83 -1.13 207.99 C-1.13 205.96 -1.13 203.93 -1.13 201.9 C-1.14 196.36 -1.14 190.82 -1.13 185.29 C-1.13 179.49 -1.13 173.69 -1.14 167.89 C-1.14 158.13 -1.14 148.38 -1.13 138.62 C-1.12 127.37 -1.13 116.13 -1.13 104.88 C-1.14 95.21 -1.14 85.55 -1.13 75.88 C-1.13 70.11 -1.13 64.35 -1.14 58.58 C-1.14 53.14 -1.14 47.7 -1.13 42.26 C-1.13 40.27 -1.13 38.29 -1.13 36.3 C-1.15 24.17 -0.81 12.11 0 0 Z " fill="#B4A26F" transform="translate(528,39)"/>
<path d="M0 0 C3.04 1.45 4.89 2.72 7.06 5.31 C7.66 6.02 8.27 6.73 8.89 7.46 C9.58 8.3 10.28 9.14 11 10 C12.79 12.13 14.58 14.25 16.38 16.38 C16.85 16.94 17.32 17.5 17.81 18.07 C20.69 21.48 23.62 24.83 26.62 28.12 C29.66 31.46 32.55 34.87 35.38 38.38 C39.06 42.93 42.93 47.23 46.91 51.52 C50.71 55.62 54.24 59.92 57.75 64.27 C60.92 68.11 64.28 71.77 67.65 75.43 C69.71 77.68 71.74 79.95 73.75 82.25 C74.31 82.88 74.86 83.5 75.43 84.15 C77 86 77 86 78.41 87.98 C81.77 92.53 84.37 93.72 89.87 94.69 C93.51 95.05 97.08 95.03 100.73 94.91 C101.42 94.89 102.1 94.87 102.81 94.85 C105.66 94.76 108.5 94.66 111.35 94.51 C123.27 93.89 123.27 93.89 127.37 96.53 C129.23 98.58 130.61 100.6 132 103 C132.5 103.76 133 104.53 133.52 105.31 C134.73 107.18 135.89 109.07 137 111 C120.29 111.77 103.58 112.2 86.84 111.91 C85.16 111.89 83.48 111.87 81.79 111.86 C79.42 111.85 77.05 111.8 74.68 111.74 C73.62 111.74 73.62 111.74 72.54 111.74 C68.76 111.61 67.14 111.12 64.21 108.65 C63.48 107.78 62.75 106.9 62 106 C61.47 105.45 60.93 104.89 60.38 104.32 C54.07 97.61 47.94 90.84 42.18 83.64 C39.87 80.84 37.46 78.17 35 75.5 C31.73 71.94 28.59 68.33 25.56 64.56 C21.91 60.04 18.07 55.76 14.11 51.5 C10.11 47.18 6.37 42.68 2.68 38.08 C1.17 36.13 1.17 36.13 0 35 C-0.09 32.41 -0.12 29.84 -0.1 27.25 C-0.1 26.08 -0.1 26.08 -0.09 24.9 C-0.09 22.41 -0.08 19.92 -0.06 17.44 C-0.06 15.76 -0.05 14.07 -0.05 12.39 C-0.04 8.26 -0.02 4.13 0 0 Z " fill="#B5A370" transform="translate(597,156)"/>
<path d="M0 0 C10.87 8.72 17.28 21.11 22 34 C22.35 34.92 22.71 35.84 23.07 36.79 C28.89 56.91 25.89 82.79 16 101 C13.58 104.59 10.93 107.82 8 111 C7.36 111.69 6.73 112.38 6.07 113.1 C3.21 116.09 0.81 118.28 -3 120 C-2.38 116.2 -1.24 113.11 0.38 109.62 C9.01 88.93 8.74 63.74 0.81 42.88 C-2.05 36.41 -5.86 30.71 -10 25 C-10.65 24.07 -10.65 24.07 -11.31 23.12 C-18.21 13.95 -29.99 9.67 -41 8 C-50.8 7.38 -60.3 7.45 -69.75 10.34 C-72 11 -72 11 -75 11 C-70.95 2.65 -63.6 -1.74 -55.2 -4.93 C-37.12 -10.95 -16.37 -11.16 0 0 Z " fill="#B5A370" transform="translate(405,78)"/>
<path d="M0 0 C1 0.31 2 0.61 3.03 0.93 C16.74 5.78 24.92 17.2 31.39 29.69 C41.02 50.61 41.21 74.5 33.94 96.17 C29.75 107.02 23.08 116.63 14 124 C11.73 124.75 11.73 124.75 10 125 C11.7 119.74 13.71 114.64 15.78 109.51 C22.33 90.63 21.62 65.26 13.23 47.07 C6.57 33.44 -1.64 22.53 -16.19 17.19 C-29.9 12.52 -45.23 12.18 -59 17 C-59.66 17.33 -60.32 17.66 -61 18 C-60.34 12.73 -58.34 10.95 -54.35 7.7 C-38.68 -3.64 -18.14 -5.92 0 0 Z " fill="#B4A270" transform="translate(1164,72)"/>
<path d="M0 0 C8.38 8.38 16.31 17.01 23.72 26.25 C26.22 29.26 28.84 32.14 31.5 35 C35.77 39.59 39.76 44.33 43.68 49.21 C46.65 52.79 49.8 56.17 52.96 59.57 C56.69 63.59 60.11 67.79 63.44 72.14 C64.88 74.1 64.88 74.1 67 75 C69.77 75.1 72.52 75.14 75.3 75.14 C76.99 75.16 78.69 75.18 80.39 75.2 C83.07 75.23 85.74 75.25 88.42 75.25 C91.01 75.25 93.59 75.29 96.17 75.33 C96.97 75.32 97.76 75.31 98.58 75.31 C104.41 75.43 106.89 76.85 111 81 C112.65 82.85 114.26 84.75 115.81 86.69 C116.58 87.64 117.35 88.59 118.14 89.57 C120 92 120 92 121 94 C111.88 94.03 102.76 94.03 93.64 93.97 C89.41 93.95 85.17 93.94 80.94 93.96 C76.85 93.97 72.76 93.96 68.66 93.92 C67.11 93.91 65.55 93.91 63.99 93.93 C50.28 94.05 50.28 94.05 45.13 89.61 C43.41 87.76 43.41 87.76 42 86 C41.22 85.12 40.44 84.24 39.64 83.33 C38.99 82.5 38.35 81.67 37.69 80.81 C34.43 76.72 31.06 72.82 27.5 69 C24.03 65.27 20.7 61.48 17.5 57.5 C14.14 53.34 10.67 49.32 7.06 45.38 C6.59 44.85 6.12 44.33 5.63 43.79 C3.11 41.02 3.11 41.02 0 39 C0 26.13 0 13.26 0 0 Z " fill="#6C4B32" transform="translate(597,191)"/>
<path d="M0 0 C0.83 0.01 1.66 0.01 2.51 0.02 C15 0.26 27.93 3.69 37.38 12.31 C51.89 28.36 58.3 47.78 58.12 69.19 C58.12 69.85 58.12 70.5 58.12 71.18 C58.05 81.2 57.39 89.93 53.69 99.31 C53.23 100.6 52.78 101.88 52.33 103.17 C48.53 113.47 48.53 113.47 44.06 116.12 C38.81 117.97 38.81 117.97 36.69 118.31 C35.57 114.96 36.06 113.52 37.02 110.22 C42.8 90.07 41.56 65.98 31.69 47.31 C23.05 33.14 13.72 23.09 -3 18.94 C-12.39 17.41 -22.99 17.46 -32.31 19.31 C-33.31 16.31 -33.31 16.31 -32.2 13.97 C-31.66 13.12 -31.12 12.26 -30.56 11.38 C-30.03 10.52 -29.5 9.67 -28.95 8.79 C-27.48 6.56 -25.94 4.43 -24.31 2.31 C-23.65 2.64 -22.99 2.97 -22.31 3.31 C-20.39 2.96 -20.39 2.96 -18.31 2.31 C-12.14 0.72 -6.37 -0.05 0 0 Z " fill="#6D4C33" transform="translate(1126.3125,84.6875)"/>
<path d="M0 0 C0.83 0 1.66 0.01 2.51 0.01 C14.93 0.25 27.48 3.67 36.84 12.27 C55.03 32.37 58.88 54.94 57.69 81.31 C56.62 93.19 52.8 107.95 43.69 116.31 C41.27 117.47 39.37 117.88 36.69 118.31 C35.38 114.66 36.02 112.24 37.06 108.56 C42.45 89.34 41.11 66.09 31.69 48.31 C23.55 33.95 14.98 25.01 -0.81 19.43 C-10.55 17.03 -22.52 17.36 -32.31 19.31 C-33.31 16.31 -33.31 16.31 -32.46 14.23 C-29.99 10 -27.54 6.02 -24.31 2.31 C-23.65 2.64 -22.99 2.97 -22.31 3.31 C-20.39 2.96 -20.39 2.96 -18.31 2.31 C-12.14 0.72 -6.37 -0.05 0 0 Z " fill="#6D4C33" transform="translate(354.3125,84.6875)"/>
<path d="M0 0 C1.48 0 2.95 0.01 4.43 0.02 C5.2 0.02 5.98 0.02 6.78 0.02 C9.26 0.03 11.75 0.04 14.24 0.05 C15.92 0.06 17.6 0.06 19.28 0.06 C23.41 0.07 27.54 0.09 31.67 0.11 C31.67 5.39 31.67 10.67 31.67 16.11 C23.26 16.61 23.26 16.61 14.67 17.11 C14.67 22.06 14.67 27.01 14.67 32.11 C8.73 32.44 2.79 32.77 -3.33 33.11 C-4.78 30.2 -4.46 27.64 -4.46 24.39 C-4.46 23.73 -4.46 23.07 -4.46 22.39 C-4.46 20.99 -4.46 19.6 -4.46 18.2 C-4.45 16.06 -4.46 13.91 -4.46 11.77 C-4.46 10.41 -4.46 9.06 -4.46 7.7 C-4.46 6.46 -4.46 5.23 -4.46 3.95 C-4.27 -0.13 -4.17 0.14 0 0 Z " fill="#B4A26F" transform="translate(162.326416015625,68.886474609375)"/>
<path d="M0 0 C13.73 -0.99 13.73 -0.99 18.21 1.68 C20.08 3.77 21.33 5.71 22.68 8.18 C23.57 9.61 24.46 11.03 25.35 12.46 C25.79 13.16 26.23 13.86 26.68 14.58 C27.01 15.11 27.34 15.64 27.68 16.18 C23.26 16.54 18.83 16.85 14.4 17.1 C12.89 17.19 11.39 17.3 9.88 17.43 C-2.6 18.47 -2.6 18.47 -6.8 15.31 C-8.6 13.01 -9.96 10.76 -11.32 8.18 C-12.28 6.81 -13.25 5.45 -14.25 4.11 C-14.94 3.14 -15.62 2.18 -16.32 1.18 C-12.39 0.82 -8.45 0.54 -4.51 0.31 C-3.01 0.22 -1.5 0.11 0 0 Z " fill="#987D56" transform="translate(706.31689453125,250.82373046875)"/>
<path d="M0 0 C-0.59 3.15 -1.5 4.91 -3.62 7.29 C-4.16 7.89 -4.7 8.5 -5.25 9.13 C-5.83 9.76 -6.41 10.4 -7 11.06 C-8.2 12.42 -9.39 13.77 -10.59 15.12 C-11.18 15.79 -11.76 16.45 -12.37 17.13 C-14.49 19.56 -16.53 22.05 -18.56 24.56 C-21.97 28.77 -25.46 32.9 -29 37 C-33.3 41.99 -37.5 47.03 -41.64 52.14 C-44.44 55.54 -47.31 58.86 -50.19 62.19 C-54.33 66.99 -58.29 71.85 -62 77 C-64.3 73.55 -64.14 72.77 -63.62 68.81 C-63.51 67.91 -63.4 67.01 -63.29 66.08 C-63.19 65.39 -63.1 64.71 -63 64 C-62.01 64 -61.02 64 -60 64 C-58.51 62.71 -58.51 62.71 -57.15 60.94 C-56.63 60.31 -56.11 59.67 -55.57 59.02 C-55.03 58.36 -54.49 57.69 -53.94 57 C-52.87 55.68 -51.79 54.37 -50.71 53.06 C-50.24 52.48 -49.77 51.89 -49.28 51.29 C-48.86 50.86 -48.44 50.44 -48 50 C-47.34 50 -46.68 50 -46 50 C-45.86 49.14 -45.86 49.14 -45.72 48.25 C-44.83 45.46 -43.51 44.07 -41.5 41.94 C-38.36 38.52 -35.36 35.04 -32.44 31.44 C-26.7 24.4 -26.7 24.4 -24.25 21.5 C-23.48 20.59 -23.48 20.59 -22.7 19.66 C-21 18 -21 18 -18.71 16.76 C-14.14 13.79 -11.06 9.38 -7.64 5.19 C-7.09 4.52 -6.53 3.86 -5.96 3.18 C-5.22 2.26 -5.22 2.26 -4.45 1.33 C-3 0 -3 0 0 0 Z " fill="#B4A270" transform="translate(661,39)"/>
<path d="M0 0 C4.06 -0.15 8.12 -0.23 12.19 -0.31 C13.91 -0.38 13.91 -0.38 15.67 -0.44 C24.2 -0.56 24.2 -0.56 28.03 2.13 C28.68 3.08 29.33 4.02 30 5 C30.74 6.02 31.48 7.03 32.24 8.08 C33.27 9.65 33.27 9.65 34.31 11.25 C35.01 12.31 35.71 13.36 36.43 14.45 C38 17 38 17 38 18 C13.51 19.91 13.51 19.91 7.92 16.87 C4.77 13.83 3.35 10.09 2 6 C1.34 5.01 0.68 4.02 0 3 C0 2.01 0 1.02 0 0 Z " fill="#987D56" transform="translate(758,39)"/>
<path d="M0 0 C0.76 0.21 1.53 0.41 2.31 0.62 C-1.31 7.4 -5.33 13.84 -9.56 20.25 C-10.89 22.26 -12.21 24.28 -13.54 26.29 C-14.21 27.33 -14.89 28.36 -15.59 29.42 C-17.73 32.68 -19.83 35.96 -21.93 39.24 C-22.62 40.3 -23.3 41.36 -24 42.45 C-25.32 44.5 -26.63 46.56 -27.94 48.61 C-28.53 49.53 -29.13 50.45 -29.74 51.4 C-30.26 52.22 -30.78 53.04 -31.32 53.88 C-31.77 54.45 -32.22 55.03 -32.69 55.62 C-33.35 55.62 -34.01 55.62 -34.69 55.62 C-34.69 54.97 -34.69 54.31 -34.69 53.62 C-35.68 53.62 -36.67 53.62 -37.69 53.62 C-38.02 52.31 -38.35 50.98 -38.69 49.62 C-38.03 49.62 -37.37 49.62 -36.69 49.62 C-35.38 47.98 -35.38 47.98 -34.11 45.82 C-33.61 45.01 -33.11 44.21 -32.6 43.38 C-32.07 42.51 -31.54 41.64 -31 40.75 C-29.91 39 -28.83 37.24 -27.74 35.49 C-26.95 34.23 -26.95 34.23 -26.15 32.93 C-23.91 29.4 -21.49 26 -19.06 22.6 C-17.5 20.36 -16.17 18.01 -14.85 15.62 C-13.2 12.79 -11.42 10.06 -9.62 7.31 C-8.62 5.77 -8.62 5.77 -7.59 4.2 C-5.28 1.07 -4.02 -0.56 0 0 Z " fill="#B5A370" transform="translate(918.6875,39.375)"/>
<path d="M0 0 C5.94 0.33 11.88 0.66 18 1 C19.53 4.06 19.1 7.27 19.06 10.62 C19.04 13.06 19.02 15.49 19 18 C13.06 18.33 7.12 18.66 1 19 C-0.65 15.69 -0.1 12 -0.06 8.38 C-0.04 5.61 -0.02 2.85 0 0 Z " fill="#6C4B32" transform="translate(158,83)"/>
<path d="M0 0 C0.7 0 1.41 0.01 2.13 0.01 C2.83 0.01 3.53 0 4.26 0 C9.5 0.01 9.5 0.01 10.63 1.14 C10.7 4 10.72 6.84 10.69 9.7 C10.69 10.51 10.68 11.31 10.68 12.14 C10.67 14.14 10.65 16.14 10.63 18.14 C5.35 18.14 0.07 18.14 -5.37 18.14 C-6.9 15.09 -6.51 11.92 -6.5 8.57 C-6.5 7.88 -6.5 7.18 -6.51 6.46 C-6.5 0.24 -6.21 0.01 0 0 Z " fill="#987D56" transform="translate(40.37109375,38.86328125)"/>
<path d="M0 0 C2.65 -0.03 5.29 -0.05 7.94 -0.06 C8.69 -0.07 9.45 -0.08 10.22 -0.09 C12.15 -0.1 14.08 -0.05 16 0 C17 1 17 1 17.1 4.6 C17.09 6.09 17.08 7.57 17.06 9.06 C17.04 11.68 17.02 14.3 17 17 C11.72 17.33 6.44 17.66 1 18 C-0.59 14.81 -0.1 11.37 -0.06 7.88 C-0.06 7.12 -0.05 6.37 -0.05 5.59 C-0.04 3.73 -0.02 1.86 0 0 Z " fill="#987D56" transform="translate(528,39)"/>
<path d="M0 0 C0 5.28 0 10.56 0 16 C-3.9 16.03 -3.9 16.03 -7.88 16.06 C-8.69 16.07 -9.51 16.08 -10.35 16.09 C-15.78 16.11 -15.78 16.11 -18 15 C-18 10.38 -18 5.76 -18 1 C-11.99 -0.5 -6.19 -0.06 0 0 Z " fill="#977C55" transform="translate(140,251)"/>
<path d="M0 0 C1.76 0.01 1.76 0.01 3.55 0.03 C4.44 0.04 5.33 0.05 6.25 0.06 C7.75 3.07 7.34 5.85 7.31 9.19 C7.3 10.47 7.29 11.75 7.29 13.07 C7.27 14.06 7.26 15.05 7.25 16.06 C4.62 16.09 2 16.11 -0.62 16.12 C-1.37 16.13 -2.12 16.14 -2.89 16.15 C-8.52 16.18 -8.52 16.18 -10.75 15.06 C-10.75 10.44 -10.75 5.82 -10.75 1.06 C-6.91 0.1 -3.93 -0.04 0 0 Z " fill="#977C55" transform="translate(885.75,250.9375)"/>
<path d="M0 0 C1.27 0.01 2.54 0.02 3.86 0.03 C5.32 0.04 5.32 0.04 6.81 0.06 C8.25 2.93 7.94 5.43 7.94 8.62 C7.94 10.39 7.94 10.39 7.95 12.19 C7.81 15.06 7.81 15.06 6.81 16.06 C4.12 16.14 1.45 16.15 -1.25 16.12 C-2.01 16.12 -2.77 16.12 -3.55 16.11 C-5.43 16.1 -7.31 16.08 -9.19 16.06 C-9.52 11.11 -9.85 6.16 -10.19 1.06 C-6.63 -0.12 -3.75 -0.03 0 0 Z " fill="#977C55" transform="translate(572.1875,250.9375)"/>
<path d="M0 0 C1.58 0.01 3.16 0.02 4.75 0.04 C5.55 0.04 6.36 0.04 7.19 0.05 C9.19 0.06 11.19 0.08 13.18 0.1 C13.18 5.05 13.18 10 13.18 15.1 C7.57 15.1 1.96 15.1 -3.82 15.1 C-4.86 11.98 -4.95 9.74 -4.94 6.47 C-4.94 5.49 -4.95 4.51 -4.95 3.5 C-4.73 -0.48 -4.19 0.11 0 0 Z " fill="#977C55" transform="translate(180.81640625,68.90234375)"/>
<path d="M0 0 C-0.57 3.81 -1.61 6.35 -3.73 9.55 C-4.29 10.39 -4.84 11.24 -5.42 12.11 C-6 12.98 -6.59 13.85 -7.19 14.75 C-7.75 15.61 -8.32 16.46 -8.9 17.34 C-10.59 19.9 -12.29 22.45 -14 25 C-15.14 26.71 -16.28 28.43 -17.43 30.14 C-18.28 31.43 -19.14 32.71 -20 34 C-23.88 32.23 -23.88 32.23 -25 30.12 C-25 28 -25 28 -23.19 26.16 C-22.47 25.44 -21.75 24.73 -21 24 C-19.92 22.49 -18.89 20.94 -17.91 19.38 C-17.35 18.5 -16.8 17.63 -16.22 16.73 C-15.65 15.83 -15.09 14.93 -14.5 14 C-13.37 12.21 -12.23 10.41 -11.09 8.62 C-10.35 7.44 -10.35 7.44 -9.58 6.23 C-5.15 0 -5.15 0 0 0 Z " fill="#6D4C33" transform="translate(902,56)"/>
<path d="M0 0 C1.32 0.33 2.64 0.66 4 1 C2.89 1.84 2.89 1.84 1.76 2.69 C-0.93 4.94 -2.95 7.19 -5.12 9.94 C-6.29 11.39 -6.29 11.39 -7.48 12.88 C-7.89 13.39 -8.3 13.9 -8.72 14.43 C-10.9 17.11 -13.14 19.74 -15.38 22.38 C-16.06 23.18 -16.06 23.18 -16.76 24.01 C-19.15 26.82 -21.54 29.63 -23.93 32.43 C-32.27 41.66 -32.27 41.66 -39 52 C-39.66 52 -40.32 52 -41 52 C-42 49 -42 49 -41.06 46.81 C-40.71 46.21 -40.36 45.62 -40 45 C-39.34 45 -38.68 45 -38 45 C-36.62 43.68 -36.62 43.68 -35.25 41.94 C-34.72 41.31 -34.2 40.67 -33.66 40.02 C-33.11 39.36 -32.56 38.69 -32 38 C-30.92 36.68 -29.84 35.37 -28.75 34.06 C-28.27 33.48 -27.79 32.89 -27.3 32.29 C-26 31 -26 31 -24 31 C-23.86 30.14 -23.86 30.14 -23.72 29.25 C-22.83 26.46 -21.51 25.07 -19.5 22.94 C-15.53 18.62 -11.82 14.15 -8.12 9.6 C-5.47 6.35 -2.75 3.17 0 0 Z " fill="#826645" transform="translate(639,58)"/>
<path d="M0 0 C-3.19 6.09 -6.73 11.61 -11 17 C-13.48 16.01 -13.48 16.01 -16 15 C-14.62 11.17 -12.85 8.07 -10.5 4.75 C-9.89 3.88 -9.28 3.01 -8.66 2.11 C-5.82 -1.5 -4.22 -1 0 0 Z " fill="#987E57" transform="translate(921,40)"/>
<path d="M0 0 C0.99 0 1.98 0 3 0 C2.41 3.21 1.42 5.01 -0.72 7.45 C-1.26 8.07 -1.8 8.69 -2.35 9.33 C-2.92 9.96 -3.48 10.6 -4.06 11.25 C-4.63 11.9 -5.2 12.55 -5.78 13.22 C-7.18 14.82 -8.59 16.41 -10 18 C-10.99 17.67 -11.98 17.34 -13 17 C-11.26 12.85 -8.43 9.66 -5.56 6.25 C-5.07 5.65 -4.58 5.05 -4.08 4.43 C-2.79 2.89 -1.4 1.44 0 0 Z " fill="#997F58" transform="translate(658,39)"/>
<path d="M0 0 C0.66 0.33 1.32 0.66 2 1 C1.43 1.69 0.86 2.38 0.28 3.09 C-8.11 12.53 -8.11 12.53 -15 23 C-15.66 23 -16.32 23 -17 23 C-18 20 -18 20 -17.06 17.81 C-16.54 16.92 -16.54 16.92 -16 16 C-15.34 16 -14.68 16 -14 16 C-12.62 14.68 -12.62 14.68 -11.25 12.94 C-10.72 12.31 -10.2 11.67 -9.66 11.02 C-9.11 10.36 -8.56 9.69 -8 9 C-6.92 7.68 -5.84 6.37 -4.75 5.06 C-4.03 4.18 -4.03 4.18 -3.3 3.29 C-2 2 -2 2 0 2 C0 1.34 0 0.68 0 0 Z " fill="#7A5C3E" transform="translate(615,87)"/>
<path d="M0 0 C0 0.99 0 1.98 0 3 C-0.66 3 -1.32 3 -2 3 C-2.25 3.62 -2.5 4.24 -2.75 4.88 C-4.21 7.35 -5.38 7.95 -8 9 C-8 6 -8 6 -6.25 3.94 C-4.21 2.18 -2.46 1.05 0 0 Z " fill="#B5A37B" transform="translate(281,63)"/>
<path d="M0 0 C1.32 0.33 2.64 0.66 4 1 C3.26 1.56 2.51 2.11 1.75 2.69 C-0.92 4.93 -2.92 7.22 -5 10 C-5.99 9.67 -6.98 9.34 -8 9 C-5.36 6.03 -2.72 3.06 0 0 Z " fill="#836746" transform="translate(639,58)"/>
</svg>
